<svg width="224" height="50" viewBox="0 0 224 50" fill="none" xmlns="http://www.w3.org/2000/svg">
<g clip-path="url(#clip0_3478_3969)">
<path d="M144.147 13.4473C141.963 13.4471 139.828 14.0922 138.012 15.301C136.196 16.5098 134.781 18.228 133.945 20.2383C133.109 22.2485 132.89 24.4606 133.316 26.5948C133.742 28.7289 134.794 30.6893 136.338 32.2279C137.883 33.7666 139.85 34.8144 141.992 35.2388C144.134 35.6633 146.355 35.4454 148.373 34.6126C150.39 33.7798 152.115 32.3696 153.328 30.5603C154.541 28.7509 155.189 26.6238 155.189 24.4479C155.186 21.5312 154.022 18.7348 151.952 16.6724C149.882 14.61 147.075 13.4501 144.147 13.4473ZM144.147 31.3285C142.781 31.3285 141.446 30.925 140.311 30.1691C139.175 29.4131 138.29 28.3386 137.767 27.0815C137.245 25.8244 137.108 24.4411 137.375 23.1066C137.641 21.772 138.299 20.5462 139.264 19.584C140.23 18.6219 141.461 17.9666 142.8 17.7012C144.14 17.4357 145.528 17.572 146.79 18.0927C148.052 18.6134 149.13 19.4952 149.889 20.6265C150.648 21.7579 151.053 23.088 151.053 24.4487C151.053 28.2467 147.927 31.3285 144.147 31.3285Z" fill="#001426"/>
<path d="M130.662 31.8798H131.542V36.0014H130.662C128.374 35.9977 126.18 35.0904 124.563 33.4782C122.945 31.8661 122.034 29.6807 122.031 27.4009V8.50092H126.167V13.9986H131.509V18.1194H126.167V27.4009C126.169 28.5881 126.643 29.7261 127.486 30.5656C128.328 31.4051 129.471 31.8777 130.662 31.8798Z" fill="#001426"/>
<path d="M181.192 13.4473C179.008 13.4471 176.873 14.0922 175.057 15.301C173.241 16.5098 171.825 18.228 170.989 20.2383C170.153 22.2485 169.935 24.4606 170.361 26.5948C170.787 28.7289 171.839 30.6893 173.383 32.2279C174.927 33.7666 176.895 34.8144 179.037 35.2388C181.179 35.6633 183.399 35.4454 185.417 34.6126C187.435 33.7798 189.16 32.3696 190.373 30.5603C191.586 28.7509 192.234 26.6238 192.233 24.4479C192.231 21.5311 191.067 18.7346 188.997 16.6721C186.926 14.6097 184.12 13.4499 181.192 13.4473ZM181.192 31.3285C179.826 31.3285 178.491 30.925 177.356 30.1691C176.22 29.4131 175.335 28.3386 174.812 27.0815C174.29 25.8244 174.153 24.4411 174.419 23.1066C174.686 21.772 175.343 20.5462 176.309 19.584C177.275 18.6219 178.505 17.9666 179.845 17.7012C181.184 17.4357 182.573 17.572 183.835 18.0927C185.096 18.6134 186.175 19.4952 186.934 20.6265C187.692 21.7579 188.097 23.088 188.097 24.4487C188.097 28.2467 184.97 31.3285 181.192 31.3285Z" fill="#001426"/>
<path d="M212.958 13.4473C211.184 13.4459 209.435 13.8707 207.86 14.6858C206.285 15.5009 204.93 16.6822 203.91 18.1297C202.891 19.5772 202.237 21.2482 202.003 23.0011C201.77 24.754 201.964 26.5371 202.569 28.1995C203.174 29.8618 204.172 31.3543 205.479 32.5506C206.786 33.7468 208.364 34.6116 210.077 35.0715C211.791 35.5314 213.591 35.573 215.324 35.1928C217.058 34.8125 218.673 34.0216 220.035 32.887V35.0621H223.992V24.7671C223.992 24.6604 224 24.5555 224 24.4479C223.997 21.5312 222.833 18.7348 220.763 16.6724C218.693 14.61 215.886 13.4501 212.958 13.4473ZM212.958 31.3285C211.593 31.3285 210.258 30.925 209.122 30.1691C207.986 29.4131 207.101 28.3386 206.579 27.0815C206.056 25.8244 205.919 24.4411 206.186 23.1066C206.452 21.772 207.11 20.5462 208.076 19.584C209.041 18.6219 210.272 17.9666 211.611 17.7012C212.951 17.4357 214.339 17.572 215.601 18.0927C216.863 18.6134 217.941 19.4952 218.7 20.6265C219.459 21.7579 219.864 23.088 219.864 24.4487C219.864 28.2467 216.737 31.3285 212.958 31.3285Z" fill="#001426"/>
<path d="M166.589 13.4482H168.553V17.5699H166.589C165.397 17.5717 164.254 18.0444 163.411 18.8844C162.569 19.7243 162.095 20.8629 162.093 22.0505V35.1406H157.957V22.0505C157.961 19.7709 158.871 17.5857 160.489 15.9737C162.107 14.3618 164.301 13.4545 166.589 13.4508" fill="#001426"/>
<path d="M199.149 7.94965H195.003V35.0612H199.149V7.94965Z" fill="#001426"/>
<path d="M94.4099 22.5983V35.676H90.2737V22.5983C90.2737 21.4106 89.8002 20.2716 88.9573 19.4318C88.1143 18.592 86.9711 18.1202 85.779 18.1202C84.587 18.1202 83.4437 18.592 82.6008 19.4318C81.7579 20.2716 81.2843 21.4106 81.2843 22.5983V35.676H77.1473V22.5983C77.1307 21.4214 76.6498 20.2983 75.8086 19.4719C74.9674 18.6455 73.8335 18.1822 72.6522 18.1822C71.4708 18.1822 70.3369 18.6455 69.4957 19.4719C68.6545 20.2983 68.1736 21.4214 68.157 22.5983V35.676H64.02V22.5983C64.02 17.8618 67.8959 13.9986 72.619 13.9986C73.8698 13.9966 75.106 14.2656 76.2421 14.787C77.3782 15.3083 78.387 16.0694 79.1986 17.0177C80.3452 15.6792 81.876 14.7231 83.5848 14.2779C85.2935 13.8328 87.0982 13.9202 88.7556 14.5282C90.4131 15.1363 91.8436 16.2358 92.8546 17.6787C93.8655 19.1216 94.4084 20.8386 94.4099 22.5983Z" fill="#001426"/>
<path d="M108.253 13.9986C102.13 13.9986 97.1791 18.9317 97.1791 24.9991C97.166 26.452 97.442 27.893 97.991 29.239C98.54 30.585 99.3512 31.8093 100.378 32.8413C101.404 33.8732 102.626 34.6924 103.972 35.2514C105.318 35.8104 106.762 36.0982 108.22 36.0982C109.679 36.0982 111.122 35.8104 112.468 35.2514C113.814 34.6924 115.036 33.8732 116.063 32.8413C117.089 31.8093 117.9 30.585 118.449 29.239C118.998 27.893 119.274 26.452 119.261 24.9991C119.294 18.9317 114.343 13.9986 108.253 13.9986ZM108.253 31.8798C106.887 31.8798 105.552 31.4763 104.416 30.7203C103.281 29.9644 102.395 28.8899 101.873 27.6328C101.35 26.3757 101.213 24.9924 101.48 23.6578C101.746 22.3233 102.404 21.0974 103.37 20.1353C104.335 19.1731 105.566 18.5179 106.905 18.2524C108.245 17.987 109.633 18.1232 110.895 18.6439C112.157 19.1646 113.235 20.0464 113.994 21.1778C114.753 22.3092 115.158 23.6393 115.158 25C115.158 28.798 112.031 31.8798 108.253 31.8798Z" fill="#001426"/>
<path d="M40.4071 37.6332C40.4071 37.6332 39.1934 32.1602 37.2147 28.8906C36.1399 27.1054 34.4782 25.6536 32.2658 25.695C30.7006 25.7277 29.3496 26.5771 27.6623 28.9312C26.645 30.3424 25.0807 33.9358 25.0807 33.9358C25.0807 33.9358 24.4716 32.5333 23.7616 31.138C23.3393 30.2939 22.8851 29.4621 22.5009 28.9329C20.8188 26.5806 19.4564 25.7294 17.8973 25.6968C15.6841 25.6553 14.0224 27.108 12.9485 28.8844C10.9698 32.162 9.76138 37.6349 9.76138 37.6349H7.95624L17.5866 6.1468L25.0232 30.7393L25.0789 30.7799L25.1285 30.7393L32.5792 6.14769L42.2185 37.6358L40.4071 37.6332ZM25.086 0C11.2274 0 0 11.1902 0 24.9991C0 38.808 11.2274 50 25.086 50C38.9446 50 50.1818 38.8089 50.1818 24.9991C50.1818 11.2705 39.1305 0 25.086 0Z" fill="#001426"/>
</g>
<defs>
<clipPath id="clip0_3478_3969">
<rect width="224" height="50" fill="white"/>
</clipPath>
</defs>
</svg>
