<svg width="212" height="54" viewBox="0 0 212 54" fill="none" xmlns="http://www.w3.org/2000/svg">
<g clip-path="url(#clip0_3248_3640)">
<path d="M91.1627 26.4421V13.9608H99.0018V7.89091H91.1627V0H85.074V26.4421C85.074 28.1024 85.4023 29.7464 86.0401 31.2801C86.6778 32.8138 87.6126 34.2071 88.7909 35.3804C89.9693 36.5537 91.368 37.4839 92.9072 38.1179C94.4464 38.7519 96.0959 39.0772 97.7613 39.0752H99.0475V33.0052H97.7613C96.0151 33.0013 94.3413 32.309 93.1051 31.0795C91.869 29.8499 91.1707 28.1829 91.1627 26.4421Z" fill="#001428"/>
<path d="M40.1396 10.2809C38.8738 9.20227 37.4073 8.38272 35.8238 7.86911C34.2402 7.35549 32.5707 7.15785 30.9106 7.28749C29.2505 7.41713 27.6322 7.87151 26.1482 8.62467C24.6642 9.37783 23.3436 10.415 22.2617 11.677C20.5831 9.71409 18.3407 8.31192 15.8373 7.65986C13.3339 7.00779 10.6901 7.13722 8.26288 8.03068C5.83563 8.92413 3.74183 10.5386 2.2642 12.656C0.786571 14.7735 -0.00372622 17.292 1.32092e-05 19.8714V39.0752H6.08869V19.6893C6.16558 17.9817 6.9062 16.371 8.15369 15.1983C9.40118 14.0256 11.0576 13.383 12.772 13.4067C14.4865 13.4304 16.1244 14.1184 17.3388 15.3251C18.5532 16.5318 19.2488 18.1623 19.2783 19.8714V39.0752H25.3669V19.8714C25.4251 18.1664 26.1453 16.5506 27.3757 15.3649C28.6061 14.1793 30.2505 13.5165 31.9617 13.5165C33.673 13.5165 35.3173 14.1793 36.5478 15.3649C37.7782 16.5506 38.4984 18.1664 38.5565 19.8714V39.0752H44.6452V19.8714C44.6361 18.0429 44.2285 16.2381 43.4505 14.5821C42.6725 12.9262 41.5428 11.4586 40.1396 10.2809Z" fill="#001428"/>
<path d="M64.8901 7.33703C61.6846 7.32651 58.548 8.26452 55.8776 10.0323C53.2072 11.8 51.1231 14.318 49.8891 17.2673C48.6551 20.2167 48.3267 23.4648 48.9456 26.6003C49.5645 29.7358 51.1028 32.6177 53.3657 34.8811C55.6286 37.1445 58.5143 38.6875 61.6575 39.3148C64.8006 39.9421 68.0598 39.6255 71.0223 38.405C73.9848 37.1845 76.5174 35.1151 78.2994 32.4588C80.0814 29.8024 81.0326 26.6787 81.0326 23.483C81.0266 19.2119 79.3257 15.1166 76.3012 12.0914C73.2767 9.06628 69.1744 7.35707 64.8901 7.33703ZM64.8901 33.5819C62.8862 33.5834 60.9269 32.9924 59.26 31.8836C57.5932 30.7748 56.2936 29.1982 55.5257 27.353C54.7578 25.5078 54.5561 23.477 54.9461 21.5175C55.3361 19.558 56.3003 17.7579 57.7167 16.3448C59.1331 14.9317 60.9381 13.9691 62.9034 13.5788C64.8686 13.1885 66.9058 13.3881 68.7573 14.1522C70.6087 14.9163 72.1913 16.2107 73.3047 17.8716C74.4181 19.5325 75.0125 21.4853 75.0125 23.483C75.0135 24.8089 74.7524 26.1219 74.2441 27.3471C73.7359 28.5723 72.9904 29.6857 72.0504 30.6235C71.1103 31.5614 69.9941 32.3054 68.7655 32.813C67.5369 33.3206 66.22 33.5819 64.8901 33.5819Z" fill="#001428"/>
<path d="M117.253 7.33703C114.048 7.33703 110.915 8.28461 108.25 10.0599C105.585 11.8352 103.508 14.3585 102.282 17.3107C101.056 20.2628 100.735 23.5111 101.361 26.6448C101.987 29.7785 103.531 32.6568 105.798 34.9156C108.065 37.1744 110.952 38.7123 114.096 39.3348C117.24 39.9572 120.498 39.6362 123.459 38.4124C126.419 37.1886 128.949 35.117 130.729 32.4596C132.509 29.8021 133.458 26.6782 133.456 23.483C133.455 21.3617 133.035 19.2614 132.22 17.3019C131.405 15.3424 130.21 13.5622 128.705 12.0629C127.2 10.5636 125.413 9.37461 123.446 8.56374C121.48 7.75287 119.373 7.33603 117.245 7.33703H117.253ZM117.253 33.5819C115.249 33.5819 113.291 32.9896 111.625 31.8799C109.959 30.7702 108.66 29.193 107.894 27.3477C107.127 25.5024 106.926 23.4718 107.317 21.5129C107.708 19.5539 108.673 17.7544 110.09 16.3421C111.506 14.9297 113.311 13.9679 115.276 13.5782C117.241 13.1886 119.278 13.3886 121.129 14.1529C122.98 14.9173 124.562 16.2117 125.675 17.8724C126.789 19.5332 127.383 21.4857 127.383 23.483C127.383 26.1614 126.315 28.7301 124.416 30.624C122.516 32.5179 119.939 33.5819 117.253 33.5819Z" fill="#001428"/>
<path d="M178.375 13.4221C176.308 10.7876 173.468 8.86176 170.25 7.91323C167.032 6.9647 163.598 7.04072 160.426 8.1307C157.254 9.22068 154.502 11.2703 152.554 13.9937C150.606 16.7172 149.559 19.9788 149.559 23.3237C149.559 26.6686 150.606 29.9302 152.554 32.6537C154.502 35.3771 157.254 37.4267 160.426 38.5167C163.598 39.6067 167.032 39.6827 170.25 38.7342C173.468 37.7856 176.308 35.8598 178.375 33.2253C178.375 34.5 178.375 35.7671 178.375 37.019C178.375 46.1239 172.583 50.7901 164.425 50.7901C160.314 50.7958 156.277 49.6948 152.742 47.6034L151.151 50.5853C155.183 52.848 159.737 54.0247 164.364 53.9996C174.479 53.9996 181.8 48.0207 181.8 37.239V7.20804H178.383L178.375 13.4221ZM165.68 35.9112C163.182 35.9112 160.739 35.1725 158.661 33.7886C156.584 32.4046 154.964 30.4375 154.008 28.1361C153.052 25.8346 152.802 23.3021 153.289 20.8589C153.777 18.4157 154.98 16.1715 156.747 14.41C158.514 12.6486 160.765 11.449 163.216 10.963C165.666 10.477 168.207 10.7265 170.515 11.6798C172.824 12.6331 174.797 14.2474 176.185 16.3187C177.573 18.3899 178.314 20.825 178.314 23.3161C178.314 24.9701 177.988 26.6079 177.353 28.1361C176.718 29.6642 175.787 31.0526 174.614 32.2222C173.441 33.3918 172.048 34.3195 170.515 34.9525C168.982 35.5854 167.34 35.9112 165.68 35.9112Z" fill="#001428"/>
<path d="M196.565 10.1671H196.527L194.244 11.3887L193.901 10.0457L196.763 8.52825H198.285V21.5558H196.573L196.565 10.1671Z" fill="#001428"/>
<path d="M208.514 21.5558V18.0049H202.426V16.8441L208.255 8.4979H210.173V16.624H212V18.0049H210.173V21.5558H208.514ZM208.514 16.624V12.2688C208.514 11.586 208.514 10.9031 208.575 10.2278H208.514C208.111 10.9866 207.791 11.548 207.426 12.1474L204.229 16.5785V16.624H208.514Z" fill="#001428"/>
</g>
<defs>
<clipPath id="clip0_3248_3640">
<rect width="212" height="54" fill="white"/>
</clipPath>
</defs>
</svg>
