<svg width="60" height="60" viewBox="0 0 60 60" fill="none" xmlns="http://www.w3.org/2000/svg">
<path d="M42.4641 20.7187H34.4402C34.4167 20.7185 34.3937 20.7113 34.3743 20.6982C34.3549 20.685 34.3398 20.6664 34.3311 20.6447C34.3223 20.623 34.3203 20.5992 34.3252 20.5763C34.3301 20.5535 34.3418 20.5326 34.3587 20.5164L35.3589 19.5197L40.36 14.5544C40.4207 14.4945 40.4623 14.418 40.4793 14.3346C40.4963 14.2512 40.488 14.1647 40.4555 14.0859C40.423 14.0072 40.3677 13.9398 40.2966 13.8923C40.2256 13.8447 40.1419 13.8192 40.0562 13.8189H34.3995V12.3219C34.3995 11.4193 34.0386 10.5536 33.396 9.91499C32.7535 9.27639 31.882 8.91714 30.9728 8.91617H29.3429C29.3261 8.91638 29.3095 8.91239 29.2947 8.90458C29.2799 8.89676 29.2673 8.88537 29.258 8.87145C29.2488 8.85753 29.2433 8.84152 29.2419 8.82491C29.2405 8.8083 29.2434 8.79162 29.2503 8.7764C29.408 8.387 29.4897 7.97137 29.491 7.55165V7.44867C29.4901 6.60944 29.1536 5.80493 28.5555 5.21185C27.9575 4.61877 27.1468 4.28564 26.3015 4.28564H19.2408C18.3958 4.28564 17.5855 4.61889 16.9881 5.21207C16.3906 5.80526 16.0549 6.60978 16.0549 7.44867V7.55165C16.0542 7.97156 16.136 8.38758 16.2957 8.7764C16.3017 8.79195 16.3038 8.80871 16.3019 8.82525C16.2999 8.84178 16.2939 8.8576 16.2845 8.87134C16.275 8.88508 16.2623 8.89633 16.2475 8.90414C16.2327 8.91195 16.2162 8.91608 16.1994 8.91617H14.5695C13.6607 8.91617 12.7891 9.2746 12.1465 9.91261C11.5038 10.5506 11.1428 11.416 11.1428 12.3183V52.3085C11.1428 53.2111 11.5037 54.0768 12.1462 54.7154C12.7887 55.354 13.6603 55.7132 14.5695 55.7142H30.9728C31.882 55.7132 32.7535 55.354 33.396 54.7154C34.0386 54.0768 34.3995 53.2111 34.3995 52.3085V29.6671L35.3589 28.7145L42.7419 21.3844C42.7969 21.3298 42.8344 21.2603 42.8495 21.1847C42.8647 21.109 42.8569 21.0306 42.8272 20.9593C42.7974 20.888 42.7471 20.8271 42.6824 20.7843C42.6178 20.7414 42.5418 20.7186 42.4641 20.7187ZM19.2408 6.33425H26.3015C26.5962 6.33425 26.8789 6.4505 27.0873 6.65743C27.2958 6.86435 27.4128 7.145 27.4128 7.43764C27.4158 7.79632 27.2756 8.14158 27.023 8.39796C26.7703 8.65434 26.4257 8.80098 26.0644 8.80583H19.4816C19.119 8.80583 18.7714 8.66284 18.515 8.40833C18.2586 8.15381 18.1146 7.80861 18.1146 7.44867C18.1131 7.3016 18.1413 7.15572 18.1974 7.0196C18.2535 6.88348 18.3364 6.75987 18.4414 6.65605C18.5463 6.55222 18.6711 6.47026 18.8084 6.415C18.9456 6.35974 19.0927 6.33229 19.2408 6.33425ZM32.3398 52.3085C32.3398 52.6684 32.1958 53.0136 31.9394 53.2681C31.6831 53.5226 31.3354 53.6656 30.9728 53.6656H14.5695C14.2069 53.6656 13.8592 53.5226 13.6029 53.2681C13.3465 53.0136 13.2025 52.6684 13.2025 52.3085V12.3219C13.2035 11.9626 13.3479 11.6184 13.6042 11.3647C13.8604 11.1109 14.2076 10.9685 14.5695 10.9685H30.9728C31.3347 10.9685 31.6819 11.1109 31.9381 11.3647C32.1943 11.6184 32.3388 11.9626 32.3398 12.3219V13.8225H26.2496C26.1035 13.8216 25.9616 13.8715 25.8487 13.9635C25.7357 14.0556 25.6587 14.1839 25.631 14.3264L23.0934 26.9233C23.074 27.0121 23.0749 27.1041 23.0961 27.1925C23.1173 27.2809 23.1582 27.3634 23.2158 27.434C23.2734 27.5046 23.3462 27.5615 23.4289 27.6004C23.5116 27.6394 23.602 27.6593 23.6936 27.6589H27.3499C27.368 27.6589 27.3858 27.663 27.4021 27.6709C27.4183 27.6788 27.4325 27.6903 27.4436 27.7045C27.4547 27.7187 27.4624 27.7353 27.466 27.7529C27.4697 27.7705 27.4692 27.7886 27.4647 27.806L24.7901 38.4316C24.7739 38.4949 24.7791 38.5618 24.8049 38.6219C24.8308 38.682 24.8758 38.732 24.9331 38.7642C24.9903 38.7964 25.0567 38.809 25.1219 38.8001C25.1871 38.7911 25.2475 38.7612 25.2939 38.7148L32.3324 31.7267L32.3398 52.3085ZM37.2112 23.5801L35.3589 25.4191L33.2992 27.464L29.1614 31.5722C29.1431 31.5915 29.1188 31.6042 29.0924 31.6081C29.066 31.6119 29.0391 31.6069 29.016 31.5937C28.9928 31.5805 28.9748 31.56 28.9649 31.5354C28.955 31.5108 28.9537 31.4836 28.9613 31.4582L30.4727 25.4669C30.4773 25.4495 30.4777 25.4313 30.4741 25.4137C30.4704 25.3961 30.4627 25.3796 30.4517 25.3654C30.4406 25.3512 30.4263 25.3397 30.4101 25.3318C30.3938 25.3239 30.376 25.3197 30.3579 25.3198H26.1681C26.1249 25.32 26.0821 25.3107 26.0428 25.2925C26.0036 25.2744 25.9689 25.2478 25.9413 25.2147C25.9137 25.1817 25.8938 25.1429 25.883 25.1013C25.8723 25.0597 25.871 25.0162 25.8792 24.974L27.5647 16.5994C27.5897 16.4735 27.6581 16.3601 27.7582 16.2789C27.8583 16.1977 27.9837 16.1536 28.113 16.1543H34.6032C34.6708 16.1547 34.7369 16.1748 34.7931 16.2122C34.8493 16.2496 34.8931 16.3026 34.9192 16.3645C34.9453 16.4265 34.9524 16.4947 34.9397 16.5607C34.927 16.6266 34.895 16.6874 34.8477 16.7355L33.2992 18.2728L29.0391 22.5025C28.9933 22.5472 28.962 22.6046 28.9493 22.6671C28.9365 22.7296 28.9429 22.7945 28.9676 22.8534C28.9923 22.9124 29.0342 22.9626 29.0878 22.9977C29.1415 23.0328 29.2045 23.0512 29.2688 23.0505H36.9889C37.0503 23.0513 37.1101 23.07 37.161 23.1042C37.2119 23.1383 37.2515 23.1865 37.2752 23.2428C37.2988 23.2991 37.3053 23.361 37.2939 23.421C37.2826 23.4809 37.2538 23.5362 37.2112 23.5801Z" fill="white"/>
<path d="M17.2887 27.4285H20.8553C22.1892 27.4285 22.1928 25.2856 20.8553 25.2856H17.2887C15.9513 25.2856 15.9513 27.4285 17.2887 27.4285Z" fill="white"/>
<path d="M20.8553 31.2856H17.2887C15.9513 31.2856 15.9513 33.4285 17.2887 33.4285H20.8553C22.1892 33.4175 22.1928 31.2856 20.8553 31.2856Z" fill="white"/>
<path d="M20.8472 36.8572H17.2933C15.9498 36.8572 15.9498 39 17.2933 39H20.8759C22.1871 39 22.1907 36.8572 20.8472 36.8572Z" fill="white"/>
<path d="M17.2887 21.8572H20.8553C22.1892 21.8572 22.1928 19.7144 20.8553 19.7144H17.2887C15.9513 19.7144 15.9513 21.8572 17.2887 21.8572Z" fill="white"/>
<path d="M17.2887 15.8572H20.8553C22.1892 15.8572 22.1928 13.7144 20.8553 13.7144H17.2887C15.9513 13.7144 15.9513 15.8572 17.2887 15.8572Z" fill="white"/>
<path d="M17.3008 45H28.129C29.4789 45 29.4825 42.8572 28.129 42.8572H17.3008C15.9473 42.8572 15.9473 45 17.3008 45Z" fill="white"/>
<path d="M28.0999 48.8572H16.9002C15.5114 48.8572 15.5077 51 16.9002 51H28.0999C29.4887 51 29.4924 48.8572 28.0999 48.8572Z" fill="white"/>
<path d="M47.852 28.6876H44.3703C44.36 28.6877 44.3498 28.6848 44.3411 28.6792C44.3324 28.6736 44.3256 28.6656 44.3216 28.6562C44.3176 28.6468 44.3166 28.6364 44.3187 28.6264C44.3207 28.6164 44.3258 28.6073 44.3332 28.6001L44.7675 28.1738L46.9315 26.0278C46.9584 26.0023 46.9769 25.9694 46.9845 25.9334C46.9921 25.8975 46.9884 25.8601 46.9739 25.8262C46.9595 25.7923 46.935 25.7635 46.9035 25.7436C46.8721 25.7236 46.8353 25.7134 46.7979 25.7144H40.8144C40.7515 25.7148 40.6907 25.7364 40.6421 25.7755C40.5934 25.8146 40.5599 25.8689 40.5472 25.9294L39.4336 31.3365C39.4259 31.3741 39.4268 31.413 39.4363 31.4503C39.4459 31.4876 39.4637 31.5223 39.4886 31.5519C39.5135 31.5816 39.5448 31.6054 39.5802 31.6217C39.6156 31.638 39.6543 31.6464 39.6935 31.6462H41.2821C41.2901 31.6464 41.2979 31.6484 41.3049 31.6521C41.312 31.6558 41.318 31.661 41.3227 31.6673C41.3274 31.6736 41.3305 31.6809 41.3318 31.6886C41.3331 31.6964 41.3327 31.7043 41.3304 31.7118L40.1723 36.2699C40.1653 36.2971 40.1676 36.3258 40.1789 36.3516C40.1902 36.3773 40.2099 36.3987 40.2348 36.4124C40.2598 36.4261 40.2886 36.4313 40.3169 36.4273C40.3452 36.4233 40.3713 36.4102 40.3913 36.3901L43.8618 32.9834L44.7564 32.1053L47.9597 28.9572C47.9794 28.9346 47.9925 28.9072 47.9976 28.8778C48.0026 28.8485 47.9994 28.8183 47.9884 28.7906C47.9773 28.7629 47.9588 28.7387 47.9348 28.7205C47.9107 28.7024 47.8821 28.691 47.852 28.6876Z" fill="white"/>
<path d="M48.7481 18.0578H46.6641C46.6579 18.0584 46.6517 18.057 46.6463 18.0539C46.641 18.0508 46.6368 18.0461 46.6343 18.0404C46.6319 18.0348 46.6313 18.0286 46.6327 18.0226C46.6341 18.0167 46.6374 18.0113 46.6421 18.0073L46.9025 17.7511L48.2014 16.4735C48.218 16.4584 48.2295 16.4385 48.2343 16.4168C48.2391 16.395 48.2369 16.3723 48.2281 16.3517C48.2193 16.3312 48.2042 16.3138 48.185 16.3021C48.1658 16.2903 48.1433 16.2846 48.1207 16.2858H44.536C44.4982 16.2865 44.4617 16.2997 44.4325 16.3233C44.4032 16.3469 44.3828 16.3794 44.3746 16.4157L43.7178 19.6638C43.7129 19.6864 43.7132 19.7098 43.7187 19.7323C43.7241 19.7548 43.7346 19.7758 43.7494 19.7938C43.7642 19.8118 43.7828 19.8263 43.804 19.8363C43.8252 19.8463 43.8484 19.8514 43.8719 19.8515H44.8222C44.8268 19.8513 44.8313 19.8522 44.8354 19.8541C44.8396 19.856 44.8432 19.8588 44.8461 19.8623C44.8489 19.8658 44.8509 19.8699 44.8519 19.8743C44.8528 19.8787 44.8527 19.8832 44.8516 19.8876L44.1581 22.6232C44.1557 22.6391 44.1583 22.6555 44.1656 22.6699C44.1728 22.6844 44.1844 22.6964 44.1988 22.7042C44.2131 22.7121 44.2296 22.7154 44.2459 22.7138C44.2622 22.7122 44.2777 22.7058 44.2902 22.6953L46.3669 20.6491L46.9025 20.1221L48.8178 18.2383C48.835 18.225 48.8475 18.2066 48.8534 18.1858C48.8593 18.165 48.8583 18.1429 48.8505 18.1228C48.8427 18.1026 48.8286 18.0854 48.8101 18.0737C48.7917 18.062 48.7699 18.0565 48.7481 18.0578Z" fill="white"/>
</svg>
