<svg width="61" height="60" viewBox="0 0 61 60" fill="none" xmlns="http://www.w3.org/2000/svg">
<path d="M55.1691 27.1425C55.1691 25.7589 55.2231 24.361 55.1691 22.9738C55.1636 22.2077 54.8594 21.474 54.3212 20.9289C53.783 20.3838 53.0533 20.0704 52.2875 20.0554C51.985 20.0554 51.6788 20.0554 51.3762 20.0554H40.7072V12.6945C40.7072 11.3073 40.7613 9.90938 40.7072 8.52583C40.7036 7.75881 40.4001 7.02366 39.8616 6.4776C39.3231 5.93153 38.5923 5.61791 37.8257 5.6038C37.5231 5.6038 37.2169 5.6038 36.9144 5.6038H21.6601C17.1576 5.6038 12.6552 5.53174 8.13833 5.6038C6.12844 5.63623 5.04785 7.08463 5.04785 8.98701V37.811C5.04785 39.7061 6.12844 41.1617 8.13833 41.1942C11.924 41.2554 15.7024 41.2662 19.4917 41.2626V52.2626C19.4917 54.1577 20.5723 55.6097 22.5858 55.6458C32.1778 55.8007 41.7842 55.6458 51.3798 55.6458H52.2911C52.3651 55.6451 52.4387 55.6367 52.5108 55.6206C53.2373 55.5516 53.912 55.2145 54.4035 54.6749C54.8949 54.1354 55.1679 53.4321 55.1691 52.7021C55.1691 52.2554 55.1691 51.8014 55.1691 51.351V27.1425ZM7.64846 39.317C6.48863 38.9783 6.88485 36.7265 6.88485 35.8365C6.88485 35.2817 6.76599 9.74004 6.88485 8.52223C7.02533 7.09905 8.76867 7.44133 9.79163 7.44133C10.1122 7.44133 36.529 7.39809 37.6672 7.44133C39.0863 7.49898 38.8846 8.78885 38.8846 9.80489V37.8686C38.8846 38.5892 38.7514 39.3098 37.8473 39.3566C36.4569 39.3566 7.95103 39.4107 7.64846 39.317ZM53.3141 24.2565V27.2866H51.6824C50.501 27.2866 50.4974 29.1241 51.6824 29.1241H53.3141V32.1074H51.6824C50.501 32.1074 50.4974 33.9486 51.6824 33.9486H53.3141V36.9174H51.6824C50.501 36.9174 50.4974 38.7585 51.6824 38.7585H53.3141V41.9616H51.6824C50.501 41.9616 50.4974 43.8027 51.6824 43.8027H53.3141V46.786H51.6824C50.501 46.786 50.4974 48.6235 51.6824 48.6235H53.3141V52.3094C53.3141 53.03 53.1808 53.7506 52.2767 53.7974H48.1237V52.1977C48.1237 51.0123 46.2867 51.0123 46.2867 52.1977V53.7974H43.3042V52.1977C43.3042 51.0123 41.4672 51.0123 41.4672 52.1977V53.7974H38.2651V52.1977C38.2651 51.0123 36.4281 51.0123 36.4281 52.1977V53.7974H33.4457V52.1977C33.4457 51.0123 31.6051 51.0123 31.6051 52.1977V53.7974H28.6263V52.1977C28.6263 51.0123 26.7857 51.0123 26.7857 52.1977V53.7974H23.1333C22.7863 53.8323 22.4361 53.8202 22.0923 53.7614C20.9325 53.4227 21.3323 51.1673 21.3323 50.2809V48.6235H23.2125C24.3976 48.6235 24.3976 46.786 23.2125 46.786H21.3323V43.8027H23.2125C24.3976 43.8027 24.3976 41.9616 23.2125 41.9616H21.3323V41.241H23.6916C28.1004 41.241 32.52 41.1942 36.936 41.1942H37.8473C37.9199 41.1949 37.9924 41.1876 38.0634 41.1726C38.7869 41.0995 39.4577 40.7606 39.946 40.2216C40.4344 39.6826 40.7056 38.9816 40.7072 38.2541C40.7072 37.8038 40.7072 37.3498 40.7072 36.8994V21.8929H41.4528V23.7124C41.4528 24.8942 43.2898 24.8978 43.2898 23.7124V21.8929H46.2723V23.7124C46.2723 24.8942 48.1093 24.8978 48.1093 23.7124V21.8893C49.4384 21.8893 50.7747 21.8389 52.1002 21.8893C53.5194 21.947 53.3141 23.2332 53.3141 24.2529" fill="white"/>
<path d="M9.07124 8.81411C8.85132 8.81345 8.63619 8.8784 8.45336 9.00066C8.27053 9.12292 8.1283 9.29693 8.04484 9.50046C7.96138 9.70399 7.94049 9.92779 7.98483 10.1433C8.02918 10.3587 8.13674 10.5561 8.29378 10.7101C8.45082 10.8641 8.65021 10.9677 8.86645 11.0078C9.08269 11.0479 9.30596 11.0226 9.50774 10.9351C9.70952 10.8476 9.88063 10.7019 9.99921 10.5166C10.1178 10.3314 10.1785 10.1149 10.1734 9.89501C10.166 9.60696 10.0468 9.33311 9.84107 9.13139C9.63537 8.92967 9.3593 8.81589 9.07124 8.81411Z" fill="white"/>
<path d="M36.7847 11.0119C37.0023 11.0091 37.2142 10.9421 37.3939 10.8193C37.5737 10.6965 37.7131 10.5234 37.7949 10.3217C37.8767 10.12 37.8972 9.89858 37.8538 9.68527C37.8104 9.47195 37.705 9.27619 37.5509 9.12251C37.3968 8.96883 37.2007 8.86406 36.9873 8.82132C36.7739 8.77858 36.5527 8.79978 36.3513 8.88226C36.1499 8.96473 35.9773 9.10482 35.8551 9.28497C35.7329 9.46513 35.6666 9.67733 35.6645 9.89501C35.6645 10.0401 35.6931 10.1838 35.7487 10.3178C35.8043 10.4518 35.8859 10.5735 35.9886 10.6759C36.0913 10.7783 36.2133 10.8594 36.3474 10.9146C36.4815 10.9698 36.6252 10.998 36.7703 10.9975" fill="white"/>
<path d="M9.07124 35.9338C8.85238 35.9331 8.63823 35.9974 8.45591 36.1185C8.27359 36.2396 8.13129 36.4121 8.04705 36.6142C7.9628 36.8162 7.94039 37.0387 7.98265 37.2535C8.02491 37.4683 8.12994 37.6658 8.28444 37.8208C8.43895 37.9759 8.63597 38.0816 8.85058 38.1246C9.06518 38.1675 9.2877 38.1458 9.48997 38.0622C9.69224 37.9786 9.86516 37.8368 9.98682 37.6549C10.1085 37.4729 10.1734 37.2589 10.1734 37.04C10.1734 36.7472 10.0574 36.4664 9.85083 36.2591C9.64423 36.0518 9.36389 35.9348 9.07124 35.9338Z" fill="white"/>
<path d="M36.7847 35.9338C36.5658 35.9331 36.3517 35.9974 36.1694 36.1185C35.987 36.2396 35.8448 36.4121 35.7605 36.6142C35.6763 36.8162 35.6538 37.0387 35.6961 37.2535C35.7384 37.4683 35.8434 37.6658 35.9979 37.8208C36.1524 37.9759 36.3494 38.0816 36.564 38.1246C36.7786 38.1675 37.0012 38.1458 37.2034 38.0622C37.4057 37.9786 37.5786 37.8368 37.7003 37.6549C37.8219 37.4729 37.8869 37.2589 37.8869 37.04C37.8874 36.8949 37.8592 36.7511 37.804 36.6169C37.7489 36.4828 37.6677 36.3608 37.5653 36.258C37.463 36.1553 37.3413 36.0737 37.2073 36.0181C37.0734 35.9625 36.9297 35.9338 36.7847 35.9338Z" fill="white"/>
<path d="M16.9739 30.5546C16.9705 30.1468 17.0489 29.7425 17.2046 29.3657C17.3603 28.9888 17.5901 28.6471 17.8804 28.3608C18.1707 28.0745 18.5155 27.8494 18.8943 27.6989C19.2732 27.5484 19.6785 27.4756 20.086 27.4848C20.9358 27.4303 21.773 27.7124 22.4165 28.2703L21.5952 29.2611C21.1776 28.8632 20.6194 28.6469 20.0428 28.6594C19.574 28.6846 19.1336 28.8919 18.8153 29.2371C18.4971 29.5824 18.3262 30.0383 18.3391 30.5077V30.5258C18.3247 30.77 18.3608 31.0145 18.4451 31.2441C18.5295 31.4738 18.6602 31.6835 18.8292 31.8604C18.9982 32.0372 19.2018 32.1773 19.4274 32.2719C19.6529 32.3664 19.8955 32.4135 20.1401 32.4101C20.5772 32.4223 21.007 32.2962 21.3683 32.0498V31.2139H20.05V30.0718H22.629V32.6659C21.929 33.2725 21.0338 33.6064 20.1076 33.6063C19.6983 33.6274 19.289 33.5634 18.9055 33.4184C18.5221 33.2734 18.1728 33.0505 17.8798 32.7638C17.5867 32.4771 17.3562 32.1328 17.2028 31.7526C17.0494 31.3723 16.9764 30.9644 16.9883 30.5546" fill="white"/>
<path d="M23.6267 27.5677H26.3858C26.9514 27.5309 27.5084 27.7201 27.9347 28.0937C28.0687 28.2245 28.1741 28.3817 28.2442 28.5554C28.3143 28.729 28.3475 28.9154 28.3417 29.1026C28.3493 29.3681 28.2798 29.6302 28.1418 29.8572C28.0037 30.0841 27.8029 30.2663 27.5637 30.3816C28.2517 30.6446 28.6731 31.0446 28.6731 31.8228V31.8733C28.6731 32.9542 27.7906 33.5018 26.4507 33.5018H23.6267V27.5677ZM27.045 29.3223C27.045 28.9332 26.7388 28.7134 26.1877 28.7134H24.9018V29.9673H26.1049C26.6812 29.9673 27.045 29.7799 27.045 29.3404V29.3223ZM26.4111 31.0554H24.9018V32.3597H26.4507C27.0306 32.3597 27.3764 32.1579 27.3764 31.7147C27.3764 31.3184 27.081 31.0734 26.4111 31.0734" fill="white"/>
<path d="M13.9879 17.4109L12.1077 17.872L11.6178 15.93L14.7083 15.0077H16.3256V25.8599H13.9879V17.4109Z" fill="white"/>
<path d="M18.0329 23.9827L21.6349 21.0427C22.9712 19.9329 23.4971 19.3493 23.4971 18.4557C23.5093 18.2651 23.4801 18.074 23.4115 17.8957C23.3429 17.7174 23.2364 17.5561 23.0995 17.4229C22.9626 17.2897 22.7984 17.1878 22.6183 17.1241C22.4382 17.0604 22.2465 17.0366 22.0563 17.0542C21.2242 17.0542 20.6551 17.5189 19.8555 18.4954L18.195 17.155C19.254 15.7138 20.2877 14.9248 22.2112 14.9248C24.4408 14.9248 25.9176 16.2327 25.9176 18.2504V18.2792C25.9176 20.0807 24.9955 20.9742 23.0865 22.4514L21.3323 23.8062H26.0148V25.8527H18.0329V23.9827Z" fill="white"/>
<path d="M27.0954 22.9054V22.8658C27.0954 21.5579 27.697 20.7905 28.8352 20.2644C28.4088 20.0409 28.0541 19.7015 27.812 19.2853C27.5698 18.8691 27.4501 18.3929 27.4664 17.9117V17.8792C27.4664 16.2327 28.9721 14.9248 31.2521 14.9248C33.5321 14.9248 35.0378 16.2183 35.0378 17.8792V17.9117C35.0533 18.3928 34.9331 18.8686 34.6911 19.2846C34.449 19.7007 34.0949 20.0402 33.669 20.2644C34.7496 20.8337 35.4052 21.5291 35.4052 22.8045V22.837C35.4052 24.8366 33.6366 26.0076 31.2521 26.0076C28.8676 26.0076 27.0954 24.7754 27.0954 22.8982M33.1143 22.7145V22.682C33.1143 21.8497 32.3291 21.3597 31.2521 21.3597C30.1751 21.3597 29.3899 21.8497 29.3899 22.682V22.7145C29.3899 23.4351 30.0815 24.0512 31.2521 24.0512C32.4227 24.0512 33.1143 23.4675 33.1143 22.7145ZM32.7829 18.1819V18.1531C32.7829 17.4901 32.2138 16.8884 31.2449 16.8884C30.276 16.8884 29.7141 17.4613 29.7141 18.1315V18.1819C29.7141 18.9349 30.312 19.5042 31.2521 19.5042C32.1922 19.5042 32.7829 18.9349 32.7829 18.1819Z" fill="white"/>
</svg>
