<svg width="61" height="60" viewBox="0 0 61 60" fill="none" xmlns="http://www.w3.org/2000/svg">
<path d="M44.3678 15.8307H40.8507L39.9059 14.4058C39.1414 13.2671 38.108 12.3345 36.8971 11.6906C35.6863 11.0468 34.3354 10.7114 32.9641 10.7144H28.3767C27.0054 10.7114 25.6545 11.0468 24.4437 11.6906C23.2328 12.3345 22.1994 13.2671 21.4349 14.4058L20.4901 15.8307H16.9656C14.8027 15.8355 12.7299 16.6976 11.2012 18.2281C9.6725 19.7585 8.81249 21.8326 8.80957 23.996V41.1204C8.81152 43.2841 9.67121 45.3588 11.2001 46.8894C12.7291 48.4201 14.8024 49.2819 16.9656 49.2858H44.3604C46.5246 49.2829 48.5993 48.4216 50.1296 46.891C51.6599 45.3603 52.5209 43.2851 52.5239 41.1204V23.996C52.5209 21.8326 51.6609 19.7585 50.1322 18.2281C48.6035 16.6976 46.5307 15.8355 44.3678 15.8307ZM49.9036 41.1204C49.9036 42.5889 49.3203 43.9973 48.2822 45.0357C47.244 46.0741 45.836 46.6575 44.3678 46.6575H16.9656C15.4975 46.6575 14.0894 46.0741 13.0512 45.0357C12.0131 43.9973 11.4298 42.5889 11.4298 41.1204V23.996C11.4298 22.5275 12.0131 21.1191 13.0512 20.0807C14.0894 19.0423 15.4975 18.4589 16.9656 18.4589H21.8925L23.616 15.8749C24.1379 15.0903 24.8456 14.4468 25.6762 14.0018C26.5068 13.5568 27.4345 13.324 28.3767 13.3242H32.9641C33.9035 13.3243 34.8284 13.5561 35.6569 13.9991C36.4854 14.4421 37.1919 15.0826 37.7138 15.8639L39.4409 18.4479H44.3678C45.836 18.4479 47.244 19.0312 48.2822 20.0696C49.3203 21.108 49.9036 22.5164 49.9036 23.9849V41.1204Z" fill="white"/>
<path d="M30.6686 22.0137C28.6469 22.0144 26.6708 22.6147 24.9901 23.7387C23.3095 24.8627 21.9998 26.46 21.2266 28.3284C20.4534 30.1969 20.2515 32.2527 20.6464 34.236C21.0412 36.2192 22.0152 38.0408 23.445 39.4705C24.8748 40.9001 26.6963 41.8736 28.6793 42.2678C30.6622 42.6621 32.7174 42.4594 34.5852 41.6853C36.4529 40.9113 38.0493 39.6007 39.1724 37.9193C40.2956 36.2378 40.895 34.2611 40.895 32.2389C40.8921 29.5272 39.8136 26.9276 37.8963 25.0105C35.979 23.0935 33.3796 22.0157 30.6686 22.0137ZM30.6686 39.8321C29.1673 39.8313 27.6999 39.3854 26.452 38.5506C25.2041 37.7158 24.2317 36.5296 23.6577 35.1421C23.0836 33.7546 22.9338 32.2279 23.2272 30.7553C23.5205 29.2826 24.2438 27.9299 25.3056 26.8684C26.3675 25.8068 27.7201 25.084 29.1926 24.7913C30.6651 24.4986 32.1913 24.6492 33.5782 25.224C34.9652 25.7988 36.1506 26.7721 36.9845 28.0207C37.8185 29.2693 38.2637 30.7372 38.2637 32.2389C38.2607 34.2525 37.4595 36.1827 36.0357 37.6061C34.6118 39.0296 32.6817 39.8301 30.6686 39.8321Z" fill="white"/>
</svg>
