<svg width="377" height="84" viewBox="0 0 377 84" fill="none" xmlns="http://www.w3.org/2000/svg">
<g clip-path="url(#clip0_2880_4095)">
<path d="M20.2756 39.7405C16.6139 39.7405 13.269 38.8745 10.2411 37.1425C7.24827 35.4105 4.88927 33.0423 3.16407 30.0378C1.43887 26.9979 0.576172 23.6223 0.576172 19.9108C0.576172 16.1994 1.43887 12.8414 3.16407 9.83685C4.88927 6.79705 7.24827 4.41115 10.2411 2.67915C13.269 0.947053 16.6139 0.0810547 20.2756 0.0810547C25.9442 0.0810547 30.6094 2.14885 34.2711 6.28445L30.0988 10.3671C28.7961 8.81185 27.3349 7.66305 25.7153 6.92075C24.1309 6.14315 22.3177 5.75425 20.2756 5.75425C17.7405 5.75425 15.4168 6.33755 13.3042 7.50395C11.2269 8.67045 9.57207 10.3318 8.33977 12.488C7.14267 14.6088 6.54407 17.0831 6.54407 19.9108C6.54407 22.7386 7.14267 25.2306 8.33977 27.3867C9.57207 29.5075 11.2269 31.1512 13.3042 32.3176C15.4168 33.4841 17.7405 34.0673 20.2756 34.0673C24.5006 34.0673 28.0919 32.3 31.0495 28.7653L35.3273 32.9009C33.5317 35.057 31.3311 36.736 28.7257 37.9378C26.1554 39.1396 23.3387 39.7405 20.2756 39.7405Z" fill="white"/>
<path d="M43.5859 8.14105C42.4944 8.14105 41.5613 7.76985 40.7867 7.02755C40.0474 6.24995 39.6777 5.31325 39.6777 4.21745C39.6777 3.12175 40.0474 2.20275 40.7867 1.46045C41.5613 0.682745 42.4944 0.293945 43.5859 0.293945C44.6773 0.293945 45.5928 0.682745 46.3321 1.46045C47.1067 2.20275 47.494 3.12175 47.494 4.21745C47.494 5.31325 47.1067 6.24995 46.3321 7.02755C45.5928 7.76985 44.6773 8.14105 43.5859 8.14105ZM40.6811 12.5947H46.4906V38.8929H40.6811V12.5947Z" fill="white"/>
<path d="M53.4629 12.5941H58.9555V16.5176H59.2724C59.8357 15.1744 60.8568 14.061 62.3356 13.1773C63.8143 12.2583 65.3284 11.7988 66.8774 11.7988C68.1454 11.7988 69.1834 11.9755 69.9934 12.329V18.4264C68.7964 17.8255 67.4584 17.525 65.9794 17.525C64.0784 17.525 62.4764 18.2673 61.1737 19.7519C59.9061 21.2011 59.2724 22.9861 59.2724 25.1069V38.8923H53.4629V12.5941Z" fill="white"/>
<path d="M84.7959 39.7409C82.1899 39.7409 79.8489 39.14 77.7709 37.9382C75.6939 36.7364 74.0749 35.0751 72.9129 32.9543C71.7509 30.7981 71.1699 28.3945 71.1699 25.7435C71.1699 23.0571 71.7509 20.6535 72.9129 18.5327C74.0749 16.4119 75.6939 14.7506 77.7709 13.5488C79.8489 12.347 82.1899 11.7461 84.7959 11.7461C87.6829 11.7461 90.1299 12.4353 92.1369 13.8139C94.1789 15.1571 95.6579 16.9421 96.5729 19.1689L91.2389 21.3958C89.9709 18.5327 87.7529 17.1011 84.5839 17.1011C83.2459 17.1011 81.9969 17.4723 80.8349 18.2146C79.6729 18.9215 78.7399 19.9289 78.0359 21.2367C77.3309 22.5446 76.9789 24.0468 76.9789 25.7435C76.9789 27.4401 77.3309 28.9424 78.0359 30.2502C78.7399 31.5581 79.6729 32.5831 80.8349 33.3254C81.9969 34.0324 83.2459 34.3858 84.5839 34.3858C86.2039 34.3858 87.6119 34.0147 88.8089 33.2724C90.0069 32.4948 90.9219 31.399 91.5559 29.9851L96.7839 32.265C95.7629 34.4919 94.2319 36.2946 92.1889 37.6731C90.1469 39.0517 87.6829 39.7409 84.7959 39.7409Z" fill="white"/>
<path d="M101.531 0.929688H107.34V38.8924H101.531V0.929688Z" fill="white"/>
<path d="M125.692 39.7409C123.122 39.7409 120.798 39.14 118.721 37.9382C116.679 36.7364 115.077 35.0751 113.915 32.9543C112.753 30.7981 112.172 28.3945 112.172 25.7435C112.172 23.1985 112.718 20.8656 113.809 18.7448C114.936 16.5886 116.503 14.892 118.51 13.6548C120.517 12.3823 122.805 11.7461 125.376 11.7461C128.016 11.7461 130.305 12.3293 132.241 13.4957C134.213 14.6622 135.709 16.2882 136.73 18.3736C137.751 20.4238 138.262 22.792 138.262 25.4784C138.262 25.7965 138.244 26.1146 138.209 26.4328C138.174 26.7509 138.156 26.9276 138.156 26.963H117.982C118.158 29.3666 119.02 31.2223 120.57 32.5301C122.119 33.838 123.879 34.4919 125.851 34.4919C128.879 34.4919 131.203 33.078 132.822 30.2502L137.787 32.6362C136.625 34.7923 135.005 36.5243 132.928 37.8322C130.886 39.1047 128.474 39.7409 125.692 39.7409ZM132.347 22.5092C132.277 21.6609 131.995 20.7949 131.502 19.9112C131.009 19.0276 130.234 18.2853 129.178 17.6844C128.157 17.0481 126.872 16.73 125.323 16.73C123.598 16.73 122.101 17.2602 120.834 18.3206C119.601 19.381 118.756 20.7772 118.299 22.5092H132.347Z" fill="white"/>
<path d="M166.254 39.3164C165.092 39.3164 164 39.1397 162.979 38.7862C161.993 38.3974 161.166 37.8672 160.497 37.1956C158.983 35.7111 158.226 33.6433 158.226 30.9922V17.7371H153.631V12.5941H158.226V4.74707H164.035V12.5941H170.426V17.7371H164.035V29.7197C164.035 31.169 164.317 32.194 164.88 32.7949C165.409 33.5019 166.271 33.8553 167.468 33.8553C168.489 33.8553 169.493 33.5549 170.479 32.954V38.6272C169.246 39.0867 167.838 39.3164 166.254 39.3164Z" fill="white"/>
<path d="M186.916 39.7409C184.311 39.7409 181.969 39.14 179.892 37.9382C177.815 36.7011 176.178 35.0221 174.98 32.9013C173.819 30.7804 173.238 28.3945 173.238 25.7435C173.238 23.0925 173.819 20.7065 174.98 18.5857C176.178 16.4649 177.815 14.8036 179.892 13.6018C181.969 12.3646 184.311 11.7461 186.916 11.7461C189.557 11.7461 191.916 12.3646 193.993 13.6018C196.07 14.8036 197.69 16.4649 198.852 18.5857C200.014 20.7065 200.595 23.0925 200.595 25.7435C200.595 28.3945 200.014 30.7804 198.852 32.9013C197.69 35.0221 196.07 36.7011 193.993 37.9382C191.916 39.14 189.557 39.7409 186.916 39.7409ZM186.916 34.3858C188.325 34.3858 189.627 34.0324 190.824 33.3254C192.021 32.6185 192.99 31.6111 193.729 30.3033C194.469 28.9954 194.838 27.4755 194.838 25.7435C194.838 23.9761 194.469 22.4385 193.729 21.1307C192.99 19.8229 192.021 18.8331 190.824 18.1616C189.627 17.4546 188.325 17.1011 186.916 17.1011C185.543 17.1011 184.24 17.4546 183.008 18.1616C181.811 18.8331 180.843 19.8229 180.103 21.1307C179.399 22.4385 179.047 23.9761 179.047 25.7435C179.047 27.4755 179.417 28.9954 180.156 30.3033C180.895 31.6111 181.864 32.6185 183.061 33.3254C184.258 34.0324 185.543 34.3858 186.916 34.3858Z" fill="white"/>
<path d="M228.118 39.7405C224.984 39.7405 222.167 38.8215 219.667 36.9834C217.168 35.1454 215.442 32.5651 214.492 29.2424L220.09 26.9626C220.653 29.048 221.639 30.7624 223.047 32.1056C224.491 33.4134 226.216 34.0673 228.223 34.0673C230.089 34.0673 231.674 33.5901 232.976 32.6358C234.279 31.646 234.93 30.3029 234.93 28.6062C234.93 27.0509 234.35 25.7784 233.188 24.7887C232.061 23.7637 230.072 22.7386 227.22 21.7135L224.843 20.8652C222.308 19.9815 220.178 18.709 218.453 17.0477C216.727 15.3864 215.865 13.1949 215.865 10.4732C215.865 8.59975 216.375 6.86775 217.396 5.27715C218.418 3.68645 219.826 2.43165 221.622 1.51265C223.452 0.558253 225.512 0.0810547 227.801 0.0810547C231.11 0.0810547 233.751 0.894054 235.723 2.52005C237.694 4.11065 239.015 5.91335 239.684 7.92815L234.35 10.2081C233.962 9.00625 233.223 7.94585 232.131 7.02675C231.04 6.10775 229.632 5.64825 227.906 5.64825C226.181 5.64825 224.72 6.09005 223.523 6.97375C222.361 7.85745 221.78 8.98855 221.78 10.3671C221.78 11.675 222.308 12.7531 223.364 13.6014C224.421 14.4497 226.075 15.2627 228.329 16.0403L230.705 16.8356C233.945 17.9667 236.444 19.4513 238.205 21.2894C240.001 23.0921 240.898 25.5133 240.898 28.5532C240.898 31.0275 240.265 33.1129 238.997 34.8096C237.73 36.4709 236.11 37.7081 234.138 38.521C232.202 39.334 230.195 39.7405 228.118 39.7405Z" fill="white"/>
<path d="M258.551 39.7409C255.98 39.7409 253.657 39.14 251.579 37.9382C249.537 36.7364 247.935 35.0751 246.773 32.9543C245.612 30.7981 245.031 28.3945 245.031 25.7435C245.031 23.1985 245.576 20.8656 246.668 18.7448C247.794 16.5886 249.361 14.892 251.368 13.6548C253.375 12.3823 255.664 11.7461 258.234 11.7461C260.875 11.7461 263.163 12.3293 265.1 13.4957C267.071 14.6622 268.568 16.2882 269.589 18.3736C270.61 20.4238 271.12 22.792 271.12 25.4784C271.12 25.7965 271.103 26.1146 271.068 26.4328C271.032 26.7509 271.015 26.9276 271.015 26.963H250.84C251.016 29.3666 251.879 31.2223 253.428 32.5301C254.977 33.838 256.738 34.4919 258.709 34.4919C261.737 34.4919 264.061 33.078 265.681 30.2502L270.645 32.6362C269.483 34.7923 267.863 36.5243 265.786 37.8322C263.744 39.1047 261.332 39.7409 258.551 39.7409ZM265.205 22.5092C265.135 21.6609 264.853 20.7949 264.36 19.9112C263.867 19.0276 263.093 18.2853 262.036 17.6844C261.015 17.0481 259.73 16.73 258.181 16.73C256.456 16.73 254.959 17.2602 253.692 18.3206C252.46 19.381 251.615 20.7772 251.157 22.5092H265.205Z" fill="white"/>
<path d="M284.768 39.7409C282.901 39.7409 281.211 39.3698 279.697 38.6275C278.219 37.8499 277.039 36.7894 276.159 35.4463C275.314 34.0677 274.891 32.5124 274.891 30.7804C274.891 28.0234 275.913 25.8495 277.955 24.2589C280.032 22.6683 282.655 21.873 285.824 21.873C288.605 21.873 290.982 22.3502 292.954 23.3045V22.1911C292.954 20.6005 292.32 19.2927 291.052 18.2676C289.82 17.2072 288.324 16.677 286.563 16.677C283.887 16.677 281.74 17.7727 280.12 19.9643L275.684 16.8891C276.916 15.2277 278.448 13.9553 280.278 13.0716C282.145 12.1879 284.239 11.7461 286.563 11.7461C290.401 11.7461 293.359 12.7181 295.436 14.6622C297.548 16.5709 298.605 19.275 298.605 22.7743V38.8926H292.954V35.6583H292.637C291.792 36.8601 290.718 37.8499 289.415 38.6275C288.112 39.3698 286.563 39.7409 284.768 39.7409ZM285.718 34.916C287.021 34.916 288.218 34.5979 289.31 33.9617C290.436 33.2901 291.316 32.4241 291.95 31.3637C292.619 30.2679 292.954 29.1015 292.954 27.8643C291.088 26.8392 289.098 26.3267 286.986 26.3267C285.049 26.3267 283.535 26.7509 282.444 27.5992C281.352 28.4475 280.807 29.5256 280.807 30.8335C280.807 32.0353 281.282 33.025 282.233 33.8026C283.218 34.5449 284.38 34.916 285.718 34.916Z" fill="white"/>
<path d="M304.738 12.5941H310.231V16.5176H310.547C311.111 15.1744 312.132 14.061 313.611 13.1773C315.089 12.2583 316.603 11.7988 318.153 11.7988C319.42 11.7988 320.459 11.9755 321.269 12.329V18.4264C320.071 17.8255 318.733 17.525 317.255 17.525C315.353 17.525 313.751 18.2673 312.449 19.7519C311.181 21.2011 310.547 22.9861 310.547 25.1069V38.8923H304.738V12.5941Z" fill="white"/>
<path d="M336.071 39.7409C333.466 39.7409 331.124 39.14 329.047 37.9382C326.97 36.7364 325.35 35.0751 324.188 32.9543C323.026 30.7981 322.445 28.3945 322.445 25.7435C322.445 23.0571 323.026 20.6535 324.188 18.5327C325.35 16.4119 326.97 14.7506 329.047 13.5488C331.124 12.347 333.466 11.7461 336.071 11.7461C338.958 11.7461 341.405 12.4353 343.412 13.8139C345.454 15.1571 346.933 16.9421 347.848 19.1689L342.514 21.3958C341.247 18.5327 339.029 17.1011 335.86 17.1011C334.522 17.1011 333.272 17.4723 332.11 18.2146C330.948 18.9215 330.015 19.9289 329.311 21.2367C328.607 22.5446 328.255 24.0468 328.255 25.7435C328.255 27.4401 328.607 28.9424 329.311 30.2502C330.015 31.5581 330.948 32.5831 332.11 33.3254C333.272 34.0324 334.522 34.3858 335.86 34.3858C337.479 34.3858 338.888 34.0147 340.085 33.2724C341.282 32.4948 342.197 31.399 342.831 29.9851L348.06 32.265C347.039 34.4919 345.507 36.2946 343.465 37.6731C341.423 39.0517 338.958 39.7409 336.071 39.7409Z" fill="white"/>
<path d="M352.807 0.929688H358.617V11.9579L358.3 16.0936H358.617C359.356 14.8211 360.465 13.7783 361.944 12.9653C363.423 12.1524 365.025 11.7459 366.75 11.7459C370.06 11.7459 372.542 12.7179 374.197 14.662C375.851 16.5707 376.679 19.1864 376.679 22.509V38.8924H370.869V23.3043C370.869 21.2189 370.359 19.6636 369.338 18.6385C368.317 17.6135 366.961 17.1009 365.271 17.1009C363.968 17.1009 362.807 17.4721 361.786 18.2144C360.8 18.9567 360.025 19.9464 359.462 21.1835C358.898 22.4207 358.617 23.7285 358.617 25.107V38.8924H352.807V0.929688Z" fill="white"/>
<path d="M215.605 61.6504H218.216L221.659 73.1494H221.688L225.427 61.6504H228.039L231.778 73.1494H231.807L235.25 61.6504H237.772L232.994 76.4264H230.472L226.674 64.7184L222.905 76.4264H220.383L215.605 61.6504Z" fill="white"/>
<path d="M241.268 58.5513C240.773 58.5513 240.348 58.3733 239.992 58.0153C239.635 57.6583 239.457 57.2313 239.457 56.7343C239.457 56.2378 239.635 55.8108 239.992 55.4533C240.348 55.0958 240.773 54.917 241.268 54.917C241.762 54.917 242.187 55.0958 242.544 55.4533C242.9 55.8108 243.078 56.2378 243.078 56.7343C243.078 57.2313 242.9 57.6583 242.544 58.0153C242.207 58.3733 241.782 58.5513 241.268 58.5513ZM240.021 61.6503H242.514V76.4263H240.021V61.6503Z" fill="white"/>
<path d="M251.942 76.6642C251.349 76.6642 250.795 76.5652 250.28 76.3672C249.786 76.1682 249.36 75.9002 249.004 75.5622C248.609 75.1852 248.312 74.7482 248.114 74.2512C247.936 73.7352 247.847 73.1292 247.847 72.4342V63.9442H245.236V61.6502H247.847V57.2402H250.34V61.6502H253.96V63.9442H250.34V71.8082C250.34 72.6432 250.508 73.2582 250.844 73.6562C251.18 74.0922 251.695 74.3112 252.387 74.3112C253.001 74.3112 253.535 74.1722 253.99 73.8942V76.3372C253.673 76.4562 253.366 76.5352 253.07 76.5752C252.793 76.6352 252.417 76.6642 251.942 76.6642Z" fill="white"/>
<path d="M257.057 55.0957H259.579V61.7692L259.46 63.8842H259.579C259.994 63.1092 260.637 62.4642 261.508 61.9482C262.398 61.4312 263.358 61.1732 264.386 61.1732C266.226 61.1732 267.611 61.7092 268.541 62.7822C269.471 63.8542 269.935 65.2842 269.935 67.0722V76.4262H267.443V67.4592C267.443 66.0892 267.106 65.0862 266.434 64.4502C265.781 63.7952 264.901 63.4672 263.793 63.4672C263.001 63.4672 262.279 63.7052 261.626 64.1822C260.993 64.6392 260.489 65.2542 260.113 66.0292C259.757 66.7842 259.579 67.5682 259.579 68.3822V76.4262H257.057V55.0957Z" fill="white"/>
<path d="M291.124 76.9241C284.389 76.9241 278.742 71.4271 278.742 64.6681C278.742 57.9081 284.402 52.4111 291.124 52.4111C294.845 52.4111 297.491 53.8709 299.496 55.7909L297.137 58.1581C295.709 56.8166 293.77 55.7646 291.124 55.7646C286.21 55.7646 282.371 59.7361 282.371 64.6681C282.371 69.5991 286.21 73.5711 291.124 73.5711C294.307 73.5711 296.129 72.2821 297.295 71.1251C298.251 70.1651 298.867 68.7971 299.116 66.9161H291.137V63.5631H302.365C302.483 64.1551 302.549 64.8781 302.549 65.6541C302.549 68.1661 301.867 71.2691 299.666 73.4791C297.517 75.7141 294.779 76.9111 291.15 76.9111L291.124 76.9241Z" fill="white"/>
<path d="M319.901 69.0336C319.901 73.5706 316.416 76.9246 312.157 76.9246C307.899 76.9246 304.414 73.5706 304.414 69.0336C304.414 64.4966 307.899 61.1436 312.157 61.1436C316.416 61.1436 319.901 64.4576 319.901 69.0336ZM316.507 69.0336C316.507 66.1936 314.49 64.2476 312.157 64.2476C309.825 64.2476 307.808 66.1936 307.808 69.0336C307.808 71.8746 309.825 73.8206 312.157 73.8206C314.49 73.8206 316.507 71.8486 316.507 69.0336Z" fill="white"/>
<path d="M337.271 69.0336C337.271 73.5706 333.786 76.9246 329.528 76.9246C325.27 76.9246 321.785 73.5706 321.785 69.0336C321.785 64.4966 325.27 61.1436 329.528 61.1436C333.786 61.1436 337.271 64.4576 337.271 69.0336ZM333.878 69.0336C333.878 66.1936 331.86 64.2476 329.515 64.2476C327.17 64.2476 325.165 66.1936 325.165 69.0336C325.165 71.8746 327.183 73.8206 329.515 73.8206C331.847 73.8206 333.878 71.8486 333.878 69.0336Z" fill="white"/>
<path d="M354.199 61.6166V75.7806C354.199 81.6056 350.78 83.9996 346.731 83.9996C342.918 83.9996 340.626 81.4356 339.761 79.3306L342.774 78.0816C343.312 79.3706 344.622 80.8956 346.731 80.8956C349.325 80.8956 350.937 79.2786 350.937 76.2666V75.1356H350.819C350.046 76.0956 348.552 76.9246 346.679 76.9246C342.748 76.9246 339.145 73.4916 339.145 69.0606C339.145 64.6286 342.748 61.1436 346.679 61.1436C348.552 61.1436 350.046 61.9856 350.819 62.9056H350.937V61.6166H354.213H354.199ZM351.16 69.0606C351.16 66.2856 349.312 64.2476 346.967 64.2476C344.622 64.2476 342.591 66.2856 342.591 69.0606C342.591 71.8346 344.582 73.8076 346.967 73.8076C349.352 73.8076 351.16 71.8086 351.16 69.0606Z" fill="white"/>
<path d="M360.252 53.2529V76.4376H356.793V53.2529H360.252Z" fill="white"/>
<path d="M373.835 71.6249L376.521 73.4139C375.656 74.7029 373.573 76.9119 369.97 76.9119C365.502 76.9119 362.279 73.4399 362.279 69.0219C362.279 64.3269 365.528 61.1309 369.59 61.1309C373.651 61.1309 375.669 64.3919 376.324 66.1549L376.678 67.0489L366.17 71.4149C366.969 72.9929 368.227 73.8079 369.983 73.8079C371.738 73.8079 372.957 72.9399 373.848 71.6249H373.835ZM365.58 68.7849L372.603 65.8519C372.21 64.8659 371.057 64.1819 369.681 64.1819C367.926 64.1819 365.489 65.7339 365.567 68.7849H365.58Z" fill="white"/>
</g>
<defs>
<clipPath id="clip0_2880_4095">
<rect width="377" height="84" fill="white"/>
</clipPath>
</defs>
</svg>
