<svg width="18" height="18" viewBox="0 0 18 18" fill="none" xmlns="http://www.w3.org/2000/svg">
<g clip-path="url(#clip0_2880_6449)">
<path d="M15.9794 2.021C14.8703 0.977875 13.3554 0.386249 11.6839 0.164999C10.6197 0.0239159 9.72528 -0.0292925 9.00069 0.00537418C8.27594 -0.0292925 7.38152 0.0239159 6.31744 0.164999C4.64582 0.386249 3.13132 0.977875 2.02219 2.021C0.97919 3.1305 0.38719 4.645 0.165815 6.3165C0.0247315 7.38067 -0.0283935 8.27513 0.0064398 8.99988C-0.0283935 9.72446 0.0247315 10.6189 0.165815 11.6831C0.38719 13.3544 0.97894 14.869 2.02194 15.9784C3.13107 17.0214 4.64582 17.6134 6.31744 17.8349C7.38152 17.9758 8.27594 18.0289 9.00069 17.9941C9.72528 18.0289 10.6197 17.9758 11.6839 17.8349C13.3554 17.6134 14.8701 17.0216 15.9792 15.9786C17.0226 14.8693 17.6142 13.3544 17.8358 11.6831C17.9767 10.6189 18.0298 9.72446 17.9951 8.99988C18.0298 8.27513 17.9767 7.38067 17.8358 6.3165C17.6142 4.645 17.0228 3.1305 15.9794 2.021Z" fill="#EF2056"/>
<path d="M13.7391 5.38574C13.4321 5.09199 13.0021 4.88574 12.1712 4.88574H5.37697V4.90462C4.82634 4.96137 4.50372 5.14374 4.26172 5.38574C3.96809 5.67937 3.76172 6.09087 3.76172 6.88574V10.8857C3.76172 11.6806 3.96809 12.092 4.26172 12.3857C4.50372 12.6277 4.82634 12.8101 5.37697 12.8669V12.8857H12.1712C13.0021 12.8857 13.4321 12.6794 13.7391 12.3857C14.0461 12.092 14.2617 11.6806 14.2617 10.8857V6.88574C14.2617 6.09087 14.0461 5.67937 13.7391 5.38574Z" fill="white"/>
<path d="M7.01172 8.88574C7.01172 9.92124 7.85122 10.7607 8.88672 10.7607C9.92222 10.7607 10.7617 9.92124 10.7617 8.88574C10.7617 7.85024 9.92222 7.01074 8.88672 7.01074C7.85122 7.01074 7.01172 7.85024 7.01172 8.88574Z" fill="#C10037"/>
<path d="M11.0117 6.88574C11.0117 7.43799 11.4595 7.88574 12.0117 7.88574C12.564 7.88574 13.0117 7.43799 13.0117 6.88574C13.0117 6.33349 12.564 5.88574 12.0117 5.88574C11.4595 5.88574 11.0117 6.33349 11.0117 6.88574Z" fill="#ED2E53"/>
</g>
<defs>
<clipPath id="clip0_2880_6449">
<rect width="18" height="18" fill="white"/>
</clipPath>
</defs>
</svg>
