<svg width="80" height="80" viewBox="0 0 80 80" fill="none" xmlns="http://www.w3.org/2000/svg">
<path d="M36 21.5C36 26.1944 32.1944 30 27.5 30C22.8056 30 19 26.1944 19 21.5C19 16.8056 22.8056 13 27.5 13C32.1944 13 36 16.8056 36 21.5Z" fill="white"/>
<path d="M36 42.5C36 47.1944 32.1944 51 27.5 51C22.8056 51 19 47.1944 19 42.5C19 37.8056 22.8056 34 27.5 34C32.1944 34 36 37.8056 36 42.5Z" fill="white"/>
<path d="M36 63.5C36 68.1944 32.1944 72 27.5 72C22.8056 72 19 68.1944 19 63.5C19 58.8056 22.8056 55 27.5 55C32.1944 55 36 58.8056 36 63.5Z" fill="white"/>
<path d="M53 43C53 45.7614 50.7614 48 48 48C45.2386 48 43 45.7614 43 43C43 40.2386 45.2386 38 48 38C50.7614 38 53 40.2386 53 43Z" fill="white"/>
<path fill-rule="evenodd" clip-rule="evenodd" d="M48 25C50.2091 25 52 23.2091 52 21C52 18.7909 50.2091 17 48 17C45.7909 17 44 18.7909 44 21C44 23.2091 45.7909 25 48 25ZM48 26C50.7614 26 53 23.7614 53 21C53 18.2386 50.7614 16 48 16C45.2386 16 43 18.2386 43 21C43 23.7614 45.2386 26 48 26Z" fill="white"/>
<path fill-rule="evenodd" clip-rule="evenodd" d="M48 33C48.5523 33 49 32.5523 49 32C49 31.4477 48.5523 31 48 31C47.4477 31 47 31.4477 47 32C47 32.5523 47.4477 33 48 33ZM48 34C49.1046 34 50 33.1046 50 32C50 30.8954 49.1046 30 48 30C46.8954 30 46 30.8954 46 32C46 33.1046 46.8954 34 48 34Z" fill="white"/>
<path fill-rule="evenodd" clip-rule="evenodd" d="M7.5 7C7.5 6.17157 8.17157 5.5 9 5.5H74V8.5H10.5V72H7.5V7Z" fill="white"/>
</svg>
