<svg width="80" height="80" viewBox="0 0 80 80" fill="none" xmlns="http://www.w3.org/2000/svg">
<path fill-rule="evenodd" clip-rule="evenodd" d="M15.8753 12.2083C13.8617 12.2083 12.2087 13.8614 12.2087 15.875V64.25C12.2087 66.2636 13.8617 67.9166 15.8753 67.9166H64.2503C66.264 67.9166 67.917 66.2636 67.917 64.25V15.875C67.917 13.8614 66.264 12.2083 64.2503 12.2083H15.8753ZM9.54199 15.875C9.54199 12.3886 12.389 9.54163 15.8753 9.54163H64.2503C67.7367 9.54163 70.5837 12.3886 70.5837 15.875V64.25C70.5837 67.7364 67.7367 70.5833 64.2503 70.5833H15.8753C12.389 70.5833 9.54199 67.7364 9.54199 64.25V15.875Z" fill="white"/>
<path fill-rule="evenodd" clip-rule="evenodd" d="M26.2503 24.75C25.4276 24.75 24.7503 25.4273 24.7503 26.25V53.75C24.7503 54.5727 25.4276 55.25 26.2503 55.25H53.7503C54.5731 55.25 55.2503 54.5727 55.2503 53.75V26.25C55.2503 25.4273 54.5731 24.75 53.7503 24.75H26.2503ZM22.7503 26.25C22.7503 24.3227 24.3231 22.75 26.2503 22.75H53.7503C55.6776 22.75 57.2503 24.3227 57.2503 26.25V53.75C57.2503 55.6773 55.6776 57.25 53.7503 57.25H26.2503C24.3231 57.25 22.7503 55.6773 22.7503 53.75V26.25Z" fill="white"/>
<path fill-rule="evenodd" clip-rule="evenodd" d="M60.1253 68.4166C60.8617 68.4166 61.4587 69.0136 61.4587 69.75V75C61.4587 75.7364 60.8617 76.3333 60.1253 76.3333C59.389 76.3333 58.792 75.7364 58.792 75V69.75C58.792 69.0136 59.389 68.4166 60.1253 68.4166Z" fill="white"/>
<path fill-rule="evenodd" clip-rule="evenodd" d="M46.7503 68.4166C47.4867 68.4166 48.0837 69.0136 48.0837 69.75V75C48.0837 75.7364 47.4867 76.3333 46.7503 76.3333C46.014 76.3333 45.417 75.7364 45.417 75V69.75C45.417 69.0136 46.014 68.4166 46.7503 68.4166Z" fill="white"/>
<path fill-rule="evenodd" clip-rule="evenodd" d="M33.2503 68.4166C33.9867 68.4166 34.5837 69.0136 34.5837 69.75V75C34.5837 75.7364 33.9867 76.3333 33.2503 76.3333C32.514 76.3333 31.917 75.7364 31.917 75V69.75C31.917 69.0136 32.514 68.4166 33.2503 68.4166Z" fill="white"/>
<path fill-rule="evenodd" clip-rule="evenodd" d="M19.7503 68.4166C20.4867 68.4166 21.0837 69.0136 21.0837 69.75V75C21.0837 75.7364 20.4867 76.3333 19.7503 76.3333C19.014 76.3333 18.417 75.7364 18.417 75V69.75C18.417 69.0136 19.014 68.4166 19.7503 68.4166Z" fill="white"/>
<path fill-rule="evenodd" clip-rule="evenodd" d="M3.66699 60.5C3.66699 59.7636 4.26395 59.1666 5.00034 59.1666H10.3753C11.1117 59.1666 11.7087 59.7636 11.7087 60.5C11.7087 61.2364 11.1117 61.8333 10.3753 61.8333H5.00034C4.26395 61.8333 3.66699 61.2364 3.66699 60.5Z" fill="white"/>
<path fill-rule="evenodd" clip-rule="evenodd" d="M3.66699 46.875C3.66699 46.1386 4.26395 45.5416 5.00034 45.5416H10.3753C11.1117 45.5416 11.7087 46.1386 11.7087 46.875C11.7087 47.6114 11.1117 48.2083 10.3753 48.2083H5.00034C4.26395 48.2083 3.66699 47.6114 3.66699 46.875Z" fill="white"/>
<path fill-rule="evenodd" clip-rule="evenodd" d="M3.66699 33.125C3.66699 32.3886 4.26395 31.7916 5.00034 31.7916H10.3753C11.1117 31.7916 11.7087 32.3886 11.7087 33.125C11.7087 33.8614 11.1117 34.4583 10.3753 34.4583H5.00034C4.26395 34.4583 3.66699 33.8614 3.66699 33.125Z" fill="white"/>
<path fill-rule="evenodd" clip-rule="evenodd" d="M3.66699 19.5C3.66699 18.7636 4.26395 18.1666 5.00034 18.1666H10.3753C11.1117 18.1666 11.7087 18.7636 11.7087 19.5C11.7087 20.2364 11.1117 20.8333 10.3753 20.8333H5.00034C4.26395 20.8333 3.66699 20.2364 3.66699 19.5Z" fill="white"/>
<path fill-rule="evenodd" clip-rule="evenodd" d="M68.542 60.5C68.542 59.7636 69.139 59.1666 69.8753 59.1666H75.0003C75.7367 59.1666 76.3337 59.7636 76.3337 60.5C76.3337 61.2364 75.7367 61.8333 75.0003 61.8333H69.8753C69.139 61.8333 68.542 61.2364 68.542 60.5Z" fill="white"/>
<path fill-rule="evenodd" clip-rule="evenodd" d="M68.542 46.875C68.542 46.1386 69.139 45.5416 69.8753 45.5416H75.0003C75.7367 45.5416 76.3337 46.1386 76.3337 46.875C76.3337 47.6114 75.7367 48.2083 75.0003 48.2083H69.8753C69.139 48.2083 68.542 47.6114 68.542 46.875Z" fill="white"/>
<path fill-rule="evenodd" clip-rule="evenodd" d="M68.542 33.125C68.542 32.3886 69.139 31.7916 69.8753 31.7916H75.0003C75.7367 31.7916 76.3337 32.3886 76.3337 33.125C76.3337 33.8614 75.7367 34.4583 75.0003 34.4583H69.8753C69.139 34.4583 68.542 33.8614 68.542 33.125Z" fill="white"/>
<path fill-rule="evenodd" clip-rule="evenodd" d="M68.542 19.5C68.542 18.7636 69.139 18.1666 69.8753 18.1666H75.0003C75.7367 18.1666 76.3337 18.7636 76.3337 19.5C76.3337 20.2364 75.7367 20.8333 75.0003 20.8333H69.8753C69.139 20.8333 68.542 20.2364 68.542 19.5Z" fill="white"/>
<path fill-rule="evenodd" clip-rule="evenodd" d="M60.1253 3.66663C60.8617 3.66663 61.4587 4.26359 61.4587 4.99998V10.125C61.4587 10.8614 60.8617 11.4583 60.1253 11.4583C59.389 11.4583 58.792 10.8614 58.792 10.125V4.99998C58.792 4.26359 59.389 3.66663 60.1253 3.66663Z" fill="white"/>
<path fill-rule="evenodd" clip-rule="evenodd" d="M46.7503 3.66663C47.4867 3.66663 48.0837 4.26359 48.0837 4.99998V10.125C48.0837 10.8614 47.4867 11.4583 46.7503 11.4583C46.014 11.4583 45.417 10.8614 45.417 10.125V4.99998C45.417 4.26359 46.014 3.66663 46.7503 3.66663Z" fill="white"/>
<path fill-rule="evenodd" clip-rule="evenodd" d="M33.2503 3.66663C33.9867 3.66663 34.5837 4.26359 34.5837 4.99998V10.125C34.5837 10.8614 33.9867 11.4583 33.2503 11.4583C32.514 11.4583 31.917 10.8614 31.917 10.125V4.99998C31.917 4.26359 32.514 3.66663 33.2503 3.66663Z" fill="white"/>
<path fill-rule="evenodd" clip-rule="evenodd" d="M19.7503 3.66663C20.4867 3.66663 21.0837 4.26359 21.0837 4.99998V10.125C21.0837 10.8614 20.4867 11.4583 19.7503 11.4583C19.014 11.4583 18.417 10.8614 18.417 10.125V4.99998C18.417 4.26359 19.014 3.66663 19.7503 3.66663Z" fill="white"/>
</svg>
