<svg width="535" height="68" viewBox="0 0 535 68" fill="none" xmlns="http://www.w3.org/2000/svg">
<path d="M25.7705 50.7124C40.6617 50.7124 50.0451 39.4755 50.0451 26.3768V22.7863H24.2746V31.4301H40.1177C38.2818 37.8132 33.3181 41.9356 25.7705 41.9356C16.1151 41.9356 9.17948 34.7546 9.17948 25.7784C9.17948 17.0016 16.1831 9.62116 25.4305 9.62116C31.8902 9.62116 36.6499 12.4138 39.7777 18.0655L47.9373 13.2781C43.7215 5.96417 35.63 0.844385 25.3626 0.844385C10.6754 0.844385 0 11.9483 0 25.7784C0 39.276 10.2674 50.7124 25.7705 50.7124Z" fill="black"/>
<path d="M73.1665 50.8454C78.4022 50.8454 83.1619 48.6512 86.0857 44.9942V50.0475H95.2652V11.1504H86.0857V15.8048C83.1619 12.4138 78.5382 10.3526 73.3025 10.3526C63.239 10.3526 53.5836 17.733 53.5836 30.6322C53.5836 43.3984 63.579 50.8454 73.1665 50.8454ZM74.6624 42.6005C67.8628 42.6005 62.6271 37.2813 62.6271 30.4992C62.6271 23.7837 67.8628 18.5309 74.6624 18.5309C81.53 18.5309 86.5617 23.8502 86.5617 30.4992C86.5617 37.2148 81.53 42.6005 74.6624 42.6005Z" fill="black"/>
<path d="M100.494 50.0475H109.741V0.844385H100.494V50.0475Z" fill="black"/>
<path d="M133.327 50.8454C138.563 50.8454 143.323 48.6512 146.246 44.9942V50.0475H155.426V11.1504H146.246V15.8048C143.323 12.4138 138.699 10.3526 133.463 10.3526C123.4 10.3526 113.744 17.733 113.744 30.6322C113.744 43.3984 123.74 50.8454 133.327 50.8454ZM134.823 42.6005C128.023 42.6005 122.788 37.2813 122.788 30.4992C122.788 23.7837 128.023 18.5309 134.823 18.5309C141.691 18.5309 146.722 23.8502 146.722 30.4992C146.722 37.2148 141.691 42.6005 134.823 42.6005Z" fill="black"/>
<path d="M157.679 50.0475H168.898L178.35 37.0818L188.073 50.0475H199.292L184.061 30.3663L198.34 11.1504H187.461L178.486 23.5177L169.442 11.1504H158.223L172.638 30.2333L157.679 50.0475Z" fill="black"/>
<path d="M207.469 68H216.785L240.516 11.1504H230.86L220.389 37.3478L209.305 11.1504H199.514L215.833 48.1193L207.469 68Z" fill="black"/>
<path d="M402.205 49.8779C412.025 49.8779 419.31 44.0363 419.31 33.0593V2.37514H410.465V33.5729C410.465 38.1948 406.757 41.7896 402.14 41.7896C397.457 41.7896 393.945 38.1948 393.945 33.5729V2.37514H385.1V33.0593C385.1 44.0363 392.319 49.8779 402.205 49.8779Z" fill="black"/>
<path d="M425.839 49.2359H434.685V1.73321H425.839V49.2359Z" fill="black"/>
<path d="M439.684 19.4504H446.188V33.5729C446.188 45.5127 449.765 49.2359 461.537 49.2359H462.772V41.0834C456.008 41.0834 455.033 40.0564 455.033 33.5087V19.4504H462.772V11.6831H455.033V0L446.188 5.96994V11.6831H439.684V19.4504Z" fill="black"/>
<path d="M468.327 49.2359H477.108V29.2078C477.108 22.7243 479.774 20.0282 484.912 20.0282C487.449 20.0282 488.879 20.6701 490.18 21.5046L493.497 13.2879C491.741 12.325 489.595 11.6831 486.798 11.6831C482.05 11.6831 478.799 13.5447 477.043 17.2679V11.6831H468.327V49.2359Z" fill="black"/>
<path d="M513.863 50.0062C518.871 50.0062 523.423 47.8879 526.22 44.3573V49.2359H535V11.6831H526.22V16.1766C523.423 12.9028 519.001 10.9128 513.993 10.9128C504.367 10.9128 495.132 18.0382 495.132 30.4916C495.132 42.8166 504.692 50.0062 513.863 50.0062ZM515.294 42.0463C508.79 42.0463 503.782 36.9109 503.782 30.3632C503.782 23.8797 508.79 18.8085 515.294 18.8085C521.862 18.8085 526.675 23.9439 526.675 30.3632C526.675 36.8467 521.862 42.0463 515.294 42.0463Z" fill="black"/>
<path d="M351.438 39.2579H330.142V30.9306L350.962 1.5164H360.42V30.9306H367.7V39.2579H360.42V50.54H351.438V39.2579ZM351.438 30.9306V15.149L340.144 30.9306H351.438Z" fill="black"/>
<path d="M293.732 41.9441C293.732 39.8399 294.117 37.9371 294.888 36.2359C295.659 34.5346 296.657 32.99 297.882 31.6021C299.152 30.1695 300.558 28.8711 302.101 27.7071C303.688 26.5431 305.253 25.4462 306.795 24.4165C308.02 23.5658 309.199 22.76 310.333 21.9989C311.467 21.193 312.465 20.4095 313.327 19.6484C314.189 18.8426 314.869 18.0367 315.368 17.2308C315.913 16.3802 316.185 15.4848 316.185 14.5446C316.185 12.9329 315.595 11.5674 314.416 10.4481C313.282 9.28407 311.603 8.70205 309.381 8.70205C307.204 8.70205 305.412 9.35122 304.006 10.6496C302.645 11.9479 301.534 13.6268 300.672 15.6862L292.711 11.7241C294.253 8.36627 296.408 5.72482 299.175 3.79969C301.987 1.82979 305.412 0.844846 309.449 0.844846C311.944 0.844846 314.189 1.20301 316.185 1.91933C318.181 2.63566 319.882 3.62061 321.288 4.87418C322.694 6.08298 323.76 7.53802 324.486 9.2393C325.211 10.8958 325.574 12.6866 325.574 14.6117C325.574 16.5816 325.211 18.3277 324.486 19.8499C323.76 21.3721 322.807 22.7823 321.628 24.0807C320.449 25.3343 319.111 26.4983 317.614 27.5728C316.162 28.6473 314.688 29.677 313.191 30.6619C311.876 31.5126 310.606 32.3632 309.381 33.2138C308.201 34.0197 307.135 34.8704 306.183 35.7658C305.23 36.6612 304.459 37.6014 303.87 38.5863C303.28 39.5713 302.985 40.6457 302.985 41.8098H325.37V50.54H293.732V41.9441Z" fill="black"/>
<path d="M272.539 51.2116C268.048 51.2116 264.238 50.3833 261.108 48.7268C258.024 47.0255 255.37 44.9213 253.148 42.4142L261.585 35.8329C262.855 37.9819 264.42 39.6384 266.279 40.8024C268.139 41.9217 270.203 42.4813 272.471 42.4813C273.696 42.4813 274.762 42.3022 275.669 41.9441C276.621 41.5859 277.415 41.1158 278.05 40.5338C278.731 39.907 279.23 39.1907 279.547 38.3848C279.865 37.579 280.023 36.7507 280.023 35.9001C280.023 34.8704 279.728 33.9973 279.139 33.281C278.549 32.5647 277.778 31.9603 276.825 31.4678C275.873 30.9306 274.762 30.4605 273.491 30.0575C272.267 29.6546 270.997 29.2517 269.681 28.8487C268.003 28.3115 266.325 27.7295 264.646 27.1027C262.968 26.4759 261.448 25.6477 260.088 24.6179C258.772 23.5434 257.684 22.2451 256.822 20.7229C256.005 19.1559 255.597 17.2084 255.597 14.8804C255.597 12.9105 256.005 11.0749 256.822 9.37361C257.638 7.67233 258.772 6.19491 260.224 4.94134C261.721 3.643 263.467 2.63566 265.463 1.91933C267.459 1.20301 269.659 0.844846 272.063 0.844846C274.058 0.844846 275.85 1.02393 277.438 1.38209C279.071 1.74025 280.545 2.23273 281.86 2.85951C283.221 3.4863 284.446 4.24739 285.535 5.1428C286.669 5.99344 287.734 6.93362 288.732 7.96334L281.112 13.6716C278.98 10.5376 275.986 8.97067 272.131 8.97067C269.863 8.97067 268.139 9.50792 266.96 10.5824C265.78 11.6569 265.191 12.9776 265.191 14.5446C265.191 15.5295 265.463 16.3578 266.007 17.0294C266.551 17.7009 267.277 18.3053 268.184 18.8426C269.137 19.335 270.226 19.7827 271.45 20.1857C272.675 20.5886 273.968 21.0139 275.329 21.4616C277.007 21.9989 278.685 22.6256 280.364 23.342C282.087 24.0135 283.629 24.9089 284.99 26.0282C286.396 27.1027 287.53 28.4458 288.392 30.0575C289.254 31.6693 289.685 33.6392 289.685 35.9672C289.685 37.8924 289.299 39.7727 288.528 41.6083C287.757 43.4439 286.646 45.078 285.194 46.5107C283.743 47.8985 281.951 49.0402 279.819 49.9356C277.687 50.7862 275.261 51.2116 272.539 51.2116Z" fill="black"/>
</svg>
