<svg width="80" height="80" viewBox="0 0 80 80" fill="none" xmlns="http://www.w3.org/2000/svg">
<g clip-path="url(#clip0_2880_2579)">
<path fill-rule="evenodd" clip-rule="evenodd" d="M23.25 9.625L25.5 3.875C25.75 3.375 26.5 3.375 26.875 3.875L29.125 9.625L33.625 11.875C34.125 12.125 34.125 12.875 33.625 13.25L29.125 15.5L26.875 21.25C26.625 21.75 25.875 21.75 25.5 21.25L23.25 15.5L18.75 13.25C18.25 13 18.25 12.25 18.75 11.875L23.25 9.625Z" fill="url(#paint0_linear_2880_2579)"/>
<path fill-rule="evenodd" clip-rule="evenodd" d="M62.625 64.5L64.875 58.75C65.125 58.25 65.875 58.25 66.25 58.75L68.5 64.5L73 66.75C73.5 67 73.5 67.75 73 68.125L68.5 70.375L66.25 76.125C66 76.625 65.25 76.625 64.875 76.125L62.625 70.375L58.125 68.125C57.625 67.875 57.625 67.125 58.125 66.75L62.625 64.5Z" fill="url(#paint1_linear_2880_2579)"/>
<path fill-rule="evenodd" clip-rule="evenodd" d="M22.5 27.125C23.125 25.875 24.75 25.875 25.375 27.125L27.5 32.5L25.875 33.375C20.125 36.375 21.25 42 25.75 44L25.875 44.125L37 49.75L37.125 50L30.5 53.375L25.5 66.375C24.875 67.625 23.25 67.625 22.625 66.375L17.625 53.375L7.75 48.25C6.5 47.625 6.5 45.875 7.75 45.25L17.625 40.125L22.5 27.125Z" fill="url(#paint2_linear_2880_2579)"/>
<path fill-rule="evenodd" clip-rule="evenodd" d="M57.5 29.875L50.75 12.5C49.875 10.875 47.625 10.875 46.75 12.5L39.875 29.875L26.375 36.75C24.75 37.625 24.75 39.875 26.375 40.75L39.875 47.5L46.75 64.875C47.625 66.5 49.875 66.5 50.75 64.875L57.5 47.5L71 40.625C72.625 39.75 72.625 37.5 71 36.625L57.5 29.875Z" fill="url(#paint3_linear_2880_2579)"/>
</g>
<defs>
<linearGradient id="paint0_linear_2880_2579" x1="20.6447" y1="5.22463" x2="38.7319" y2="22.8444" gradientUnits="userSpaceOnUse">
<stop stop-color="#2C92B9"/>
<stop offset="1" stop-color="#19FF9F"/>
</linearGradient>
<linearGradient id="paint1_linear_2880_2579" x1="59.8575" y1="63.4923" x2="67.1729" y2="67.269" gradientUnits="userSpaceOnUse">
<stop stop-color="#305EBF"/>
<stop offset="1" stop-color="#2780FB"/>
</linearGradient>
<linearGradient id="paint2_linear_2880_2579" x1="17.1616" y1="36.6728" x2="35.5901" y2="61.8915" gradientUnits="userSpaceOnUse">
<stop stop-color="#3581FF"/>
<stop offset="0.5277" stop-color="#31AFFF"/>
<stop offset="1" stop-color="#19FF9F"/>
</linearGradient>
<linearGradient id="paint3_linear_2880_2579" x1="65.6826" y1="26.7395" x2="43.6638" y2="38.128" gradientUnits="userSpaceOnUse">
<stop stop-color="#305EBF"/>
<stop offset="1" stop-color="#2780FB"/>
</linearGradient>
<clipPath id="clip0_2880_2579">
<rect width="80" height="80" fill="white"/>
</clipPath>
</defs>
</svg>
