<svg width="80" height="80" viewBox="0 0 80 80" fill="none" xmlns="http://www.w3.org/2000/svg">
<path fill-rule="evenodd" clip-rule="evenodd" d="M15.8753 12.2087C13.8617 12.2087 12.2087 13.8617 12.2087 15.8753V64.2503C12.2087 66.264 13.8617 67.917 15.8753 67.917H64.2503C66.264 67.917 67.917 66.264 67.917 64.2503V15.8753C67.917 13.8617 66.264 12.2087 64.2503 12.2087H15.8753ZM9.54199 15.8753C9.54199 12.389 12.389 9.54199 15.8753 9.54199H64.2503C67.7367 9.54199 70.5837 12.389 70.5837 15.8753V64.2503C70.5837 67.7367 67.7367 70.5837 64.2503 70.5837H15.8753C12.389 70.5837 9.54199 67.7367 9.54199 64.2503V15.8753Z" fill="white"/>
<path fill-rule="evenodd" clip-rule="evenodd" d="M26.2503 24.7503C25.4276 24.7503 24.7503 25.4276 24.7503 26.2503V53.7503C24.7503 54.5731 25.4276 55.2503 26.2503 55.2503H53.7503C54.5731 55.2503 55.2503 54.5731 55.2503 53.7503V26.2503C55.2503 25.4276 54.5731 24.7503 53.7503 24.7503H26.2503ZM22.7503 26.2503C22.7503 24.3231 24.3231 22.7503 26.2503 22.7503H53.7503C55.6776 22.7503 57.2503 24.3231 57.2503 26.2503V53.7503C57.2503 55.6776 55.6776 57.2503 53.7503 57.2503H26.2503C24.3231 57.2503 22.7503 55.6776 22.7503 53.7503V26.2503Z" fill="white"/>
<path fill-rule="evenodd" clip-rule="evenodd" d="M60.1253 68.417C60.8617 68.417 61.4587 69.014 61.4587 69.7503V75.0003C61.4587 75.7367 60.8617 76.3337 60.1253 76.3337C59.389 76.3337 58.792 75.7367 58.792 75.0003V69.7503C58.792 69.014 59.389 68.417 60.1253 68.417Z" fill="white"/>
<path fill-rule="evenodd" clip-rule="evenodd" d="M46.7503 68.417C47.4867 68.417 48.0837 69.014 48.0837 69.7503V75.0003C48.0837 75.7367 47.4867 76.3337 46.7503 76.3337C46.014 76.3337 45.417 75.7367 45.417 75.0003V69.7503C45.417 69.014 46.014 68.417 46.7503 68.417Z" fill="white"/>
<path fill-rule="evenodd" clip-rule="evenodd" d="M33.2503 68.417C33.9867 68.417 34.5837 69.014 34.5837 69.7503V75.0003C34.5837 75.7367 33.9867 76.3337 33.2503 76.3337C32.514 76.3337 31.917 75.7367 31.917 75.0003V69.7503C31.917 69.014 32.514 68.417 33.2503 68.417Z" fill="white"/>
<path fill-rule="evenodd" clip-rule="evenodd" d="M19.7503 68.417C20.4867 68.417 21.0837 69.014 21.0837 69.7503V75.0003C21.0837 75.7367 20.4867 76.3337 19.7503 76.3337C19.014 76.3337 18.417 75.7367 18.417 75.0003V69.7503C18.417 69.014 19.014 68.417 19.7503 68.417Z" fill="white"/>
<path fill-rule="evenodd" clip-rule="evenodd" d="M3.66699 60.5003C3.66699 59.764 4.26395 59.167 5.00034 59.167H10.3753C11.1117 59.167 11.7087 59.764 11.7087 60.5003C11.7087 61.2367 11.1117 61.8337 10.3753 61.8337H5.00034C4.26395 61.8337 3.66699 61.2367 3.66699 60.5003Z" fill="white"/>
<path fill-rule="evenodd" clip-rule="evenodd" d="M3.66699 46.8753C3.66699 46.139 4.26395 45.542 5.00034 45.542H10.3753C11.1117 45.542 11.7087 46.139 11.7087 46.8753C11.7087 47.6117 11.1117 48.2087 10.3753 48.2087H5.00034C4.26395 48.2087 3.66699 47.6117 3.66699 46.8753Z" fill="white"/>
<path fill-rule="evenodd" clip-rule="evenodd" d="M3.66699 33.1253C3.66699 32.389 4.26395 31.792 5.00034 31.792H10.3753C11.1117 31.792 11.7087 32.389 11.7087 33.1253C11.7087 33.8617 11.1117 34.4587 10.3753 34.4587H5.00034C4.26395 34.4587 3.66699 33.8617 3.66699 33.1253Z" fill="white"/>
<path fill-rule="evenodd" clip-rule="evenodd" d="M3.66699 19.5003C3.66699 18.764 4.26395 18.167 5.00034 18.167H10.3753C11.1117 18.167 11.7087 18.764 11.7087 19.5003C11.7087 20.2367 11.1117 20.8337 10.3753 20.8337H5.00034C4.26395 20.8337 3.66699 20.2367 3.66699 19.5003Z" fill="white"/>
<path fill-rule="evenodd" clip-rule="evenodd" d="M68.542 60.5003C68.542 59.764 69.139 59.167 69.8753 59.167H75.0003C75.7367 59.167 76.3337 59.764 76.3337 60.5003C76.3337 61.2367 75.7367 61.8337 75.0003 61.8337H69.8753C69.139 61.8337 68.542 61.2367 68.542 60.5003Z" fill="white"/>
<path fill-rule="evenodd" clip-rule="evenodd" d="M68.542 46.8753C68.542 46.139 69.139 45.542 69.8753 45.542H75.0003C75.7367 45.542 76.3337 46.139 76.3337 46.8753C76.3337 47.6117 75.7367 48.2087 75.0003 48.2087H69.8753C69.139 48.2087 68.542 47.6117 68.542 46.8753Z" fill="white"/>
<path fill-rule="evenodd" clip-rule="evenodd" d="M68.542 33.1253C68.542 32.389 69.139 31.792 69.8753 31.792H75.0003C75.7367 31.792 76.3337 32.389 76.3337 33.1253C76.3337 33.8617 75.7367 34.4587 75.0003 34.4587H69.8753C69.139 34.4587 68.542 33.8617 68.542 33.1253Z" fill="white"/>
<path fill-rule="evenodd" clip-rule="evenodd" d="M68.542 19.5003C68.542 18.764 69.139 18.167 69.8753 18.167H75.0003C75.7367 18.167 76.3337 18.764 76.3337 19.5003C76.3337 20.2367 75.7367 20.8337 75.0003 20.8337H69.8753C69.139 20.8337 68.542 20.2367 68.542 19.5003Z" fill="white"/>
<path fill-rule="evenodd" clip-rule="evenodd" d="M60.1253 3.66699C60.8617 3.66699 61.4587 4.26395 61.4587 5.00034V10.1253C61.4587 10.8617 60.8617 11.4587 60.1253 11.4587C59.389 11.4587 58.792 10.8617 58.792 10.1253V5.00034C58.792 4.26395 59.389 3.66699 60.1253 3.66699Z" fill="white"/>
<path fill-rule="evenodd" clip-rule="evenodd" d="M46.7503 3.66699C47.4867 3.66699 48.0837 4.26395 48.0837 5.00034V10.1253C48.0837 10.8617 47.4867 11.4587 46.7503 11.4587C46.014 11.4587 45.417 10.8617 45.417 10.1253V5.00034C45.417 4.26395 46.014 3.66699 46.7503 3.66699Z" fill="white"/>
<path fill-rule="evenodd" clip-rule="evenodd" d="M33.2503 3.66699C33.9867 3.66699 34.5837 4.26395 34.5837 5.00034V10.1253C34.5837 10.8617 33.9867 11.4587 33.2503 11.4587C32.514 11.4587 31.917 10.8617 31.917 10.1253V5.00034C31.917 4.26395 32.514 3.66699 33.2503 3.66699Z" fill="white"/>
<path fill-rule="evenodd" clip-rule="evenodd" d="M19.7503 3.66699C20.4867 3.66699 21.0837 4.26395 21.0837 5.00034V10.1253C21.0837 10.8617 20.4867 11.4587 19.7503 11.4587C19.014 11.4587 18.417 10.8617 18.417 10.1253V5.00034C18.417 4.26395 19.014 3.66699 19.7503 3.66699Z" fill="white"/>
</svg>
