<svg width="77" height="77" viewBox="0 0 77 77" fill="none" xmlns="http://www.w3.org/2000/svg">
<path d="M40.2646 20.9919H36.7465C36.4246 20.9919 36.1613 21.2556 36.1613 21.5779V41.7452C36.1613 41.9357 36.2491 42.1115 36.4027 42.2214L48.4931 51.0634C48.7564 51.2538 49.1221 51.2026 49.3123 50.9388L51.4041 48.0819C51.6016 47.8108 51.5431 47.4445 51.2798 47.2614L40.8497 39.7087V21.5779C40.8497 21.2556 40.5864 20.9919 40.2646 20.9919ZM56.3412 26.5007L67.8099 29.3064C68.1756 29.3943 68.534 29.1159 68.534 28.7423L68.5925 16.9115C68.5925 16.4207 68.0293 16.1423 67.649 16.45L56.1218 25.4678C56.0347 25.5353 55.9683 25.6261 55.9304 25.7296C55.8925 25.8332 55.8846 25.9454 55.9075 26.0533C55.9304 26.1612 55.9833 26.2604 56.06 26.3396C56.1367 26.4187 56.2342 26.4746 56.3412 26.5007ZM68.6071 48.558L64.46 47.1295C64.3154 47.0799 64.1571 47.0889 64.0191 47.1546C63.881 47.2203 63.7741 47.3375 63.7212 47.4812C63.5823 47.8548 63.436 48.2211 63.2824 48.5873C61.9805 51.6714 60.1153 54.4478 57.7309 56.8286C55.373 59.1976 52.5785 61.0858 49.5024 62.3887C46.3158 63.7381 42.8905 64.4307 39.4308 64.4252C35.9346 64.4252 32.5481 63.744 29.3591 62.3887C26.283 61.0858 23.4886 59.1976 21.1306 56.8286C18.7535 54.4478 16.8884 51.6714 15.5791 48.5873C14.2393 45.394 13.5528 41.9638 13.5604 38.5C13.5604 34.9984 14.2406 31.5993 15.5938 28.4054C16.8957 25.3213 18.7608 22.5449 21.1453 20.1641C23.5032 17.7951 26.2977 15.9069 29.3737 14.604C32.5481 13.2487 35.9419 12.5674 39.4381 12.5674C42.9343 12.5674 46.3207 13.2487 49.5097 14.604C52.5858 15.9069 55.3803 17.7951 57.7382 20.1641C58.4843 20.9186 59.1864 21.7024 59.8301 22.5302L64.204 19.1019C58.4477 11.7323 49.4878 6.99268 39.4234 7.00001C21.8986 7.00733 7.82608 21.2629 8.00162 38.8223C8.17717 56.0741 22.1839 70 39.4381 70C53.0059 70 64.5624 61.3851 68.9655 49.3199C69.0752 49.0122 68.9143 48.6679 68.6071 48.558Z" fill="white"/>
</svg>
