<svg width="77" height="77" viewBox="0 0 77 77" fill="none" xmlns="http://www.w3.org/2000/svg">
<g clip-path="url(#clip0_2983_2235)">
<g clip-path="url(#clip1_2983_2235)">
<path d="M50.7677 21.8442L50.3789 22.5782H51.2095H60.1836C61.2719 22.5788 62.324 22.9424 63.1612 23.6035C63.998 24.2642 64.5676 25.1805 64.7781 26.1942L64.7781 26.1943L73.0781 66.138C73.2128 66.7868 73.1964 67.4563 73.0299 68.0985C72.8633 68.7408 72.5505 69.341 72.1125 69.8554C71.6746 70.3699 71.1222 70.7859 70.4945 71.0721C69.8666 71.3584 69.1798 71.5075 68.4836 71.5079H8.51669C7.82049 71.5075 7.13365 71.3584 6.50585 71.0721C5.87808 70.7859 5.32574 70.3699 4.88774 69.8554C4.44981 69.341 4.13697 68.7408 3.97042 68.0985C3.80389 67.4563 3.78746 66.7869 3.92219 66.138C3.9222 66.138 3.9222 66.138 3.9222 66.138L12.2222 26.1943L12.2222 26.1942C12.4327 25.1805 13.0023 24.2642 13.8391 23.6035C14.6763 22.9424 15.7284 22.5788 16.8167 22.5782H25.7908H26.6214L26.2326 21.8442C25.165 19.8284 24.6532 17.5841 24.745 15.3254C24.8368 13.0668 25.5293 10.8674 26.7577 8.93748C27.9862 7.00745 29.7101 5.41096 31.7663 4.30252C33.8225 3.19403 36.1411 2.61133 38.5001 2.61133C40.8592 2.61133 43.1778 3.19403 45.234 4.30252C47.2901 5.41096 49.0141 7.00745 50.2426 8.93748C51.471 10.8674 52.1635 13.0668 52.2553 15.3254C52.3471 17.5841 51.8353 19.8284 50.7677 21.8442ZM18.9433 29.0677H18.5365L18.4537 29.4659L11.1912 64.4167L11.0662 65.0184H11.6808H65.3195H65.9341L65.8091 64.4167L58.5466 29.4659L58.4638 29.0677H58.057H38.5001H18.9433ZM43.432 20.6104C44.7438 19.3478 45.4845 17.6312 45.4845 15.837C45.4845 14.0428 44.7438 12.3262 43.432 11.0636C42.1209 9.80156 40.3465 9.09579 38.5001 9.09579C36.6538 9.09579 34.8794 9.80156 33.5683 11.0636C32.2565 12.3262 31.5158 14.0428 31.5158 15.837C31.5158 17.6312 32.2565 19.3478 33.5683 20.6104C34.8794 21.8724 36.6538 22.5782 38.5001 22.5782C40.3465 22.5782 42.1209 21.8724 43.432 20.6104Z" fill="white" stroke="black"/>
<path d="M38.9044 57.0645C35.7794 57.0645 33.5455 55.0869 33.5455 52.3159V52.2061H35.0836C35.0836 54.0737 36.7682 55.5264 38.9288 55.5264C41.59 55.5264 43.4942 53.5732 43.4942 50.8389C43.4942 48.4707 41.9317 46.8594 39.649 46.8594C38.1232 46.8594 36.7804 47.4697 36.0113 48.5073H34.4244L36.7193 39.0835H45.9234L45.6671 40.585H37.9523L36.3775 46.835H36.524C37.2687 45.9438 38.5748 45.4189 40.0397 45.4189C43.0548 45.4189 45.13 47.6284 45.13 50.8145C45.13 54.4277 42.4933 57.0645 38.9044 57.0645ZM38.9044 87.0645C35.7794 87.0645 33.5455 85.0869 33.5455 82.3159V82.2061H35.0836C35.0836 84.0737 36.7682 85.5264 38.9288 85.5264C41.59 85.5264 43.4942 83.5732 43.4942 80.8389C43.4942 78.4707 41.9317 76.8594 39.649 76.8594C38.1232 76.8594 36.7804 77.4697 36.0113 78.5073H34.4244L36.7193 69.0835H45.9234L45.6671 70.585H37.9523L36.3775 76.835H36.524C37.2687 75.9438 38.5748 75.4189 40.0397 75.4189C43.0548 75.4189 45.13 77.6284 45.13 80.8145C45.13 84.4277 42.4933 87.0645 38.9044 87.0645Z" fill="white"/>
</g>
</g>
<defs>
<clipPath id="clip0_2983_2235">
<rect width="77" height="77" fill="white"/>
</clipPath>
<clipPath id="clip1_2983_2235">
<rect width="83" height="79.8875" fill="white" transform="translate(-3 -2.8877)"/>
</clipPath>
</defs>
</svg>
