<svg width="77" height="77" viewBox="0 0 77 77" fill="none" xmlns="http://www.w3.org/2000/svg">
<path d="M3.00781 6.21078L7.49096 21.6258L3.26648 15.3846C4.1568 19.3248 5.89832 24.3028 8.70912 30.559L19.3553 40.7705L11.9185 37.1461C13.8675 40.6502 16.4227 44.3649 19.4154 47.9442L29.0855 50.3204L21.927 50.8317C25.1754 54.3659 28.7848 57.6895 32.5896 60.4416C36.575 63.3337 40.7859 65.594 44.9818 66.7265L42.1545 70.9554C45.7188 70.5765 48.8168 69.4049 51.6592 67.4829L50.1102 72.5391C53.6443 71.3901 55.9303 69.5117 57.7801 66.3354C62.7881 68.1146 68.0217 68.9492 73.2402 69.8456L73.7064 67.0784C41.7184 63.869 21.3254 41.2217 12.2899 20.7536L14.9037 19.7159C23.1 38.0184 36.9359 52.2454 56.8777 59.6897C56.8928 56.9676 56.5619 54.3057 55.9303 51.8393L46.7715 51.1024L55.1182 49.1323C54.5166 47.493 53.7947 45.9891 52.9525 44.6506L46.4105 47.7637L51.6441 42.8309C50.6816 41.6278 49.5988 40.6352 48.4107 39.8832C41.2672 35.3114 34.1687 30.5289 28.2283 21.1145L25.792 27.9873L26.1078 17.445C25.2355 15.7305 24.1678 13.9258 23.1602 12.5573L22.5586 20.0317L19.9117 8.7975C19.0395 7.92523 18.1221 7.11312 17.2047 6.37621C13.9051 3.77445 10.4702 2.01489 7.34658 2.43598C5.78402 2.63149 4.31471 3.5639 3.49207 5.08285C3.29656 5.45882 3.12361 5.86488 3.00781 6.21078Z" fill="white"/>
</svg>
