<svg width="77" height="77" viewBox="0 0 77 77" fill="none" xmlns="http://www.w3.org/2000/svg">
<path d="M38 5C39.2375 5 40.4585 5.066 41.663 5.2013C42.0938 5.24897 42.5109 5.38102 42.8906 5.5899C43.2704 5.79879 43.6052 6.08043 43.8761 6.41873C44.147 6.75703 44.3486 7.14538 44.4694 7.56159C44.5902 7.9778 44.6279 8.41374 44.5802 8.8445C44.5325 9.27526 44.4005 9.69242 44.1916 10.0721C43.9827 10.4519 43.7011 10.7867 43.3628 11.0576C43.0245 11.3285 42.6361 11.5301 42.2199 11.6509C41.8037 11.7717 41.3678 11.8094 40.937 11.7617C35.4987 11.1533 30.0058 12.2499 25.218 14.8997C20.4302 17.5496 16.5842 21.6217 14.2118 26.5529C11.8395 31.4841 11.0581 37.0307 11.9758 42.4254C12.8935 47.82 15.4649 52.7962 19.3343 56.6657C23.2038 60.5351 28.18 63.1065 33.5746 64.0242C38.9693 64.9419 44.5159 64.1605 49.4471 61.7882C54.3783 59.4158 58.4504 55.5698 61.1003 50.782C63.7501 45.9942 64.8467 40.5013 64.2383 35.063C64.1906 34.6322 64.2283 34.1963 64.3491 33.7801C64.4699 33.3639 64.6715 32.9755 64.9424 32.6372C65.4894 31.954 66.2855 31.5161 67.1555 31.4198C68.0255 31.3235 68.898 31.5768 69.5813 32.1239C69.9196 32.3948 70.2012 32.7296 70.4101 33.1094C70.619 33.4891 70.751 33.9062 70.7987 34.337C70.9307 35.5415 71 36.7625 71 38C71 56.2259 56.2259 71 38 71C19.7741 71 5 56.2259 5 38C5 19.7741 19.7741 5 38 5ZM37.8944 24.3941C38.1119 25.2413 37.9841 26.1402 37.5392 26.8932C37.0943 27.6463 36.3687 28.1919 35.5217 28.4102C33.1948 29.0197 31.1691 30.4551 29.8227 32.4484C28.4763 34.4418 27.9012 36.8569 28.2046 39.2431C28.508 41.6293 29.6693 43.8236 31.4717 45.4166C33.2742 47.0095 35.5946 47.8922 38 47.9C40.1946 47.8991 42.3269 47.1694 44.0619 45.8255C45.797 44.4817 47.0367 42.5997 47.5865 40.475C47.8053 39.6274 48.3519 38.9013 49.106 38.4567C49.8601 38.012 50.7599 37.8851 51.6076 38.104C52.4552 38.3228 53.1812 38.8693 53.6259 39.6234C54.0705 40.3775 54.1974 41.2774 53.9786 42.125C52.9663 46.0056 50.5758 49.3849 47.2537 51.6316C43.9317 53.8782 39.9053 54.8387 35.9268 54.3334C31.9483 53.8281 28.2899 51.8916 25.6349 48.8858C22.98 45.88 21.5101 42.0104 21.5 38C21.5006 34.3419 22.7163 30.7876 24.9562 27.8954C27.1961 25.0032 30.3333 22.937 33.875 22.0214C34.2947 21.9132 34.7316 21.8888 35.1608 21.9495C35.5899 22.0102 36.0029 22.1548 36.3762 22.3752C36.7494 22.5955 37.0756 22.8872 37.3361 23.2336C37.5966 23.58 37.7863 23.9744 37.8944 24.3941ZM59.4632 5.4191C60.0655 5.66884 60.5804 6.09143 60.9428 6.63353C61.3052 7.17563 61.4988 7.81293 61.4993 8.465V14.504H67.535C68.1876 14.5041 68.8255 14.6978 69.368 15.0604C69.9106 15.423 70.3334 15.9383 70.5831 16.5412C70.8328 17.1441 70.8982 17.8076 70.7709 18.4476C70.6437 19.0876 70.3295 19.6756 69.8681 20.1371L58.196 31.796C57.5773 32.4149 56.738 32.7627 55.8629 32.7629H47.9L41.8676 38.7986C41.2484 39.4178 40.4086 39.7657 39.5329 39.7657C38.6572 39.7657 37.8173 39.4178 37.1981 38.7986C36.5789 38.1794 36.231 37.3396 36.231 36.4639C36.231 35.5881 36.5789 34.7483 37.1981 34.1291L43.2338 28.1V20.1338C43.234 19.2587 43.5818 18.4194 44.2007 17.8007L55.8662 6.1319C56.3277 5.67012 56.9158 5.3556 57.5561 5.22813C58.1963 5.10066 58.86 5.16597 59.4632 5.4158V5.4191ZM54.8993 16.4312L49.8338 21.5V26.1662H54.5L59.5688 21.1007H58.1993C57.3241 21.1007 56.4847 20.753 55.8658 20.1342C55.247 19.5153 54.8993 18.6759 54.8993 17.8007V16.4312Z" fill="white"/>
</svg>
