<svg width="77" height="77" viewBox="0 0 77 77" fill="none" xmlns="http://www.w3.org/2000/svg">
<path d="M41.5556 6H34.4444V41.5556H41.5556V6ZM58.7289 13.7156L53.68 18.7644C56.5597 21.0744 58.8827 24.0028 60.4768 27.3326C62.0709 30.6624 62.8953 34.3083 62.8889 38C62.8889 51.76 51.76 62.8889 38 62.8889C32.863 62.892 27.8511 61.3043 23.6528 58.3441C19.4545 55.3838 16.2759 51.1962 14.5536 46.3565C12.8312 41.5169 12.6498 36.2627 14.034 31.3157C15.4183 26.3687 18.3004 21.9718 22.2844 18.7289L17.2711 13.7156C13.7377 16.6987 10.8983 20.4175 8.9515 24.612C7.00469 28.8066 5.99739 33.3757 6.00001 38C6.00001 46.4869 9.37142 54.6263 15.3726 60.6274C21.3737 66.6286 29.5131 70 38 70C46.4869 70 54.6262 66.6286 60.6274 60.6274C66.6286 54.6263 70 46.4869 70 38C70 28.2578 65.6267 19.5822 58.7289 13.7156Z" fill="white"/>
</svg>
