<svg width="77" height="77" viewBox="0 0 77 77" fill="none" xmlns="http://www.w3.org/2000/svg">
<path d="M38 8.84473C19.991 8.84473 5.33594 23.4999 5.33594 41.5088C5.33594 48.4266 7.50029 54.848 11.1844 60.1354L15.49 57.265C12.946 53.6343 11.3241 49.4388 10.7644 45.041H14.875V42.4394H10.5557C10.5456 42.1301 10.5391 41.8203 10.5391 41.5086C10.5391 34.9501 12.825 28.9388 16.6435 24.223L19.1583 26.7378L20.9978 24.8984L18.377 22.2778C23.075 17.4844 29.5211 14.4121 36.6992 14.0794V18.3026H39.3008V14.0796C46.4789 14.4124 52.925 17.4848 57.623 22.2782L55.0022 24.8988L56.8415 26.7383L59.3564 24.2234C63.1749 28.9395 65.4609 34.9505 65.4609 41.5094C65.4609 41.8207 65.4546 42.1309 65.4443 42.4397H61.125V45.0413H65.2355C64.6758 49.439 63.054 53.6343 60.5102 57.265L64.8158 60.1354C68.4997 54.8482 70.6641 48.4269 70.6641 41.5091C70.6641 23.5002 56.009 8.84502 38 8.84502V8.84473ZM40.2879 18.417C42.8957 19.8555 45.2029 21.8859 47.0603 24.377C48.9177 26.8682 50.2841 29.7646 51.0711 32.8791L58.2928 30.34C58.0943 29.9969 57.8871 29.659 57.6713 29.3265L56.9291 30.0713L52.54 25.6935L51.7075 24.863L52.8421 23.7249C49.2856 20.7345 44.9108 18.8848 40.2878 18.4169L40.2879 18.417ZM62.8565 31.4023L37.5155 40.1609C35.7605 40.4014 34.3867 41.9243 34.3867 43.7404C34.3867 45.7204 36.0199 47.3536 38 47.3536C38.9785 47.3536 39.8717 46.9541 40.5254 46.3119L62.8565 31.4023ZM60.4698 36.0738L51.6949 41.9591C51.3491 45.0459 50.4464 48.0235 49.0408 50.7136C47.6352 53.4037 45.7556 55.7511 43.5144 57.6152H54.5071C57.2237 54.8459 59.2 51.4378 60.2541 47.7044H58.5928V40.1143H61.053C60.9781 38.7529 60.783 37.4009 60.4698 36.0738ZM19.5 61.9513V67.1544H56.5V61.9513H19.5Z" fill="white"/>
</svg>
