<svg width="240" height="124" viewBox="0 0 240 124" fill="none" xmlns="http://www.w3.org/2000/svg">
<g clip-path="url(#clip0_2578_1582)">
<path opacity="0.8" d="M189.308 108.127H0V123.912H239.707V71.709C239.707 98.9946 217.045 108.127 189.308 108.127Z" fill="#327896"/>
<path d="M189.308 108.128C217.045 108.128 239.707 98.9949 239.707 71.7093V0H0V108.128H189.308Z" fill="white"/>
<path d="M88.284 36.757V71.3714H77.6854V57.7286H66.7486V71.3714H56.1501V36.757H66.7486V50.5126H77.6854V36.757H88.284ZM124.928 64.3809V36.757H114.329V71.3714H133.384L134.963 64.3809H124.928ZM106.662 36.757H96.0637V71.3714H106.662V36.757ZM149.395 36.757H138.796V71.3714H149.395V36.757ZM201.485 45.5516C201.485 43.6348 203.402 42.8456 206.446 42.8456C209.716 42.8456 213.437 43.5221 215.805 44.5368L214.903 36.9825C212.197 36.4188 209.716 35.9678 205.206 35.9678C196.637 35.9678 190.887 39.3503 190.887 46.3408C190.887 58.5179 207.348 56.0374 207.348 61.6749C207.348 63.8171 205.77 65.0574 201.824 65.0574C198.328 65.0574 193.029 63.9299 189.872 62.3514L191 70.3567C194.157 71.4842 198.554 72.0479 201.936 72.0479C210.731 72.0479 217.947 69.1164 217.947 60.4346C218.06 48.9341 201.485 51.0763 201.485 45.5516ZM187.73 49.1596C187.73 57.9541 181.529 63.0279 171.719 63.0279H167.999V71.2587H157.4V36.757C161.008 36.306 166.082 36.0805 170.254 36.0805C181.078 36.0805 187.73 39.463 187.73 49.1596ZM177.357 49.3851C177.357 45.1006 174.876 42.62 169.69 42.62C169.126 42.62 168.562 42.62 167.999 42.62V56.9394H169.69C175.102 56.8266 177.357 53.7823 177.357 49.3851ZM51.9783 49.1596C51.9783 57.9541 45.777 63.0279 35.9677 63.0279H32.247V71.2587H21.6484V36.757C25.2565 36.306 30.3302 36.0805 34.502 36.0805C45.326 36.0805 51.9783 39.463 51.9783 49.1596ZM41.6053 49.3851C41.6053 45.1006 39.1248 42.62 33.9382 42.62C33.3745 42.62 32.8107 42.62 32.247 42.62V56.9394H33.9382C39.3503 56.8266 41.6053 53.7823 41.6053 49.3851Z" fill="#0B5ED7"/>
</g>
<defs>
<clipPath id="clip0_2578_1582">
<rect width="239.707" height="123.8" fill="white"/>
</clipPath>
</defs>
</svg>
