<svg width="112" height="112" viewBox="0 0 112 112" fill="none" xmlns="http://www.w3.org/2000/svg">
<rect width="112" height="112" rx="56" fill="#327896"/>
<g clip-path="url(#clip0_2592_7018)">
<path d="M45.6449 54.6731C44.522 54.0066 43.0435 54.3583 42.3698 55.4877C39.9556 59.4681 38.7391 62.5968 38.4209 65.6516C38.0092 69.632 39.2444 73.3902 42.1265 76.7967C42.5944 77.3521 43.2868 77.6483 43.9606 77.6483C44.5033 77.6483 45.046 77.4632 45.4952 77.1114C46.5058 76.2783 46.6555 74.7972 45.7946 73.779C41.4902 68.6508 42.95 63.7262 46.4684 57.9129C47.1421 56.7836 46.7678 55.3396 45.6449 54.6731Z" fill="white"/>
<path d="M53.4682 86.5905C42.4825 86.5905 33.5555 77.7596 33.5555 66.8921C33.5555 63.7633 34.5287 61.1715 34.5848 61.0233C35.427 58.9128 37.0178 55.4508 38.0471 53.4513L53.6367 23.0892L69.4695 54.5066C70.3865 56.3394 71.0603 57.6539 71.3223 58.1723C71.3223 58.1908 71.341 58.2093 71.341 58.2278L71.6592 59.1165L71.8276 59.5978L73.2686 61.0233L76.3192 58.0056C75.9636 56.9874 75.7203 56.3394 75.7203 56.3394C75.7203 56.3394 74.822 54.5806 73.7365 52.4146L55.6579 16.5169C55.1151 15.4246 54.3853 14.8877 53.6741 14.8877C52.9442 14.8877 52.233 15.4246 51.6716 16.4984L33.7801 51.3223C32.6759 53.4698 31.029 57.0615 30.1307 59.3016C30.1307 59.3016 28.7832 62.6711 28.7832 66.8921C28.7832 80.37 39.8437 91.3114 53.4682 91.3114C55.9573 91.3114 58.3715 90.9412 60.6548 90.2562L56.6685 86.3313C55.6204 86.4979 54.5537 86.5905 53.4682 86.5905Z" fill="white"/>
<path d="M77.7977 71.4463L80.8108 68.4657L88.3342 61.0232L83.8239 56.543L76.2818 64.0039L73.2687 66.9846L70.2556 64.0039L62.7134 56.543L58.2031 61.0232L65.7265 68.4657L68.7396 71.4463L65.7265 74.427L58.2031 81.888L62.7134 86.3497L70.2556 78.9073L73.2687 75.9266L76.2818 78.9073L83.8239 86.3497L88.3342 81.888L80.8108 74.427L77.7977 71.4463Z" fill="white"/>
</g>
<defs>
<clipPath id="clip0_2592_7018">
<rect width="59.551" height="76.4237" fill="white" transform="translate(28.7832 14.8877)"/>
</clipPath>
</defs>
</svg>
