<svg width="112" height="112" viewBox="0 0 112 112" fill="none" xmlns="http://www.w3.org/2000/svg">
<rect width="112" height="112" rx="56" fill="#327896"/>
<g clip-path="url(#clip0_2592_7021)">
<path d="M59.2583 38.4385H87.5229C88.5339 38.4385 89.3691 37.6033 89.3691 36.5923C89.3691 35.5813 88.5339 34.7461 87.5229 34.7461H59.2583C58.2473 34.7461 57.4121 35.5813 57.4121 36.5923C57.4121 37.6033 58.2473 38.4385 59.2583 38.4385Z" fill="white"/>
<path d="M25.9391 39.0543H40.489C41.4561 41.5598 43.9177 43.3621 46.7749 43.3621C50.5113 43.3621 53.5003 40.329 53.5003 36.6366C53.5003 32.9002 50.5113 29.8672 46.7749 29.8672C43.9177 29.8672 41.4561 31.6694 40.489 34.175H25.9391C24.6204 34.175 23.5215 35.2739 23.5215 36.5927C23.5215 37.9114 24.6204 39.0543 25.9391 39.0543Z" fill="white"/>
<path d="M87.5233 54.1312H70.9514C70.1602 51.318 67.5667 49.208 64.4897 49.208C61.6324 49.208 59.1708 51.0103 58.2038 53.5158H25.9391C24.5765 53.5158 23.5215 54.6148 23.5215 55.9335C23.5215 57.2522 24.6204 58.3511 25.9391 58.3511H58.1598C59.1269 60.8567 61.5885 62.6589 64.4457 62.6589C67.5227 62.6589 70.1162 60.5929 70.9074 57.7357H87.4793C88.4903 57.7357 89.3255 56.9005 89.3255 55.8895C89.3255 54.8785 88.5343 54.1312 87.5233 54.1312Z" fill="white"/>
<path d="M87.5233 73.517H61.8522C61.061 70.7037 58.4675 68.5938 55.3905 68.5938C52.5333 68.5938 50.0717 70.396 49.1046 72.9016H25.9391C24.5765 72.9016 23.5215 74.0005 23.5215 75.3192C23.5215 76.6819 24.6204 77.7369 25.9391 77.7369H49.0607C50.0277 80.2424 52.4893 82.0447 55.3466 82.0447C58.4236 82.0447 61.017 79.9787 61.8083 77.1215H87.4793C88.4903 77.1215 89.3255 76.2863 89.3255 75.2753C89.3255 74.3522 88.5343 73.517 87.5233 73.517Z" fill="white"/>
</g>
<defs>
<clipPath id="clip0_2592_7021">
<rect width="65.804" height="52.2212" fill="white" transform="translate(23.5215 29.8672)"/>
</clipPath>
</defs>
</svg>
