<svg width="112" height="112" viewBox="0 0 112 112" fill="none" xmlns="http://www.w3.org/2000/svg">
<rect width="112" height="112" rx="56" fill="#327896"/>
<g clip-path="url(#clip0_2601_14761)">
<path d="M27 41.1292C27.0975 42.8638 27.5851 44.2129 28.5603 45.4657C29.5355 46.7185 31.0959 47.6821 33.3388 48.6458C34.8992 49.3204 36.9471 49.9949 39.5802 50.6695H39.6777H39.7752C42.3107 49.9949 45.4314 49.3204 49.3322 48.4531L51.4777 47.9712L49.3322 47.4894C42.1157 45.9475 37.8248 44.7911 35.1917 43.6347C31.9736 42.2856 31.9736 41.4183 31.9736 40.6474V40.4547C31.9736 39.5874 32.6562 38.2382 39.9702 36.2145V38.0455C39.9702 38.5273 40.1653 38.9128 40.5554 39.2019C40.7504 39.2983 40.9455 39.3946 41.238 39.3946C41.4331 39.3946 41.7256 39.2983 41.9207 39.2019L52.4529 32.7453L41.8231 26.1924C41.4331 25.9033 40.9455 25.9033 40.5554 26.1924C40.1653 26.3851 39.9702 26.867 39.9702 27.3488V30.7216C30.9983 33.0344 27 35.2509 27 40.6474V41.1292Z" fill="white"/>
<path d="M79.2712 54.8124C77.8084 54.2342 75.858 53.5596 73.42 52.9814H73.3225H73.2249C70.7869 53.656 67.6663 54.3306 63.6679 55.1979L61.5225 55.6797L63.6679 56.1615C70.5919 57.607 74.8828 58.7634 77.5158 59.9198C81.0266 61.269 81.5142 62.1363 81.9043 63.0036C82.0993 63.5818 82.782 65.22 81.5142 68.6892C81.3192 69.171 81.1241 69.4601 81.2216 69.6528C81.3192 69.7492 81.4167 69.7492 81.6117 69.7492C81.7092 69.7492 81.7092 69.6528 81.8068 69.6528L82.0018 69.5565L82.1968 69.4601C85.3175 67.1473 85.9026 64.6418 85.9026 63.0036C85.9026 61.0762 85.3175 59.5344 84.1473 58.1852C83.172 56.7397 81.6117 55.6797 79.2712 54.8124Z" fill="white"/>
<path d="M86 41.2255V40.7437C86 38.8163 85.4149 37.2745 84.2446 35.9254C83.1719 34.6726 81.6116 33.7089 79.2711 32.7453C78.0033 32.2634 75.3703 31.3961 73.2248 30.8179V27.9269C73.2248 27.4451 72.9322 26.9633 72.5421 26.7705C72.1521 26.4814 71.6645 26.4814 71.1769 26.7705L60.3521 33.4198L71.1769 40.0691C71.3719 40.1655 71.6645 40.2618 71.8595 40.2618C72.0545 40.2618 72.3471 40.1655 72.5421 40.0691C72.9322 39.78 73.2248 39.3945 73.2248 38.9127V36.4072C74.9802 36.889 76.443 37.3709 77.6132 37.8527C81.124 39.2982 81.124 40.1655 81.124 40.84C81.124 41.7073 81.124 42.4783 77.9058 43.8274C74.4926 45.2729 68.4463 46.7184 56.4512 49.2239C45.724 51.344 38.2149 53.0786 33.8264 54.8132C30.4132 56.1623 27 58.0896 27 62.7152C27 64.3535 27.6826 66.5699 30.9008 68.9791L31.5835 69.3645H31.876V69.1718L31.486 68.5936C30.5107 67.2445 30.4132 64.9317 30.5107 63.968C30.6083 62.6189 32.2661 61.077 35.4843 59.7279C39.5802 58.0896 46.7967 56.4514 57.3289 54.3314C69.8116 51.8258 75.8578 50.284 79.6612 48.7421C82.6843 47.4893 85.7074 45.6584 86 41.2255Z" fill="white"/>
<path d="M35.6797 72.8337C36.1673 75.1465 45.1392 77.2665 53.0383 76.3029C52.2582 75.1465 52.3557 73.7973 53.1359 72.5446C54.6962 70.1354 58.597 68.5935 63.6681 67.919C61.3276 67.7262 58.8896 67.6299 56.4516 67.6299C50.9904 67.6299 46.0168 68.1117 41.6284 69.0754C35.4846 70.9063 35.5821 72.3518 35.6797 72.8337Z" fill="white"/>
<path d="M45.7239 85.2648C51.1851 84.8794 54.6958 82.8557 55.7686 81.3138C56.2562 80.6392 56.0611 79.6756 55.6711 79.001C55.5735 78.9046 54.9884 78.8083 54.2082 78.9046C45.2363 80.2538 34.119 78.3264 33.2413 73.8936C33.0463 72.8335 33.3388 71.9662 34.0215 71.1953C30.0231 72.8335 27.6826 74.9536 27.6826 77.2664C27.6826 80.061 31.1934 82.6629 36.9471 84.3975C39.6777 85.1685 42.6033 85.4576 45.7239 85.2648Z" fill="white"/>
<path d="M72.3467 69.1724C70.9814 68.9796 69.5186 68.9796 67.9583 69.076C62.4971 69.3651 58.6938 71.5815 57.6211 73.2198C57.1335 73.8943 57.1335 74.5689 57.5236 75.1471C57.6211 75.2435 58.2062 75.3398 58.9864 75.2434C67.9583 73.8943 79.0756 75.6289 79.9533 80.0618C80.2459 81.5073 79.5632 82.6637 78.4905 83.6273C82.6839 81.8927 85.2194 79.7727 85.2194 77.3635C85.1219 73.8943 80.0509 70.907 72.3467 69.1724Z" fill="white"/>
<path d="M77.2229 80.832C76.7353 78.5192 68.1535 76.7846 60.2543 77.7482C61.0345 78.9046 60.937 80.2538 60.1568 81.5065C58.5965 83.9157 54.5981 85.843 49.332 86.614C51.575 86.8067 54.013 86.9031 56.451 86.9031C61.7172 86.9031 66.5932 86.4212 70.7866 85.5539C77.8081 83.6266 77.3205 81.4102 77.2229 80.832Z" fill="white"/>
</g>
<defs>
<clipPath id="clip0_2601_14761">
<rect width="59" height="61" fill="white" transform="translate(27 26)"/>
</clipPath>
</defs>
</svg>
