<svg width="112" height="112" viewBox="0 0 112 112" fill="none" xmlns="http://www.w3.org/2000/svg">
<rect width="112" height="112" rx="56" fill="#327896"/>
<g clip-path="url(#clip0_2592_7022)">
<path d="M46.1099 58.9447C43.2415 57.2898 40.373 55.635 37.5046 53.9801C36.5484 53.4285 35.629 53.9801 35.629 55.0833C35.629 55.5614 35.629 56.0395 35.629 56.5543C35.5922 57.8415 35.8864 57.6944 34.4522 57.7679C31.5838 57.9518 28.7888 58.5034 26.1043 59.4228C24.0448 60.1215 22.1325 61.0777 20.5144 62.5855C17.4253 65.4172 17.2047 69.4256 19.3009 72.5515C20.3306 74.0961 21.728 75.1994 23.2358 76.1555C26.3985 78.1046 29.8921 79.2078 33.4961 80.0169C35.96 80.5685 38.4607 81.0098 40.9614 81.304C42.7266 81.5247 44.5286 81.4511 46.3306 81.4879C46.6248 81.4879 46.919 81.4144 47.1764 81.304C47.4706 81.1937 47.5074 81.0098 47.25 80.8259C47.0661 80.7156 46.8822 80.6053 46.6616 80.5317C45.8893 80.2743 45.117 80.0169 44.308 79.7962C42.2853 79.2446 40.1891 78.7665 38.1665 78.1781C36.0336 77.553 33.9006 76.891 31.8044 76.1555C29.414 75.3097 27.134 74.2064 25.1113 72.6619C24.0816 71.8896 23.1622 70.9702 22.6842 69.7566C22.2796 68.7269 22.4267 67.5501 23.3093 66.7043C24.1184 65.932 25.0378 65.4539 26.0675 65.0862C29.0463 64.0197 32.1354 63.7623 35.2613 63.7623C35.5555 63.7623 35.6658 63.8726 35.6658 64.1668C35.6658 64.9023 35.6658 65.601 35.6658 66.3365C35.7026 67.5133 36.622 68.0282 37.6149 67.4398C41.3292 65.3068 45.0435 63.1371 48.7578 61.0041C48.8681 60.9306 48.9784 60.857 49.1255 60.7467C49.0152 60.6732 48.9416 60.5996 48.8681 60.5628C47.9119 60.0112 46.9926 59.4964 46.1099 58.9447Z" fill="white"/>
<path d="M37.5033 32.6139C36.5472 32.0622 35.6278 32.6139 35.591 33.7171C35.591 34.4159 35.591 35.1146 35.591 35.7765C35.591 36.1075 35.5175 36.2546 35.1497 36.2914C32.4651 36.4753 29.8173 36.8798 27.2063 37.6521C25.0366 38.314 22.9772 39.1231 21.2119 40.5205C19.5938 41.7709 18.3803 43.3522 17.9757 45.4116C17.4977 47.9859 18.3067 50.2292 19.9984 52.1783C21.8371 54.2377 24.2275 55.5248 26.765 56.5545C26.9121 56.5913 27.096 56.5913 27.2431 56.5545C29.0818 56.2235 30.9206 55.8558 32.7593 55.488C32.8697 55.4512 32.98 55.4145 33.2007 55.3777C33.0903 55.2674 33.0536 55.2306 32.98 55.1938C32.4651 55.0099 31.9135 54.8628 31.3987 54.6422C29.1554 53.7596 26.9489 52.7667 25.0366 51.2589C24.0436 50.4866 23.1243 49.6408 22.6462 48.4272C22.2049 47.3239 22.352 46.1104 23.2714 45.2645C24.154 44.4555 25.2204 43.9406 26.3237 43.5729C29.1922 42.6167 32.1709 42.3961 35.1497 42.3961C35.4807 42.3961 35.591 42.5432 35.5543 42.8374C35.5543 43.5361 35.5543 44.2348 35.5543 44.8968C35.5543 46.1104 36.5104 46.6252 37.5401 46C40.8499 44.0877 44.1597 42.1754 47.4694 40.2631C47.9843 39.9689 48.4991 39.6747 49.0875 39.3069C48.7933 39.1598 48.6094 39.0495 48.4256 38.9392C44.8584 36.843 41.1809 34.7101 37.5033 32.6139Z" fill="white"/>
<path d="M86.2311 73.9858C83.1052 72.1471 79.6484 71.3748 76.0812 70.9703C75.3824 70.8967 74.6469 70.8232 73.985 70.7864C73.9482 70.7128 73.9482 70.7128 73.9482 70.6761C73.9482 69.867 73.9482 69.0212 73.9482 68.2121C73.9482 68.0282 73.9482 67.8444 73.8747 67.6973C73.6172 66.9985 72.8817 66.7779 72.1094 67.2192C68.6526 69.2051 65.2325 71.1909 61.8124 73.1768C61.6653 73.2503 61.5182 73.3606 61.3711 73.471C61.4446 73.5445 61.4814 73.5813 61.555 73.6181C65.0854 75.6775 68.6158 77.7001 72.183 79.7227C73.1391 80.2744 73.985 79.7595 73.985 78.6563C73.985 77.8472 73.985 77.0382 73.985 76.1923C74.1321 76.1923 74.2056 76.1923 74.2792 76.1556C76.1547 76.1188 78.0302 76.2291 79.869 76.5601C81.7445 76.9278 83.5833 77.3691 85.2014 78.5092C86.415 79.3918 86.7827 80.6421 86.1943 82.0396C85.6427 83.2899 84.6866 84.1725 83.6201 84.9448C81.8181 86.232 79.8322 87.1513 77.8096 87.9604C74.2792 89.3211 70.5649 90.1669 66.8874 91.1598C65.7106 91.4908 64.5705 91.8586 63.3937 92.2631C63.2466 92.2999 63.1363 92.5205 63.026 92.6308C63.1731 92.7044 63.357 92.8515 63.5041 92.8883C64.166 92.9618 64.8647 92.9986 65.5267 92.9986C68.5423 92.925 71.521 92.4837 74.463 91.8218C77.4418 91.1598 80.3839 90.3875 83.1788 89.1004C85.6795 87.9604 87.9595 86.5262 89.3938 84.099C90.4235 82.4073 90.7177 80.6054 90.166 78.6563C89.5409 76.4865 88.0331 75.0891 86.2311 73.9858Z" fill="white"/>
<path d="M67.0706 61.5186C68.799 62.5115 70.4907 63.5045 72.2191 64.4974C73.0282 64.9387 73.874 64.4238 73.9108 63.5412C73.9108 63.0999 73.9108 62.6219 73.9108 62.1806C73.9108 61.776 73.9108 61.3347 73.9108 60.9302C74.0211 60.8934 74.0579 60.8934 74.0946 60.8934C76.0805 60.8934 78.0296 60.9302 79.9787 61.3347C81.7439 61.7025 83.4355 62.1438 84.9433 63.1735C86.304 64.0929 86.7085 65.38 86.0833 66.851C85.5317 68.1014 84.5388 68.9472 83.5091 69.7562C83.3988 69.8298 83.3252 69.9033 83.2149 70.0137C83.3252 70.0872 83.362 70.124 83.3988 70.1608C84.4652 70.6388 85.5685 71.0801 86.635 71.5214C86.7453 71.5582 86.9292 71.5215 87.0395 71.4479C88.1795 70.5653 89.0989 69.4988 89.6873 68.2117C90.7906 65.7477 90.6435 63.3941 88.9886 61.2244C87.4072 59.1282 85.2007 58.025 82.8104 57.1791C80.0522 56.223 77.1837 55.7449 74.2785 55.5978C73.9843 55.5978 73.9108 55.4875 73.9108 55.1933C73.9108 54.421 73.9108 53.6487 73.9108 52.8397C73.9108 52.3984 73.7269 52.1042 73.3591 51.8835C72.8443 51.5525 72.403 51.7364 71.9617 52.0306C69.13 53.6487 66.2983 55.3036 63.5034 56.9217C62.8047 57.3262 62.0692 57.7308 61.2969 58.1721C61.4808 58.2824 61.5543 58.3559 61.6646 58.4295C63.4666 59.4224 65.2686 60.4889 67.0706 61.5186Z" fill="white"/>
<path d="M67.2548 46.3305C68.8729 47.2499 70.4542 48.206 72.0723 49.0886C73.102 49.677 73.9111 49.1622 73.9111 48.0222C73.9111 47.3234 73.9111 46.6247 73.9111 45.9627C73.9111 45.6318 74.0214 45.5214 74.3524 45.5582C75.9337 45.6685 77.5151 45.7053 79.0596 45.8892C80.8616 46.1098 82.6636 46.5144 84.2817 47.4338C85.0907 47.8751 85.863 48.4267 86.2308 49.3093C86.6721 50.3758 86.3043 51.3319 85.7159 52.2145C85.054 53.1707 84.2081 53.943 83.1417 54.6417C83.252 54.7152 83.2888 54.7152 83.3623 54.752C84.4656 55.2301 85.5688 55.7082 86.6721 56.1862C86.7824 56.223 86.9663 56.1862 87.0766 56.0759C87.996 55.3404 88.805 54.4578 89.3934 53.4281C90.0186 52.3248 90.3864 51.148 90.3864 49.8609C90.3864 47.3602 89.136 45.5214 87.2237 44.0872C85.2378 42.5794 82.9578 41.7704 80.5674 41.182C78.508 40.6671 76.4486 40.3729 74.3524 40.2626C74.0214 40.2626 73.8743 40.1523 73.9111 39.7845C73.9479 39.0858 73.8743 38.3503 73.9479 37.6516C74.0214 36.7322 73.0285 36.0335 72.1459 36.5851C69.5716 38.1296 66.9606 39.6006 64.3495 41.0716C63.3566 41.6233 62.3637 42.2117 61.334 42.8369C61.5179 42.9472 61.5914 43.0207 61.7385 43.0943C63.5405 44.1608 65.416 45.2272 67.2548 46.3305Z" fill="white"/>
<path d="M72.1456 33.8266C73.1017 34.3782 73.9108 33.8634 73.9108 32.7233C73.9108 31.9143 73.9108 31.0684 73.9108 30.2226C74.0211 30.1858 74.0579 30.1858 74.0946 30.1858C76.7057 30.1858 79.2799 30.3697 81.8174 31.0685C83.1781 31.4362 84.4652 31.9511 85.5317 32.944C86.4143 33.7898 86.635 34.8563 86.1569 35.9963C85.6053 37.3202 84.5756 38.2396 83.4355 39.0487C83.362 39.1222 83.2516 39.1958 83.2149 39.2325C84.3549 39.7474 85.4949 40.2622 86.5982 40.7403C86.7085 40.7771 86.9659 40.7403 87.0395 40.6668C87.4072 40.3358 87.8118 40.0048 88.1427 39.6371C89.7609 37.8719 90.6802 35.8124 90.2757 33.3485C89.9447 31.2523 88.6944 29.7813 87.0763 28.5677C85.3478 27.2806 83.362 26.5451 81.3393 25.9567C79.0225 25.2947 76.6689 24.9638 74.3153 24.8167C73.9843 24.7799 73.874 24.7063 73.9108 24.3754C73.9475 23.6031 73.9108 22.8308 73.9108 22.0953C73.9108 21.654 73.6901 21.3598 73.3224 21.1392C72.8811 20.8817 72.4765 20.9921 72.072 21.2127C68.9461 23.0147 65.8202 24.8167 62.7311 26.6187C62.253 26.8761 61.8117 27.1703 61.2969 27.4645C61.4072 27.538 61.444 27.6116 61.5175 27.6484C65.0847 29.7445 68.6151 31.7672 72.1456 33.8266Z" fill="white"/>
<path d="M55.3754 90.2773C54.7502 90.2773 54.1618 90.829 54.125 91.4542C54.125 91.7116 54.125 91.969 54.125 92.1897C54.125 92.4471 54.125 92.7045 54.125 92.9252C54.1618 93.5871 54.6766 94.102 55.3754 94.102C56.0005 94.102 56.5889 93.6239 56.6257 92.9987C56.6625 92.4839 56.6625 91.9322 56.6257 91.4174C56.5522 90.829 56.0005 90.3141 55.3754 90.2773Z" fill="white"/>
<path d="M55.3388 86.3048C56.0375 86.3048 56.5892 85.8267 56.5892 85.1279C56.5892 84.9073 56.5892 84.6499 56.5892 84.4292C56.5892 84.1718 56.5892 83.9144 56.5892 83.6202C56.5524 82.9582 55.964 82.4434 55.3388 82.4434C54.7136 82.4434 54.162 82.9582 54.1252 83.6202C54.0885 84.135 54.0885 84.6131 54.1252 85.1279C54.1252 85.7899 54.6769 86.3048 55.3388 86.3048Z" fill="white"/>
<path d="M55.3386 27.833C54.6766 27.833 54.125 28.3479 54.125 29.0098C54.125 29.2305 54.125 29.4879 54.125 29.7085C54.125 29.966 54.125 30.2234 54.125 30.5176C54.1618 31.1795 54.7134 31.6944 55.3754 31.6944C56.0005 31.6944 56.5889 31.1795 56.5889 30.5544C56.6257 30.0395 56.6257 29.5247 56.5889 29.0098C56.5522 28.3479 56.0005 27.833 55.3386 27.833Z" fill="white"/>
<path d="M55.3034 78.5092C56.0022 78.546 56.5538 78.0311 56.5906 77.3324C56.5906 77.075 56.5906 76.8175 56.5906 76.5969C56.5906 76.3395 56.5906 76.082 56.5906 75.8614C56.5538 75.1994 56.0022 74.6846 55.3402 74.6846C54.6782 74.6846 54.1266 75.1994 54.0898 75.8614C54.0898 76.3395 54.0898 76.8175 54.0898 77.2956C54.1266 77.9943 54.6047 78.5092 55.3034 78.5092Z" fill="white"/>
<path d="M56.5889 60.1946C56.5522 59.5327 55.9638 59.0178 55.3386 59.0546C54.7134 59.0546 54.1618 59.5694 54.125 60.1946C54.125 60.452 54.125 60.7095 54.125 60.9301C54.125 61.1876 54.125 61.445 54.125 61.7392C54.1618 62.4011 54.7134 62.916 55.3754 62.8792C56.0005 62.8792 56.5522 62.3644 56.5889 61.7392C56.6257 61.2243 56.6257 60.7095 56.5889 60.1946Z" fill="white"/>
<path d="M54.1257 69.5722C54.1625 70.2341 54.6773 70.7122 55.3393 70.7122C56.038 70.7122 56.5897 70.2341 56.5897 69.5722C56.6264 69.0573 56.6264 68.5425 56.5897 68.0276C56.5529 67.3657 56.0013 66.8508 55.3393 66.8876C54.7141 66.8876 54.1625 67.4024 54.1257 68.0276C54.1257 68.285 54.1257 68.5425 54.1257 68.7631C54.1257 69.0206 54.0889 69.278 54.1257 69.5722Z" fill="white"/>
<path d="M54.1252 53.943C54.1252 54.4579 54.4562 54.7889 54.8607 54.9727C55.302 55.1566 55.7433 55.1198 56.1479 54.7889C56.6995 54.3476 56.5892 53.7592 56.5892 53.1708C56.5892 52.8766 56.5892 52.6191 56.5892 52.3249C56.5524 51.6998 55.964 51.2217 55.3388 51.2217C54.6769 51.2217 54.1252 51.7365 54.1252 52.3617C54.0885 52.9133 54.0885 53.4282 54.1252 53.943Z" fill="white"/>
<path d="M54.1266 46.1097C54.1634 46.8085 54.6782 47.2865 55.3402 47.2865C56.0389 47.2865 56.5906 46.7717 56.5906 46.073C56.5906 45.5949 56.5906 45.1168 56.5906 44.6755C56.5538 43.9768 56.0389 43.4619 55.3402 43.4619C54.6415 43.4619 54.1266 43.9768 54.0898 44.6755C54.0898 44.8961 54.0898 45.1168 54.0898 45.3374C54.0898 45.5949 54.0898 45.8523 54.1266 46.1097Z" fill="white"/>
<path d="M54.8612 23.7511C55.3393 23.9717 55.7806 23.8614 56.2219 23.4936C56.7368 23.0523 56.5897 22.4639 56.5897 21.9491C56.5897 21.6917 56.5897 21.4342 56.5897 21.14C56.5529 20.4781 56.038 20 55.3761 20C54.7141 20 54.1625 20.4781 54.1257 21.14C54.0889 21.6549 54.1257 22.133 54.1257 22.6478C54.0889 23.1994 54.4199 23.5672 54.8612 23.7511Z" fill="white"/>
<path d="M56.5889 36.8057C56.5522 36.1438 56.0005 35.6289 55.3386 35.6289C54.6766 35.6289 54.125 36.1438 54.125 36.8057C54.125 37.0264 54.125 37.2838 54.125 37.5044C54.125 37.7619 54.125 38.0193 54.125 38.2399C54.1618 38.9387 54.6766 39.4167 55.3386 39.4167C56.0373 39.4167 56.5522 38.9387 56.5889 38.2767C56.6257 37.7986 56.6257 37.3206 56.5889 36.8057Z" fill="white"/>
<path d="M55.4506 98.1097C54.9357 98.073 54.2738 98.4775 54.1634 98.9924C54.0899 99.213 54.1267 99.4704 54.0899 99.6911C54.0899 99.7646 54.0899 99.8382 54.0899 99.9117C54.0163 100.721 54.6415 101.272 55.3402 101.272C56.0757 101.272 56.5538 100.758 56.5906 99.9117C56.5906 99.6543 56.5906 99.3969 56.5906 99.1762C56.517 98.6246 56.0022 98.1465 55.4506 98.1097Z" fill="white"/>
<path d="M55.3754 16.0648C56.0373 16.0648 56.5889 15.5499 56.6257 14.888C56.6257 14.6306 56.6257 14.3731 56.6257 14.0789C56.5889 13.3434 55.8902 12.7918 55.1547 12.9389C54.456 13.0492 54.125 13.5273 54.125 14.4835C54.125 14.6306 54.125 14.7409 54.125 14.888C54.125 15.5499 54.6766 16.0648 55.3754 16.0648Z" fill="white"/>
</g>
<defs>
<clipPath id="clip0_2592_7022">
<rect width="72.5574" height="88.3339" fill="white" transform="translate(17.8652 12.9023)"/>
</clipPath>
</defs>
</svg>
