<svg width="112" height="112" viewBox="0 0 112 112" fill="none" xmlns="http://www.w3.org/2000/svg">
<rect width="112" height="112" rx="56" fill="#327896"/>
<path d="M64.2779 73.3587C63.308 73.4388 62.338 73.6794 61.4562 74.0804C60.0454 74.8021 59.0754 75.8446 58.5464 77.0475V52.9095C60.1336 52.8293 61.4562 51.6264 61.4562 50.1027V45.8525C61.4562 45.6119 61.7208 45.1308 61.8971 44.9704C61.8971 44.9704 63.4843 43.6071 64.8952 42.4844C66.3942 41.2815 67.9814 39.6777 67.9814 36.47V31.1772V26.2053H64.9834H64.8952H63.4843V19.4691C63.4843 18.587 62.6907 17.8652 61.7208 17.8652C60.7508 17.8652 59.9572 18.587 59.9572 19.4691V26.1251H52.1094V19.4691C52.1094 18.587 51.3158 17.8652 50.3458 17.8652C49.3758 17.8652 48.5822 18.587 48.5822 19.4691V26.1251H47.1714H47.0832H44.0852V31.097V36.3898C44.0852 39.5975 45.6724 41.2013 47.1714 42.4042C48.5822 43.5269 50.1694 44.8902 50.1694 44.8902C50.3458 45.0506 50.6103 45.5318 50.6103 45.7723V50.0225C50.6103 51.5462 51.933 52.7491 53.5202 52.8293V63.5751C52.9911 62.3722 51.933 61.2495 50.6103 60.608C49.7286 60.1268 48.7586 59.8863 47.7886 59.8863L34.7383 59.3249L41.9689 69.0282C42.5861 69.8302 43.3797 70.5519 44.3497 71.0331C47.5241 72.6369 51.4921 71.5944 53.2557 68.7075C53.3439 68.4669 53.5202 68.3065 53.6084 68.0659V94.289H58.5464V81.5383C58.6345 81.7789 58.7227 81.9393 58.8991 82.1799C60.6626 85.0668 64.6306 86.1093 67.8051 84.5055C68.775 84.0243 69.5686 83.3026 70.1859 82.5006L77.4165 72.7973L64.2779 73.3587Z" fill="white"/>
</svg>
