<svg width="112" height="112" viewBox="0 0 112 112" fill="none" xmlns="http://www.w3.org/2000/svg">
<rect width="112" height="112" rx="56" fill="#327896"/>
<g clip-path="url(#clip0_2592_7024)">
<path d="M55.9786 58.1611C49.2295 58.1611 43.0759 60.6424 38.411 64.6125C37.9148 65.0095 37.9148 65.8035 38.3118 66.2998L39.7013 67.6893C40.0983 68.0863 40.7931 68.1855 41.2893 67.7885C45.2594 64.414 50.4205 62.429 55.9786 62.429C61.5367 62.429 66.6977 64.414 70.6678 67.7885C71.1641 68.1855 71.7596 68.0863 72.2558 67.6893L73.6454 66.2998C74.1416 65.8035 74.0424 65.0095 73.5461 64.6125C68.8813 60.6424 62.7277 58.1611 55.9786 58.1611Z" fill="white"/>
<path d="M55.9785 71.3623C53.1002 71.3623 50.3211 72.3548 48.0383 74.1413C47.9391 74.2406 47.8398 74.4391 47.8398 74.5384C47.8398 74.7369 47.9391 74.8361 48.0383 74.9354L55.5815 82.5777C55.6807 82.677 55.8792 82.7762 55.9785 82.7762C56.177 82.7762 56.2762 82.677 56.3755 82.5777L63.9186 74.9354C64.0179 74.8361 64.1171 74.6376 64.1171 74.5384C64.1171 74.3399 64.0179 74.2406 63.9186 74.1413C61.6358 72.3548 58.8568 71.3623 55.9785 71.3623Z" fill="white"/>
<path d="M93.6941 44.5639C83.4711 35.0357 70.0722 29.7754 55.9784 29.7754C41.8847 29.7754 28.4857 35.0357 18.2628 44.5639C17.7666 44.9609 17.7666 45.7549 18.2628 46.2512L19.6523 47.6407C20.0493 48.0377 20.7441 48.1369 21.2404 47.6407C30.7685 38.8073 42.9765 34.0432 55.9784 34.0432C68.9804 34.0432 81.2876 38.9065 90.7165 47.6407C91.2128 48.0377 91.9075 48.0377 92.3045 47.6407L93.6941 46.2512C94.1903 45.7549 94.1903 45.0601 93.6941 44.5639Z" fill="white"/>
<path d="M55.9784 44.0674C45.6563 44.0674 35.9296 47.8389 28.2872 54.6873C27.791 55.0843 27.791 55.8783 28.2872 56.3746L29.776 57.8634C30.173 58.2604 30.8678 58.2604 31.364 57.8634C37.9146 52.0075 46.5495 48.4345 56.0777 48.4345C65.5066 48.4345 74.2407 52.0075 80.7913 57.8634C81.2876 58.2604 81.9824 58.2604 82.3794 57.8634L83.8681 56.3746C84.3644 55.8783 84.2651 55.1836 83.8681 54.6873C76.0273 47.8389 66.3006 44.0674 55.9784 44.0674Z" fill="white"/>
</g>
<defs>
<clipPath id="clip0_2592_7024">
<rect width="76.2253" height="53.0004" fill="white" transform="translate(17.8652 29.7754)"/>
</clipPath>
</defs>
</svg>
