<svg width="112" height="112" viewBox="0 0 112 112" fill="none" xmlns="http://www.w3.org/2000/svg">
<rect width="112" height="112" rx="56" fill="#327896"/>
<g clip-path="url(#clip0_2592_7023)">
<path d="M48.625 81.4221H46.7475V79.0693H44.9395V84.9801H46.7475V82.6622H48.625V84.9801H50.433V79.0693H48.625V81.4221Z" fill="white"/>
<path d="M41.2313 78.9424C40.5128 78.9424 39.6436 78.9887 39.0293 79.0699V84.9806H40.8373V83.5667H41.4747C43.1552 83.5667 44.2215 82.6975 44.2215 81.1908C44.2215 79.5451 43.0857 78.9424 41.2313 78.9424ZM41.1386 82.512H40.8373V80.0666C40.9416 80.055 41.0459 80.055 41.1386 80.055C42.031 80.055 42.4483 80.4722 42.4483 81.214C42.4483 81.9905 42.0774 82.512 41.1386 82.512Z" fill="white"/>
<path d="M53.5756 79.0693H51.7676V84.9801H53.5756V79.0693Z" fill="white"/>
<path d="M69.7886 80.5765C69.7886 80.252 70.1131 80.1014 70.6347 80.1014C71.2026 80.1014 71.8168 80.2288 72.2456 80.4027L72.095 79.1162C71.6198 79.0119 71.2026 78.9424 70.4376 78.9424C68.9773 78.9424 67.9922 79.5219 67.9922 80.7272C67.9922 82.8018 70.8085 82.3845 70.8085 83.3465C70.8085 83.7174 70.5419 83.9144 69.8697 83.9144C69.2787 83.9144 68.3631 83.7174 67.8184 83.4392L68.0154 84.7952C68.5601 84.9922 69.3018 85.0965 69.8929 85.0965C71.3996 85.0965 72.6397 84.5982 72.6397 83.1147C72.6281 81.1444 69.7886 81.5153 69.7886 80.5765Z" fill="white"/>
<path d="M56.7046 79.0693H54.9082V84.9801H58.1649L58.4431 83.798H56.7046V79.0693Z" fill="white"/>
<path d="M64.4462 78.9424C63.7276 78.9424 62.87 78.9887 62.2441 79.0699V84.9806H64.0521V83.5667H64.7012C66.3817 83.5667 67.4479 82.6975 67.4479 81.1908C67.4363 79.5451 66.3006 78.9424 64.4462 78.9424ZM64.3535 82.512H64.0521V80.0666C64.1564 80.055 64.2608 80.055 64.3535 80.055C65.2459 80.055 65.6631 80.4722 65.6631 81.214C65.6631 81.9905 65.2922 82.512 64.3535 82.512Z" fill="white"/>
<path d="M60.8881 79.0693H59.0801V84.9801H60.8881V79.0693Z" fill="white"/>
<path d="M53.2731 65.8923H57.1789H68.8729H72.7787H72.7903C77.6348 65.8923 80.3352 58.4864 81.0653 53.9316H44.998C45.7282 58.4864 48.4286 65.8923 53.2731 65.8923Z" fill="white"/>
<path d="M71.5156 39.1083L71.5272 39.201C71.5272 39.259 71.5388 39.3285 71.5504 39.3865C71.562 39.514 71.5852 39.6299 71.6083 39.7457C71.7011 40.2209 71.8749 40.6613 72.0603 41.067C72.2458 41.4726 72.4544 41.8435 72.663 42.1796C73.0802 42.875 73.5206 43.4892 73.8568 44.0687C74.1929 44.6482 74.4362 45.1813 74.4826 45.6217C74.4826 45.6797 74.4942 45.7261 74.4942 45.784C74.4942 45.8304 74.4942 45.8651 74.4942 45.9115V46.0042C74.4942 46.0622 74.4942 46.1317 74.4826 46.1896C74.471 46.2592 74.471 46.3171 74.4594 46.3867C74.4247 46.6416 74.3783 46.885 74.3088 47.1168C74.1697 47.5804 73.9495 47.9629 73.7177 48.299C73.4859 48.6235 73.2309 48.8785 73.0107 49.0755C72.7905 49.2725 72.5935 49.4 72.466 49.4811C72.3964 49.5275 72.3501 49.5507 72.3153 49.5738C72.3037 49.5738 72.3037 49.5854 72.2921 49.5854H72.2805C72.2805 49.5854 72.2805 49.5854 72.2805 49.597V49.6086C72.2921 49.6202 72.2921 49.6434 72.3037 49.655C72.3733 49.8288 72.4312 49.9563 72.466 50.0374C72.5239 50.1533 72.5471 50.2229 72.5471 50.2229C72.5471 50.2229 72.5819 50.2808 72.6398 50.3967C72.6862 50.4778 72.7441 50.6053 72.8253 50.7676C72.8369 50.7792 72.8369 50.8024 72.8484 50.814L72.86 50.8255H72.8716C72.8832 50.8255 72.8948 50.814 72.9064 50.814C72.9528 50.7908 73.0339 50.7676 73.1266 50.7212C73.312 50.6285 73.5902 50.501 73.9263 50.2808C74.2508 50.0606 74.6333 49.7593 75.0041 49.3421C75.1896 49.1334 75.375 48.9016 75.5373 48.6351C75.7111 48.3685 75.8618 48.0672 75.9893 47.7543C76.1283 47.4297 76.2211 47.0821 76.3022 46.7112C76.3254 46.6185 76.337 46.5257 76.3485 46.433C76.3601 46.3403 76.3717 46.2476 76.3833 46.1317C76.3833 46.0737 76.3949 46.0274 76.3949 45.981C76.3949 45.9347 76.3949 45.8999 76.4065 45.8535C76.4065 45.7376 76.4065 45.6217 76.4065 45.5174C76.3833 45.0654 76.2674 44.625 76.1283 44.231C75.9777 43.8369 75.7922 43.4661 75.6068 43.1184C75.2128 42.423 74.7723 41.7971 74.3899 41.1713C74.0074 40.557 73.6713 39.9428 73.5322 39.3633C73.5091 39.2937 73.4975 39.2242 73.4859 39.1547C73.4859 39.1199 73.4743 39.0851 73.4743 39.0504L73.4627 38.9924V38.9461C73.4627 38.9229 73.4627 38.8765 73.4511 38.8186V38.7954V38.7722V38.7143C73.4511 38.6331 73.4511 38.552 73.4511 38.4825C73.4627 38.1695 73.5207 37.8566 73.6018 37.5553C73.6829 37.254 73.8104 36.9642 73.9611 36.6861C74.0422 36.547 74.1233 36.4195 74.216 36.292C74.3088 36.1645 74.4015 36.0486 74.5058 35.9327C74.7144 35.7009 74.9346 35.4923 75.178 35.3069C75.2939 35.2142 75.4214 35.133 75.5489 35.0519C75.6068 35.0171 75.6648 34.9824 75.7459 34.936L75.8038 34.9012L75.8154 34.8896H75.827C75.8386 34.8896 75.7922 34.9012 75.8154 34.9012L75.8386 34.8896L75.8502 34.8781L75.3287 33.6611L75.2939 33.6727H75.2823L75.2243 33.6959C75.1548 33.7191 75.0505 33.7654 74.9578 33.8002C74.7723 33.8813 74.5985 33.9625 74.4247 34.0668C74.0654 34.2638 73.7293 34.5072 73.4163 34.7853C73.1034 35.0751 72.8021 35.3996 72.5471 35.7589C72.2921 36.1297 72.0835 36.5238 71.9213 36.9526C71.8401 37.1612 71.7706 37.393 71.7126 37.6132C71.6547 37.8334 71.6199 38.0652 71.5968 38.297C71.5852 38.4129 71.5736 38.5288 71.5736 38.6447V38.7374V38.7838V38.7954V38.8186V38.8417C71.5736 38.8881 71.5736 38.9345 71.5736 39.0156L71.5156 39.1083Z" fill="white"/>
<path d="M62.7656 39.1083L62.7772 39.201C62.7772 39.259 62.7888 39.3285 62.8004 39.3865C62.812 39.514 62.8352 39.6299 62.8583 39.7457C62.9511 40.2209 63.1249 40.6613 63.3103 41.067C63.4958 41.4726 63.7044 41.8435 63.913 42.1796C64.3302 42.875 64.7706 43.4892 65.1068 44.0687C65.4544 44.6482 65.6862 45.1813 65.7326 45.6217C65.7442 45.6797 65.7442 45.7261 65.7442 45.784C65.7442 45.8304 65.7442 45.8651 65.7442 45.9115V46.0042C65.7442 46.0622 65.7442 46.1317 65.7326 46.1896C65.721 46.2592 65.721 46.3171 65.7094 46.3867C65.6747 46.6416 65.6283 46.885 65.5588 47.1168C65.4197 47.5804 65.1995 47.9629 64.9677 48.299C64.7359 48.6235 64.4809 48.8785 64.2607 49.0755C64.0405 49.2725 63.8435 49.4 63.716 49.4811C63.6464 49.5275 63.6001 49.5507 63.5653 49.5738C63.5537 49.5738 63.5537 49.5854 63.5421 49.5854H63.5305C63.5305 49.5854 63.5305 49.5854 63.5305 49.597V49.6086C63.5421 49.6202 63.5421 49.6434 63.5537 49.655C63.6233 49.8288 63.6812 49.9563 63.716 50.0374C63.7739 50.1533 63.7971 50.2229 63.7971 50.2229C63.7971 50.2229 63.8319 50.2808 63.8898 50.3967C63.9362 50.4778 63.9941 50.6053 64.0753 50.7676C64.0869 50.7792 64.0869 50.8024 64.0984 50.814L64.11 50.8255H64.1216C64.1332 50.8255 64.1448 50.814 64.1564 50.814C64.2028 50.7908 64.2839 50.7676 64.3766 50.7212C64.562 50.6285 64.8402 50.501 65.1763 50.2808C65.5008 50.0606 65.8833 49.7593 66.2541 49.3421C66.4396 49.1334 66.625 48.9016 66.7873 48.6351C66.9611 48.3685 67.1118 48.0672 67.2393 47.7543C67.3783 47.4297 67.4826 47.0821 67.5522 46.7112C67.5754 46.6185 67.587 46.5257 67.5985 46.433C67.6101 46.3403 67.6217 46.2476 67.6333 46.1317C67.6333 46.0737 67.6449 46.0274 67.6449 45.981C67.6449 45.9347 67.6449 45.8999 67.6449 45.8535C67.6449 45.7376 67.6449 45.6217 67.6449 45.5174C67.6217 45.0654 67.5058 44.625 67.3668 44.231C67.2161 43.8369 67.0422 43.4661 66.8452 43.1184C66.4512 42.423 66.0108 41.7971 65.6283 41.1713C65.2458 40.557 64.9097 39.9428 64.7591 39.3633C64.7359 39.2937 64.7243 39.2242 64.7127 39.1547C64.7127 39.1199 64.7011 39.0851 64.7011 39.0504L64.6895 38.9924V38.9461C64.6895 38.9229 64.6779 38.8765 64.6779 38.8186V38.7954V38.7722V38.7143C64.6779 38.6331 64.6779 38.552 64.6779 38.4825C64.6895 38.1695 64.7475 37.8566 64.8286 37.5553C64.9097 37.254 65.0372 36.9642 65.1879 36.6861C65.269 36.547 65.3501 36.4195 65.4429 36.292C65.5356 36.1645 65.6283 36.0486 65.7326 35.9327C65.9412 35.7009 66.1614 35.4923 66.4048 35.3069C66.5207 35.2142 66.6482 35.133 66.7757 35.0519C66.8336 35.0171 66.8916 34.9824 66.9727 34.936L67.0306 34.9012L67.0422 34.8896H67.0538C67.0654 34.8896 67.0191 34.9012 67.0422 34.9012L67.0654 34.8896L67.077 34.8781L66.5555 33.6611L66.5207 33.6727H66.5091L66.4512 33.6959C66.3816 33.7191 66.2773 33.7654 66.1846 33.8002C65.9992 33.8813 65.8253 33.9625 65.6515 34.0668C65.3038 34.2638 64.9561 34.5072 64.6432 34.7853C64.3302 35.0751 64.0289 35.3996 63.7739 35.7589C63.519 36.1297 63.3103 36.5238 63.1481 36.9526C63.067 37.1612 62.9974 37.393 62.9395 37.6132C62.8815 37.8334 62.8468 38.0652 62.8236 38.297C62.812 38.4129 62.8004 38.5288 62.8004 38.6447V38.7374V38.7838V38.7954V38.8186V38.8417C62.8004 38.8881 62.8004 38.9345 62.8004 39.0156L62.7656 39.1083Z" fill="white"/>
<path d="M31.832 33.8115C36.1898 63.574 36.1898 63.574 36.1898 63.574C36.1898 64.93 37.569 65.8456 38.7163 65.8456H46.8523C46.1917 65.1154 45.5543 64.223 44.94 63.1336C42.9814 59.6682 42.228 55.8784 41.9846 54.4181L41.4283 50.8832H43.2247H45.0096H56.3675C56.9702 46.7225 57.7815 41.2058 58.8477 33.8927V33.8695V33.8579C58.8477 33.8463 58.8477 33.8463 58.8477 33.8463V33.8347V33.8231H55.1854C54.0496 41.5651 54.0496 41.5651 54.0496 41.5651L54.0264 41.623C51.9518 42.2604 48.6024 42.6661 45.1371 40.5915C41.7644 38.5749 38.3686 39.0153 36.1782 39.7223C35.4944 33.8231 35.4944 33.8231 35.4944 33.8231C31.832 33.8115 31.832 33.8115 31.832 33.8115Z" fill="white"/>
<path d="M67.1465 39.1084L67.1581 39.2012C67.1581 39.2591 67.1697 39.3286 67.1813 39.3866C67.1928 39.5141 67.216 39.63 67.2392 39.7459C67.3319 40.2211 67.5058 40.6615 67.6796 41.0671C67.865 41.4727 68.0737 41.8436 68.2823 42.1797C68.7111 42.8751 69.1399 43.4894 69.476 44.0689C69.8121 44.6483 70.0555 45.1815 70.1019 45.6219C70.1019 45.6798 70.1135 45.7262 70.1135 45.7841C70.1135 45.8305 70.1135 45.8653 70.1135 45.9116V46.0043C70.1135 46.0623 70.1019 46.1318 70.1019 46.1898C70.0903 46.2593 70.0903 46.3173 70.0787 46.3868C70.0439 46.6418 69.9976 46.8852 69.928 47.117C69.7889 47.5805 69.5687 47.963 69.3369 48.2991C69.1052 48.6236 68.8502 48.8786 68.63 49.0756C68.4098 49.2726 68.2127 49.4001 68.0853 49.4813C68.0157 49.5276 67.9694 49.5508 67.9346 49.574C67.923 49.574 67.923 49.5856 67.9114 49.5856H67.8998C67.8998 49.5856 67.8998 49.5856 67.8998 49.5972V49.6087C67.9114 49.6203 67.9114 49.6435 67.923 49.6551C67.9925 49.829 68.0505 49.9564 68.0853 50.0376C68.1432 50.1535 68.1664 50.223 68.1664 50.223C68.1664 50.223 68.2012 50.281 68.2591 50.3969C68.3055 50.478 68.3634 50.6055 68.4445 50.7677C68.4561 50.7793 68.4561 50.8025 68.4677 50.8141L68.4793 50.8257H68.4909C68.5025 50.8257 68.5141 50.8141 68.5257 50.8141C68.572 50.7909 68.6532 50.7677 68.7459 50.7214C68.9313 50.6286 69.2095 50.5012 69.5456 50.281C69.8701 50.0607 70.2525 49.7594 70.6234 49.3422C70.8088 49.1336 70.9943 48.9018 71.1565 48.6352C71.3304 48.3686 71.481 48.0673 71.6085 47.7544C71.7476 47.4299 71.8519 47.0822 71.9215 46.7113C71.9446 46.6186 71.9562 46.5259 71.9678 46.4332C71.9794 46.3404 71.991 46.2477 72.0026 46.1318C72.0026 46.0739 72.0142 46.0275 72.0142 45.9812C72.0142 45.9348 72.0142 45.9 72.0258 45.8537C72.0258 45.7378 72.0258 45.6219 72.0258 45.5176C72.0026 45.0656 71.8867 44.6252 71.7476 44.2311C71.5969 43.8371 71.4231 43.4662 71.2261 43.1185C70.832 42.4231 70.3916 41.7973 70.0092 41.1714C69.6267 40.5572 69.2906 39.9429 69.1399 39.3634C69.1167 39.2939 69.1052 39.2243 69.0936 39.1548C69.0936 39.12 69.082 39.0853 69.082 39.0505L69.0704 38.9925V38.9462C69.0704 38.923 69.0704 38.8766 69.0588 38.8187V38.8071C69.0588 38.8071 69.0588 38.8303 69.0588 38.8187V38.8071V38.7839V38.726C69.0588 38.6449 69.0588 38.5637 69.0588 38.4942C69.0704 38.1813 69.1283 37.8683 69.2095 37.567C69.2906 37.2657 69.4181 36.9759 69.5687 36.6978C69.6499 36.5587 69.731 36.4312 69.8237 36.3037C69.9164 36.1762 70.0092 36.0603 70.1135 35.9444C70.3221 35.7126 70.5423 35.504 70.7857 35.3186C70.9016 35.2259 71.0406 35.1447 71.1565 35.0636C71.2145 35.0289 71.2724 34.9941 71.3536 34.9477L71.4115 34.913L71.4231 34.9014H71.4347C71.4463 34.9014 71.3999 34.913 71.4231 34.913L71.4463 34.9014L71.4579 34.8898L70.9363 33.6729L70.9016 33.6844H70.89L70.832 33.7076C70.7625 33.7308 70.6582 33.7772 70.5655 33.8119C70.38 33.8931 70.2062 33.9742 70.0323 34.0785C69.673 34.2755 69.3369 34.5189 69.024 34.7971C68.7111 35.0868 68.4098 35.4113 68.1548 35.7706C67.8998 36.1415 67.6912 36.5355 67.5289 36.9643C67.4478 37.173 67.3783 37.4047 67.3203 37.625C67.2624 37.8452 67.2276 38.077 67.2044 38.3087C67.1928 38.4246 67.1813 38.5405 67.1813 38.6564V38.7492V38.7955V38.8071V38.8303V38.8535C67.1813 38.8998 67.1813 38.9462 67.1813 39.0273L67.1465 39.1084Z" fill="white"/>
<path d="M90.8588 35.5732C90.8588 35.5153 90.8588 35.4573 90.8588 35.3878C90.8588 35.3182 90.8588 35.2487 90.8473 35.1792C90.8473 35.1212 90.8473 35.0633 90.8357 35.0053C90.8357 34.9474 90.8241 34.901 90.8241 34.8431C90.8241 34.7735 90.8125 34.6924 90.8125 34.6228C90.8125 34.5997 90.8125 34.5765 90.8009 34.5417C90.7893 34.4374 90.7893 34.3447 90.7777 34.2404C90.7777 34.2288 90.7777 34.2172 90.7777 34.2172C90.0244 26.962 84.0557 21.2251 76.6962 20.8542C76.673 20.8542 76.6614 20.8542 76.6382 20.8542C76.4064 20.8426 76.163 20.8311 75.9197 20.8311H35.738C35.5873 20.8311 35.4367 20.8311 35.286 20.8426C35.1353 20.8426 34.9963 20.8542 34.8456 20.8658C29.4564 21.1903 24.8436 24.3659 22.4793 28.8975C22.4678 28.9207 22.4446 28.9555 22.433 28.9786C22.4098 29.025 22.3866 29.0714 22.3634 29.1177C22.3403 29.1873 22.3055 29.2452 22.2707 29.3032C22.2591 29.3263 22.2475 29.3495 22.236 29.3727C22.1896 29.4654 22.1548 29.5465 22.1085 29.6393C22.0969 29.6509 22.0969 29.674 22.0853 29.6856C21.2624 31.54 20.7988 33.603 20.7988 35.7818V74.5611V75.9751C20.7988 84.2154 27.4977 90.9142 35.738 90.9142H75.9312C84.1716 90.9142 90.8704 84.2154 90.8704 75.9751V60.3057V35.7818C90.8588 35.7123 90.8588 35.6427 90.8588 35.5732ZM75.9312 22.0016C83.1632 22.0016 89.1204 27.6111 89.6651 34.7156C89.6651 34.7156 89.6651 34.7156 89.6651 34.7272C89.6767 34.8315 89.6767 34.9242 89.6883 35.0285C89.6883 35.0517 89.6883 35.0633 89.6883 35.0864C89.6883 35.1792 89.6999 35.2719 89.6999 35.353C89.6999 35.3762 89.6999 35.411 89.6999 35.4341C89.6999 35.5037 89.6999 35.5732 89.6999 35.6427C89.6999 35.6891 89.6999 35.7355 89.6999 35.7818V60.3057C89.6999 64.8837 87.915 68.3142 84.4033 70.4931C81.2973 72.417 76.8932 73.4021 71.3185 73.4021H21.9578V35.7818C21.9578 33.7884 22.3866 31.8993 23.14 30.1956C23.1515 30.1724 23.1631 30.1492 23.1747 30.126C23.1979 30.0797 23.2211 30.0333 23.2443 29.987C23.2674 29.929 23.2906 29.8826 23.3254 29.8247C23.337 29.7899 23.3602 29.7667 23.3718 29.732C23.4065 29.6624 23.4413 29.5929 23.4761 29.5234C23.4876 29.5002 23.4992 29.477 23.5108 29.4538C25.539 25.5249 29.4216 22.697 33.9764 22.1175C33.988 22.1175 33.9995 22.1175 33.9995 22.1175C34.5674 22.048 35.1353 22.0132 35.7264 22.0132H75.9312V22.0016ZM89.6999 75.9751C89.6999 83.5663 83.5225 89.7553 75.9197 89.7553H35.738C28.1351 89.7553 21.9578 83.5663 21.9578 75.9751V74.5611H71.3185C77.125 74.5611 81.7261 73.5296 85.0176 71.4782C87.1733 70.1338 88.7379 68.3838 89.7114 66.2165V75.9751H89.6999Z" fill="white"/>
</g>
<defs>
<clipPath id="clip0_2592_7023">
<rect width="70.06" height="70.0716" fill="white" transform="translate(20.7988 20.8428)"/>
</clipPath>
</defs>
</svg>
