<svg width="112" height="112" viewBox="0 0 112 112" fill="none" xmlns="http://www.w3.org/2000/svg">
<rect width="112" height="112" rx="56" fill="#327896"/>
<g clip-path="url(#clip0_2592_7026)">
<path d="M27.9333 44.6624V79.7278C27.9333 81.8659 26.9749 82.3791 25.312 82.3791H24.9174C23.2262 82.3791 22.2961 81.8374 22.2961 79.7278V44.6909C20.9995 43.7501 18.8574 41.1559 18.8574 38.8467V30.0661C18.8574 29.2393 19.2802 28.7832 20.1258 28.7832H20.3513C21.1968 28.7832 21.6196 29.2108 21.6196 30.0661V39.0177H23.7336V30.0661C23.7336 29.2108 24.1564 28.7832 25.0019 28.7832H25.2274C26.073 28.7832 26.4958 29.2108 26.4958 30.0661V39.0177H28.6097V30.0661C28.6097 29.2108 29.0325 28.7832 29.8781 28.7832H30.0754C30.9209 28.7832 31.3437 29.2393 31.3437 30.0661V38.8467C31.2874 41.1274 29.1734 43.6931 27.9333 44.6624Z" fill="white"/>
<path d="M90.9564 82.3502H89.688C87.4896 82.3502 87.1513 79.6989 87.1513 76.3635V58.6312H83.5154L83.459 46.059C83.459 38.2192 87.0668 28.9824 89.7726 28.9824H90.8719C92.4784 28.9824 93.2958 30.0372 93.2958 32.2039V80.3831C93.2676 81.8086 92.3657 82.3502 90.9564 82.3502Z" fill="white"/>
<path d="M71.3959 40.1868C67.2244 35.9676 61.6718 33.6299 55.7528 33.6299C49.8338 33.6299 44.2812 35.9676 40.1097 40.1868C35.9382 44.4061 33.627 50.0222 33.627 56.009C33.627 61.9958 35.9382 67.6119 40.1097 71.8312C44.2812 76.0504 49.8338 78.3881 55.7528 78.3881C61.6718 78.3881 67.2244 76.0504 71.3959 71.8312C75.5674 67.6119 77.8787 61.9958 77.8787 56.009C77.8787 50.0222 75.5674 44.4061 71.3959 40.1868ZM55.2737 50.7064L48.8755 65.2172H44.4221L51.1303 50.5639H42.6464V47.3995H55.3018V50.7064H55.2737ZM66.7735 65.2172L65.5897 63.1931C65.0823 62.2809 64.6032 61.3686 64.1522 60.4563H64.0958C63.814 60.998 63.3348 61.9103 62.5738 63.2216L61.4463 65.2172H57.0494L61.6155 58.4322L57.3876 52.0178H61.9819L63.222 54.213C63.4193 54.5266 63.6167 54.8972 63.814 55.3248C64.0394 55.7239 64.2086 56.0945 64.3777 56.4366H64.434C64.575 56.0945 64.7723 55.7239 64.9696 55.3248C65.1669 54.9257 65.3642 54.5551 65.5615 54.2415L66.7453 52.0463H71.0295L66.8017 58.4892L71.3114 65.2457H66.7735V65.2172Z" fill="white"/>
</g>
<defs>
<clipPath id="clip0_2592_7026">
<rect width="74.4387" height="53.5959" fill="white" transform="translate(18.8574 28.7832)"/>
</clipPath>
</defs>
</svg>
