<svg width="112" height="112" viewBox="0 0 112 112" fill="none" xmlns="http://www.w3.org/2000/svg">
<rect width="112" height="112" rx="56" fill="#327896"/>
<path d="M67.1502 54.8146C67.1502 52.9266 66.4168 51.1959 65.1074 49.8324C63.7979 48.5213 62.017 47.7871 60.1314 47.7871C59.0838 47.7871 58.0886 47.9969 57.1981 48.4164C54.7363 49.5702 53.1126 52.0875 53.1126 54.8146V73.1174C51.2269 75.0054 50.127 77.5751 50.127 80.2497C50.127 82.9244 51.1745 85.4417 53.0602 87.3296C54.9458 89.2176 57.46 90.2665 60.1314 90.2665C61.598 90.2665 63.0122 89.9518 64.3741 89.3225C67.8835 87.6967 70.1881 84.1306 70.1881 80.2497C70.1881 77.5227 69.0882 75.0054 67.2025 73.1174V54.8146H67.1502ZM63.0646 86.5954C62.1218 87.015 61.1789 87.2248 60.1314 87.2248C58.2981 87.2248 56.5172 86.4905 55.2077 85.1795C53.8982 83.8684 53.1649 82.1377 53.1649 80.2497C53.1649 78.2044 54.0554 76.264 55.6268 74.9529L56.1505 74.4809V54.8146C56.1505 53.2937 57.041 51.8777 58.4552 51.2484C58.979 50.9862 59.5552 50.8813 60.1314 50.8813C61.1789 50.8813 62.1741 51.3008 62.9074 52.035C63.6408 52.7693 64.0598 53.7657 64.0598 54.8146V74.4809L64.5836 74.9529C66.155 76.264 67.0454 78.2044 67.0454 80.2497C67.0454 82.9768 65.474 85.4417 63.0646 86.5954Z" fill="white"/>
<path d="M61.6507 76.3685V64.2015C61.6507 63.3624 60.9698 62.6807 60.1317 62.6807C59.2937 62.6807 58.6127 63.3624 58.6127 64.2015V64.254V76.3685C57.0414 76.9978 55.9414 78.5187 55.9414 80.3017C55.9414 82.6093 57.8271 84.4972 60.1317 84.4972C62.4364 84.4972 64.3221 82.6093 64.3221 80.3017C64.3221 78.4662 63.2221 76.9978 61.6507 76.3685Z" fill="white"/>
<path d="M57.4608 23.8203H20.6907C19.6955 23.8203 18.8574 24.6594 18.8574 25.6558V32.3686C18.8574 33.3651 19.6955 34.2042 20.6907 34.2042H28.5475V42.7C28.5475 43.644 29.3332 44.3782 30.2237 44.3782H32.476V82.5572C32.476 82.6621 33.4712 86.1234 33.4712 86.1234C33.6807 86.4905 34.2569 86.4905 34.4664 86.1234C34.4664 86.1234 35.514 82.6097 35.514 82.5572V44.3782H38.0282C38.971 44.3782 39.7043 43.5916 39.7043 42.7V34.1517H57.4608V23.8203Z" fill="white"/>
<path d="M89.8825 68.7647C85.1684 68.7647 81.3447 64.9363 81.3447 60.2164V39.3438C81.3447 32.5786 75.8449 27.0195 69.0357 27.0195H60.1836V30.7955H69.0357C73.7498 30.7955 77.5734 34.6239 77.5734 39.3438V60.2164C77.5734 63.5203 78.8305 66.6145 81.1876 68.922C83.4923 71.2296 86.5826 72.5406 89.8825 72.5406H96.2728V68.7647H89.8825Z" fill="white"/>
</svg>
