<svg width="112" height="112" viewBox="0 0 112 112" fill="none" xmlns="http://www.w3.org/2000/svg">
<rect width="112" height="112" rx="56" fill="#327896"/>
<g clip-path="url(#clip0_2601_14499)">
<path d="M87.002 40.9198C85.4341 29.1102 83.4386 23.2766 76.1694 21.996C70.183 21.1423 62.9137 21 56.4997 21C50.0857 21 42.8165 21.1423 36.83 21.996C29.4183 23.2766 27.4228 29.1102 25.9974 40.9198C24.5721 52.5872 24.8572 73.3607 26.14 82.3246C26.8527 87.02 29.4183 89.7234 34.1219 91.004C37.8278 91.8577 42.959 92 49.9432 92C50.9409 92 51.9386 92 52.9364 92C54.0766 92 55.2169 92 56.4997 92C57.7825 92 58.9228 92 60.0631 92C61.2033 92 62.2011 92 63.1988 92C70.0404 92 75.1717 91.8577 78.8775 91.004C83.7237 89.8657 86.2893 87.02 86.8594 82.3246C88.1423 73.503 88.4273 52.5872 87.002 40.9198ZM83.4386 81.8978C83.011 85.1703 81.4432 86.8778 78.0223 87.7315C74.6015 88.5852 69.3278 88.5852 63.1988 88.5852C62.2011 88.5852 61.2033 88.5852 60.0631 88.5852C58.9228 88.5852 57.7825 88.5852 56.4997 88.5852C55.2169 88.5852 54.0766 88.5852 52.9364 88.5852C51.9386 88.5852 50.9409 88.5852 49.9432 88.5852C43.8142 88.5852 38.3979 88.5852 34.9771 87.7315C31.5563 86.8778 29.9884 85.3126 29.5608 81.8978C28.278 73.2184 27.9929 52.8717 29.4183 41.489C31.1287 28.5411 33.1241 26.1222 37.2576 25.5531C42.959 24.6994 50.2282 24.5571 56.3572 24.5571C62.6287 24.5571 69.7554 24.6994 75.4567 25.5531C79.7327 26.2645 81.7282 28.5411 83.2961 41.489C85.0065 52.8717 84.7214 73.2184 83.4386 81.8978Z" fill="white"/>
<path d="M56.5003 72.0797C52.2243 72.0797 48.2334 70.3723 45.2401 67.2421C44.67 66.6729 44.67 65.8192 45.2401 65.2501C45.8103 64.6809 46.6655 64.6809 47.2356 65.2501C49.6587 67.8112 52.937 69.2341 56.3578 69.2341C63.342 69.2341 69.0433 63.5427 69.0433 56.5707C69.0433 49.5988 63.342 43.9074 56.3578 43.9074C51.5116 43.9074 46.9506 46.7531 44.8125 51.1639C44.5275 51.8753 43.6723 52.1599 42.9596 51.8753C42.2469 51.5908 41.9619 50.7371 42.2469 50.0256C44.8125 44.6188 50.3714 41.0617 56.3578 41.0617C65.0524 40.9194 72.0365 47.8914 72.0365 56.5707C72.0365 65.2501 65.0524 72.0797 56.5003 72.0797Z" fill="white"/>
<path d="M56.5003 79.1947C50.2288 79.1947 44.0999 76.4913 39.8238 71.9382C39.2537 71.3691 39.2537 70.5154 39.9664 69.9462C40.5365 69.3771 41.3917 69.3771 41.9619 70.0885C45.6677 74.0725 51.084 76.4913 56.5003 76.4913C67.4754 76.4913 76.4551 67.5274 76.4551 56.5715C76.4551 45.6156 67.4754 36.6516 56.5003 36.6516C49.9438 36.6516 43.8148 39.9242 40.1089 45.331C39.6813 46.0424 38.8261 46.1847 38.1134 45.7579C37.4008 45.331 37.2582 44.4773 37.6858 43.7659C41.9619 37.6476 48.946 33.9482 56.5003 33.9482C69.0433 33.9482 79.3057 44.1927 79.3057 56.7138C79.3057 69.2348 69.0433 79.1947 56.5003 79.1947Z" fill="white"/>
<path d="M56.5002 49.4572C53.0794 49.4572 50.2287 51.8761 49.516 55.1486H44.3848C43.8147 55.1486 43.3871 55.4332 43.102 56.0023L40.6789 60.2708L37.5432 48.3189C37.4006 47.7498 36.8305 47.3229 36.2604 47.1807C35.5477 47.1807 34.9776 47.4652 34.835 48.0344L31.6993 54.864H26.9957C26.1404 54.864 25.5703 55.5755 25.5703 56.2869C25.5703 57.1406 26.283 57.7097 26.9957 57.7097H32.5545C33.1246 57.7097 33.6947 57.4252 33.9798 56.856L35.8328 52.872L38.9685 64.5394C39.111 65.1085 39.6812 65.5354 40.2513 65.6777H40.3938C40.964 65.6777 41.3916 65.3931 41.6766 64.8239L45.3825 57.852H49.6585C50.3712 61.1246 53.2219 63.5434 56.6427 63.5434C60.6337 63.5434 63.7694 60.2708 63.7694 56.4292C63.6269 52.5875 60.4911 49.4572 56.5002 49.4572Z" fill="white"/>
</g>
<defs>
<clipPath id="clip0_2601_14499">
<rect width="63" height="71" fill="white" transform="translate(25 21)"/>
</clipPath>
</defs>
</svg>
