<svg width="186" height="32" viewBox="0 0 186 32" fill="none" xmlns="http://www.w3.org/2000/svg">
<g clip-path="url(#clip0_357_12465)">
<path d="M160.559 6.36294V24.6692H157.873V6.36294H152.003V3.78894H166.408V6.36294H160.559Z" fill="#5E6368"/>
<path d="M178.333 24.7105H175.543L168.165 3.80957H171.161L176.907 20.7568H177.031L183.003 3.80957H186L178.333 24.7105Z" fill="#5E6368"/>
<path d="M61.6693 25.1429C58.5231 25.1429 55.5058 23.8976 53.2811 21.681C51.0565 19.4643 49.8066 16.4579 49.8066 13.3231C49.8066 10.1883 51.0565 7.18186 53.2811 4.96522C55.5058 2.74857 58.5231 1.50328 61.6693 1.50328C63.1737 1.47834 64.6682 1.75127 66.066 2.30624C67.4638 2.86121 68.737 3.68717 69.812 4.73622L67.4973 7.02194C65.9373 5.51283 63.8435 4.67682 61.6693 4.69503C59.3837 4.69503 57.1917 5.59972 55.5755 7.21007C53.9593 8.82042 53.0513 11.0045 53.0513 13.2819C53.0513 15.5593 53.9593 17.7434 55.5755 19.3537C57.1917 20.9641 59.3837 21.8688 61.6693 21.8688C62.7767 21.9102 63.8808 21.7231 64.9122 21.3191C65.9436 20.9151 66.88 20.303 67.6627 19.5213C68.7009 18.3873 69.3204 16.9347 69.4193 15.4029H61.6693V12.1699H72.5813C72.7081 12.8487 72.7636 13.5389 72.7467 14.2291C72.8278 17.0221 71.8205 19.7379 69.936 21.807C68.8841 22.9295 67.6002 23.811 66.1729 24.3905C64.7456 24.97 63.2089 25.2338 61.6693 25.1635" fill="#5E6368"/>
<path d="M89.6314 17.5444C89.6151 19.0273 89.1589 20.4723 88.3202 21.6974C87.4814 22.9226 86.2976 23.8731 84.9179 24.4294C83.5382 24.9856 82.0242 25.1228 80.5664 24.8235C79.1087 24.5243 77.7723 23.802 76.7256 22.7477C75.6789 21.6933 74.9686 20.354 74.6842 18.8983C74.3998 17.4426 74.5539 15.9356 75.1272 14.5671C75.7005 13.1985 76.6673 12.0294 77.906 11.2071C79.1446 10.3848 80.5997 9.94604 82.0881 9.94595C83.088 9.9375 84.0796 10.1289 85.004 10.5088C85.9285 10.8887 86.7671 11.4494 87.4704 12.1578C88.1736 12.8662 88.7271 13.7078 89.0983 14.633C89.4695 15.5582 89.6507 16.5482 89.6314 17.5444ZM86.3248 17.5444C86.2526 16.7242 85.9423 15.9426 85.4319 15.2951C84.9216 14.6475 84.233 14.162 83.4504 13.8976C82.6678 13.6333 81.8249 13.6016 81.0246 13.8065C80.2242 14.0113 79.5009 14.4438 78.943 15.0512C78.3851 15.6586 78.0167 16.4146 77.8827 17.2271C77.7487 18.0396 77.8549 18.8733 78.1883 19.6267C78.5218 20.3801 79.0681 21.0205 79.7605 21.4698C80.453 21.9191 81.2617 22.1579 82.0881 22.157C82.6735 22.1415 83.2498 22.0087 83.7827 21.7665C84.3155 21.5242 84.7939 21.1775 85.1893 20.747C85.5847 20.3165 85.889 19.8111 86.0841 19.2608C86.2792 18.7106 86.361 18.1268 86.3248 17.5444Z" fill="#5E6368"/>
<path d="M106.495 17.5444C106.475 19.0223 106.016 20.4612 105.178 21.6803C104.339 22.8993 103.157 23.8439 101.781 24.3955C100.404 24.9471 98.8951 25.0809 97.4427 24.7801C95.9903 24.4794 94.6596 23.7575 93.6179 22.7053C92.5761 21.653 91.8698 20.3174 91.5878 18.8663C91.3059 17.4152 91.4608 15.9134 92.0331 14.5498C92.6053 13.1861 93.5695 12.0215 94.8042 11.2024C96.039 10.3832 97.4893 9.94609 98.9727 9.94595C99.9717 9.93743 100.962 10.1289 101.886 10.5091C102.809 10.8892 103.646 11.4503 104.348 12.1589C105.049 12.8676 105.601 13.7095 105.97 14.6346C106.339 15.5597 106.517 16.5492 106.495 17.5444ZM103.209 17.5444C103.136 16.7199 102.823 15.9347 102.308 15.2854C101.793 14.6362 101.098 14.1513 100.31 13.8905C99.5214 13.6297 98.6736 13.6045 97.871 13.8178C97.0684 14.0312 96.346 14.4738 95.7927 15.0912C95.2395 15.7086 94.8795 16.4738 94.7574 17.2925C94.6352 18.1112 94.756 18.9476 95.1051 19.6987C95.4541 20.4497 96.016 21.0827 96.7216 21.5195C97.4272 21.9563 98.2456 22.1779 99.076 22.157C99.6526 22.1282 100.218 21.9855 100.739 21.7373C101.259 21.4892 101.726 21.1404 102.11 20.7113C102.495 20.2822 102.79 19.7814 102.978 19.2377C103.167 18.6941 103.246 18.1185 103.209 17.5444Z" fill="#5E6368"/>
<path d="M122.967 10.3989V24.072C122.967 29.6936 119.66 31.9793 115.692 31.9793C114.247 31.9899 112.832 31.5703 111.628 30.7741C110.424 29.978 109.486 28.8417 108.934 27.5109L111.869 26.2959C112.16 27.0848 112.686 27.766 113.377 28.2482C114.068 28.7304 114.89 28.9905 115.733 28.9935C118.255 28.9935 119.867 27.4491 119.867 24.525V23.4337H119.743C119.239 23.9914 118.619 24.4333 117.927 24.7284C117.235 25.0236 116.486 25.165 115.733 25.1428C113.711 25.1428 111.771 24.3423 110.341 22.9173C108.911 21.4923 108.107 19.5596 108.107 17.5443C108.107 15.5291 108.911 13.5964 110.341 12.1714C111.771 10.7464 113.711 9.94589 115.733 9.94589C116.483 9.92923 117.229 10.0711 117.92 10.3621C118.611 10.6532 119.232 11.0868 119.743 11.6344H119.867V10.3989H122.967ZM120.011 17.5855C120.059 17.0069 119.989 16.4246 119.805 15.8737C119.621 15.3228 119.327 14.8147 118.941 14.3799C118.555 13.9451 118.085 13.5927 117.558 13.3438C117.032 13.095 116.46 12.9548 115.878 12.9317C114.726 13.0403 113.656 13.5732 112.877 14.4263C112.098 15.2793 111.666 16.3911 111.666 17.5443C111.666 18.6976 112.098 19.8094 112.877 20.6624C113.656 21.5154 114.726 22.0484 115.878 22.157C116.455 22.1391 117.022 22.0051 117.545 21.7633C118.068 21.5214 118.537 21.1766 118.923 20.7496C119.309 20.3225 119.605 19.8221 119.792 19.2783C119.979 18.7346 120.054 18.1588 120.011 17.5855Z" fill="#5E6368"/>
<path d="M128.836 2.3269H125.488V24.7104H128.836V2.3269Z" fill="#5E6368"/>
<path d="M142.063 20.0566L144.667 21.7863C143.97 22.8247 143.026 23.6747 141.918 24.2605C140.811 24.8462 139.576 25.1494 138.322 25.1428C137.325 25.1545 136.336 24.9647 135.414 24.5849C134.493 24.2051 133.659 23.6431 132.961 22.9329C132.264 22.2227 131.718 21.3791 131.357 20.4529C130.997 19.5268 130.828 18.5373 130.861 17.5444C130.691 15.8295 131.165 14.1127 132.192 12.7262C133.219 11.3397 134.726 10.3821 136.421 10.0388C138.116 9.69539 139.878 9.99066 141.367 10.8674C142.856 11.7442 143.965 13.1401 144.481 14.7851L144.832 15.6499L134.623 19.7683C134.937 20.4776 135.457 21.0766 136.117 21.4878C136.776 21.899 137.545 22.1035 138.322 22.0746C139.071 22.0821 139.809 21.8964 140.464 21.5356C141.12 21.1748 141.67 20.6511 142.063 20.0154M134.023 17.2973L140.843 14.4556C140.584 13.937 140.178 13.5061 139.674 13.2167C139.17 12.9274 138.592 12.7924 138.012 12.8288C137.451 12.8464 136.899 12.9777 136.39 13.2149C135.881 13.452 135.426 13.79 135.053 14.2082C134.68 14.6264 134.396 15.116 134.219 15.6471C134.042 16.1782 133.975 16.7397 134.023 17.2973Z" fill="#5E6368"/>
<path d="M31.9506 4.51645e-05H10.2506C9.34624 4.51645e-05 8.47885 0.35802 7.83935 0.995209C7.19985 1.6324 6.84058 2.49661 6.84058 3.39773V6.79542H33.2939C34.2002 6.80086 35.0675 7.1634 35.7064 7.80386C36.3453 8.44432 36.704 9.31066 36.7039 10.2137V4.73622C36.7067 4.11349 36.5856 3.49639 36.3477 2.92054C36.1097 2.34469 35.7597 1.82149 35.3178 1.38115C34.8759 0.940815 34.3508 0.592057 33.7728 0.355007C33.1949 0.117958 32.5756 -0.00268015 31.9506 4.51645e-05Z" fill="#4779BD"/>
<path d="M4.7328 0C3.47381 0.00541882 2.26793 0.506141 1.37768 1.39317C0.487437 2.2802 -0.0150693 3.48173 -0.0205078 4.73617V16.4736C-0.0205078 17.3747 0.338764 18.239 0.978263 18.8761C1.61776 19.5133 2.48509 19.8713 3.38948 19.8713H6.79947V3.39769C6.79947 2.49657 7.15874 1.63235 7.79824 0.995164C8.43774 0.357974 9.30507 0 10.2095 0H4.7328Z" fill="#38A052"/>
<path d="M4.73268 26.7697H26.4327C26.8832 26.7697 27.3293 26.6813 27.7455 26.5095C28.1618 26.3377 28.54 26.0859 28.8585 25.7685C29.1771 25.4511 29.4298 25.0742 29.6022 24.6595C29.7746 24.2448 29.8634 23.8003 29.8634 23.3514V19.9537H3.40999C2.5056 19.9537 1.63827 19.5957 0.998771 18.9586C0.359272 18.3214 0 17.4572 0 16.556V22.0541C0.00543828 23.3031 0.505829 24.4994 1.3922 25.3825C2.27857 26.2657 3.47918 26.7643 4.73268 26.7697Z" fill="#F0B61A"/>
<path d="M31.9507 26.7696C33.2133 26.7641 34.4222 26.2606 35.3131 25.3691C36.2039 24.4776 36.704 23.2708 36.704 22.0128V10.296C36.704 9.39294 36.3454 8.5266 35.7065 7.88614C35.0676 7.24568 34.2003 6.88313 33.294 6.87769H29.884V23.3513C29.884 24.2579 29.5226 25.1273 28.8792 25.7684C28.2358 26.4094 27.3632 26.7696 26.4534 26.7696H31.9507Z" fill="#DD4335"/>
</g>
<defs>
<clipPath id="clip0_357_12465">
<rect width="186" height="32" fill="white"/>
</clipPath>
</defs>
</svg>
