<svg width="186" height="45" viewBox="0 0 186 45" fill="none" xmlns="http://www.w3.org/2000/svg">
<g clip-path="url(#clip0_357_12452)">
<path d="M66.0235 30.7627C64.5784 29.9209 63.3855 28.6981 62.5717 27.2246C61.7359 25.7208 61.2969 24.0243 61.2969 22.2987C61.2969 20.5731 61.7359 18.8766 62.5717 17.3729C63.3913 15.9037 64.5828 14.6824 66.0235 13.8347C67.5273 13.0002 69.2145 12.5628 70.9293 12.5628C72.644 12.5628 74.3312 13.0002 75.835 13.8347C77.2757 14.6824 78.4672 15.9037 79.2868 17.3729C80.111 18.8805 80.5434 20.5754 80.5434 22.2987C80.5434 24.0219 80.111 25.717 79.2868 27.2246C78.473 28.6981 77.2801 29.9209 75.835 30.7627C74.3312 31.5972 72.644 32.0346 70.9293 32.0346C69.2145 32.0346 67.5273 31.5972 66.0235 30.7627ZM74.0359 27.9025C74.9767 27.3738 75.7522 26.5884 76.2743 25.6356C76.7975 24.6031 77.0703 23.4592 77.0703 22.2987C77.0703 21.1382 76.7975 19.9944 76.2743 18.9619C75.746 18.0138 74.972 17.2299 74.0359 16.6949C73.0759 16.1551 71.9959 15.8718 70.8979 15.8718C69.7998 15.8718 68.7199 16.1551 67.7599 16.6949C66.8346 17.2371 66.0691 18.0198 65.5424 18.9619C65.0192 19.9944 64.7464 21.1382 64.7464 22.2987C64.7464 23.4592 65.0192 24.6031 65.5424 25.6356C66.0624 26.5828 66.8295 27.3671 67.7599 27.9025C68.7199 28.4424 69.7998 28.7256 70.8979 28.7256C71.9959 28.7256 73.0759 28.4424 74.0359 27.9025Z" fill="#5E6368"/>
<path d="M82.7388 12.9661H86.1069V23.1356H86.2743L91.0022 18.3263H95.1443V18.5382L90.1654 23.4746L95.3745 31.4195V31.6314H91.3787L87.8014 25.8051L86.1069 27.5V31.6314H82.7388V12.9661Z" fill="#5E6368"/>
<path d="M105.73 30.7838C104.251 29.9332 103.021 28.7009 102.165 27.2122C101.309 25.7235 100.859 24.0318 100.859 22.3093C100.859 20.5868 101.309 18.895 102.165 17.4063C103.021 15.9177 104.251 14.6853 105.73 13.8347C107.218 12.9917 108.899 12.5606 110.604 12.5847C111.959 12.5673 113.304 12.8267 114.558 13.3474C115.723 13.8186 116.773 14.5416 117.633 15.4661L115.227 17.8178C114.638 17.1834 113.926 16.6787 113.135 16.3347C112.312 15.9969 111.43 15.8311 110.541 15.8474C109.453 15.8305 108.379 16.1006 107.424 16.6313C106.487 17.1717 105.707 17.9539 105.165 18.8983C104.603 19.9289 104.314 21.0896 104.328 22.2669C104.314 23.4403 104.61 24.5962 105.186 25.6143C105.724 26.5694 106.513 27.3543 107.466 27.8813C108.42 28.412 109.495 28.6821 110.583 28.6652C112.119 28.7135 113.615 28.1681 114.767 27.1398C115.126 26.7858 115.429 26.3786 115.667 25.9322C115.924 25.4303 116.114 24.896 116.232 24.3432H110.52V21.3771H119.558C119.682 21.9186 119.738 22.4738 119.725 23.0296C119.742 24.197 119.558 25.3584 119.181 26.4619C118.815 27.5036 118.238 28.4562 117.487 29.2584C116.665 30.1802 115.65 30.904 114.516 31.3771C113.267 31.858 111.94 32.0953 110.604 32.0763C108.899 32.1004 107.218 31.6693 105.73 30.8263" fill="#5E6368"/>
<path d="M124.474 31.1228C123.43 30.5319 122.568 29.6591 121.985 28.6017C121.408 27.4873 121.106 26.2478 121.106 24.9894C121.106 23.731 121.408 22.4914 121.985 21.3771C122.568 20.3196 123.43 19.4468 124.474 18.8559C125.581 18.2439 126.822 17.9233 128.083 17.9233C129.344 17.9233 130.585 18.2439 131.692 18.8559C132.736 19.4468 133.598 20.3196 134.181 21.3771C134.758 22.4914 135.06 23.731 135.06 24.9894C135.06 26.2478 134.758 27.4873 134.181 28.6017C133.598 29.6591 132.736 30.5319 131.692 31.1228C130.585 31.7348 129.344 32.0554 128.083 32.0554C126.822 32.0554 125.581 31.7348 124.474 31.1228ZM129.893 28.4322C130.44 28.1032 130.894 27.636 131.211 27.0762C131.55 26.4244 131.716 25.6942 131.692 24.9576C131.725 24.2201 131.559 23.4875 131.211 22.8389C130.902 22.2688 130.448 21.7931 129.896 21.4618C129.344 21.1304 128.714 20.9556 128.073 20.9556C127.431 20.9556 126.801 21.1304 126.249 21.4618C125.697 21.7931 125.243 22.2688 124.935 22.8389C124.579 23.4854 124.405 24.2182 124.432 24.9576C124.415 25.696 124.588 26.4264 124.935 27.0762C125.244 27.6468 125.699 28.1226 126.252 28.4534C126.804 28.7594 127.423 28.9198 128.052 28.9198C128.68 28.9198 129.299 28.7594 129.851 28.4534" fill="#5E6368"/>
<path d="M139.641 31.1229C138.603 30.5306 137.749 29.6577 137.173 28.6017C136.583 27.4913 136.274 26.2502 136.274 24.9894C136.274 23.7287 136.583 22.4875 137.173 21.3771C137.749 20.3211 138.603 19.4482 139.641 18.8559C140.749 18.2167 142.007 17.8945 143.281 17.9238C144.542 17.8969 145.786 18.2191 146.88 18.8559C147.919 19.453 148.779 20.3243 149.369 21.3771C149.946 22.4914 150.248 23.731 150.248 24.9894C150.248 26.2478 149.946 27.4874 149.369 28.6017C148.779 29.6545 147.919 30.5258 146.88 31.1229C145.782 31.7499 144.541 32.0716 143.281 32.0551C142.008 32.074 140.752 31.7525 139.641 31.1229ZM145.08 28.4322C145.628 28.1033 146.082 27.6361 146.398 27.0763C146.732 26.4221 146.897 25.6935 146.88 24.9576C146.904 24.221 146.738 23.4908 146.398 22.839C145.917 22.0064 145.133 21.3982 144.214 21.1447C143.294 20.8912 142.314 21.0127 141.482 21.4831C140.919 21.7989 140.455 22.2688 140.143 22.839C139.788 23.4854 139.614 24.2182 139.641 24.9576C139.623 25.6961 139.796 26.4264 140.143 27.0763C140.455 27.6522 140.918 28.1291 141.482 28.4534C142.034 28.7594 142.652 28.9198 143.281 28.9198C143.91 28.9198 144.529 28.7594 145.08 28.4534" fill="#5E6368"/>
<path d="M154.076 36.6313C153.076 35.9793 152.307 35.0222 151.879 33.8983L155.038 32.6059C155.293 33.2377 155.731 33.7767 156.293 34.1525C156.862 34.5406 157.532 34.7472 158.218 34.7457C158.685 34.768 159.152 34.691 159.588 34.5195C160.024 34.348 160.42 34.0859 160.749 33.75C161.417 32.9725 161.755 31.9602 161.691 30.9322V29.8941H161.482C161.077 30.4866 160.52 30.9556 159.871 31.25C159.151 31.5651 158.374 31.7238 157.59 31.7161C156.521 31.7234 155.471 31.4301 154.557 30.8686C153.604 30.2917 152.824 29.4644 152.298 28.4745C151.747 27.3521 151.46 26.1157 151.46 24.8623C151.46 23.6088 151.747 22.3724 152.298 21.2499C152.824 20.2601 153.604 19.4328 154.557 18.8559C155.471 18.2944 156.521 18.001 157.59 18.0084C158.375 17.9906 159.154 18.1498 159.871 18.4745C160.52 18.7689 161.077 19.2379 161.482 19.8305H161.691V18.4322H164.933V30.8051C164.966 32.0832 164.685 33.3496 164.118 34.4915C163.597 35.5191 162.78 36.3617 161.774 36.9068C160.681 37.4962 159.456 37.7882 158.218 37.7542C156.744 37.8128 155.286 37.4216 154.034 36.6313M160.645 27.6059C161.299 26.8369 161.658 25.8558 161.658 24.8411C161.658 23.8263 161.299 22.8452 160.645 22.0763C159.987 21.4428 159.115 21.0895 158.208 21.0895C157.3 21.0895 156.428 21.4428 155.77 22.0763C155.117 22.8452 154.757 23.8263 154.757 24.8411C154.757 25.8558 155.117 26.8369 155.77 27.6059C156.093 27.9263 156.476 28.1777 156.896 28.3452C157.317 28.5126 157.766 28.5926 158.218 28.5805C158.665 28.5915 159.11 28.5088 159.524 28.3374C159.938 28.166 160.312 27.9098 160.624 27.5847" fill="#5E6368"/>
<path d="M170.958 12.9661H167.59V31.6314H170.958V12.9661Z" fill="#5E6368"/>
<path d="M176.126 31.1229C175.094 30.5396 174.245 29.673 173.678 28.6229C173.075 27.5139 172.765 26.266 172.778 25C172.771 23.7711 173.074 22.5606 173.657 21.4831C174.232 20.418 175.068 19.5206 176.084 18.8771C177.123 18.2378 178.32 17.9075 179.536 17.9238C180.759 17.8926 181.966 18.2003 183.029 18.8136C183.986 19.3817 184.757 20.2215 185.247 21.2289C185.765 22.2887 186.031 23.4571 186.021 24.6399C186.043 25.0209 186.043 25.4029 186.021 25.7839H176.168C176.272 26.7153 176.711 27.575 177.402 28.1992C178.075 28.7518 178.92 29.0446 179.787 29.0255C180.517 29.0596 181.243 28.8833 181.879 28.517C182.423 28.1742 182.875 27.7013 183.197 27.1398L185.916 28.4958C185.338 29.6099 184.458 30.5342 183.38 31.1607C182.302 31.7873 181.07 32.0901 179.829 32.0339C178.591 32.0578 177.369 31.7431 176.293 31.1229M182.946 23.3687C182.899 22.9257 182.741 22.5025 182.485 22.1399C182.211 21.7075 181.829 21.3565 181.377 21.1229C180.871 20.8413 180.3 20.7023 179.724 20.7203C178.967 20.6935 178.225 20.9415 177.632 21.4195C177.029 21.9265 176.592 22.6058 176.377 23.3687H182.946Z" fill="#5E6368"/>
<path d="M45.5638 15.7627C46.2258 15.7627 46.8729 15.5639 47.4234 15.1914C47.9738 14.819 48.4028 14.2896 48.6562 13.6701C48.9095 13.0507 48.9758 12.3692 48.8467 11.7116C48.7175 11.054 48.3987 10.45 47.9306 9.97597C47.4625 9.50189 46.8661 9.17902 46.2168 9.04822C45.5675 8.91742 44.8945 8.98459 44.2829 9.24115C43.6712 9.49772 43.1485 9.9322 42.7807 10.4897C42.4129 11.0471 42.2166 11.7024 42.2166 12.3729C42.2166 12.8181 42.3031 13.2589 42.4713 13.6701C42.6396 14.0814 42.8861 14.4551 43.1969 14.7699C43.5077 15.0847 43.8768 15.3343 44.2829 15.5047C44.689 15.675 45.1242 15.7627 45.5638 15.7627Z" fill="#38A052"/>
<path d="M35.6269 27.0127C36.9468 27.0127 38.237 26.6163 39.3345 25.8737C40.4319 25.1311 41.2873 24.0755 41.7924 22.8405C42.2975 21.6056 42.4297 20.2467 42.1722 18.9357C41.9147 17.6247 41.2791 16.4205 40.3458 15.4753C39.4125 14.5301 38.2234 13.8864 36.9288 13.6256C35.6343 13.3648 34.2925 13.4986 33.0731 14.0102C31.8536 14.5217 30.8114 15.388 30.0781 16.4994C29.3448 17.6108 28.9534 18.9175 28.9534 20.2542C28.9506 21.1425 29.1214 22.0226 29.4558 22.8438C29.7902 23.6651 30.2816 24.4113 30.9019 25.0394C31.5221 25.6676 32.2589 26.1653 33.0698 26.504C33.8807 26.8426 34.7497 27.0155 35.6269 27.0127Z" fill="#DD4335"/>
<path d="M35.6267 45.1059C37.1659 45.1059 38.6706 44.6437 39.9503 43.7777C41.2301 42.9117 42.2276 41.6808 42.8166 40.2406C43.4056 38.8005 43.5597 37.2158 43.2594 35.687C42.9592 34.1582 42.218 32.7538 41.1296 31.6516C40.0412 30.5494 38.6546 29.7987 37.145 29.4946C35.6354 29.1905 34.0706 29.3466 32.6486 29.9432C31.2266 30.5397 30.0112 31.5499 29.156 32.8459C28.3009 34.142 27.8445 35.6658 27.8445 37.2246C27.8445 39.3148 28.6644 41.3195 30.1239 42.7975C31.5833 44.2756 33.5628 45.1059 35.6267 45.1059Z" fill="#F0B61A"/>
<path d="M13.3261 27.0127C15.9676 27.0169 18.551 26.2272 20.7491 24.7435C22.9472 23.2599 24.6612 21.1491 25.674 18.6783C26.6868 16.2075 26.9529 13.4879 26.4385 10.8639C25.9242 8.23991 24.6526 5.8295 22.7847 3.93785C20.9168 2.04619 18.5367 0.758405 15.9457 0.237526C13.3547 -0.283353 10.6693 -0.0139108 8.22965 1.01178C5.78996 2.03747 3.70567 3.77331 2.24068 5.9994C0.775684 8.2255 -0.00412077 10.8417 1.63767e-05 13.5169C0.00554903 17.0945 1.41132 20.524 3.90924 23.0537C6.40717 25.5834 9.79347 27.0071 13.3261 27.0127Z" fill="#4779BD"/>
</g>
<defs>
<clipPath id="clip0_357_12452">
<rect width="186" height="45" fill="white"/>
</clipPath>
</defs>
</svg>
