<svg width="188" height="95" viewBox="0 0 188 95" fill="none" xmlns="http://www.w3.org/2000/svg">
<g clip-path="url(#clip0_2578_1613)">
<rect width="188" height="95" fill="url(#paint0_linear_2578_1613)"/>
<path d="M0 0H188V44.2041C188 66.1827 170.091 84 148 84H0V0Z" fill="white"/>
<path d="M123.722 34.8138V28.4182C132.018 28.2927 132.354 28.1822 135.097 28.2532C139.313 28.3601 141.855 29.5698 143.684 31.4292C145.446 33.2215 146.843 35.9547 146.779 39.9218C146.74 42.206 145.336 50.6088 135.165 51.1332C133.973 51.2401 131.234 51.1459 129.495 51.1867L131.215 44.625C135.244 44.9622 138.441 43.6851 138.611 39.8542C138.797 35.5534 135.002 34.188 131.216 34.8614L123.722 34.8138Z" fill="#0B5ED7"/>
<path d="M131.211 57.3717L123.722 57.3705V33.4507L131.211 33.4995V57.3717Z" fill="#0B5ED7"/>
<path d="M158.13 38.6156L164.277 40.8148C168.369 42.4373 169.239 45.7297 169.2 48.5652C169.109 55.1421 163.885 57.6077 159.72 57.9637C154.985 58.3674 151.319 57.5707 150.087 57.3696V50.2123C153.835 51.3557 158.196 51.3102 159.669 50.7335C160.783 50.2973 161.63 49.6309 161.562 48.7562C161.525 48.2816 161.478 47.6781 160.07 47.0734L154.401 45.0079C150.761 43.6914 149.356 40.2198 149.508 37.1274C149.816 30.8795 154.786 27.7173 159.747 27.9001C161.278 27.9558 163.34 27.9197 166.339 28.3363V35.4271C162.979 34.6421 161.403 34.655 159.669 34.8714C157.73 35.1119 156.859 36.1192 156.9 37.1952C156.919 37.7406 157.462 38.3384 158.131 38.606" fill="#0B5ED7"/>
<path d="M53.0029 39.2076H61.0675L61.0653 28.4451H68.5555V57.3764H61.0675V45.7614H53.0029L53.0017 57.3764H45.5035V28.4451H53.0017L53.0029 39.2076Z" fill="#0B5ED7"/>
<path d="M83.1051 28.4451H75.6102V57.3764H83.1051V28.4451Z" fill="#0B5ED7"/>
<path d="M116.595 28.4451H109.099V57.3764H116.595V28.4451Z" fill="#0B5ED7"/>
<path d="M97.6549 50.8077H105.383V57.3741L90.1577 57.3764V28.4451H97.6549V50.8077Z" fill="#0B5ED7"/>
<path d="M18.8008 34.8138V28.4182C27.098 28.2927 27.4328 28.1822 30.1769 28.2532C34.3914 28.3601 36.9341 29.5698 38.7636 31.4292C40.5246 33.2215 41.9235 35.9547 41.8586 39.9218C41.8191 42.206 40.4146 50.6088 30.244 51.1332C29.0526 51.2401 26.3997 51.1459 24.6607 51.1867L26.2978 44.625C30.3284 44.9622 33.5231 43.6851 33.6896 39.8542C33.8759 35.5534 30.0795 34.188 26.2945 34.8614L18.8008 34.8138Z" fill="#0B5ED7"/>
<path d="M26.3014 57.3717L18.8008 57.3705V33.9472L26.2945 33.995L26.3014 57.3717Z" fill="#0B5ED7"/>
</g>
<defs>
<linearGradient id="paint0_linear_2578_1613" x1="-1.25443e-07" y1="89.5" x2="188" y2="89.5" gradientUnits="userSpaceOnUse">
<stop stop-color="#79234F"/>
<stop offset="1" stop-color="#D32577"/>
</linearGradient>
<clipPath id="clip0_2578_1613">
<rect width="188" height="95" fill="white"/>
</clipPath>
</defs>
</svg>
