<svg width="160" height="160" viewBox="0 0 160 160" fill="none" xmlns="http://www.w3.org/2000/svg">
<g clip-path="url(#clip0_3280_1950)">
<rect width="160" height="160" rx="80" fill="#7F184A"/>
<path d="M122.173 64.7986L117.347 62.005L107.345 76.6525L90.6403 76.0989C90.1674 74.7766 89.4646 73.5495 88.5647 72.4749L96.2667 58.1039L114.746 56.6442V51.0823L100.768 49.6727L106.869 38.2464L102.218 35.5536L95.5915 46.3003L87.8395 35.4277L83.0384 38.2216L90.5403 54.2534L81.713 68.5234C81.0295 68.3844 80.3347 68.3087 79.6375 68.2969C78.9416 68.3117 78.2478 68.3789 77.562 68.4982L69.0348 54.6307L77.0369 37.7936L72.2356 35L64.0586 46.5015L57.2818 35.4528L52.6307 38.1712L58.5572 49.3203L45.3288 50.6543V56.2163L62.8332 57.6258L70.6852 72.4497C69.7858 73.5152 69.0828 74.7339 68.6097 76.0485L52.4056 76.552L41.903 61.1494L37.1018 63.943L42.9032 76.8288L30 77.2064V82.7432L42.5032 83.1712L37.0017 95.3523L41.8029 98.1459L51.8054 83.4984L68.5097 84.052C68.9682 85.368 69.6632 86.5878 70.5602 87.6508L62.8833 102.047L44.3786 103.507V109.069L58.3572 110.478L52.2556 121.879L56.9067 124.597L63.5584 113.851L71.3104 124.723L76.1116 121.929L68.4847 105.872L77.3119 91.6275C78.0121 91.7677 78.7236 91.8434 79.4375 91.8539C80.1183 91.8436 80.7965 91.7678 81.463 91.6275L89.9901 105.52L82.0131 122.332L86.7893 125.126L94.9914 113.649L101.768 124.673L106.394 121.98L100.493 110.805L113.746 109.497V103.909L96.2417 102.525L88.3897 87.7012C89.2891 86.6356 89.9921 85.417 90.4652 84.1024L106.694 83.5988L117.172 98.9763L121.998 96.2079L116.197 83.322L129.075 82.9193V77.5336L116.572 77.1057L122.173 64.7986Z" fill="white"/>
</g>
<defs>
<clipPath id="clip0_3280_1950">
<rect width="160" height="160" fill="white"/>
</clipPath>
</defs>
</svg>
