<svg width="160" height="160" viewBox="0 0 160 160" fill="none" xmlns="http://www.w3.org/2000/svg">
<g clip-path="url(#clip0_2579_1076)">
<path fill-rule="evenodd" clip-rule="evenodd" d="M81 0C36.8172 0 1 35.8172 1 80C1 92.0357 3.65783 103.451 8.41859 113.69C12.9947 110.124 18.7493 108 25 108C39.9117 108 52 120.088 52 135C52 141.425 49.7557 147.326 46.0083 151.962C56.5782 157.111 68.4517 160 81 160C125.183 160 161 124.183 161 80C161 35.8172 125.183 0 81 0Z" fill="#7F184A"/>
<circle cx="25" cy="135" r="25" fill="#7F184A"/>
<path d="M87.2195 94.7291C87.2195 96.9635 85.3746 98.8254 83.1608 98.8254C80.9469 98.8254 79.102 96.9635 79.102 94.7291C79.102 92.4948 80.9469 90.6328 83.1608 90.6328C85.7436 90.6328 87.2195 92.4948 87.2195 94.7291Z" fill="white"/>
<path d="M98.6584 112.232C95.7066 114.093 91.6479 113.349 89.434 110.37C87.5891 107.39 88.3271 103.294 91.2789 101.06C94.2307 99.1979 98.2895 99.9426 100.503 102.922C102.348 106.273 101.61 110.37 98.6584 112.232Z" fill="white"/>
<path d="M114.893 104.039C120.796 102.922 126.331 107.018 127.069 112.976C128.176 118.934 124.117 124.52 118.213 125.265C112.31 126.382 106.775 122.286 106.037 116.328C105.299 110.369 108.989 104.784 114.893 104.039Z" fill="white"/>
<path d="M96.8128 80.9508C99.0266 81.6955 100.134 83.9299 99.3956 86.1642C98.6577 88.3986 96.4438 89.5157 94.2299 88.771C92.0161 88.0262 90.9092 85.7918 91.6471 83.5575C92.3851 81.6955 94.5989 80.5784 96.8128 80.9508Z" fill="white"/>
<path d="M116.369 75.7373C117.476 79.0888 115.262 82.8127 111.572 83.9298C107.882 85.047 104.562 82.8127 103.455 79.0888C102.348 75.3649 104.562 72.0134 108.251 70.8962C111.941 70.1514 115.631 72.0134 116.369 75.7373Z" fill="white"/>
<path d="M113.786 57.4902C114.524 51.532 120.059 47.4357 125.962 48.5528C131.866 49.2976 135.925 54.8835 134.818 60.8417C134.08 66.7999 128.545 70.8962 122.642 69.7791C116.738 68.6619 112.679 63.4484 113.786 57.4902Z" fill="white"/>
<path d="M86.4822 67.9172C87.9581 66.0553 90.1719 65.6829 92.0168 67.1724C93.8617 68.662 94.2307 70.8963 92.7548 72.7583C91.2789 74.6202 89.065 74.9926 87.2201 73.5031C85.7442 72.3859 85.0063 69.7792 86.4822 67.9172Z" fill="white"/>
<path d="M87.589 47.4357C91.2788 47.8081 93.8616 50.7872 93.8616 54.5111C93.4927 58.235 90.5409 60.8417 86.8511 60.8417C83.1613 60.4693 80.5785 57.4902 80.5785 53.7663C80.9475 50.0424 83.8993 47.0633 87.589 47.4357Z" fill="white"/>
<path d="M69.5091 44.4565C64.3434 41.8497 62.1296 35.5191 64.7124 29.9333C67.2952 24.7198 73.5678 22.4855 79.1025 25.0922C84.2682 27.6989 86.482 34.0296 83.8992 39.6154C80.9474 44.8289 74.6748 47.0632 69.5091 44.4565Z" fill="white"/>
<path d="M70.9852 73.5029C69.5093 71.6409 70.2472 69.0342 71.7231 67.917C73.568 66.4275 76.1509 67.1722 77.2578 68.6618C78.7337 70.5237 77.9957 73.1305 76.5198 74.2476C75.0439 75.7372 72.4611 75.3648 70.9852 73.5029Z" fill="white"/>
<path d="M51.798 66.0551C53.2739 62.7036 56.9637 60.8416 60.2845 62.3312C63.6053 63.8207 65.4502 67.5446 63.9743 70.8961C62.4984 74.2476 58.8086 76.1096 55.4878 74.62C52.167 73.5029 50.6911 69.779 51.798 66.0551Z" fill="white"/>
<path d="M43.312 82.8127C39.2532 86.909 32.6116 87.2814 28.1839 82.8127C24.1252 78.7164 23.7562 72.0134 28.1839 67.5447C32.2427 63.4484 38.8843 63.076 43.312 67.5447C47.3707 71.641 47.7397 78.344 43.312 82.8127Z" fill="white"/>
<path d="M71.7227 90.2604C69.5088 91.0051 67.295 89.888 66.557 87.6537C65.8191 85.4193 66.926 83.185 69.1399 82.4402C71.3537 81.6954 73.5676 82.8126 74.3055 85.0469C74.6745 87.2813 73.5676 89.5156 71.7227 90.2604Z" fill="white"/>
<path d="M58.8091 106.273C55.8573 104.039 55.4883 99.9425 57.7022 96.9634C59.9161 93.9843 63.9748 93.6119 66.9266 95.8462C69.8784 98.0806 70.2474 102.177 68.0336 105.156C65.4507 108.135 61.392 108.507 58.8091 106.273Z" fill="white"/>
<path d="M71.7227 119.307C74.3056 124.52 72.4607 131.223 67.295 133.83C62.1293 136.437 55.4878 134.575 52.9049 129.362C50.3221 124.148 52.167 117.445 57.3326 114.838C62.4983 112.232 68.7709 114.094 71.7227 119.307Z" fill="white"/>
<path d="M30.1025 130.207L32.4624 134.544L34.8882 130.207H38.9355L34.9014 137.181L39.1201 144.472H35.0596L32.4888 139.884L29.918 144.472H25.8574L30.0762 137.181L26.042 130.207H30.1025Z" fill="white"/>
<path d="M24.5132 141.506V144.472H11.3823V141.941L17.5918 135.283C18.2158 134.589 18.708 133.978 19.0684 133.451C19.4287 132.915 19.688 132.436 19.8462 132.014C20.0132 131.583 20.0967 131.174 20.0967 130.788C20.0967 130.208 20 129.711 19.8066 129.298C19.6133 128.876 19.3276 128.551 18.9497 128.322C18.5806 128.094 18.1235 127.979 17.5786 127.979C16.9985 127.979 16.4976 128.12 16.0757 128.401C15.6626 128.683 15.3462 129.074 15.1265 129.575C14.9155 130.076 14.8101 130.643 14.8101 131.275H11C11 130.133 11.2725 129.087 11.8174 128.138C12.3623 127.18 13.1313 126.419 14.1245 125.857C15.1177 125.286 16.2954 125 17.6577 125C19.0024 125 20.1362 125.22 21.0591 125.659C21.9907 126.09 22.6938 126.714 23.1685 127.531C23.6519 128.34 23.8936 129.307 23.8936 130.432C23.8936 131.064 23.7925 131.684 23.5903 132.291C23.3882 132.888 23.0981 133.486 22.7202 134.083C22.3511 134.672 21.9028 135.27 21.3755 135.876C20.8481 136.483 20.2637 137.111 19.6221 137.762L16.2866 141.506H24.5132Z" fill="white"/>
</g>
<defs>
<clipPath id="clip0_2579_1076">
<rect width="160" height="160" fill="white"/>
</clipPath>
</defs>
</svg>
