<svg width="160" height="160" viewBox="0 0 160 160" fill="none" xmlns="http://www.w3.org/2000/svg">
<g clip-path="url(#clip0_2779_2241)">
<rect width="160" height="160" rx="80" fill="#7F184A"/>
<path d="M95.6405 54.8045V52.6524C95.6405 51.1058 95.9759 49.6989 96.6467 48.4318C97.3175 47.1647 98.3051 46.1492 99.6095 45.3852C100.914 44.6212 102.516 44.2393 104.417 44.2393C106.373 44.2393 108.004 44.6212 109.308 45.3852C110.631 46.1492 111.619 47.1647 112.271 48.4318C112.942 49.6989 113.277 51.1058 113.277 52.6524V54.8045C113.277 56.3139 112.942 57.7021 112.271 58.9692C111.619 60.2363 110.641 61.2518 109.336 62.0158C108.032 62.7798 106.42 63.1617 104.501 63.1617C102.563 63.1617 100.932 62.7798 99.6095 62.0158C98.3051 61.2518 97.3175 60.2363 96.6467 58.9692C95.9759 57.7021 95.6405 56.3139 95.6405 54.8045ZM100.979 52.6524V54.8045C100.979 55.4567 101.1 56.081 101.342 56.6772C101.603 57.2549 101.995 57.73 102.516 58.1027C103.057 58.4567 103.709 58.6338 104.473 58.6338C105.274 58.6338 105.926 58.4567 106.429 58.1027C106.932 57.73 107.305 57.2549 107.547 56.6772C107.79 56.081 107.911 55.4567 107.911 54.8045V52.6524C107.911 51.9629 107.78 51.3294 107.519 50.7517C107.277 50.1554 106.895 49.6803 106.373 49.3262C105.87 48.9536 105.218 48.7672 104.417 48.7672C103.672 48.7672 103.038 48.9536 102.516 49.3262C101.995 49.6803 101.603 50.1554 101.342 50.7517C101.1 51.3294 100.979 51.9629 100.979 52.6524ZM115.094 77.696V75.5438C115.094 74.0159 115.429 72.6183 116.1 71.3512C116.79 70.0842 117.787 69.0686 119.091 68.3046C120.414 67.5407 122.035 67.1587 123.954 67.1587C125.892 67.1587 127.513 67.5407 128.818 68.3046C130.122 69.0686 131.11 70.0842 131.78 71.3512C132.451 72.6183 132.787 74.0159 132.787 75.5438V77.696C132.787 79.224 132.451 80.6215 131.78 81.8886C131.128 83.1557 130.15 84.1712 128.846 84.9352C127.541 85.6992 125.93 86.0812 124.01 86.0812C122.072 86.0812 120.442 85.6992 119.119 84.9352C117.796 84.1712 116.79 83.1557 116.1 81.8886C115.429 80.6215 115.094 79.224 115.094 77.696ZM120.461 75.5438V77.696C120.461 78.3668 120.61 79.0004 120.908 79.5966C121.206 80.1929 121.616 80.6681 122.138 81.0221C122.678 81.3761 123.302 81.5532 124.01 81.5532C124.905 81.5532 125.603 81.3761 126.107 81.0221C126.61 80.6681 126.954 80.1929 127.141 79.5966C127.346 79.0004 127.448 78.3668 127.448 77.696V75.5438C127.448 74.873 127.318 74.2488 127.057 73.6711C126.796 73.0749 126.405 72.5997 125.883 72.2457C125.38 71.873 124.737 71.6866 123.954 71.6866C123.172 71.6866 122.52 71.873 121.998 72.2457C121.495 72.5997 121.113 73.0749 120.852 73.6711C120.591 74.2488 120.461 74.873 120.461 75.5438ZM125.939 50.6399L106.066 82.4476L102.153 80.3792L122.026 48.5716L125.939 50.6399Z" fill="white"/>
<path d="M90.274 61.5965V68.64C90.274 71.696 89.9479 74.3326 89.2957 76.55C88.6435 78.7488 87.7025 80.5563 86.4727 81.9724C85.2615 83.37 83.8174 84.4041 82.1404 85.0749C80.4634 85.7457 78.6 86.0812 76.5503 86.0812C74.9105 86.0812 73.3826 85.8762 71.9664 85.4662C70.5503 85.0377 69.2738 84.3762 68.1372 83.4818C67.0192 82.5873 66.0502 81.46 65.2303 80.0997C64.4291 78.7209 63.8142 77.0811 63.3856 75.1805C62.957 73.2798 62.7427 71.0997 62.7427 68.64V61.5965C62.7427 58.5406 63.0688 55.9226 63.721 53.7424C64.3918 51.5437 65.3328 49.7455 66.544 48.348C67.7738 46.9505 69.2273 45.9256 70.9043 45.2734C72.5813 44.6026 74.4447 44.2672 76.4944 44.2672C78.1342 44.2672 79.6528 44.4815 81.0503 44.9101C82.4665 45.32 83.7429 45.9629 84.8795 46.8387C86.0162 47.7144 86.9851 48.8418 87.7864 50.2207C88.5876 51.5809 89.2026 53.2114 89.6311 55.112C90.0597 56.994 90.274 59.1555 90.274 61.5965ZM82.1963 69.7022V60.5064C82.1963 59.0344 82.1124 57.7487 81.9447 56.6493C81.7957 55.5499 81.5627 54.6182 81.246 53.8542C80.9292 53.0716 80.5379 52.4381 80.0721 51.9536C79.6062 51.4691 79.0752 51.1151 78.4789 50.8915C77.8826 50.6679 77.2211 50.5561 76.4944 50.5561C75.5813 50.5561 74.7708 50.7331 74.0627 51.0871C73.3733 51.4412 72.7863 52.0095 72.3018 52.7921C71.8173 53.5561 71.4447 54.5809 71.1838 55.8667C70.9416 57.1338 70.8204 58.6803 70.8204 60.5064V69.7022C70.8204 71.1742 70.895 72.4693 71.044 73.5873C71.2117 74.7053 71.454 75.6649 71.7708 76.4662C72.1062 77.2488 72.4975 77.8917 72.9447 78.3948C73.4105 78.8792 73.9416 79.2333 74.5379 79.4569C75.1528 79.6805 75.8236 79.7923 76.5503 79.7923C77.4447 79.7923 78.2366 79.6153 78.9261 79.2612C79.6342 78.8886 80.2304 78.3109 80.7149 77.5283C81.218 76.7271 81.5907 75.6836 81.8329 74.3978C82.0752 73.1121 82.1963 71.5469 82.1963 69.7022Z" fill="white"/>
<path d="M57.8514 79.2333V85.5221H30.0127V80.1556L43.1774 66.0406C44.5004 64.5686 45.5439 63.2735 46.3079 62.1555C47.0718 61.0189 47.6215 60.0033 47.9569 59.1089C48.311 58.1959 48.488 57.3294 48.488 56.5095C48.488 55.2797 48.283 54.2269 47.8731 53.3511C47.4631 52.4567 46.8575 51.7673 46.0563 51.2828C45.2737 50.7983 44.3047 50.5561 43.1494 50.5561C41.9196 50.5561 40.8575 50.8542 39.9631 51.4505C39.0873 52.0468 38.4165 52.876 37.9507 53.9381C37.5034 55.0002 37.2798 56.2021 37.2798 57.5437H29.2021C29.2021 55.1213 29.7798 52.9039 30.9351 50.8915C32.0904 48.8604 33.7208 47.2486 35.8264 46.056C37.932 44.8449 40.4289 44.2393 43.3172 44.2393C46.1681 44.2393 48.5718 44.7051 50.5284 45.6368C52.5035 46.5498 53.9942 47.8728 55.0005 49.6058C56.0253 51.3201 56.5377 53.3698 56.5377 55.7549C56.5377 57.0965 56.3234 58.4102 55.8949 59.6959C55.4663 60.963 54.8514 62.2301 54.0501 63.4972C53.2675 64.7456 52.3172 66.0127 51.1992 67.2984C50.0812 68.5841 48.842 69.9164 47.4818 71.2953L40.4103 79.2333H57.8514Z" fill="white"/>
<path d="M122.934 116.412C121.917 116.412 121.006 116.251 120.199 115.928C119.392 115.597 118.706 115.141 118.141 114.56C117.584 113.979 117.157 113.306 116.858 112.539C116.56 111.764 116.41 110.941 116.41 110.07V109.586C116.41 108.593 116.552 107.686 116.834 106.863C117.116 106.04 117.52 105.326 118.044 104.721C118.577 104.115 119.222 103.651 119.981 103.329C120.739 102.998 121.595 102.832 122.547 102.832C123.475 102.832 124.298 102.986 125.016 103.292C125.734 103.599 126.335 104.035 126.819 104.599C127.311 105.164 127.682 105.842 127.933 106.633C128.183 107.415 128.308 108.287 128.308 109.247V110.699H117.899V108.376H124.883V108.109C124.883 107.625 124.794 107.194 124.616 106.814C124.447 106.427 124.189 106.12 123.842 105.895C123.495 105.669 123.051 105.556 122.51 105.556C122.05 105.556 121.655 105.656 121.324 105.858C120.993 106.06 120.723 106.342 120.513 106.705C120.312 107.069 120.158 107.496 120.053 107.988C119.957 108.472 119.908 109.005 119.908 109.586V110.07C119.908 110.595 119.981 111.079 120.126 111.522C120.279 111.966 120.493 112.349 120.768 112.672C121.05 112.995 121.389 113.245 121.784 113.423C122.188 113.6 122.643 113.689 123.152 113.689C123.781 113.689 124.366 113.568 124.907 113.326C125.455 113.076 125.927 112.7 126.323 112.2L128.017 114.04C127.743 114.435 127.368 114.814 126.892 115.178C126.424 115.541 125.859 115.839 125.197 116.073C124.536 116.299 123.781 116.412 122.934 116.412Z" fill="white"/>
<path d="M96.392 103.074H99.8777V113.447H103.496V103.074H107.006V113.447H110.613V103.074H114.099V116.17H96.392V103.074Z" fill="white"/>
<path d="M83.2723 103.074H86.758L86.649 107.456C86.6168 108.86 86.4554 110.066 86.1649 111.075C85.8745 112.083 85.4872 112.93 85.003 113.616C84.5189 114.302 83.9662 114.851 83.3449 115.262C82.7317 115.666 82.0862 115.968 81.4084 116.17H80.7549L80.7186 113.483L81.0816 113.447C81.4931 113.019 81.832 112.604 82.0983 112.2C82.3646 111.789 82.5703 111.357 82.7156 110.905C82.8608 110.453 82.9657 109.949 83.0302 109.392C83.1029 108.836 83.1472 108.19 83.1634 107.456L83.2723 103.074ZM84.2163 103.074H92.8942V116.17H89.4206V105.87H84.2163V103.074ZM79.9561 113.447H94.7702V120.103H91.2845V116.17H83.5265V120.103H79.9561V113.447Z" fill="white"/>
<path d="M70.3462 111.305L74.7396 103.074H78.2253V116.17H74.7396V107.928L70.3462 116.17H66.8606V103.074H70.3462V111.305Z" fill="white"/>
<path d="M59.3809 110.699H55.278L55.2537 108.412H58.6426C59.0944 108.412 59.4616 108.368 59.744 108.279C60.0264 108.182 60.2321 108.041 60.3612 107.855C60.4984 107.662 60.567 107.428 60.567 107.153C60.567 106.911 60.5226 106.705 60.4338 106.536C60.3532 106.358 60.2281 106.213 60.0587 106.1C59.8892 105.987 59.6754 105.907 59.4172 105.858C59.1671 105.802 58.8726 105.773 58.5337 105.773H56.573V116.17H53.0873V103.074H58.5337C59.389 103.074 60.1555 103.151 60.8332 103.304C61.511 103.45 62.0879 103.672 62.564 103.97C63.0481 104.269 63.4152 104.648 63.6654 105.108C63.9236 105.56 64.0527 106.096 64.0527 106.717C64.0527 107.121 63.9599 107.5 63.7743 107.855C63.5968 108.21 63.3305 108.525 62.9755 108.799C62.6205 109.074 62.1807 109.299 61.6563 109.477C61.1399 109.646 60.5428 109.751 59.865 109.792L59.3809 110.699ZM59.3809 116.17H54.4186L55.6168 113.471H59.3809C59.8085 113.471 60.1595 113.419 60.4338 113.314C60.7082 113.209 60.9099 113.055 61.039 112.854C61.1762 112.644 61.2447 112.394 61.2447 112.103C61.2447 111.821 61.1842 111.575 61.0632 111.365C60.9422 111.155 60.7445 110.994 60.4702 110.881C60.2039 110.76 59.8408 110.699 59.3809 110.699H56.1252L56.1494 108.412H59.8529L60.7001 109.332C61.6199 109.388 62.3784 109.562 62.9755 109.852C63.5726 110.143 64.0123 110.514 64.2947 110.966C64.5852 111.409 64.7304 111.898 64.7304 112.43C64.7304 113.051 64.6134 113.596 64.3794 114.064C64.1454 114.532 63.7985 114.923 63.3386 115.238C62.8867 115.545 62.33 115.779 61.6684 115.94C61.0067 116.093 60.2442 116.17 59.3809 116.17Z" fill="white"/>
<path d="M32.3427 103.074H35.8284V113.447H39.4472V103.074H42.9571V113.447H46.5638V103.074H50.0494V116.17H32.3427V103.074Z" fill="white"/>
</g>
<defs>
<clipPath id="clip0_2779_2241">
<rect width="160" height="160" fill="white"/>
</clipPath>
</defs>
</svg>
