<svg width="160" height="160" viewBox="0 0 160 160" fill="none" xmlns="http://www.w3.org/2000/svg">
<g clip-path="url(#clip0_3280_1929)">
<rect width="160" height="160" rx="80" fill="#7F184A"/>
<path d="M63.5789 85.9996H94.0408V47.6577L63.5789 61.4215" fill="white"/>
<path d="M127 82.0672V38.8096C127 37.3349 126.501 36.3518 125.003 35.3687C124.004 34.8771 123.005 34.8771 121.507 35.3687L99.035 45.1999V85.5081H123.005C125.502 85.9997 127 84.0334 127 82.0672Z" fill="white"/>
<path d="M23.1299 83.0506C23.6293 85.0169 25.1274 86 27.1249 86H58.0862V63.8797L25.1274 78.6266C23.6293 79.1181 22.6305 81.0844 23.1299 83.0506Z" fill="white"/>
<path d="M102.247 101.988H103.046V106.368H102.723C101.275 106.368 99.9868 106.584 98.8569 107.016C97.7271 107.447 96.7686 108.063 95.9814 108.863C95.207 109.65 94.6104 110.602 94.1914 111.719C93.7852 112.836 93.582 114.087 93.582 115.471V120.079C93.582 121.069 93.6772 121.945 93.8677 122.707C94.0708 123.456 94.3564 124.084 94.7246 124.592C95.1055 125.087 95.5498 125.462 96.0576 125.716C96.5654 125.957 97.1367 126.078 97.7715 126.078C98.3682 126.078 98.9077 125.951 99.3901 125.697C99.8853 125.443 100.304 125.087 100.647 124.63C101.002 124.161 101.269 123.615 101.447 122.993C101.637 122.358 101.732 121.666 101.732 120.917C101.732 120.168 101.637 119.476 101.447 118.841C101.269 118.207 101.002 117.661 100.647 117.204C100.292 116.734 99.8599 116.372 99.3521 116.118C98.8442 115.864 98.2729 115.737 97.6382 115.737C96.7749 115.737 96.0132 115.94 95.353 116.347C94.7056 116.74 94.1978 117.248 93.8296 117.87C93.4614 118.492 93.2646 119.146 93.2393 119.832L91.5825 118.765C91.6206 117.788 91.8237 116.861 92.1919 115.985C92.5728 115.109 93.0933 114.334 93.7534 113.662C94.4263 112.976 95.2324 112.443 96.1719 112.062C97.1113 111.668 98.1714 111.472 99.3521 111.472C100.647 111.472 101.783 111.719 102.761 112.214C103.751 112.709 104.576 113.389 105.236 114.252C105.896 115.115 106.392 116.112 106.722 117.242C107.052 118.372 107.217 119.578 107.217 120.86C107.217 122.206 106.995 123.456 106.55 124.611C106.119 125.767 105.49 126.776 104.665 127.639C103.853 128.502 102.875 129.175 101.732 129.658C100.59 130.14 99.3076 130.381 97.8857 130.381C96.4131 130.381 95.0737 130.115 93.8677 129.582C92.6743 129.036 91.646 128.274 90.7827 127.296C89.9194 126.319 89.2529 125.157 88.7832 123.812C88.3262 122.466 88.0977 120.993 88.0977 119.394V117.261C88.0977 115.026 88.4214 112.982 89.0688 111.129C89.729 109.263 90.6748 107.65 91.9062 106.292C93.1377 104.921 94.623 103.861 96.3623 103.112C98.1016 102.363 100.063 101.988 102.247 101.988Z" fill="white"/>
<path d="M83.7559 115.947V120.25H72.9966V115.947H83.7559Z" fill="white"/>
<path d="M63.6846 102.217V130H58.2002V108.539L51.6113 110.634V106.311L63.0942 102.217H63.6846Z" fill="white"/>
</g>
<defs>
<clipPath id="clip0_3280_1929">
<rect width="160" height="160" fill="white"/>
</clipPath>
</defs>
</svg>
