<svg width="80" height="80" viewBox="0 0 80 80" fill="none" xmlns="http://www.w3.org/2000/svg">
<path fill-rule="evenodd" clip-rule="evenodd" d="M24.9082 43.2004C24.908 42.7778 24.9075 42.3652 24.9071 41.9621C24.9031 38.1737 24.8999 35.2376 25.1136 32.9445C25.3505 30.4023 25.8473 28.7585 26.8128 27.6561C27.7696 26.5635 29.2649 25.9162 31.7208 25.5658C34.0878 25.2281 37.2597 25.1768 41.5358 25.2089V25.2166L42.0315 25.2209C45.2436 25.2485 47.6726 25.3646 49.5228 25.7112C51.3677 26.0567 52.5778 26.6213 53.407 27.5006C54.239 28.383 54.7491 29.6474 55.0532 31.5257C55.3578 33.4064 55.4465 35.8372 55.4861 39.0016L55.4861 39.0036C55.5254 41.3852 55.4705 43.7761 55.3447 46.161C55.3246 46.4419 55.3068 46.7239 55.2891 47.0062V47.0062C55.2178 48.1399 55.1463 49.278 54.9202 50.3646C54.641 51.7068 54.1362 52.9053 53.1507 53.8251C52.2968 54.5803 51.2521 54.9966 50.1043 55.2425C49.0469 55.4689 47.9356 55.5448 46.8301 55.6203H46.8301L46.5183 55.6417C43.7812 55.8147 41.0433 55.8698 38.2964 55.8226C35.3639 55.7671 33.0719 55.6845 31.2682 55.4065C29.4659 55.1287 28.2147 54.6641 27.3211 53.892C26.4348 53.1261 25.839 52.0039 25.4616 50.2792C25.0824 48.5467 24.9339 46.2547 24.9082 43.2004ZM42.0402 24.213C37.5248 24.1735 34.1241 24.2128 31.5796 24.5758C29.0335 24.9391 27.2508 25.6382 26.0605 26.9972C24.8789 28.3464 24.3595 30.2594 24.1179 32.8517C23.8996 35.1949 23.9029 38.1816 23.9071 41.9506C23.9075 42.3588 23.908 42.7761 23.9082 43.2028L23.9082 43.2068C23.9339 46.2725 24.082 48.6527 24.4847 50.493C24.8892 52.3414 25.5607 53.6924 26.6673 54.6486C27.7666 55.5985 29.2338 56.1047 31.1158 56.3948C32.9963 56.6847 35.3543 56.7671 38.2778 56.8224L38.2787 56.8224C41.0511 56.8701 43.8166 56.8145 46.583 56.6396L46.5861 56.6394C46.6919 56.6321 46.7986 56.6248 46.9062 56.6175C47.9995 56.5431 49.1823 56.4626 50.3138 56.2203C51.5641 55.9525 52.7913 55.4802 53.8187 54.5693L53.8188 54.5694L53.8278 54.5611C55.0221 53.449 55.5957 52.0275 55.8993 50.5682C56.1414 49.4046 56.2183 48.1752 56.2895 47.0356L56.2896 47.0342C56.3068 46.7594 56.3237 46.4898 56.3425 46.2277L56.3425 46.2277L56.343 46.2183C56.4701 43.8127 56.5257 41.3974 56.486 38.9885C56.4465 35.8306 56.3583 33.3297 56.0404 31.3659C55.722 29.3995 55.1639 27.9063 54.1345 26.8146C53.1023 25.7199 51.6577 25.0937 49.7069 24.7283C47.8625 24.3828 45.5128 24.2612 42.5358 24.2259V24.2173L42.0402 24.213ZM35.4402 39.7389V41.3205H44.9302V39.7389H35.4402Z" fill="#181818"/>
<path d="M78.082 40.1221L73.082 37.2353V43.0088L78.082 40.1221ZM59.8929 40.6221H73.582V39.6221H59.8929V40.6221Z" fill="black"/>
<path d="M2.16216 40.1221L7.16216 37.2353V43.0088L2.16216 40.1221ZM20.3513 40.6221H6.66216V39.6221H20.3513V40.6221Z" fill="black"/>
<path d="M40.1221 78.0817L43.0088 73.0817L37.2353 73.0817L40.1221 78.0817ZM39.6221 59.8926L39.6221 73.5817L40.6221 73.5817L40.6221 59.8926L39.6221 59.8926Z" fill="black"/>
<path d="M40.1221 2.16219L43.0088 7.16219L37.2353 7.16219L40.1221 2.16219ZM39.6221 20.3513L39.6221 6.66219L40.6221 6.66219L40.6221 20.3513L39.6221 20.3513Z" fill="black"/>
<path fill-rule="evenodd" clip-rule="evenodd" d="M66.4865 21.6217C70.0689 21.6217 72.973 18.7176 72.973 15.1352C72.973 11.5528 70.0689 8.64868 66.4865 8.64868C62.9041 8.64868 60 11.5528 60 15.1352C60 18.7176 62.9041 21.6217 66.4865 21.6217ZM65.2262 16.2163V11.8919H67.7465V16.2163H65.2262ZM66.4864 16.5593C67.1823 16.5593 67.7465 17.1235 67.7465 17.8194V17.8379C67.7465 18.5338 67.1823 19.098 66.4864 19.098C65.7904 19.098 65.2262 18.5338 65.2262 17.8379V17.8194C65.2262 17.1235 65.7904 16.5593 66.4864 16.5593Z" fill="#EA5949"/>
</svg>
