<svg width="80" height="80" viewBox="0 0 80 80" fill="none" xmlns="http://www.w3.org/2000/svg">
<path fill-rule="evenodd" clip-rule="evenodd" d="M40 58.6418C29.4589 58.6418 20.8819 50.134 20.8819 39.6779C20.8819 29.2218 29.4589 20.7147 40 20.7147C50.541 20.7147 59.1173 29.2218 59.1173 39.6779C59.1173 50.134 50.541 58.6418 40 58.6418ZM64.8627 39.6778C64.8627 38.4289 64.7673 37.2011 64.5857 36.0012L69.9349 32.2528L69.2768 30.242L68.6178 28.2312L62.0573 28.3174C60.9065 26.1282 59.4377 24.1301 57.7064 22.3857L59.8179 16.2172L58.0942 14.975L56.3697 13.732L51.1144 17.6259C48.9304 16.5385 46.5639 15.7606 44.0731 15.3513L42.1312 9.14307H40H37.8689L35.9262 15.3513C33.4353 15.7606 31.0697 16.5385 28.8857 17.6259L23.6303 13.732L21.9058 14.975L20.1822 16.2172L22.2937 22.3857C20.5624 24.1301 19.0936 26.1282 17.9428 28.3174L11.3823 28.2312L10.7233 30.242L10.0652 32.2528L15.4144 36.0012C15.2328 37.2011 15.1365 38.4289 15.1365 39.6778C15.1365 40.9276 15.2328 42.1545 15.4144 43.3544L10.0652 47.1029L10.7233 49.1137L11.3823 51.1244L17.9428 51.0382C19.0936 53.2274 20.5624 55.2264 22.2937 56.9699L20.1822 63.1385L21.9058 64.3815L23.6303 65.6245L28.8857 61.7297C31.0697 62.8171 33.4353 63.5942 35.9262 64.0043L37.8689 70.2126H40H42.1312L44.0739 64.0043C46.5639 63.5942 48.9304 62.8171 51.1144 61.7297L56.3697 65.6245L58.0942 64.3815L59.8179 63.1385L57.7064 56.9699C59.4377 55.2264 60.9065 53.2274 62.0573 51.0382L68.6178 51.1244L69.2768 49.1137L69.9349 47.1029L64.5857 43.3544C64.7673 42.1545 64.8627 40.9276 64.8627 39.6778Z" fill="#181818" stroke="#181818" stroke-width="2.28571"/>
<path fill-rule="evenodd" clip-rule="evenodd" d="M50.6744 39.6776L34.6629 49.7257V29.6294L50.6744 39.6776Z" fill="#181818"/>
</svg>
