<svg width="80" height="80" viewBox="0 0 80 80" fill="none" xmlns="http://www.w3.org/2000/svg">
<path fill-rule="evenodd" clip-rule="evenodd" d="M39.9278 10.5C25.6635 10.5 13.7917 20.7488 11.2769 34.2857H16.2857L10.2821 44.3954L4.28571 34.2857H10.2602C12.7876 20.1934 25.1095 9.5 39.9278 9.5C51.6349 9.5 61.7816 16.1733 66.7733 25.9214L65.8832 26.3772C61.0559 16.9501 51.2451 10.5 39.9278 10.5ZM39.9278 68.7841C54.4429 68.7841 66.4783 58.1739 68.7019 44.2857H62.7857L68.7894 34L74.7857 44.2857H69.7143C67.4813 58.7286 54.9964 69.7841 39.9278 69.7841C27.9477 69.7841 17.6003 62.7946 12.7403 52.6727L13.6417 52.2398C18.3416 62.0283 28.3466 68.7841 39.9278 68.7841ZM52.5558 47.9018V46.2054H44.4085L48.7612 41.4844C49.1778 41.0305 49.5685 40.5692 49.933 40.1004C50.3051 39.6317 50.6287 39.1555 50.904 38.6719C51.1868 38.1882 51.4062 37.7046 51.5625 37.221C51.7262 36.7299 51.808 36.2463 51.808 35.7701C51.808 34.8996 51.6109 34.1406 51.2165 33.4933C50.8296 32.8385 50.2716 32.3326 49.5424 31.9754C48.8132 31.6109 47.9353 31.4286 46.9085 31.4286C45.7552 31.4286 44.7842 31.6555 43.9955 32.1094C43.2068 32.5558 42.6116 33.1585 42.2098 33.9174C41.808 34.6763 41.6071 35.5134 41.6071 36.4286H43.6719C43.6719 35.7812 43.7909 35.2083 44.029 34.7098C44.2671 34.2113 44.6243 33.8244 45.1004 33.5491C45.5841 33.2664 46.1868 33.125 46.9085 33.125C47.5112 33.125 48.0246 33.2552 48.4487 33.5156C48.8728 33.776 49.1927 34.1257 49.4085 34.5647C49.6317 34.9963 49.7433 35.4799 49.7433 36.0156C49.7433 36.4397 49.6689 36.8564 49.5201 37.2656C49.3787 37.6674 49.1257 38.125 48.7612 38.6384C48.404 39.1443 47.8981 39.7619 47.2433 40.4911L41.9196 46.4174V47.9018H52.5558ZM39.5536 32.8125V31.6518H28.5714V33.3482H37.3661L30.6473 47.9018H32.8237L39.5536 32.8125Z" fill="black"/>
</svg>
