<svg width="80" height="80" viewBox="0 0 80 80" fill="none" xmlns="http://www.w3.org/2000/svg">
<path fill-rule="evenodd" clip-rule="evenodd" d="M56.0937 17.7297H25.2423C24.0087 17.7297 22.857 18.3573 22.857 19.5987V66.2615C22.857 67.5028 24.0087 68.6545 25.2423 68.6545H56.0937C57.3289 68.6545 58.4125 67.5028 58.4125 66.2615V19.5987C58.4125 18.3573 57.3289 17.7297 56.0937 17.7297ZM35.2241 12.231V13.9639H46.0454V12.231C46.0454 10.985 44.9694 10.0002 43.7266 10.0002H37.543C36.3001 10.0002 35.2241 10.985 35.2241 12.231ZM40.163 42.8705H31.5585L45.9755 28.1752L41.9639 39.4757L50.5065 39.4664L34.5112 56.598L40.163 42.8705Z" fill="#181818"/>
</svg>
