<svg width="80" height="80" viewBox="0 0 80 80" fill="none" xmlns="http://www.w3.org/2000/svg">
<path fill-rule="evenodd" clip-rule="evenodd" d="M46.2149 16.5366C40.9814 16.5366 36.7388 20.7792 36.7388 26.0127C36.7388 31.2462 40.9814 35.4887 46.2149 35.4887C51.4484 35.4887 55.691 31.2462 55.691 26.0127C55.691 20.7792 51.4484 16.5366 46.2149 16.5366ZM35.7388 26.0127C35.7388 20.2269 40.4291 15.5366 46.2149 15.5366C52.0007 15.5366 56.691 20.2269 56.691 26.0127C56.691 31.7984 52.0007 36.4887 46.2149 36.4887C40.4291 36.4887 35.7388 31.7984 35.7388 26.0127ZM14.5696 26.013C14.5696 20.7795 18.8122 16.537 24.0457 16.537C26.7484 16.537 29.1868 17.6684 30.9131 19.4835C31.1317 19.2311 31.3629 18.9899 31.6055 18.7606C29.6989 16.7738 27.0167 15.537 24.0457 15.537C18.2599 15.537 13.5696 20.2272 13.5696 26.013C13.5696 31.7988 18.2599 36.4891 24.0457 36.4891C27.0167 36.4891 29.6989 35.2523 31.6055 33.2654C31.3629 33.0362 31.1317 32.7949 30.9131 32.5425C29.1868 34.3576 26.7484 35.4891 24.0457 35.4891C18.8122 35.4891 14.5696 31.2465 14.5696 26.013ZM14.4125 48.5459C19.5133 43.7451 27.4699 43.7451 32.5708 48.5459C38.0566 53.7091 46.6139 53.7091 52.0998 48.5459L51.4144 47.8177C46.3136 52.6185 38.3569 52.6185 33.2561 47.8177C27.7702 42.6545 19.213 42.6545 13.7271 47.8177L14.4125 48.5459ZM37.0024 58.5198C30.6778 52.4963 20.7392 52.4963 14.4146 58.5198L13.7249 57.7956C20.4357 51.4044 30.9813 51.4044 37.6921 57.7956C44.0167 63.819 53.9553 63.819 60.2799 57.7956L60.9695 58.5198C54.2587 64.911 43.7132 64.911 37.0024 58.5198ZM66.8199 44.2864V43.1201H61.2186L64.211 39.8745C64.4975 39.5624 64.7661 39.2453 65.0167 38.923C65.2725 38.6008 65.495 38.2734 65.6843 37.9409C65.8786 37.6084 66.0295 37.2759 66.137 36.9434C66.2495 36.6058 66.3058 36.2733 66.3058 35.9459C66.3058 35.3474 66.1702 34.8256 65.8991 34.3806C65.6331 33.9305 65.2495 33.5826 64.7482 33.3371C64.2468 33.0864 63.6432 32.9611 62.9373 32.9611C62.1445 32.9611 61.4769 33.1171 60.9347 33.4292C60.3925 33.7361 59.9832 34.1504 59.707 34.6722C59.4308 35.1939 59.2927 35.7694 59.2927 36.3986H60.7122C60.7122 35.9536 60.794 35.5597 60.9577 35.217C61.1214 34.8742 61.3669 34.6082 61.6943 34.419C62.0268 34.2246 62.4411 34.1274 62.9373 34.1274C63.3517 34.1274 63.7046 34.2169 63.9962 34.396C64.2878 34.575 64.5077 34.8154 64.6561 35.1172C64.8095 35.4139 64.8863 35.7464 64.8863 36.1147C64.8863 36.4063 64.8351 36.6927 64.7328 36.9741C64.6356 37.2503 64.4617 37.5649 64.211 37.9179C63.9655 38.2657 63.6177 38.6903 63.1675 39.1916L59.5075 43.2659V44.2864H66.8199Z" fill="black"/>
</svg>
