<svg width="80" height="80" viewBox="0 0 80 80" fill="none" xmlns="http://www.w3.org/2000/svg">
<path d="M51.8325 53.3126V44.268H50.6713L48.1166 45.4526V46.7412L50.6853 45.5347V53.3126H48.5372V54.1883H54.1682V53.3126H51.8325Z" fill="#181818"/>
<path fill-rule="evenodd" clip-rule="evenodd" d="M43.0131 38.0477C42.4578 37.1777 41.6334 36.7482 40.5397 36.7482C39.4544 36.7482 38.6328 37.1777 38.0775 38.0477C37.5195 38.915 37.2419 40.1926 37.2419 41.8998C37.2419 43.5933 37.5195 44.8764 38.0775 45.741C38.6328 46.6083 39.4544 47.0378 40.5397 47.0378C41.6334 47.0378 42.4578 46.6083 43.0131 45.741C43.5711 44.8764 43.8516 43.5933 43.8516 41.8998C43.8516 40.1926 43.5711 38.915 43.0131 38.0477ZM39.0731 44.8764L42.3288 39.9054C42.4158 40.499 42.4662 41.1639 42.4662 41.8998C42.4662 43.276 42.3064 44.2964 41.9923 44.9667C41.6698 45.6425 41.1931 45.9735 40.5397 45.9735C39.9059 45.9735 39.4152 45.6097 39.0731 44.8764ZM39.1067 38.8192C39.4208 38.1489 39.9003 37.8151 40.5397 37.8151C41.1286 37.8151 41.5969 38.1134 41.9446 38.7016L38.759 43.6535C38.6721 43.1063 38.63 42.5154 38.63 41.8998C38.63 40.5155 38.787 39.495 39.1067 38.8192Z" fill="#181818"/>
<path fill-rule="evenodd" clip-rule="evenodd" d="M31.521 27.7872C30.9658 26.9172 30.1413 26.485 29.0477 26.485C27.9652 26.485 27.1408 26.9172 26.5827 27.7872C26.0247 28.6573 25.7526 29.9376 25.7526 31.6339C25.7526 33.3329 26.0247 34.6133 26.5827 35.4833C27.1408 36.3505 27.9652 36.7883 29.0477 36.7883C30.1413 36.7883 30.9658 36.3505 31.521 35.4833C32.0791 34.6133 32.3595 33.3329 32.3595 31.6339C32.3595 29.9376 32.0791 28.6573 31.521 27.7872ZM27.581 34.6133L30.8368 29.6449C30.9237 30.2441 30.9714 30.9007 30.9714 31.6339C30.9714 33.01 30.8144 34.036 30.4975 34.709C30.1806 35.382 29.7011 35.7158 29.0477 35.7158C28.4139 35.7158 27.926 35.3492 27.581 34.6133ZM27.6147 28.5615C27.9288 27.8885 28.4083 27.5547 29.0477 27.5547C29.6366 27.5547 30.1077 27.8529 30.4526 28.4411L27.267 33.3958C27.18 32.8486 27.1408 32.2631 27.1408 31.6339C27.1408 30.2577 27.2978 29.2318 27.6147 28.5615Z" fill="#181818"/>
<path fill-rule="evenodd" clip-rule="evenodd" d="M53.3729 27.7459C52.8177 26.8759 51.9932 26.4437 50.8995 26.4437C49.8143 26.4437 48.9954 26.8759 48.4346 27.7459C47.8793 28.6159 47.6017 29.8909 47.6017 31.5926C47.6017 33.2888 47.8793 34.5719 48.4346 35.4365C48.9954 36.3092 49.8143 36.7388 50.8995 36.7388C51.9932 36.7388 52.8177 36.3092 53.3729 35.4365C53.9282 34.5719 54.2086 33.2888 54.2086 31.5926C54.2086 29.8909 53.9282 28.6159 53.3729 27.7459ZM49.4329 34.5719L52.6831 29.6036C52.7756 30.2 52.8261 30.8594 52.8261 31.5926C52.8261 32.9687 52.6662 33.9974 52.3494 34.665C52.0297 35.3353 51.5501 35.6745 50.8995 35.6745C50.2658 35.6745 49.775 35.3079 49.4329 34.5719ZM49.4665 28.5147C49.7778 27.8472 50.2602 27.5079 50.8995 27.5079C51.4884 27.5079 51.9596 27.8034 52.3045 28.3943L49.1188 33.3517C49.0319 32.8046 48.9898 32.2164 48.9898 31.5926C48.9898 30.2137 49.1469 29.1877 49.4665 28.5147Z" fill="#181818"/>
<path d="M41.69 28.0789V19.2858H40.3103L37.7528 20.4732V21.7672L40.3243 20.558V28.0789H38.1763V29.2061H43.81V28.0789H41.69Z" fill="#181818"/>
<path d="M30.3019 44.268V53.3126H32.6376V54.1883H27.0066V53.3126H29.1547V45.5347L26.586 46.7412V45.4526L29.1407 44.268H30.3019Z" fill="#181818"/>
<path fill-rule="evenodd" clip-rule="evenodd" d="M40.0696 15.7144C26.5369 15.7144 15.5668 26.6877 15.5668 40.2202C15.5668 53.7557 26.537 64.726 40.0696 64.726C53.605 64.726 64.5784 53.7558 64.5784 40.2202C64.5784 26.6876 53.6051 15.7144 40.0696 15.7144ZM17.139 37.6308C18.4259 26.1056 28.2015 17.1429 40.0696 17.1429C51.6647 17.1429 61.2631 25.6939 62.9027 36.8313C62.0868 36.9579 61.4518 37.3773 60.9931 38.0925C60.4378 38.9598 60.1574 40.2402 60.1574 41.9419C60.1574 43.6354 60.4378 44.9213 60.9931 45.7831C61.3076 46.2733 61.7049 46.6255 62.1865 46.8395C59.4773 55.9032 51.3477 62.6266 41.5596 63.2501V54.581H40.3984L37.8437 55.7656V57.0542L40.4124 55.8477V63.2949C40.2983 63.2966 40.1841 63.2974 40.0696 63.2974C29.5463 63.2974 20.6682 56.2528 17.8942 46.6205H22.6433L22.6432 45.4933H20.5232L20.5233 36.7002H19.1435L17.139 37.6308ZM17.0284 38.9736C17.0065 39.3863 16.9953 39.802 16.9953 40.2202C16.9953 42.0344 17.2046 43.7997 17.6004 45.4933H19.1575V37.9724L17.0284 38.9736ZM62.5059 45.6565C62.6762 44.9511 62.8141 44.233 62.918 43.5039L61.9914 44.9212C62.1366 45.2323 62.308 45.4774 62.5059 45.6565ZM63.1173 41.4563C63.1389 41.047 63.1498 40.6349 63.1498 40.2202C63.1498 39.4413 63.1112 38.6714 63.0358 37.9123C62.6023 38.0331 62.2653 38.3514 62.0223 38.8613C61.7054 39.5343 61.5455 40.5603 61.5455 41.9419C61.5455 42.5657 61.5904 43.1539 61.6745 43.6983L63.1173 41.4563Z" fill="#181818"/>
<path d="M74.5975 23.2334C79.6565 33.6533 79.6946 45.9016 74.7035 56.3485L75.9925 56.9644C81.171 46.1251 81.1315 33.4204 75.8826 22.6095L74.5975 23.2334Z" fill="#181818"/>
<path d="M5.40667 56.3666C0.34767 45.9469 0.31228 33.6985 5.30068 23.2514L4.01153 22.6358C-1.16404 33.4749 -1.12743 46.1795 4.12156 56.9906L5.40667 56.3666Z" fill="#181818"/>
<path d="M68.2193 28.3373C71.7429 35.5463 71.7674 44.0353 68.3001 51.2665L69.5882 51.8841C73.244 44.2598 73.2186 35.3122 69.5028 27.71L68.2193 28.3373Z" fill="#181818"/>
<path d="M11.7876 51.2627C8.2639 44.0536 8.23685 35.5646 11.7041 28.3336L10.4159 27.716C6.76006 35.3404 6.78839 44.288 10.5041 51.8901L11.7876 51.2627Z" fill="#181818"/>
</svg>
