<svg width="80" height="80" viewBox="0 0 80 80" fill="none" xmlns="http://www.w3.org/2000/svg">
<path d="M34.1141 30.7855V33.6426H46.9713V30.7855H34.1141Z" fill="#181818"/>
<path fill-rule="evenodd" clip-rule="evenodd" d="M42.9937 10.7998C43.4222 10.8118 43.8438 10.8231 44.2585 10.834C46.8017 10.9009 49.0851 10.9609 51.0757 11.1697C53.3924 11.4128 55.3997 11.864 57.0319 12.819C60.3868 14.7816 61.8477 18.6639 61.8284 25.9276C62.0714 31.358 62.0141 36.8052 61.5988 42.2264C61.4868 45.1473 60.8008 47.7317 59.285 49.6639C57.75 51.6206 55.4342 52.8194 52.2601 53.0829C43.9661 53.7991 35.4451 54.0468 27.1501 52.7917L27.1397 52.7902C25.0606 52.4443 23.5036 51.5657 22.3572 50.3184C21.2212 49.0824 20.5248 47.5243 20.0861 45.8684C19.3917 43.247 19.3127 40.2256 19.2445 37.6175C19.2275 36.9681 19.2112 36.3444 19.1862 35.7588L19.1856 35.7447L19.1813 34.4898C19.1635 29.3937 19.1494 25.3623 19.4469 22.2088C19.7677 18.8096 20.46 16.2803 22.0284 14.4883C23.6089 12.6824 25.9672 11.7493 29.3098 11.2658C32.6495 10.7828 37.1014 10.732 42.9937 10.7998ZM20.6762 37.6682C20.6584 36.9997 20.6409 36.3445 20.6141 35.7121L20.6101 34.5188C20.5923 29.3842 20.5785 25.4233 20.8692 22.343C21.1828 19.0194 21.8414 16.871 23.1034 15.4291C24.3532 14.0011 26.3047 13.144 29.5144 12.6797C32.7222 12.2157 37.0569 12.1605 42.9514 12.228C43.3861 12.2401 43.8117 12.2514 44.2286 12.2624C46.778 12.3296 48.9965 12.388 50.9266 12.5905C53.1716 12.826 54.9393 13.2498 56.3106 14.052C58.9602 15.6021 60.4211 18.7581 60.3998 25.9405L60.3998 25.9576L60.4005 25.9746C60.6422 31.3627 60.5852 36.7622 60.1733 42.1308L60.1723 42.1447L60.1718 42.1586C60.0678 44.9177 59.425 47.171 58.161 48.7821C56.9141 50.3716 54.9946 51.4227 52.1408 51.6594L52.1384 51.6596C43.8917 52.3717 35.5007 52.6097 27.3691 51.38C25.5866 51.0825 24.3256 50.3489 23.409 49.3517C22.4812 48.3422 21.8695 47.0216 21.4671 45.5026C20.8201 43.0604 20.7455 40.2639 20.6762 37.6682Z" fill="#181818"/>
<path d="M12.6855 60.7855V69.3569H22.6855V63.6426H24.1141V69.3569H34.1141V63.6426H35.5427V69.3569H45.5427V63.6426H46.9713V69.3569H56.9713V63.6426H58.3998V69.3569H66.9713V60.7855H68.3998V70.7855H11.257V60.7855H12.6855Z" fill="#181818"/>
</svg>
