<svg width="80" height="80" viewBox="0 0 80 80" fill="none" xmlns="http://www.w3.org/2000/svg">
<path d="M17.1442 23.2919L10.4524 32.2143L9.30953 31.3572L16.0013 22.4348C19.4782 17.799 25.7461 16.2659 30.9702 18.7734L48.7118 27.2894C53.136 29.413 58.4375 28.2594 61.5792 24.4893L69.5703 14.8999L70.6678 15.8145L62.6766 25.4039C59.116 29.6766 53.1077 30.984 48.0936 28.5773L30.352 20.0613C25.7425 17.8488 20.212 19.2015 17.1442 23.2919Z" fill="#181818"/>
<path d="M10.4524 48.6429L17.1442 39.7205C20.212 35.6301 25.7425 34.2773 30.352 36.4899L42.429 42.2868L43.0472 40.999L30.9702 35.202C25.7461 32.6944 19.4782 34.2276 16.0013 38.8634L9.30953 47.7858L10.4524 48.6429Z" fill="#181818"/>
<path fill-rule="evenodd" clip-rule="evenodd" d="M61.2815 39.5821L60.7144 38.7962L59.8563 39.936C57.9123 42.5165 55.5787 45.6141 53.7041 48.9206C51.7437 52.3783 50.2381 56.1429 50.2381 59.8634C50.2382 65.8662 54.8124 70.8334 60.5357 70.8334C66.2591 70.8334 70.8334 65.8662 70.8334 59.8624C70.8334 56.1037 69.3976 52.3743 67.5098 48.9405C65.7901 45.8124 63.6595 42.8686 61.8167 40.3223C61.6353 40.0716 61.4566 39.8248 61.2815 39.5821ZM51.6667 59.8634C51.6667 56.5066 53.0335 52.9997 54.9468 49.6252C56.6751 46.5768 58.811 43.7004 60.6905 41.203C62.5313 43.7468 64.5941 46.6022 66.258 49.6288C68.0965 52.973 69.4048 56.4526 69.4048 59.8624C69.4048 65.1701 65.3804 69.4048 60.5357 69.4048C55.6911 69.4048 51.6668 65.1701 51.6667 59.8634Z" fill="#181818"/>
<path d="M10.4524 65.0715L17.1442 56.1491C20.212 52.0587 25.7425 50.7059 30.352 52.9185L39.0064 57.0726L39.6246 55.7847L30.9702 51.6306C25.7461 49.123 19.4782 50.6561 16.0013 55.2919L9.30953 64.2143L10.4524 65.0715Z" fill="#181818"/>
</svg>
