<svg width="80" height="80" viewBox="0 0 80 80" fill="none" xmlns="http://www.w3.org/2000/svg">
<path fill-rule="evenodd" clip-rule="evenodd" d="M18.3025 11.4285H61.6979L72.8576 28.2511L39.9978 68.6094L7.14285 28.2511L18.3025 11.4285ZM19.0692 12.857L8.91455 28.1646L12.0007 31.9555C12.3648 31.7819 12.8415 31.5616 13.4217 31.308C14.8749 30.6727 16.9791 29.8277 19.5938 28.9832C24.8202 27.2952 32.1031 25.6038 40.3126 25.6038C48.5239 25.6038 55.5108 27.2959 60.4448 28.9872C62.9127 29.8332 64.8699 30.6799 66.2133 31.3171C66.8851 31.6357 67.4038 31.902 67.7564 32.0898C67.7888 32.1071 67.8198 32.1237 67.8494 32.1396L71.0858 28.1646L60.9312 12.857H19.0692ZM66.9299 33.2688C66.6035 33.0976 66.1579 32.8719 65.6012 32.6078C64.2998 31.9907 62.3925 31.165 59.9816 30.3386C55.1581 28.6852 48.3302 27.0324 40.3126 27.0324C32.2932 27.0324 25.1626 28.6858 20.0329 30.3426C17.4695 31.1705 15.41 31.9979 13.9939 32.6169C13.5841 32.7961 13.2282 32.9578 12.9298 33.0969L20.7523 42.7059C21.0253 42.6235 21.3769 42.5199 21.798 42.4012C22.883 42.0952 24.4313 41.6877 26.2896 41.2804C30.0008 40.4669 34.9719 39.6486 39.9679 39.6485C44.9649 39.6485 49.8091 40.4672 53.3951 41.2815C55.1904 41.6893 56.6756 42.0971 57.7136 42.4036C58.2327 42.5568 58.6402 42.6848 58.919 42.7749C59.0019 42.8016 59.0735 42.8251 59.1332 42.8448L66.9299 33.2688ZM58.1649 44.034C57.9314 43.9607 57.6445 43.8727 57.309 43.7737C56.2954 43.4744 54.8398 43.0746 53.0787 42.6746C49.552 41.8737 44.8209 41.0771 39.9679 41.0771C35.1138 41.0771 30.2533 41.8741 26.5954 42.6759C24.7691 43.0762 23.2484 43.4764 22.1857 43.7761C22.0227 43.8221 21.8706 43.8657 21.7297 43.9065L29.4643 53.4075C29.6388 53.3833 29.8614 53.353 30.1242 53.3181C30.8045 53.228 31.7547 53.1077 32.8347 52.9875C34.987 52.7478 37.6832 52.5047 39.7865 52.5047C41.8904 52.5047 44.5391 52.7479 46.6443 52.9877C47.7006 53.108 48.6271 53.2283 49.2897 53.3185C49.6211 53.3636 49.8867 53.4012 50.0698 53.4276C50.1613 53.4408 50.2322 53.4512 50.2804 53.4584L50.3354 53.4665L50.3534 53.4692L50.3256 53.6622L58.1649 44.034ZM49.4171 54.778C49.319 54.7644 49.212 54.7497 49.097 54.734C48.4422 54.6448 47.5264 54.5259 46.4826 54.4071C44.3877 54.1685 41.8055 53.9333 39.7865 53.9333C37.7668 53.9333 35.1364 54.1686 32.9928 54.4073C32.0318 54.5143 31.1744 54.6213 30.5219 54.7067L39.9979 66.3467L49.4171 54.778Z" fill="#181818"/>
</svg>
