<svg width="80" height="80" viewBox="0 0 80 80" fill="none" xmlns="http://www.w3.org/2000/svg">
<path fill-rule="evenodd" clip-rule="evenodd" d="M19.9075 37.3537L21.0241 35.7393L27.8839 45.6467H25.6227L19.9075 37.3537ZM50.0095 35.7407L52.7488 35.7393L63.7237 45.6467H60.9863L50.0095 35.7407ZM52.7524 45.6467L55.917 42.7906H53.1768L50.0156 45.6467H52.7524ZM60.562 38.5984L63.7291 35.7407H60.9883L57.8218 38.5984H60.562ZM18.1235 39.9328H20.3661L16.4284 45.6467H14.1671L18.1235 39.9328ZM40.5483 37.3537L41.6648 35.7393L48.5247 45.6467H46.2634L40.5483 37.3537ZM38.7642 39.9328H41.0069L37.0691 45.6467H34.8079L38.7642 39.9328ZM32.368 41.8035L32.3642 35.7393H34.1419V41.7048C34.1434 42.3181 34.0257 43.5876 33.0939 44.5861C32.4273 45.3002 31.3537 45.6629 30.6081 45.6516C30.2899 45.6467 29.7973 45.6493 29.7973 45.6493V44.1223H30.3616C31.9061 44.0207 32.3638 42.7897 32.368 41.8035Z" fill="black"/>
<path d="M40.6553 23.57V19.2856M40.6555 59.9985V55.7142M68.5718 40.7118H72.8573M7.14286 40.7118H11.3649M60.0002 26.4261L63.6149 22.8546M21.472 26.4261L17.8573 22.8546M63.6149 56.4285L60.0002 52.8571M22.143 52.8571L18.5284 56.4285" stroke="#181818"/>
</svg>
