<svg width="80" height="80" viewBox="0 0 80 80" fill="none" xmlns="http://www.w3.org/2000/svg">
<path fill-rule="evenodd" clip-rule="evenodd" d="M24.2854 16.4842C24.2854 14.4686 25.9199 12.857 27.9525 12.857H32.8939V13.7585C32.8939 14.1226 33.0573 14.4239 33.2156 14.6333C33.3793 14.8499 33.5869 15.0342 33.7894 15.1805C33.9941 15.3284 34.2169 15.4543 34.4303 15.5458C34.6261 15.6297 34.8814 15.7142 35.1339 15.7142H45.0368C45.2941 15.7142 45.5467 15.627 45.7391 15.5397C45.9473 15.4452 46.1604 15.3157 46.354 15.1646C46.5459 15.0147 46.7394 14.8276 46.8906 14.6093C47.0381 14.3963 47.1797 14.1034 47.1797 13.7585V12.857H52.1797C54.1917 12.857 55.7511 14.448 55.7511 16.4842V24.2856H57.1797V16.4842C57.1797 13.6833 55.0047 11.4285 52.1797 11.4285H27.9525C25.148 11.4285 22.8568 13.6626 22.8568 16.4842V24.2856H24.2854V16.4842ZM34.3225 13.7227V12.857H45.7511V13.7361C45.7469 13.7459 45.7372 13.7656 45.7163 13.7958C45.6677 13.8659 45.5857 13.952 45.475 14.0384C45.3659 14.1236 45.2491 14.1933 45.1486 14.2389C45.0793 14.2703 45.0389 14.2809 45.0259 14.2843C45.0232 14.285 45.0216 14.2854 45.0213 14.2856H35.1445C35.1446 14.2854 35.1433 14.2847 35.1393 14.2837C35.1234 14.2798 35.0753 14.268 34.9931 14.2328C34.8796 14.1841 34.7483 14.1109 34.626 14.0225C34.5015 13.9326 34.4093 13.8435 34.3551 13.7718C34.338 13.7492 34.3281 13.7329 34.3225 13.7227Z" fill="#181818"/>
<path d="M48.5354 62.857H31.4811V64.2856H48.5354V62.857Z" fill="#181818"/>
<path d="M28.5714 32.857H40.4762V31.4285H28.5714V32.857Z" fill="#181818"/>
<path d="M22.8571 39.2856H57.1429V37.857H22.8571V39.2856Z" fill="#181818"/>
<path d="M22.8571 42.1427H40V40.7142H22.8571V42.1427Z" fill="#181818"/>
<path d="M25 34.2856C26.1835 34.2856 27.1429 33.3262 27.1429 32.1428C27.1429 30.9593 26.1835 29.9999 25 29.9999C23.8165 29.9999 22.8571 30.9593 22.8571 32.1428C22.8571 33.3262 23.8165 34.2856 25 34.2856Z" fill="#181818"/>
<path fill-rule="evenodd" clip-rule="evenodd" d="M20 26.4285C18.8165 26.4285 17.8571 27.3879 17.8571 28.5713V45.7142C17.8571 46.8976 18.8165 47.857 20 47.857H22.8568V63.1156C22.8568 65.8683 25.1277 68.5713 28.0011 68.5713H52.1797C55.0819 68.5713 57.1797 65.836 57.1797 63.1156V47.857H60C61.1835 47.857 62.1429 46.8976 62.1429 45.7142V28.5713C62.1429 27.3879 61.1835 26.4285 60 26.4285H20ZM24.2854 63.1156V47.857H25.9054C25.7839 48.0672 25.7143 48.3111 25.7143 48.5713C25.7143 49.3603 26.3539 49.9999 27.1429 49.9999H52.8571C53.6461 49.9999 54.2857 49.3603 54.2857 48.5713C54.2857 48.3111 54.2161 48.0672 54.0946 47.857H55.7511V63.1156C55.7511 65.2381 54.1145 67.1427 52.1797 67.1427H28.0011C26.0374 67.1427 24.2854 65.2057 24.2854 63.1156ZM19.2857 28.5713C19.2857 28.1768 19.6055 27.857 20 27.857H60C60.3945 27.857 60.7143 28.1768 60.7143 28.5713V45.7142C60.7143 46.1087 60.3945 46.4285 60 46.4285H20C19.6055 46.4285 19.2857 46.1087 19.2857 45.7142V28.5713Z" fill="#181818"/>
</svg>
