<svg width="80" height="80" viewBox="0 0 80 80" fill="none" xmlns="http://www.w3.org/2000/svg">
<path d="M31.4811 64.2856H48.5354V62.857H31.4811V64.2856Z" fill="#181818"/>
<path d="M28.6255 29.9629L28.5883 32.82L31.3826 32.8572L31.4198 30L28.6255 29.9629Z" fill="#181818"/>
<path d="M28.6255 37.1057L28.5883 39.9629L31.3826 40L31.4198 37.1429L28.6255 37.1057Z" fill="#181818"/>
<path d="M28.6255 44.2486L28.5883 47.1057L31.3826 47.1429L31.4198 44.2857L28.6255 44.2486Z" fill="#181818"/>
<path d="M51.4655 32.8572H34.3226V30H51.4655V32.8572Z" fill="#181818"/>
<path d="M51.4655 40H34.3226V37.1429H51.4655V40Z" fill="#181818"/>
<path d="M51.4655 47.1429H34.3226V44.2857H51.4655V47.1429Z" fill="#181818"/>
<path fill-rule="evenodd" clip-rule="evenodd" d="M27.9525 11.4285H52.1797C55.0047 11.4285 57.1796 13.6833 57.1796 16.4842V63.1156C57.1796 65.836 55.0819 68.5713 52.1797 68.5713H28.0011C25.1277 68.5713 22.8568 65.8683 22.8568 63.1156V16.4842C22.8568 13.6626 25.148 11.4285 27.9525 11.4285ZM24.2854 16.4842C24.2854 14.4686 25.9199 12.857 27.9525 12.857H32.8939V13.7585C32.8939 14.1226 33.0573 14.4239 33.2156 14.6333C33.3793 14.8499 33.5869 15.0342 33.7894 15.1805C33.9941 15.3284 34.2169 15.4543 34.4303 15.5458C34.626 15.6297 34.8814 15.7142 35.1339 15.7142H45.0368C45.2941 15.7142 45.5467 15.627 45.7391 15.5397C45.9473 15.4452 46.1604 15.3157 46.354 15.1646C46.5459 15.0147 46.7394 14.8276 46.8906 14.6093C47.0381 14.3963 47.1797 14.1034 47.1797 13.7585V12.857H52.1797C54.1917 12.857 55.7511 14.448 55.7511 16.4842V63.1156C55.7511 65.2381 54.1145 67.1427 52.1797 67.1427H28.0011C26.0374 67.1427 24.2854 65.2057 24.2854 63.1156V16.4842ZM34.3225 13.7227V12.857H45.7511V13.7361C45.7469 13.7459 45.7372 13.7656 45.7163 13.7958C45.6677 13.8659 45.5857 13.952 45.475 14.0384C45.3659 14.1236 45.249 14.1933 45.1486 14.2389C45.0793 14.2703 45.0389 14.2809 45.0259 14.2843C45.0232 14.285 45.0216 14.2854 45.0213 14.2856H35.1445C35.1446 14.2854 35.1433 14.2847 35.1393 14.2837C35.1234 14.2798 35.0753 14.268 34.9931 14.2328C34.8796 14.1841 34.7483 14.1109 34.626 14.0225C34.5015 13.9326 34.4093 13.8435 34.3551 13.7718C34.338 13.7492 34.328 13.7329 34.3225 13.7227Z" fill="#181818"/>
</svg>
