<svg width="80" height="80" viewBox="0 0 80 80" fill="none" xmlns="http://www.w3.org/2000/svg">
<path d="M34.5535 50.0339V24.4205H33.1249V50.0562C30.3495 50.4469 28.2143 52.8313 28.2143 55.7144C28.2143 58.8703 30.7727 61.4287 33.9286 61.4287C37.0845 61.4287 39.6429 58.8703 39.6429 55.7144C39.6429 52.7697 37.4154 50.3452 34.5535 50.0339Z" fill="#181818"/>
<path fill-rule="evenodd" clip-rule="evenodd" d="M24.9107 18.0365C24.9107 13.1054 28.9081 9.10791 33.8392 9.10791C38.7704 9.10791 42.7678 13.1054 42.7678 18.0365L42.7678 45.321C46.1023 47.9581 48.244 52.0418 48.244 56.6256C48.244 64.5811 41.7948 71.0303 33.8392 71.0303C25.8837 71.0303 19.4345 64.5811 19.4345 56.6256C19.4345 52.042 21.5765 47.959 24.9107 45.322L24.9107 18.0365ZM33.8392 10.5365C29.6971 10.5365 26.3392 13.8943 26.3392 18.0365L26.3392 46.03L26.054 46.2443C22.9008 48.6129 20.863 52.381 20.863 56.6256C20.863 63.7921 26.6727 69.6018 33.8392 69.6018C41.0058 69.6018 46.8154 63.7921 46.8154 56.6256C46.8154 52.3807 44.7779 48.6119 41.6245 46.2433L41.3392 46.029L41.3392 18.0365C41.3392 13.8943 37.9814 10.5365 33.8392 10.5365Z" fill="#181818"/>
<path fill-rule="evenodd" clip-rule="evenodd" d="M57.1131 11.9048C54.4503 11.9048 52.2916 14.0635 52.2916 16.7263C52.2916 19.3891 54.4503 21.5477 57.1131 21.5477C59.7759 21.5477 61.9345 19.3891 61.9345 16.7263C61.9345 14.0635 59.7759 11.9048 57.1131 11.9048ZM53.7202 16.7263C53.7202 14.8524 55.2392 13.3334 57.1131 13.3334C58.9869 13.3334 60.5059 14.8524 60.5059 16.7263C60.5059 18.6001 58.9869 20.1191 57.1131 20.1191C55.2392 20.1191 53.7202 18.6001 53.7202 16.7263Z" fill="#181818"/>
</svg>
