<svg width="160" height="160" viewBox="0 0 160 160" fill="none" xmlns="http://www.w3.org/2000/svg">
<g clip-path="url(#clip0_2579_1078)">
<rect width="160" height="160" rx="80" fill="#B40465"/>
<path d="M125.3 116.244C124.283 116.244 123.371 116.083 122.565 115.76C121.758 115.429 121.072 114.973 120.507 114.392C119.95 113.811 119.523 113.138 119.224 112.371C118.926 111.596 118.776 110.773 118.776 109.902V109.418C118.776 108.425 118.918 107.518 119.2 106.695C119.482 105.872 119.886 105.158 120.41 104.552C120.943 103.947 121.588 103.483 122.347 103.161C123.105 102.83 123.96 102.664 124.913 102.664C125.84 102.664 126.663 102.818 127.382 103.124C128.1 103.431 128.701 103.867 129.185 104.431C129.677 104.996 130.048 105.674 130.298 106.465C130.549 107.247 130.674 108.119 130.674 109.079V110.531H120.265V108.208H127.248V107.941C127.248 107.457 127.16 107.026 126.982 106.646C126.813 106.259 126.555 105.952 126.208 105.726C125.861 105.501 125.417 105.388 124.876 105.388C124.416 105.388 124.021 105.488 123.69 105.69C123.359 105.892 123.089 106.174 122.879 106.537C122.678 106.9 122.524 107.328 122.419 107.82C122.323 108.304 122.274 108.837 122.274 109.418V109.902C122.274 110.426 122.347 110.911 122.492 111.354C122.645 111.798 122.859 112.181 123.133 112.504C123.416 112.827 123.755 113.077 124.15 113.255C124.554 113.432 125.009 113.521 125.518 113.521C126.147 113.521 126.732 113.4 127.273 113.158C127.821 112.908 128.293 112.532 128.689 112.032L130.383 113.872C130.109 114.267 129.734 114.646 129.258 115.009C128.79 115.373 128.225 115.671 127.563 115.905C126.902 116.131 126.147 116.244 125.3 116.244Z" fill="white"/>
<path d="M98.7579 102.906H102.244V113.279H105.862V102.906H109.372V113.279H112.979V102.906H116.465V116.002H98.7579V102.906Z" fill="white"/>
<path d="M85.6382 102.906H89.1239L89.015 107.288C88.9827 108.692 88.8213 109.898 88.5309 110.907C88.2404 111.915 87.8531 112.762 87.369 113.448C86.8848 114.134 86.3321 114.683 85.7108 115.094C85.0976 115.498 84.4521 115.8 83.7744 116.002H83.1208L83.0845 113.315L83.4476 113.279C83.8591 112.851 84.198 112.436 84.4642 112.032C84.7305 111.621 84.9362 111.189 85.0815 110.737C85.2267 110.285 85.3316 109.781 85.3962 109.224C85.4688 108.667 85.5132 108.022 85.5293 107.288L85.6382 102.906ZM86.5823 102.906H95.2601V116.002H91.7866V105.702H86.5823V102.906ZM82.322 113.279H97.1361V119.935H93.6504V116.002H85.8924V119.935H82.322V113.279Z" fill="white"/>
<path d="M72.7122 111.137L77.1056 102.906H80.5913V116.002H77.1056V107.76L72.7122 116.002H69.2265V102.906H72.7122V111.137Z" fill="white"/>
<path d="M61.7468 110.531H57.6439L57.6197 108.244H61.0085C61.4604 108.244 61.8275 108.2 62.1099 108.111C62.3923 108.014 62.5981 107.873 62.7272 107.687C62.8643 107.493 62.9329 107.259 62.9329 106.985C62.9329 106.743 62.8885 106.537 62.7998 106.368C62.7191 106.19 62.594 106.045 62.4246 105.932C62.2551 105.819 62.0413 105.739 61.7831 105.69C61.533 105.634 61.2385 105.605 60.8996 105.605H58.9389V116.002H55.4532V102.906H60.8996C61.7549 102.906 62.5214 102.983 63.1992 103.136C63.8769 103.282 64.4539 103.504 64.9299 103.802C65.414 104.101 65.7812 104.48 66.0313 104.94C66.2895 105.392 66.4186 105.928 66.4186 106.549C66.4186 106.953 66.3258 107.332 66.1402 107.687C65.9627 108.042 65.6964 108.357 65.3414 108.631C64.9864 108.906 64.5467 109.131 64.0222 109.309C63.5058 109.478 62.9087 109.583 62.2309 109.624L61.7468 110.531ZM61.7468 116.002H56.7846L57.9828 113.303H61.7468C62.1744 113.303 62.5254 113.251 62.7998 113.146C63.0741 113.041 63.2758 112.887 63.4049 112.686C63.5421 112.476 63.6107 112.226 63.6107 111.935C63.6107 111.653 63.5502 111.407 63.4291 111.197C63.3081 110.987 63.1104 110.826 62.8361 110.713C62.5698 110.592 62.2067 110.531 61.7468 110.531H58.4911L58.5153 108.244H62.2188L63.066 109.164C63.9859 109.22 64.7443 109.394 65.3414 109.684C65.9385 109.975 66.3782 110.346 66.6606 110.798C66.9511 111.241 67.0964 111.73 67.0964 112.262C67.0964 112.883 66.9794 113.428 66.7454 113.896C66.5114 114.364 66.1644 114.755 65.7045 115.07C65.2527 115.377 64.6959 115.611 64.0343 115.772C63.3727 115.925 62.6102 116.002 61.7468 116.002Z" fill="white"/>
<path d="M34.7086 102.906H38.1943V113.279H41.8131V102.906H45.323V113.279H48.9297V102.906H52.4154V116.002H34.7086V102.906Z" fill="white"/>
<path d="M96.9215 54.5389V52.3579C96.9215 50.7906 97.2614 49.3649 97.9412 48.0808C98.621 46.7967 99.6218 45.7676 100.944 44.9934C102.266 44.2191 103.889 43.832 105.816 43.832C107.798 43.832 109.451 44.2191 110.772 44.9934C112.113 45.7676 113.114 46.7967 113.775 48.0808C114.455 49.3649 114.795 50.7906 114.795 52.3579V54.5389C114.795 56.0685 114.455 57.4753 113.775 58.7593C113.114 60.0434 112.123 61.0726 110.801 61.8468C109.479 62.621 107.846 63.0081 105.901 63.0081C103.937 63.0081 102.284 62.621 100.944 61.8468C99.6218 61.0726 98.621 60.0434 97.9412 58.7593C97.2614 57.4753 96.9215 56.0685 96.9215 54.5389ZM102.332 52.3579V54.5389C102.332 55.1998 102.454 55.8324 102.7 56.4367C102.964 57.0221 103.361 57.5036 103.889 57.8813C104.437 58.24 105.098 58.4194 105.872 58.4194C106.684 58.4194 107.345 58.24 107.855 57.8813C108.365 57.5036 108.743 57.0221 108.988 56.4367C109.233 55.8324 109.356 55.1998 109.356 54.5389V52.3579C109.356 51.6592 109.224 51.0172 108.96 50.4318C108.714 49.8275 108.327 49.346 107.798 48.9872C107.288 48.6095 106.628 48.4207 105.816 48.4207C105.06 48.4207 104.418 48.6095 103.889 48.9872C103.361 49.346 102.964 49.8275 102.7 50.4318C102.454 51.0172 102.332 51.6592 102.332 52.3579ZM116.636 77.7371V75.5561C116.636 74.0077 116.976 72.5914 117.655 71.3073C118.354 70.0233 119.364 68.9941 120.686 68.2199C122.027 67.4457 123.67 67.0586 125.615 67.0586C127.579 67.0586 129.222 67.4457 130.543 68.2199C131.865 68.9941 132.866 70.0233 133.546 71.3073C134.226 72.5914 134.566 74.0077 134.566 75.5561V77.7371C134.566 79.2856 134.226 80.7018 133.546 81.9859C132.885 83.27 131.894 84.2991 130.572 85.0733C129.25 85.8475 127.616 86.2347 125.671 86.2347C123.708 86.2347 122.055 85.8475 120.715 85.0733C119.374 84.2991 118.354 83.27 117.655 81.9859C116.976 80.7018 116.636 79.2856 116.636 77.7371ZM122.074 75.5561V77.7371C122.074 78.4169 122.225 79.059 122.527 79.6632C122.829 80.2675 123.245 80.749 123.774 81.1078C124.321 81.4666 124.954 81.646 125.671 81.646C126.578 81.646 127.286 81.4666 127.796 81.1078C128.306 80.749 128.655 80.2675 128.844 79.6632C129.052 79.059 129.155 78.4169 129.155 77.7371V75.5561C129.155 74.8763 129.023 74.2437 128.759 73.6583C128.495 73.0541 128.098 72.5725 127.569 72.2138C127.059 71.8361 126.408 71.6472 125.615 71.6472C124.822 71.6472 124.161 71.8361 123.632 72.2138C123.122 72.5725 122.735 73.0541 122.471 73.6583C122.206 74.2437 122.074 74.8763 122.074 75.5561ZM127.626 50.3185L107.487 82.5524L103.521 80.4563L123.66 48.2224L127.626 50.3185Z" fill="white"/>
<path d="M91.4831 61.4219V68.5598C91.4831 71.6567 91.1526 74.3287 90.4917 76.5758C89.8308 78.804 88.8772 80.6357 87.6309 82.0709C86.4035 83.4871 84.94 84.5352 83.2405 85.215C81.541 85.8948 79.6526 86.2347 77.5755 86.2347C75.9137 86.2347 74.3653 86.0269 72.9302 85.6115C71.495 85.1772 70.2015 84.5068 69.0496 83.6004C67.9166 82.694 66.9347 81.5516 66.1038 80.1731C65.2918 78.7757 64.6687 77.114 64.2344 75.1879C63.8001 73.2618 63.5829 71.0524 63.5829 68.5598V61.4219C63.5829 58.325 63.9133 55.6719 64.5743 53.4626C65.2541 51.2343 66.2077 49.4121 67.4351 47.9958C68.6814 46.5796 70.1543 45.541 71.8538 44.8801C73.5533 44.2003 75.4417 43.8604 77.5188 43.8604C79.1806 43.8604 80.7196 44.0775 82.1358 44.5118C83.5709 44.9273 84.8645 45.5787 86.0163 46.4663C87.1682 47.3538 88.1502 48.4962 88.9622 49.8936C89.7741 51.2721 90.3973 52.9244 90.8316 54.8505C91.2659 56.7577 91.4831 58.9482 91.4831 61.4219ZM83.2971 69.6362V60.3172C83.2971 58.8254 83.2122 57.5225 83.0422 56.4084C82.8911 55.2942 82.6551 54.3501 82.3341 53.5759C82.0131 52.7828 81.6165 52.1407 81.1444 51.6497C80.6723 51.1588 80.1342 50.8 79.5299 50.5734C78.9256 50.3468 78.2553 50.2335 77.5188 50.2335C76.5935 50.2335 75.7721 50.4129 75.0545 50.7717C74.3559 51.1305 73.761 51.7064 73.2701 52.4995C72.7791 53.2737 72.4014 54.3123 72.1371 55.6153C71.8916 56.8993 71.7688 58.4666 71.7688 60.3172V69.6362C71.7688 71.128 71.8444 72.4403 71.9954 73.5733C72.1654 74.7064 72.4109 75.6788 72.7319 76.4908C73.0718 77.2839 73.4683 77.9354 73.9215 78.4453C74.3936 78.9362 74.9318 79.295 75.5361 79.5216C76.1592 79.7482 76.839 79.8615 77.5755 79.8615C78.4819 79.8615 79.2844 79.6821 79.9831 79.3233C80.7007 78.9457 81.3049 78.3603 81.7959 77.5672C82.3058 76.7552 82.6834 75.6977 82.9289 74.3948C83.1744 73.0918 83.2971 71.5056 83.2971 69.6362Z" fill="white"/>
<path d="M38.7701 61.5069H43.1322C44.5296 61.5069 45.6814 61.2708 46.5879 60.7987C47.4943 60.3078 48.1646 59.628 48.5989 58.7593C49.0521 57.8718 49.2787 56.8427 49.2787 55.6719C49.2787 54.6144 49.071 53.6797 48.6556 52.8677C48.259 52.0369 47.6453 51.3948 46.8145 50.9416C45.9836 50.4695 44.9356 50.2335 43.6704 50.2335C42.6695 50.2335 41.7443 50.4318 40.8945 50.8283C40.0448 51.2249 39.365 51.7819 38.8551 52.4995C38.3453 53.2171 38.0903 54.0857 38.0903 55.1054H29.9044C29.9044 52.8394 30.5087 50.8661 31.7172 49.1855C32.9446 47.5048 34.5875 46.1925 36.6458 45.2483C38.704 44.3041 40.97 43.832 43.4438 43.832C46.2385 43.832 48.6839 44.2852 50.78 45.1916C52.876 46.0792 54.5094 47.3915 55.6802 49.1288C56.851 50.8661 57.4364 53.0188 57.4364 55.5869C57.4364 56.8899 57.1342 58.1551 56.53 59.3825C55.9257 60.591 55.057 61.6863 53.924 62.6682C52.8099 63.6313 51.4503 64.4055 49.8452 64.9909C48.2401 65.5574 46.4368 65.8406 44.4351 65.8406H38.7701V61.5069ZM38.7701 67.7101V63.4896H44.4351C46.6823 63.4896 48.6556 63.7446 50.3551 64.2544C52.0546 64.7643 53.4803 65.5007 54.6322 66.4638C55.7841 67.4079 56.6527 68.5315 57.2381 69.8344C57.8235 71.1185 58.1162 72.5442 58.1162 74.1115C58.1162 76.0376 57.7479 77.756 57.0115 79.2667C56.275 80.7585 55.2364 82.0237 53.8957 83.0623C52.5739 84.1008 51.0254 84.8939 49.2504 85.4416C47.4754 85.9703 45.5398 86.2347 43.4438 86.2347C41.7065 86.2347 39.9976 85.9986 38.3169 85.5265C36.6552 85.0356 35.1445 84.3086 33.7849 83.3455C32.4442 82.3636 31.3678 81.1361 30.5559 79.6632C29.7628 78.1715 29.3662 76.4059 29.3662 74.3665H37.5522C37.5522 75.4239 37.8165 76.3681 38.3453 77.199C38.874 78.0298 39.601 78.6813 40.5263 79.1534C41.4705 79.6255 42.5185 79.8615 43.6704 79.8615C44.9733 79.8615 46.0874 79.6255 47.0127 79.1534C47.9569 78.6624 48.6745 77.9826 49.1654 77.114C49.6753 76.2265 49.9302 75.1973 49.9302 74.0266C49.9302 72.5159 49.6564 71.3074 49.1088 70.4009C48.5612 69.4757 47.7775 68.7959 46.7578 68.3615C45.7381 67.9272 44.5296 67.7101 43.1322 67.7101H38.7701Z" fill="white"/>
</g>
<defs>
<clipPath id="clip0_2579_1078">
<rect width="160" height="160" fill="white"/>
</clipPath>
</defs>
</svg>
