<svg width="160" height="160" viewBox="0 0 160 160" fill="none" xmlns="http://www.w3.org/2000/svg">
<g clip-path="url(#clip0_2779_2241)">
<rect width="160" height="160" rx="80" fill="#B40465"/>
<path d="M114.806 110.654L119.141 102.532H122.581V115.455H119.141V107.322L114.806 115.455H111.366V102.532H114.806V110.654ZM118.747 97.3373H121.195C121.195 98.022 121.024 98.6311 120.682 99.1645C120.347 99.69 119.87 100.104 119.249 100.407C118.628 100.701 117.895 100.849 117.051 100.849C115.769 100.849 114.754 100.522 114.006 99.8692C113.265 99.2163 112.895 98.3723 112.895 97.3373H115.331C115.331 97.7513 115.459 98.1215 115.713 98.448C115.976 98.7744 116.422 98.9376 117.051 98.9376C117.672 98.9376 118.11 98.7744 118.365 98.448C118.62 98.1215 118.747 97.7513 118.747 97.3373Z" fill="white"/>
<path d="M100.952 110.654L105.287 102.532H108.727V115.455H105.287V107.322L100.952 115.455H97.5123V102.532H100.952V110.654Z" fill="white"/>
<path d="M77.2809 102.532H80.7205V112.768H84.2914V102.532H87.7549V112.768H91.3139V102.532H94.7535V115.455H77.2809V102.532Z" fill="white"/>
<path d="M75.8119 102.532V105.232H70.4376V115.455H66.998V102.532H75.8119Z" fill="white"/>
<path d="M59.7605 115.694C58.7573 115.694 57.8576 115.534 57.0614 115.216C56.2652 114.889 55.5885 114.44 55.0311 113.866C54.4817 113.293 54.0598 112.628 53.7652 111.872C53.4706 111.108 53.3233 110.295 53.3233 109.436V108.958C53.3233 107.978 53.4626 107.083 53.7413 106.271C54.0199 105.459 54.418 104.754 54.9356 104.157C55.4611 103.56 56.098 103.102 56.8465 102.783C57.5949 102.457 58.4388 102.294 59.3784 102.294C60.294 102.294 61.1061 102.445 61.8147 102.747C62.5233 103.05 63.1165 103.48 63.5942 104.037C64.0799 104.595 64.4462 105.263 64.693 106.044C64.9398 106.816 65.0632 107.676 65.0632 108.623V110.057H54.7923V107.764H61.6834V107.501C61.6834 107.023 61.5958 106.597 61.4206 106.223C61.2534 105.841 60.9986 105.538 60.6563 105.315C60.3139 105.092 59.876 104.981 59.3425 104.981C58.8887 104.981 58.4986 105.08 58.1721 105.279C57.8457 105.478 57.579 105.757 57.3719 106.115C57.1729 106.474 57.0216 106.896 56.9181 107.381C56.8226 107.859 56.7748 108.385 56.7748 108.958V109.436C56.7748 109.953 56.8464 110.431 56.9898 110.869C57.141 111.307 57.352 111.685 57.6227 112.003C57.9014 112.322 58.2358 112.569 58.626 112.744C59.0241 112.919 59.4739 113.006 59.9755 113.006C60.5965 113.006 61.1738 112.887 61.7072 112.648C62.2487 112.401 62.7144 112.031 63.1046 111.537L64.7766 113.353C64.5059 113.743 64.1357 114.117 63.6659 114.475C63.2041 114.834 62.6468 115.128 61.9939 115.359C61.341 115.582 60.5965 115.694 59.7605 115.694Z" fill="white"/>
<path d="M48.6297 102.532V105.232H42.276V102.532H48.6297ZM51.1496 102.532V115.455H47.7101V102.532H51.1496ZM41.4161 102.532H44.796L44.4496 109.053C44.4018 109.985 44.3023 110.805 44.151 111.514C43.9998 112.222 43.7967 112.827 43.542 113.329C43.2951 113.831 42.9966 114.241 42.6462 114.559C42.3039 114.87 41.9018 115.096 41.44 115.24C40.9862 115.383 40.4845 115.455 39.9352 115.455H38.8842L38.8484 112.744L39.2902 112.696C39.545 112.672 39.768 112.6 39.9591 112.481C40.1581 112.354 40.3253 112.174 40.4607 111.944C40.604 111.705 40.7234 111.406 40.819 111.048C40.9145 110.682 40.9901 110.252 41.0459 109.758C41.1096 109.264 41.1534 108.695 41.1772 108.05L41.4161 102.532Z" fill="white"/>
<path d="M95.6405 54.8045V52.6524C95.6405 51.1058 95.9759 49.6989 96.6467 48.4318C97.3175 47.1647 98.3051 46.1492 99.6095 45.3852C100.914 44.6212 102.516 44.2393 104.417 44.2393C106.373 44.2393 108.004 44.6212 109.308 45.3852C110.631 46.1492 111.619 47.1647 112.271 48.4318C112.942 49.6989 113.277 51.1058 113.277 52.6524V54.8045C113.277 56.3139 112.942 57.7021 112.271 58.9692C111.619 60.2363 110.641 61.2518 109.336 62.0158C108.032 62.7798 106.42 63.1617 104.501 63.1617C102.563 63.1617 100.932 62.7798 99.6095 62.0158C98.3051 61.2518 97.3175 60.2363 96.6467 58.9692C95.9759 57.7021 95.6405 56.3139 95.6405 54.8045ZM100.979 52.6524V54.8045C100.979 55.4567 101.1 56.081 101.342 56.6772C101.603 57.2549 101.995 57.73 102.516 58.1027C103.057 58.4567 103.709 58.6338 104.473 58.6338C105.274 58.6338 105.926 58.4567 106.429 58.1027C106.932 57.73 107.305 57.2549 107.547 56.6772C107.79 56.081 107.911 55.4567 107.911 54.8045V52.6524C107.911 51.9629 107.78 51.3294 107.519 50.7517C107.277 50.1554 106.895 49.6803 106.373 49.3262C105.87 48.9536 105.218 48.7672 104.417 48.7672C103.672 48.7672 103.038 48.9536 102.516 49.3262C101.995 49.6803 101.603 50.1554 101.342 50.7517C101.1 51.3294 100.979 51.9629 100.979 52.6524ZM115.094 77.696V75.5438C115.094 74.0159 115.429 72.6183 116.1 71.3512C116.79 70.0842 117.787 69.0686 119.091 68.3046C120.414 67.5407 122.035 67.1587 123.954 67.1587C125.892 67.1587 127.513 67.5407 128.818 68.3046C130.122 69.0686 131.11 70.0842 131.78 71.3512C132.451 72.6183 132.787 74.0159 132.787 75.5438V77.696C132.787 79.224 132.451 80.6215 131.78 81.8886C131.128 83.1557 130.15 84.1712 128.846 84.9352C127.541 85.6992 125.93 86.0812 124.01 86.0812C122.072 86.0812 120.442 85.6992 119.119 84.9352C117.796 84.1712 116.79 83.1557 116.1 81.8886C115.429 80.6215 115.094 79.224 115.094 77.696ZM120.461 75.5438V77.696C120.461 78.3668 120.61 79.0004 120.908 79.5966C121.206 80.1929 121.616 80.6681 122.138 81.0221C122.678 81.3762 123.302 81.5532 124.01 81.5532C124.905 81.5532 125.603 81.3762 126.107 81.0221C126.61 80.6681 126.954 80.1929 127.141 79.5966C127.346 79.0004 127.448 78.3668 127.448 77.696V75.5438C127.448 74.873 127.318 74.2488 127.057 73.6711C126.796 73.0749 126.405 72.5997 125.883 72.2457C125.38 71.873 124.737 71.6866 123.954 71.6866C123.172 71.6866 122.52 71.873 121.998 72.2457C121.495 72.5997 121.113 73.0749 120.852 73.6711C120.591 74.2488 120.461 74.873 120.461 75.5438ZM125.939 50.6399L106.066 82.4476L102.153 80.3792L122.026 48.5716L125.939 50.6399Z" fill="white"/>
<path d="M90.274 61.5965V68.64C90.274 71.696 89.9479 74.3326 89.2957 76.55C88.6435 78.7488 87.7025 80.5563 86.4727 81.9724C85.2615 83.37 83.8174 84.4041 82.1404 85.0749C80.4634 85.7457 78.6 86.0812 76.5503 86.0812C74.9105 86.0812 73.3826 85.8762 71.9664 85.4662C70.5503 85.0377 69.2738 84.3762 68.1372 83.4818C67.0192 82.5873 66.0502 81.46 65.2303 80.0997C64.4291 78.7209 63.8142 77.0811 63.3856 75.1805C62.957 73.2798 62.7427 71.0997 62.7427 68.64V61.5965C62.7427 58.5406 63.0688 55.9226 63.721 53.7424C64.3918 51.5437 65.3328 49.7455 66.544 48.348C67.7738 46.9505 69.2273 45.9256 70.9043 45.2734C72.5813 44.6026 74.4447 44.2672 76.4944 44.2672C78.1342 44.2672 79.6528 44.4815 81.0503 44.9101C82.4665 45.32 83.7429 45.9629 84.8795 46.8387C86.0162 47.7144 86.9851 48.8418 87.7864 50.2207C88.5876 51.5809 89.2025 53.2114 89.6311 55.112C90.0597 56.994 90.274 59.1555 90.274 61.5965ZM82.1963 69.7022V60.5064C82.1963 59.0344 82.1124 57.7487 81.9447 56.6493C81.7957 55.5499 81.5627 54.6182 81.246 53.8542C80.9292 53.0716 80.5379 52.4381 80.0721 51.9536C79.6062 51.4691 79.0752 51.1151 78.4789 50.8915C77.8826 50.6679 77.2211 50.5561 76.4944 50.5561C75.5813 50.5561 74.7708 50.7331 74.0627 51.0871C73.3733 51.4412 72.7863 52.0095 72.3018 52.7921C71.8173 53.5561 71.4447 54.5809 71.1838 55.8667C70.9416 57.1338 70.8204 58.6803 70.8204 60.5064V69.7022C70.8204 71.1742 70.895 72.4693 71.044 73.5873C71.2117 74.7053 71.454 75.6649 71.7708 76.4662C72.1062 77.2488 72.4975 77.8917 72.9447 78.3948C73.4105 78.8792 73.9416 79.2333 74.5379 79.4569C75.1528 79.6805 75.8236 79.7923 76.5503 79.7923C77.4447 79.7923 78.2366 79.6153 78.9261 79.2612C79.6342 78.8886 80.2304 78.3109 80.7149 77.5283C81.218 76.7271 81.5907 75.6836 81.8329 74.3978C82.0752 73.1121 82.1963 71.5469 82.1963 69.7022Z" fill="white"/>
<path d="M57.8514 79.2333V85.5221H30.0127V80.1556L43.1774 66.0406C44.5004 64.5686 45.5439 63.2735 46.3079 62.1555C47.0718 61.0189 47.6215 60.0033 47.9569 59.1089C48.311 58.1959 48.488 57.3294 48.488 56.5095C48.488 55.2797 48.283 54.2269 47.8731 53.3511C47.4631 52.4567 46.8575 51.7673 46.0563 51.2828C45.2737 50.7983 44.3047 50.5561 43.1494 50.5561C41.9196 50.5561 40.8575 50.8542 39.9631 51.4505C39.0873 52.0468 38.4165 52.876 37.9507 53.9381C37.5034 55.0002 37.2798 56.2021 37.2798 57.5437H29.2021C29.2021 55.1213 29.7798 52.9039 30.9351 50.8915C32.0904 48.8604 33.7208 47.2486 35.8264 46.056C37.932 44.8449 40.4289 44.2393 43.3172 44.2393C46.1681 44.2393 48.5718 44.7051 50.5284 45.6368C52.5035 46.5498 53.9942 47.8728 55.0005 49.6058C56.0253 51.3201 56.5377 53.3698 56.5377 55.7549C56.5377 57.0965 56.3234 58.4102 55.8949 59.6959C55.4663 60.963 54.8514 62.2301 54.0501 63.4972C53.2675 64.7456 52.3172 66.0127 51.1992 67.2984C50.0812 68.5841 48.842 69.9164 47.4818 71.2953L40.4103 79.2333H57.8514Z" fill="white"/>
</g>
<defs>
<clipPath id="clip0_2779_2241">
<rect width="160" height="160" fill="white"/>
</clipPath>
</defs>
</svg>
