<svg width="160" height="160" viewBox="0 0 160 160" fill="none" xmlns="http://www.w3.org/2000/svg">
<g clip-path="url(#clip0_3280_1929)">
<rect width="160" height="160" rx="80" fill="#B40465"/>
<path d="M127.078 116.246C126.045 116.246 125.118 116.082 124.298 115.754C123.478 115.417 122.781 114.954 122.207 114.364C121.641 113.773 121.206 113.088 120.903 112.309C120.6 111.522 120.448 110.686 120.448 109.8V109.308C120.448 108.299 120.591 107.377 120.878 106.54C121.165 105.704 121.575 104.978 122.108 104.363C122.65 103.748 123.306 103.276 124.077 102.948C124.847 102.612 125.717 102.444 126.684 102.444C127.628 102.444 128.464 102.6 129.194 102.912C129.924 103.223 130.535 103.666 131.027 104.24C131.527 104.814 131.904 105.503 132.158 106.307C132.413 107.102 132.54 107.988 132.54 108.964V110.44H121.961V108.078H129.059V107.807C129.059 107.315 128.968 106.877 128.788 106.491C128.616 106.097 128.353 105.786 128.001 105.556C127.648 105.327 127.197 105.212 126.648 105.212C126.18 105.212 125.778 105.314 125.442 105.519C125.106 105.724 124.831 106.011 124.618 106.38C124.413 106.749 124.257 107.184 124.15 107.684C124.052 108.176 124.003 108.718 124.003 109.308V109.8C124.003 110.333 124.077 110.825 124.224 111.276C124.38 111.727 124.597 112.117 124.876 112.445C125.163 112.773 125.508 113.027 125.909 113.207C126.32 113.388 126.783 113.478 127.299 113.478C127.939 113.478 128.534 113.355 129.083 113.109C129.641 112.855 130.12 112.473 130.522 111.965L132.244 113.835C131.966 114.237 131.584 114.622 131.1 114.991C130.625 115.36 130.051 115.663 129.378 115.901C128.706 116.131 127.939 116.246 127.078 116.246Z" fill="white"/>
<path d="M113.473 116.246C112.44 116.246 111.513 116.082 110.693 115.754C109.873 115.417 109.176 114.954 108.602 114.364C108.036 113.773 107.602 113.088 107.298 112.309C106.995 111.522 106.843 110.686 106.843 109.8V109.308C106.843 108.299 106.987 107.377 107.274 106.54C107.561 105.704 107.971 104.978 108.504 104.363C109.045 103.748 109.701 103.276 110.472 102.948C111.243 102.612 112.112 102.444 113.08 102.444C114.023 102.444 114.859 102.6 115.589 102.912C116.319 103.223 116.93 103.666 117.422 104.24C117.922 104.814 118.299 105.503 118.554 106.307C118.808 107.102 118.935 107.988 118.935 108.964V110.44H108.356V108.078H115.454V107.807C115.454 107.315 115.363 106.877 115.183 106.491C115.011 106.097 114.748 105.786 114.396 105.556C114.043 105.327 113.592 105.212 113.043 105.212C112.575 105.212 112.173 105.314 111.837 105.519C111.501 105.724 111.226 106.011 111.013 106.38C110.808 106.749 110.652 107.184 110.546 107.684C110.447 108.176 110.398 108.718 110.398 109.308V109.8C110.398 110.333 110.472 110.825 110.619 111.276C110.775 111.727 110.993 112.117 111.271 112.445C111.558 112.773 111.903 113.027 112.305 113.207C112.715 113.388 113.178 113.478 113.695 113.478C114.334 113.478 114.929 113.355 115.478 113.109C116.036 112.855 116.516 112.473 116.917 111.965L118.64 113.835C118.361 114.237 117.979 114.622 117.496 114.991C117.02 115.36 116.446 115.663 115.773 115.901C115.101 116.131 114.334 116.246 113.473 116.246Z" fill="white"/>
<path d="M96.7193 105.249V121.117H93.1767V102.69H96.461L96.7193 105.249ZM105.145 109.197V109.456C105.145 110.423 105.031 111.321 104.801 112.15C104.58 112.978 104.252 113.699 103.817 114.314C103.382 114.921 102.841 115.397 102.193 115.741C101.554 116.078 100.816 116.246 99.9791 116.246C99.1672 116.246 98.462 116.082 97.8633 115.754C97.2647 115.426 96.7603 114.966 96.3503 114.376C95.9485 113.777 95.6245 113.084 95.3785 112.297C95.1325 111.51 94.9439 110.665 94.8127 109.763V109.087C94.9439 108.119 95.1325 107.233 95.3785 106.43C95.6245 105.618 95.9485 104.917 96.3503 104.326C96.7603 103.727 97.2606 103.264 97.851 102.936C98.4497 102.608 99.1508 102.444 99.9545 102.444C100.799 102.444 101.541 102.604 102.181 102.924C102.829 103.244 103.37 103.703 103.805 104.302C104.248 104.9 104.58 105.614 104.801 106.442C105.031 107.27 105.145 108.189 105.145 109.197ZM101.591 109.456V109.197C101.591 108.631 101.541 108.111 101.443 107.635C101.353 107.151 101.205 106.729 101 106.368C100.803 106.007 100.541 105.728 100.213 105.532C99.893 105.327 99.5034 105.224 99.0442 105.224C98.5604 105.224 98.1462 105.302 97.8018 105.458C97.4656 105.614 97.1909 105.839 96.9776 106.134C96.7644 106.43 96.6045 106.782 96.4979 107.192C96.3913 107.602 96.3257 108.066 96.3011 108.582V110.292C96.3421 110.899 96.4569 111.444 96.6455 111.928C96.8341 112.404 97.1253 112.781 97.5189 113.06C97.9125 113.339 98.4292 113.478 99.0688 113.478C99.5362 113.478 99.9299 113.376 100.25 113.17C100.57 112.957 100.828 112.666 101.025 112.297C101.23 111.928 101.373 111.502 101.455 111.018C101.545 110.534 101.591 110.013 101.591 109.456Z" fill="white"/>
<path d="M87.0877 102.69V116H83.5327V102.69H87.0877ZM91.3684 102.69V105.433H79.3135V102.69H91.3684Z" fill="white"/>
<path d="M72.671 113.478C73.1056 113.478 73.491 113.396 73.8273 113.232C74.1635 113.06 74.4259 112.822 74.6145 112.519C74.8113 112.207 74.9138 111.842 74.922 111.424H78.2556C78.2474 112.359 77.9973 113.191 77.5052 113.921C77.0132 114.643 76.3531 115.212 75.5248 115.631C74.6965 116.041 73.7699 116.246 72.7448 116.246C71.7115 116.246 70.8094 116.074 70.0386 115.729C69.2759 115.385 68.6404 114.909 68.1319 114.302C67.6235 113.687 67.2422 112.974 66.9879 112.162C66.7337 111.342 66.6066 110.464 66.6066 109.529V109.173C66.6066 108.23 66.7337 107.352 66.9879 106.54C67.2422 105.72 67.6235 105.007 68.1319 104.4C68.6404 103.785 69.2759 103.305 70.0386 102.961C70.8012 102.616 71.6951 102.444 72.7202 102.444C73.8109 102.444 74.7662 102.653 75.5863 103.071C76.4146 103.49 77.0624 104.088 77.5298 104.867C78.0055 105.638 78.2474 106.553 78.2556 107.61H74.922C74.9138 107.168 74.8195 106.766 74.6391 106.405C74.4669 106.044 74.2127 105.757 73.8765 105.544C73.5484 105.322 73.1425 105.212 72.6587 105.212C72.142 105.212 71.7197 105.322 71.3917 105.544C71.0636 105.757 70.8094 106.052 70.629 106.43C70.4486 106.799 70.3215 107.221 70.2477 107.697C70.1821 108.164 70.1493 108.656 70.1493 109.173V109.529C70.1493 110.046 70.1821 110.542 70.2477 111.018C70.3133 111.493 70.4363 111.916 70.6167 112.285C70.8053 112.654 71.0636 112.945 71.3917 113.158C71.7197 113.371 72.1461 113.478 72.671 113.478Z" fill="white"/>
<path d="M48.7579 106.639H52.6204C53.8341 106.639 54.8674 106.84 55.7203 107.241C56.5813 107.635 57.2374 108.185 57.6884 108.89C58.1477 109.595 58.3773 110.411 58.3773 111.338C58.3773 112.01 58.2461 112.633 57.9836 113.207C57.7294 113.773 57.3563 114.265 56.8643 114.684C56.3722 115.102 55.7695 115.426 55.056 115.655C54.3426 115.885 53.5307 116 52.6204 116H46.5438V102.69H50.0987V113.244H52.6204C53.1535 113.244 53.5799 113.158 53.8997 112.986C54.2278 112.806 54.4656 112.572 54.6132 112.285C54.769 111.998 54.8469 111.686 54.8469 111.35C54.8469 110.997 54.769 110.678 54.6132 110.39C54.4656 110.095 54.2278 109.857 53.8997 109.677C53.5799 109.497 53.1535 109.406 52.6204 109.406H48.7579V106.639ZM64.0603 102.69V116H60.5176V102.69H64.0603Z" fill="white"/>
<path d="M40.0981 96.8348H42.9642C42.9642 97.4991 42.8822 98.069 42.7182 98.5447C42.5542 99.0121 42.2917 99.4139 41.9309 99.7502C41.5701 100.078 41.0862 100.357 40.4794 100.587C39.8725 100.816 39.1222 101.013 38.2283 101.177C37.5395 101.316 36.9408 101.546 36.4324 101.866C35.9321 102.186 35.518 102.624 35.19 103.182C34.8702 103.732 34.6405 104.429 34.5011 105.273C34.3617 106.11 34.3125 107.118 34.3535 108.299V108.89L31.5981 109.271V108.681C31.6063 107.073 31.7498 105.675 32.0286 104.486C32.3157 103.297 32.7216 102.296 33.2464 101.485C33.7713 100.665 34.4027 100.013 35.1408 99.5287C35.8788 99.0367 36.6989 98.6923 37.601 98.4955C38.2078 98.3643 38.6917 98.2371 39.0525 98.1141C39.4215 97.9829 39.688 97.8189 39.852 97.6221C40.0161 97.4253 40.0981 97.1629 40.0981 96.8348ZM38.5481 103.44C39.4502 103.44 40.2498 103.596 40.9468 103.908C41.6439 104.211 42.2302 104.642 42.7059 105.199C43.1815 105.757 43.5423 106.413 43.7883 107.168C44.0344 107.922 44.1574 108.746 44.1574 109.64V109.898C44.1574 110.809 44.018 111.653 43.7391 112.432C43.4685 113.203 43.0667 113.876 42.5337 114.45C42.0006 115.024 41.3446 115.471 40.5655 115.791C39.7864 116.102 38.8967 116.258 37.8962 116.258C36.8875 116.258 35.9895 116.09 35.2023 115.754C34.4232 115.409 33.7631 114.93 33.2218 114.314C32.6888 113.691 32.2829 112.965 32.004 112.137C31.7334 111.301 31.5981 110.39 31.5981 109.406V109.136C31.5981 108.996 31.6596 108.861 31.7826 108.73C31.9138 108.59 32.0655 108.435 32.2378 108.262C32.4182 108.09 32.5781 107.873 32.7175 107.61C33.2095 106.7 33.7467 105.938 34.3289 105.322C34.9112 104.699 35.5467 104.232 36.2356 103.92C36.9326 103.6 37.7035 103.44 38.5481 103.44ZM37.8716 106.208C37.2073 106.208 36.6743 106.368 36.2725 106.688C35.8706 107 35.5795 107.418 35.3991 107.943C35.2269 108.459 35.1408 109.025 35.1408 109.64V109.898C35.1408 110.399 35.19 110.866 35.2884 111.301C35.3868 111.727 35.5426 112.109 35.7558 112.445C35.969 112.773 36.252 113.031 36.6046 113.22C36.9572 113.4 37.3878 113.49 37.8962 113.49C38.3882 113.49 38.8065 113.4 39.1509 113.22C39.5035 113.031 39.7864 112.773 39.9997 112.445C40.2129 112.109 40.3687 111.727 40.4671 111.301C40.5655 110.866 40.6147 110.399 40.6147 109.898V109.64C40.6147 109.173 40.5655 108.734 40.4671 108.324C40.3687 107.906 40.2129 107.541 39.9997 107.229C39.7864 106.909 39.5035 106.659 39.1509 106.479C38.7983 106.298 38.3718 106.208 37.8716 106.208Z" fill="white"/>
<path d="M96.698 54.3614V52.1448C96.698 50.5518 97.0435 49.1028 97.7344 47.7977C98.4253 46.4927 99.4425 45.4467 100.786 44.6598C102.129 43.8729 103.78 43.4795 105.738 43.4795C107.753 43.4795 109.432 43.8729 110.775 44.6598C112.138 45.4467 113.155 46.4927 113.827 47.7977C114.518 49.1028 114.863 50.5518 114.863 52.1448V54.3614C114.863 55.916 114.518 57.3458 113.827 58.6509C113.155 59.956 112.148 61.0019 110.804 61.7888C109.461 62.5757 107.801 62.9691 105.824 62.9691C103.828 62.9691 102.149 62.5757 100.786 61.7888C99.4425 61.0019 98.4253 59.956 97.7344 58.6509C97.0435 57.3458 96.698 55.916 96.698 54.3614ZM102.197 52.1448V54.3614C102.197 55.0332 102.321 55.6761 102.571 56.2903C102.84 56.8852 103.243 57.3746 103.78 57.7585C104.336 58.1231 105.008 58.3054 105.795 58.3054C106.62 58.3054 107.292 58.1231 107.81 57.7585C108.328 57.3746 108.712 56.8852 108.962 56.2903C109.211 55.6761 109.336 55.0332 109.336 54.3614V52.1448C109.336 51.4346 109.202 50.7821 108.933 50.1872C108.684 49.573 108.29 49.0836 107.753 48.719C107.235 48.3351 106.563 48.1432 105.738 48.1432C104.97 48.1432 104.317 48.3351 103.78 48.719C103.243 49.0836 102.84 49.573 102.571 50.1872C102.321 50.7821 102.197 51.4346 102.197 52.1448ZM116.735 77.939V75.7223C116.735 74.1486 117.08 72.7091 117.771 71.4041C118.481 70.099 119.508 69.053 120.851 68.2662C122.214 67.4793 123.884 67.0858 125.86 67.0858C127.856 67.0858 129.526 67.4793 130.87 68.2662C132.213 69.053 133.23 70.099 133.921 71.4041C134.612 72.7091 134.958 74.1486 134.958 75.7223V77.939C134.958 79.5128 134.612 80.9522 133.921 82.2572C133.249 83.5623 132.242 84.6083 130.898 85.3952C129.555 86.182 127.895 86.5755 125.918 86.5755C123.922 86.5755 122.243 86.182 120.88 85.3952C119.517 84.6083 118.481 83.5623 117.771 82.2572C117.08 80.9522 116.735 79.5128 116.735 77.939ZM122.262 75.7223V77.939C122.262 78.6299 122.416 79.2825 122.723 79.8966C123.03 80.5108 123.452 81.0002 123.989 81.3648C124.546 81.7295 125.189 81.9118 125.918 81.9118C126.839 81.9118 127.559 81.7295 128.077 81.3648C128.595 81.0002 128.95 80.5108 129.142 79.8966C129.353 79.2825 129.459 78.6299 129.459 77.939V75.7223C129.459 75.0314 129.325 74.3885 129.056 73.7935C128.787 73.1794 128.384 72.69 127.847 72.3253C127.329 71.9415 126.667 71.7495 125.86 71.7495C125.054 71.7495 124.383 71.9415 123.845 72.3253C123.327 72.69 122.934 73.1794 122.665 73.7935C122.396 74.3885 122.262 75.0314 122.262 75.7223ZM127.904 50.072L107.436 82.833L103.406 80.7027L123.874 47.9417L127.904 50.072Z" fill="white"/>
<path d="M91.1707 61.357V68.6116C91.1707 71.7591 90.8348 74.4748 90.1631 76.7587C89.4914 79.0234 88.5222 80.885 87.2555 82.3436C86.008 83.783 84.5206 84.8482 82.7933 85.5391C81.066 86.23 79.1468 86.5755 77.0357 86.5755C75.3467 86.5755 73.773 86.3644 72.3144 85.9421C70.8558 85.5007 69.5411 84.8194 68.3704 83.8982C67.2189 82.977 66.2209 81.8158 65.3764 80.4148C64.5512 78.9946 63.9178 77.3057 63.4764 75.3481C63.035 73.3905 62.8143 71.145 62.8143 68.6116V61.357C62.8143 58.2095 63.1501 55.513 63.8219 53.2675C64.5128 51.0028 65.482 49.1508 66.7295 47.7114C67.9962 46.272 69.4931 45.2164 71.2204 44.5447C72.9477 43.8537 74.8669 43.5083 76.9781 43.5083C78.667 43.5083 80.2312 43.729 81.6706 44.1704C83.1292 44.5926 84.4438 45.2548 85.6145 46.1568C86.7853 47.0588 87.7833 48.22 88.6085 49.6402C89.4338 51.0412 90.0671 52.7205 90.5086 54.6781C90.95 56.6165 91.1707 58.8428 91.1707 61.357ZM82.8509 69.7056V60.2342C82.8509 58.7181 82.7645 57.3938 82.5918 56.2615C82.4383 55.1291 82.1983 54.1695 81.8721 53.3826C81.5458 52.5766 81.1428 51.924 80.663 51.425C80.1832 50.926 79.6362 50.5614 79.022 50.3311C78.4079 50.1008 77.7266 49.9856 76.9781 49.9856C76.0377 49.9856 75.2028 50.168 74.4735 50.5326C73.7634 50.8973 73.1588 51.4826 72.6598 52.2887C72.1608 53.0756 71.777 54.1311 71.5083 55.4554C71.2588 56.7605 71.1341 58.3534 71.1341 60.2342V69.7056C71.1341 71.2218 71.2108 72.5556 71.3644 73.7071C71.5371 74.8587 71.7866 75.8471 72.1129 76.6723C72.4583 77.4784 72.8614 78.1405 73.322 78.6587C73.8018 79.1577 74.3488 79.5224 74.9629 79.7527C75.5962 79.983 76.2872 80.0981 77.0357 80.0981C77.9569 80.0981 78.7725 79.9158 79.4827 79.5512C80.212 79.1673 80.8261 78.5723 81.3251 77.7663C81.8433 76.941 82.2271 75.8663 82.4766 74.542C82.7261 73.2177 82.8509 71.6056 82.8509 69.7056Z" fill="white"/>
<path d="M37.5958 61.4433H42.0292C43.4494 61.4433 44.6201 61.2034 45.5413 60.7236C46.4626 60.2246 47.1439 59.5337 47.5853 58.6509C48.0459 57.7489 48.2762 56.7029 48.2762 55.513C48.2762 54.4382 48.0651 53.4882 47.6429 52.6629C47.2398 51.8185 46.6161 51.166 45.7716 50.7053C44.9272 50.2255 43.862 49.9856 42.5761 49.9856C41.559 49.9856 40.6185 50.1872 39.7549 50.5902C38.8912 50.9932 38.2003 51.5594 37.6821 52.2887C37.164 53.018 36.9049 53.9008 36.9049 54.9372H28.5851C28.5851 52.6342 29.1992 50.6286 30.4275 48.9205C31.675 47.2124 33.3447 45.8785 35.4367 44.9189C37.5286 43.9593 39.8317 43.4795 42.3458 43.4795C45.1863 43.4795 47.6717 43.9401 49.802 44.8613C51.9323 45.7634 53.5924 47.0972 54.7824 48.8629C55.9723 50.6286 56.5672 52.8165 56.5672 55.4266C56.5672 56.7509 56.2602 58.0367 55.646 59.2842C55.0319 60.5125 54.149 61.6257 52.9975 62.6237C51.8651 63.6025 50.4833 64.3893 48.852 64.9843C47.2206 65.5601 45.3878 65.8479 43.3534 65.8479H37.5958V61.4433ZM37.5958 67.748V63.4585H43.3534C45.6373 63.4585 47.6429 63.7176 49.3702 64.2358C51.0975 64.754 52.5465 65.5025 53.7172 66.4813C54.8879 67.4409 55.7708 68.5828 56.3657 69.9071C56.9607 71.2122 57.2581 72.6612 57.2581 74.2541C57.2581 76.2117 56.8839 77.9582 56.1354 79.4936C55.3869 81.0098 54.3313 82.2956 52.9687 83.3512C51.6252 84.4068 50.0515 85.2128 48.2474 85.7694C46.4434 86.3068 44.4762 86.5755 42.3458 86.5755C40.5802 86.5755 38.8433 86.3356 37.1352 85.8558C35.4463 85.3568 33.9109 84.6179 32.5291 83.6391C31.1664 82.6411 30.0725 81.3936 29.2472 79.8966C28.4411 78.3804 28.0381 76.586 28.0381 74.5132H36.3579C36.3579 75.588 36.6266 76.5476 37.164 77.392C37.7013 78.2365 38.4402 78.8986 39.3807 79.3784C40.3403 79.8582 41.4054 80.0981 42.5761 80.0981C43.9004 80.0981 45.0327 79.8582 45.9732 79.3784C46.9328 78.8794 47.6621 78.1885 48.1611 77.3057C48.6793 76.4036 48.9383 75.3577 48.9383 74.1677C48.9383 72.6324 48.6601 71.4041 48.1035 70.4829C47.5469 69.5424 46.7504 68.8515 45.7141 68.4101C44.6777 67.9687 43.4494 67.748 42.0292 67.748H37.5958Z" fill="white"/>
</g>
<defs>
<clipPath id="clip0_3280_1929">
<rect width="160" height="160" fill="white"/>
</clipPath>
</defs>
</svg>
