<svg width="160" height="160" viewBox="0 0 160 160" fill="none" xmlns="http://www.w3.org/2000/svg">
<g clip-path="url(#clip0_3280_1950)">
<rect width="160" height="160" rx="80" fill="#B40465"/>
<path d="M106.666 116.241C105.654 116.241 104.747 116.08 103.944 115.759C103.141 115.43 102.458 114.976 101.896 114.398C101.342 113.82 100.917 113.149 100.619 112.386C100.322 111.615 100.174 110.796 100.174 109.929V109.447C100.174 108.46 100.314 107.556 100.595 106.737C100.876 105.918 101.278 105.208 101.8 104.605C102.33 104.003 102.972 103.541 103.727 103.22C104.482 102.891 105.333 102.726 106.28 102.726C107.204 102.726 108.023 102.879 108.738 103.184C109.452 103.489 110.05 103.923 110.532 104.485C111.022 105.047 111.391 105.721 111.64 106.508C111.889 107.287 112.014 108.155 112.014 109.11V110.555H101.655V108.243H108.605V107.978C108.605 107.496 108.517 107.066 108.34 106.689C108.171 106.304 107.915 105.999 107.569 105.774C107.224 105.549 106.782 105.436 106.244 105.436C105.787 105.436 105.393 105.537 105.064 105.738C104.735 105.938 104.466 106.219 104.257 106.581C104.056 106.942 103.904 107.368 103.799 107.857C103.703 108.339 103.655 108.869 103.655 109.447V109.929C103.655 110.451 103.727 110.933 103.872 111.374C104.024 111.816 104.237 112.198 104.51 112.519C104.791 112.84 105.128 113.089 105.522 113.265C105.923 113.442 106.377 113.53 106.883 113.53C107.509 113.53 108.091 113.41 108.629 113.169C109.175 112.92 109.645 112.547 110.038 112.049L111.725 113.88C111.452 114.273 111.078 114.651 110.605 115.012C110.139 115.373 109.577 115.67 108.918 115.903C108.26 116.128 107.509 116.241 106.666 116.241Z" fill="white"/>
<path d="M97.9937 102.967V116H94.5128V102.967H97.9937ZM96.3557 108.544V111.254C96.0907 111.391 95.7494 111.519 95.3318 111.639C94.9143 111.76 94.4727 111.856 94.0069 111.929C93.5492 111.993 93.1237 112.025 92.7302 112.025C91.4776 112.025 90.4016 111.852 89.5022 111.507C88.6109 111.162 87.9244 110.62 87.4426 109.881C86.9608 109.142 86.7199 108.195 86.7199 107.038V102.955H90.1888V107.038C90.1888 107.625 90.2771 108.086 90.4538 108.424C90.6304 108.753 90.9034 108.986 91.2728 109.122C91.6502 109.251 92.136 109.315 92.7302 109.315C93.1478 109.315 93.5533 109.283 93.9467 109.218C94.3402 109.154 94.7336 109.066 95.1271 108.953C95.5206 108.841 95.9301 108.705 96.3557 108.544Z" fill="white"/>
<path d="M85.5154 102.967V105.689H80.0953V116H76.6265V102.967H85.5154Z" fill="white"/>
<path d="M69.3274 116.241C68.3156 116.241 67.4083 116.08 66.6053 115.759C65.8023 115.43 65.1198 114.976 64.5577 114.398C64.0036 113.82 63.5781 113.149 63.281 112.386C62.9839 111.615 62.8353 110.796 62.8353 109.929V109.447C62.8353 108.46 62.9758 107.556 63.2569 106.737C63.5379 105.918 63.9394 105.208 64.4613 104.605C64.9913 104.003 65.6337 103.541 66.3885 103.22C67.1433 102.891 67.9944 102.726 68.942 102.726C69.8654 102.726 70.6844 102.879 71.3991 103.184C72.1137 103.489 72.7119 103.923 73.1937 104.485C73.6835 105.047 74.0529 105.721 74.3018 106.508C74.5508 107.287 74.6752 108.155 74.6752 109.11V110.555H64.3168V108.243H71.2666V107.978C71.2666 107.496 71.1783 107.066 71.0016 106.689C70.833 106.304 70.576 105.999 70.2307 105.774C69.8855 105.549 69.4438 105.436 68.9058 105.436C68.4481 105.436 68.0547 105.537 67.7254 105.738C67.3962 105.938 67.1272 106.219 66.9185 106.581C66.7177 106.942 66.5651 107.368 66.4608 107.857C66.3644 108.339 66.3162 108.869 66.3162 109.447V109.929C66.3162 110.451 66.3885 110.933 66.533 111.374C66.6856 111.816 66.8984 112.198 67.1714 112.519C67.4524 112.84 67.7897 113.089 68.1831 113.265C68.5846 113.442 69.0383 113.53 69.5442 113.53C70.1705 113.53 70.7527 113.41 71.2907 113.169C71.8367 112.92 72.3064 112.547 72.6999 112.049L74.3862 113.88C74.1131 114.273 73.7398 114.651 73.266 115.012C72.8003 115.373 72.2382 115.67 71.5797 115.903C70.9213 116.128 70.1705 116.241 69.3274 116.241Z" fill="white"/>
<path d="M58.1018 102.967V105.689H51.694V102.967H58.1018ZM60.6432 102.967V116H57.1743V102.967H60.6432ZM50.8268 102.967H54.2354L53.8861 109.544C53.8379 110.483 53.7376 111.31 53.585 112.025C53.4324 112.74 53.2277 113.35 52.9707 113.856C52.7218 114.362 52.4207 114.775 52.0674 115.096C51.7221 115.409 51.3166 115.638 50.8509 115.783C50.3932 115.927 49.8873 116 49.3332 116H48.2733L48.2372 113.265L48.6828 113.217C48.9398 113.193 49.1646 113.121 49.3573 113C49.5581 112.872 49.7267 112.691 49.8632 112.458C50.0077 112.218 50.1282 111.916 50.2245 111.555C50.3209 111.186 50.3972 110.752 50.4534 110.254C50.5176 109.756 50.5618 109.182 50.5859 108.532L50.8268 102.967Z" fill="white"/>
<path d="M94.8292 55.0205V52.85C94.8292 51.2902 95.1675 49.8714 95.844 48.5935C96.5205 47.3156 97.5165 46.2914 98.832 45.521C100.147 44.7505 101.764 44.3652 103.68 44.3652C105.654 44.3652 107.298 44.7505 108.613 45.521C109.948 46.2914 110.944 47.3156 111.601 48.5935C112.278 49.8714 112.616 51.2902 112.616 52.85V55.0205C112.616 56.5427 112.278 57.9427 111.601 59.2206C110.944 60.4984 109.957 61.5226 108.642 62.2931C107.326 63.0636 105.701 63.4488 103.765 63.4488C101.811 63.4488 100.166 63.0636 98.832 62.2931C97.5165 61.5226 96.5205 60.4984 95.844 59.2206C95.1675 57.9427 94.8292 56.5427 94.8292 55.0205ZM100.213 52.85V55.0205C100.213 55.6782 100.335 56.3078 100.58 56.9091C100.843 57.4917 101.237 57.9709 101.764 58.3467C102.309 58.7038 102.966 58.8823 103.737 58.8823C104.545 58.8823 105.203 58.7038 105.71 58.3467C106.217 57.9709 106.593 57.4917 106.838 56.9091C107.082 56.3078 107.204 55.6782 107.204 55.0205V52.85C107.204 52.1546 107.072 51.5157 106.809 50.9331C106.565 50.3318 106.18 49.8526 105.654 49.4955C105.146 49.1197 104.488 48.9318 103.68 48.9318C102.929 48.9318 102.29 49.1197 101.764 49.4955C101.237 49.8526 100.843 50.3318 100.58 50.9331C100.335 51.5157 100.213 52.1546 100.213 52.85ZM114.448 78.1068V75.9363C114.448 74.3954 114.787 72.9859 115.463 71.7081C116.158 70.4302 117.164 69.406 118.479 68.6355C119.814 67.865 121.449 67.4798 123.384 67.4798C125.339 67.4798 126.973 67.865 128.289 68.6355C129.604 69.406 130.6 70.4302 131.277 71.7081C131.953 72.9859 132.292 74.3954 132.292 75.9363V78.1068C132.292 79.6478 131.953 81.0572 131.277 82.3351C130.619 83.613 129.633 84.6372 128.317 85.4077C127.002 86.1781 125.376 86.5634 123.441 86.5634C121.486 86.5634 119.842 86.1781 118.508 85.4077C117.173 84.6372 116.158 83.613 115.463 82.3351C114.787 81.0572 114.448 79.6478 114.448 78.1068ZM119.861 75.9363V78.1068C119.861 78.7834 120.011 79.4223 120.312 80.0237C120.612 80.625 121.026 81.1042 121.552 81.4613C122.097 81.8183 122.726 81.9969 123.441 81.9969C124.343 81.9969 125.047 81.8183 125.555 81.4613C126.062 81.1042 126.41 80.625 126.598 80.0237C126.804 79.4223 126.908 78.7834 126.908 78.1068V75.9363C126.908 75.2598 126.776 74.6303 126.513 74.0477C126.25 73.4463 125.855 72.9671 125.329 72.6101C124.822 72.2342 124.173 72.0463 123.384 72.0463C122.595 72.0463 121.937 72.2342 121.411 72.6101C120.904 72.9671 120.518 73.4463 120.255 74.0477C119.992 74.6303 119.861 75.2598 119.861 75.9363ZM125.386 50.8204L105.344 82.8989L101.397 80.8129L121.439 48.7344L125.386 50.8204Z" fill="white"/>
<path d="M89.417 61.8703V68.9738C89.417 72.0557 89.0881 74.7148 88.4304 76.9511C87.7727 79.1686 86.8237 80.9915 85.5834 82.4197C84.3619 83.8291 82.9055 84.8721 81.2142 85.5486C79.5229 86.2251 77.6436 86.5634 75.5765 86.5634C73.9227 86.5634 72.3818 86.3567 70.9536 85.9432C69.5253 85.511 68.2381 84.8439 67.0917 83.9419C65.9642 83.0398 64.987 81.9029 64.1601 80.5311C63.3521 79.1404 62.7319 77.4867 62.2997 75.5699C61.8675 73.6531 61.6514 71.4544 61.6514 68.9738V61.8703C61.6514 58.7883 61.9802 56.148 62.638 53.9493C63.3145 51.7318 64.2635 49.9184 65.485 48.5089C66.7253 47.0995 68.1911 46.0659 69.8824 45.4082C71.5737 44.7317 73.4529 44.3934 75.5201 44.3934C77.1738 44.3934 78.7054 44.6095 80.1148 45.0418C81.543 45.4552 82.8303 46.1035 83.9766 46.9868C85.123 47.87 86.1002 49.0069 86.9082 50.3976C87.7163 51.7694 88.3365 53.4137 88.7687 55.3306C89.2009 57.2286 89.417 59.4085 89.417 61.8703ZM81.2705 70.0449V60.7709C81.2705 59.2863 81.186 57.9897 81.0168 56.8809C80.8665 55.7722 80.6316 54.8326 80.3121 54.0621C79.9927 53.2728 79.598 52.6339 79.1282 52.1453C78.6584 51.6567 78.1228 51.2996 77.5215 51.0741C76.9201 50.8486 76.253 50.7358 75.5201 50.7358C74.5993 50.7358 73.7818 50.9144 73.0677 51.2714C72.3724 51.6285 71.7804 52.2016 71.2918 52.9909C70.8032 53.7614 70.4274 54.795 70.1643 56.0916C69.92 57.3695 69.7978 58.9293 69.7978 60.7709V70.0449C69.7978 71.5295 69.873 72.8356 70.0233 73.9631C70.1925 75.0907 70.4368 76.0585 70.7562 76.8665C71.0945 77.6558 71.4891 78.3042 71.9402 78.8116C72.41 79.3002 72.9455 79.6572 73.5469 79.8827C74.167 80.1082 74.8436 80.221 75.5765 80.221C76.4785 80.221 77.2772 80.0424 77.9725 79.6854C78.6866 79.3095 79.288 78.727 79.7766 77.9377C80.2839 77.1296 80.6598 76.0773 80.9041 74.7806C81.1484 73.4839 81.2705 71.9054 81.2705 70.0449Z" fill="white"/>
<path d="M56.7184 79.6572V85.9996H28.6427V80.5874L41.9194 66.3522C43.2537 64.8677 44.3061 63.5616 45.0765 62.434C45.847 61.2877 46.4014 60.2635 46.7397 59.3615C47.0967 58.4407 47.2752 57.5668 47.2752 56.74C47.2752 55.4997 47.0685 54.4379 46.6551 53.5547C46.2417 52.6526 45.6309 51.9573 44.8228 51.4687C44.0336 50.9801 43.0564 50.7358 41.8912 50.7358C40.651 50.7358 39.5798 51.0365 38.6778 51.6379C37.7945 52.2392 37.118 53.0755 36.6482 54.1466C36.1972 55.2178 35.9717 56.4299 35.9717 57.7829H27.8252C27.8252 55.3399 28.4078 53.1037 29.5729 51.0741C30.738 49.0257 32.3823 47.4002 34.5059 46.1975C36.6294 44.976 39.1476 44.3652 42.0604 44.3652C44.9356 44.3652 47.3598 44.835 49.333 45.7747C51.325 46.6955 52.8284 48.0297 53.8432 49.7774C54.8767 51.5063 55.3935 53.5735 55.3935 55.9789C55.3935 57.3319 55.1774 58.6568 54.7452 59.9535C54.313 61.2313 53.6928 62.5092 52.8848 63.7871C52.0955 65.0462 51.1371 66.3241 50.0095 67.6207C48.882 68.9174 47.6323 70.261 46.2605 71.6517L39.1288 79.6572H56.7184Z" fill="white"/>
</g>
<defs>
<clipPath id="clip0_3280_1950">
<rect width="160" height="160" fill="white"/>
</clipPath>
</defs>
</svg>
