<svg width="160" height="160" viewBox="0 0 160 160" fill="none" xmlns="http://www.w3.org/2000/svg">
<g clip-path="url(#clip0_2579_1076)">
<rect width="160" height="160" rx="80" fill="#B40465"/>
<path d="M86.2195 94.7291C86.2195 96.9635 84.3746 98.8254 82.1608 98.8254C79.9469 98.8254 78.102 96.9635 78.102 94.7291C78.102 92.4948 79.9469 90.6328 82.1608 90.6328C84.7436 90.6328 86.2195 92.4948 86.2195 94.7291Z" fill="white"/>
<path d="M97.6584 112.232C94.7066 114.093 90.6479 113.349 88.434 110.37C86.5891 107.39 87.3271 103.294 90.2789 101.06C93.2307 99.1979 97.2895 99.9426 99.5033 102.922C101.348 106.273 100.61 110.37 97.6584 112.232Z" fill="white"/>
<path d="M113.893 104.039C119.796 102.922 125.331 107.018 126.069 112.976C127.176 118.934 123.117 124.52 117.213 125.265C111.31 126.382 105.775 122.286 105.037 116.328C104.299 110.369 107.989 104.784 113.893 104.039Z" fill="white"/>
<path d="M95.8128 80.9508C98.0266 81.6955 99.1336 83.9299 98.3956 86.1642C97.6577 88.3986 95.4438 89.5157 93.2299 88.771C91.0161 88.0262 89.9092 85.7918 90.6471 83.5575C91.3851 81.6955 93.5989 80.5784 95.8128 80.9508Z" fill="white"/>
<path d="M115.369 75.7373C116.476 79.0888 114.262 82.8127 110.572 83.9298C106.882 85.047 103.562 82.8127 102.455 79.0888C101.348 75.3649 103.562 72.0134 107.251 70.8962C110.941 70.1514 114.631 72.0134 115.369 75.7373Z" fill="white"/>
<path d="M112.786 57.4902C113.524 51.532 119.059 47.4357 124.962 48.5528C130.866 49.2976 134.925 54.8835 133.818 60.8417C133.08 66.7999 127.545 70.8962 121.642 69.7791C115.738 68.6619 111.679 63.4484 112.786 57.4902Z" fill="white"/>
<path d="M85.4822 67.9172C86.9581 66.0553 89.1719 65.6829 91.0168 67.1724C92.8617 68.662 93.2307 70.8963 91.7548 72.7583C90.2789 74.6202 88.065 74.9926 86.2201 73.5031C84.7442 72.3859 84.0063 69.7792 85.4822 67.9172Z" fill="white"/>
<path d="M86.589 47.4357C90.2788 47.8081 92.8616 50.7872 92.8616 54.5111C92.4927 58.235 89.5409 60.8417 85.8511 60.8417C82.1613 60.4693 79.5785 57.4902 79.5785 53.7663C79.9475 50.0424 82.8993 47.0633 86.589 47.4357Z" fill="white"/>
<path d="M68.5091 44.4565C63.3434 41.8497 61.1296 35.5191 63.7124 29.9333C66.2952 24.7198 72.5678 22.4855 78.1025 25.0922C83.2682 27.6989 85.482 34.0296 82.8992 39.6154C79.9474 44.8289 73.6748 47.0632 68.5091 44.4565Z" fill="white"/>
<path d="M69.9852 73.5029C68.5093 71.6409 69.2472 69.0342 70.7231 67.917C72.568 66.4275 75.1509 67.1722 76.2578 68.6618C77.7337 70.5237 76.9957 73.1305 75.5198 74.2476C74.0439 75.7372 71.4611 75.3648 69.9852 73.5029Z" fill="white"/>
<path d="M50.798 66.0551C52.2739 62.7036 55.9637 60.8416 59.2845 62.3312C62.6053 63.8207 64.4502 67.5446 62.9743 70.8961C61.4984 74.2476 57.8086 76.1096 54.4878 74.62C51.167 73.5029 49.6911 69.779 50.798 66.0551Z" fill="white"/>
<path d="M42.312 82.8127C38.2532 86.909 31.6116 87.2814 27.1839 82.8127C23.1252 78.7164 22.7562 72.0134 27.1839 67.5447C31.2427 63.4484 37.8843 63.076 42.312 67.5447C46.3707 71.641 46.7397 78.344 42.312 82.8127Z" fill="white"/>
<path d="M70.7227 90.2604C68.5088 91.0051 66.295 89.888 65.557 87.6537C64.8191 85.4193 65.926 83.185 68.1399 82.4402C70.3537 81.6954 72.5676 82.8126 73.3055 85.0469C73.6745 87.2813 72.5676 89.5156 70.7227 90.2604Z" fill="white"/>
<path d="M57.8091 106.273C54.8573 104.039 54.4883 99.9425 56.7022 96.9634C58.9161 93.9843 62.9748 93.6119 65.9266 95.8462C68.8784 98.0806 69.2474 102.177 67.0336 105.156C64.4507 108.135 60.392 108.507 57.8091 106.273Z" fill="white"/>
<path d="M70.7227 119.307C73.3056 124.52 71.4607 131.223 66.295 133.83C61.1293 136.437 54.4878 134.575 51.9049 129.362C49.3221 124.148 51.167 117.445 56.3326 114.838C61.4983 112.232 67.7709 114.094 70.7227 119.307Z" fill="white"/>
</g>
<defs>
<clipPath id="clip0_2579_1076">
<rect width="160" height="160" fill="white"/>
</clipPath>
</defs>
</svg>
