<svg width="160" height="160" viewBox="0 0 160 160" fill="none" xmlns="http://www.w3.org/2000/svg">
<g clip-path="url(#clip0_2579_1012)">
<rect width="160" height="160" rx="80" fill="#B40465"/>
<path d="M96.3693 48.377C96.3693 39.7565 89.383 33 80.9995 33C72.383 33 65.6296 39.9895 65.6296 48.377V74.9372C62.3693 78.6649 60.5063 83.3246 60.5063 88.4503C60.5063 99.6335 69.5885 108.953 80.9995 108.953C92.1776 108.953 101.493 99.8665 101.493 88.4503C101.493 83.5576 99.6296 78.6649 96.3693 74.9372V48.377ZM80.9995 102.429C73.3145 102.429 67.0269 96.1387 67.0269 88.4503C67.0269 84.9555 68.4241 81.4607 70.7529 78.8979L71.9173 77.5V48.377C71.9173 43.4843 75.8762 39.5236 80.7666 39.5236C85.657 39.5236 89.6159 43.4843 89.6159 48.377V77.5L90.7803 78.8979C93.1091 81.4607 94.5063 84.9555 94.5063 88.4503C94.9721 96.1387 88.6844 102.429 80.9995 102.429Z" fill="white"/>
<path d="M84.0264 82.3928V63.5211C84.0264 61.8902 82.6292 60.4923 80.999 60.4923C79.3689 60.4923 77.9716 61.8902 77.9716 63.5211V82.3928C75.6429 83.5577 74.0127 85.8875 74.0127 88.4504C74.0127 92.1781 77.0401 95.4399 80.999 95.4399C84.7251 95.4399 87.9853 92.4111 87.9853 88.4504C87.9853 85.8875 86.3552 83.5577 84.0264 82.3928Z" fill="white"/>
<path d="M108.944 66.0839C108.479 65.6179 108.013 65.6179 107.547 66.0839L104.287 69.3457C103.821 69.8116 103.821 70.2776 104.287 70.7436C113.602 80.7619 113.602 96.3718 104.287 106.39C103.821 106.856 104.054 107.322 104.287 107.788L107.547 111.05C108.013 111.516 108.479 111.516 108.944 111.05C120.588 98.2357 120.588 78.665 108.944 66.0839Z" fill="white"/>
<path d="M118.26 55.1336L115 58.3954C114.767 58.6284 114.534 59.3273 115 59.5603C128.972 76.1022 128.972 100.566 115 117.107C114.767 117.573 114.767 118.039 115 118.272L118.26 121.534C118.726 122 119.192 122 119.657 121.534C136.192 102.429 136.192 74.0053 119.657 54.9006C119.424 54.6676 118.726 54.6676 118.26 55.1336Z" fill="white"/>
<path d="M57.944 70.7436C58.4098 70.2776 58.1769 69.8116 57.944 69.3457L54.6837 66.0839C54.218 65.6179 53.7522 65.6179 53.2865 66.0839C41.4098 78.665 41.4098 98.2357 53.2865 110.817C53.7522 111.283 54.218 111.283 54.6837 110.817L57.944 107.555C58.4098 107.089 58.4098 106.623 57.944 106.157C48.6289 96.3718 48.6289 80.7619 57.944 70.7436Z" fill="white"/>
<path d="M46.9988 59.5602C47.2317 59.0942 47.2317 58.6282 46.9988 58.3952L43.7385 55.1334C43.2728 54.6675 42.807 54.6675 42.3413 55.1334C26.0399 74.2382 26.0399 102.662 42.3413 121.767C42.807 122.233 43.2728 122.233 43.7385 121.767L46.9988 118.505C47.2317 118.272 47.4646 117.573 46.9988 117.34C33.0262 100.798 33.0262 76.335 46.9988 59.5602Z" fill="white"/>
</g>
<defs>
<clipPath id="clip0_2579_1012">
<rect width="160" height="160" fill="white"/>
</clipPath>
</defs>
</svg>
