<svg width="205" height="45" viewBox="0 0 205 45" fill="none" xmlns="http://www.w3.org/2000/svg">
<g clip-path="url(#clip0_2914_3186)">
<path d="M11.0254 21.2896C9.03424 21.2896 7.2154 20.8256 5.56892 19.8978C3.94154 18.9699 2.6588 17.7012 1.72069 16.0917C0.782583 14.4632 0.313477 12.6548 0.313477 10.6665C0.313477 8.67826 0.782583 6.87933 1.72069 5.26978C2.6588 3.64131 3.94154 2.36315 5.56892 1.4353C7.2154 0.507385 9.03424 0.043457 11.0254 0.043457C14.1077 0.043457 16.6445 1.15121 18.6356 3.36671L16.3669 5.55381C15.6585 4.72067 14.864 4.10524 13.9833 3.70758C13.1217 3.29101 12.1358 3.08267 11.0254 3.08267C9.64685 3.08267 8.3833 3.39515 7.23454 4.02001C6.10497 4.64492 5.20515 5.5349 4.53506 6.69001C3.88412 7.82615 3.55862 9.15167 3.55862 10.6665C3.55862 12.1814 3.88412 13.5164 4.53506 14.6715C5.20515 15.8076 6.10497 16.6882 7.23454 17.313C8.3833 17.9379 9.64685 18.2504 11.0254 18.2504C13.3228 18.2504 15.2756 17.3036 16.8838 15.41L19.21 17.6255C18.2336 18.7805 17.037 19.68 15.6202 20.3238C14.2226 20.9677 12.691 21.2896 11.0254 21.2896Z" fill="black"/>
<path d="M23.7003 4.36103C23.1068 4.36103 22.5994 4.16217 22.1782 3.76451C21.7762 3.34794 21.5752 2.84614 21.5752 2.2591C21.5752 1.67212 21.7762 1.1798 22.1782 0.782137C22.5994 0.365512 23.1068 0.157227 23.7003 0.157227C24.2938 0.157227 24.7916 0.365512 25.1936 0.782137C25.6148 1.1798 25.8254 1.67212 25.8254 2.2591C25.8254 2.84614 25.6148 3.34794 25.1936 3.76451C24.7916 4.16217 24.2938 4.36103 23.7003 4.36103ZM22.1208 6.74694H25.2798V20.8353H22.1208V6.74694Z" fill="black"/>
<path d="M29.0713 6.74685H32.058V8.84873H32.2303C32.5366 8.12916 33.0918 7.53269 33.896 7.05928C34.7 6.56696 35.5233 6.3208 36.3656 6.3208C37.0551 6.3208 37.6196 6.41546 38.06 6.60484V9.8713C37.4091 9.54939 36.6816 9.38841 35.8773 9.38841C34.8436 9.38841 33.9725 9.78607 33.2642 10.5814C32.5749 11.3577 32.2303 12.314 32.2303 13.4501V20.8352H29.0713V6.74685Z" fill="black"/>
<path d="M46.1096 21.2897C44.6925 21.2897 43.4195 20.9678 42.2896 20.324C41.1602 19.6801 40.2798 18.7902 39.648 17.654C39.0161 16.4989 38.7002 15.2113 38.7002 13.7911C38.7002 12.3519 39.0161 11.0643 39.648 9.92816C40.2798 8.79202 41.1602 7.90203 42.2896 7.25821C43.4195 6.61439 44.6925 6.29248 46.1096 6.29248C47.6794 6.29248 49.01 6.66169 50.1013 7.40023C51.2117 8.1198 52.016 9.07605 52.5135 10.269L49.613 11.462C48.9236 9.92816 47.7175 9.16123 45.9943 9.16123C45.2667 9.16123 44.5876 9.36009 43.9557 9.75775C43.3238 10.1364 42.8165 10.6761 42.4337 11.3767C42.0503 12.0774 41.8589 12.8821 41.8589 13.7911C41.8589 14.7 42.0503 15.5048 42.4337 16.2054C42.8165 16.906 43.3238 17.4552 43.9557 17.8528C44.5876 18.2316 45.2667 18.4209 45.9943 18.4209C46.8752 18.4209 47.6408 18.2221 48.2917 17.8244C48.9431 17.4079 49.4407 16.8208 49.7854 16.0634L52.6282 17.2847C52.073 18.4777 51.2405 19.4435 50.1296 20.1819C49.0193 20.9205 47.6794 21.2897 46.1096 21.2897Z" fill="black"/>
<path d="M55.209 0.498047H58.3677V20.8352H55.209V0.498047Z" fill="black"/>
<path d="M68.3468 21.2897C66.9494 21.2897 65.6856 20.9678 64.5562 20.324C63.4459 19.6801 62.5748 18.7902 61.9429 17.654C61.311 16.4989 60.9951 15.2113 60.9951 13.7911C60.9951 12.4277 61.292 11.1779 61.8853 10.0418C62.4981 8.88668 63.3502 7.97778 64.4415 7.315C65.5328 6.6333 66.777 6.29248 68.175 6.29248C69.6106 6.29248 70.8552 6.60491 71.908 7.22977C72.9803 7.85468 73.7937 8.72575 74.3489 9.84293C74.9041 10.9412 75.182 12.2099 75.182 13.6491C75.182 13.8195 75.1722 13.9899 75.1532 14.1604C75.1341 14.3308 75.1244 14.4254 75.1244 14.4444H64.1544C64.2501 15.732 64.7188 16.7262 65.5617 17.4268C66.404 18.1274 67.361 18.4777 68.4333 18.4777C70.0798 18.4777 71.3435 17.7203 72.2239 16.2054L74.9237 17.4836C74.2918 18.6387 73.4109 19.5665 72.2815 20.2672C71.1712 20.9489 69.8596 21.2897 68.3468 21.2897ZM71.9656 12.0584C71.9275 11.604 71.7742 11.1401 71.5061 10.6666C71.238 10.1933 70.8166 9.79562 70.2424 9.47371C69.6872 9.13284 68.9885 8.96243 68.1462 8.96243C67.2082 8.96243 66.3942 9.24646 65.7052 9.81453C65.0348 10.3826 64.5753 11.1306 64.3268 12.0584H71.9656Z" fill="black"/>
<path d="M90.403 21.0622C89.7712 21.0622 89.1774 20.9676 88.6222 20.7782C88.086 20.5699 87.6363 20.2859 87.2726 19.9261C86.4493 19.1308 86.0377 18.0231 86.0377 16.6028V9.5019H83.5391V6.74672H86.0377V2.54297H89.1964V6.74672H92.6716V9.5019H89.1964V15.9211C89.1964 16.6976 89.3497 17.2467 89.6559 17.5686C89.9435 17.9473 90.4123 18.1366 91.0632 18.1366C91.6183 18.1366 92.1643 17.9757 92.7004 17.6538V20.693C92.03 20.9392 91.2644 21.0622 90.403 21.0622Z" fill="black"/>
<path d="M101.639 21.2897C100.222 21.2897 98.9488 20.9678 97.8194 20.324C96.69 19.6612 95.7998 18.7618 95.1484 17.6256C94.5171 16.4894 94.2012 15.2113 94.2012 13.7911C94.2012 12.3709 94.5171 11.0927 95.1484 9.95655C95.7998 8.82041 96.69 7.93043 97.8194 7.2866C98.9488 6.62382 100.222 6.29248 101.639 6.29248C103.075 6.29248 104.358 6.62382 105.487 7.2866C106.616 7.93043 107.497 8.82041 108.129 9.95655C108.761 11.0927 109.077 12.3709 109.077 13.7911C109.077 15.2113 108.761 16.4894 108.129 17.6256C107.497 18.7618 106.616 19.6612 105.487 20.324C104.358 20.9678 103.075 21.2897 101.639 21.2897ZM101.639 18.4209C102.405 18.4209 103.113 18.2316 103.764 17.8528C104.415 17.4741 104.942 16.9344 105.343 16.2338C105.746 15.5332 105.947 14.7189 105.947 13.7911C105.947 12.8443 105.746 12.0206 105.343 11.3199C104.942 10.6193 104.415 10.0891 103.764 9.72935C103.113 9.3506 102.405 9.16123 101.639 9.16123C100.892 9.16123 100.184 9.3506 99.5138 9.72935C98.8629 10.0891 98.3365 10.6193 97.9341 11.3199C97.5513 12.0206 97.3599 12.8443 97.3599 13.7911C97.3599 14.7189 97.5611 15.5332 97.9629 16.2338C98.3648 16.9344 98.8917 17.4741 99.5426 17.8528C100.193 18.2316 100.892 18.4209 101.639 18.4209Z" fill="black"/>
<path d="M124.043 21.2896C122.339 21.2896 120.807 20.7972 119.448 19.8125C118.089 18.8279 117.15 17.4456 116.634 15.6656L119.678 14.4443C119.984 15.5614 120.52 16.4799 121.286 17.1994C122.071 17.9 123.009 18.2504 124.1 18.2504C125.115 18.2504 125.977 17.9947 126.685 17.4835C127.393 16.9532 127.747 16.2337 127.747 15.3248C127.747 14.4916 127.432 13.8099 126.8 13.2797C126.187 12.7306 125.106 12.1814 123.555 11.6322L122.262 11.1778C120.884 10.7044 119.726 10.0227 118.788 9.13271C117.849 8.24272 117.38 7.06871 117.38 5.61065C117.38 4.60704 117.658 3.67919 118.213 2.82708C118.769 1.97492 119.534 1.30271 120.511 0.810385C121.506 0.299099 122.626 0.043457 123.871 0.043457C125.67 0.043457 127.106 0.478992 128.178 1.35006C129.25 2.20217 129.969 3.1679 130.332 4.24726L127.432 5.46863C127.221 4.82481 126.819 4.25674 126.225 3.76437C125.632 3.27204 124.866 3.02589 123.928 3.02589C122.99 3.02589 122.195 3.26256 121.545 3.73597C120.913 4.20939 120.597 4.81533 120.597 5.55381C120.597 6.25447 120.884 6.83203 121.458 7.28647C122.033 7.74092 122.932 8.17646 124.158 8.59303L125.45 9.01908C127.212 9.62503 128.571 10.4204 129.528 11.405C130.505 12.3708 130.992 13.6678 130.992 15.2964C130.992 16.6219 130.648 17.7391 129.959 18.648C129.27 19.538 128.389 20.2008 127.317 20.6363C126.264 21.0718 125.173 21.2896 124.043 21.2896Z" fill="black"/>
<path d="M140.592 21.2897C139.194 21.2897 137.931 20.9678 136.801 20.324C135.69 19.6801 134.819 18.7902 134.187 17.654C133.556 16.4989 133.24 15.2113 133.24 13.7911C133.24 12.4277 133.537 11.1779 134.13 10.0418C134.743 8.88668 135.595 7.97778 136.686 7.315C137.777 6.6333 139.022 6.29248 140.42 6.29248C141.856 6.29248 143.1 6.60491 144.153 7.22977C145.225 7.85468 146.039 8.72575 146.594 9.84293C147.149 10.9412 147.427 12.2099 147.427 13.6491C147.427 13.8195 147.417 13.9899 147.398 14.1604C147.379 14.3308 147.369 14.4254 147.369 14.4444H136.399C136.495 15.732 136.964 16.7262 137.806 17.4268C138.649 18.1274 139.606 18.4777 140.678 18.4777C142.324 18.4777 143.588 17.7203 144.469 16.2054L147.168 17.4836C146.536 18.6387 145.656 19.5665 144.526 20.2672C143.416 20.9489 142.104 21.2897 140.592 21.2897ZM144.21 12.0584C144.172 11.604 144.019 11.1401 143.751 10.6666C143.483 10.1933 143.062 9.79562 142.487 9.47371C141.932 9.13284 141.233 8.96243 140.391 8.96243C139.453 8.96243 138.639 9.24646 137.95 9.81453C137.28 10.3826 136.82 11.1306 136.571 12.0584H144.21Z" fill="black"/>
<path d="M154.847 21.2897C153.832 21.2897 152.913 21.0909 152.09 20.6932C151.286 20.2767 150.645 19.7085 150.166 18.989C149.707 18.2505 149.477 17.4173 149.477 16.4894C149.477 15.0125 150.032 13.8479 151.143 12.9958C152.272 12.1437 153.698 11.7176 155.422 11.7176C156.934 11.7176 158.226 11.9732 159.299 12.4845V11.888C159.299 11.0359 158.954 10.3353 158.264 9.78614C157.594 9.21807 156.781 8.93403 155.823 8.93403C154.368 8.93403 153.201 9.52101 152.32 10.6951L149.908 9.04766C150.578 8.15762 151.411 7.47598 152.406 7.00257C153.421 6.52916 154.56 6.29248 155.823 6.29248C157.91 6.29248 159.519 6.81319 160.648 7.85468C161.797 8.87719 162.371 10.3258 162.371 12.2004V20.8352H159.299V19.1026H159.126C158.667 19.7464 158.083 20.2767 157.374 20.6932C156.666 21.0909 155.823 21.2897 154.847 21.2897ZM155.364 18.7049C156.072 18.7049 156.723 18.5345 157.317 18.1937C157.929 17.8339 158.408 17.37 158.753 16.8019C159.116 16.2149 159.299 15.59 159.299 14.9272C158.284 14.3781 157.202 14.1035 156.053 14.1035C155 14.1035 154.177 14.3308 153.584 14.7852C152.99 15.2397 152.693 15.8172 152.693 16.5179C152.693 17.1617 152.952 17.6919 153.469 18.1085C154.005 18.5061 154.636 18.7049 155.364 18.7049Z" fill="black"/>
<path d="M165.706 6.74685H168.693V8.84873H168.865C169.171 8.12916 169.727 7.53269 170.531 7.05928C171.335 6.56696 172.158 6.3208 173.001 6.3208C173.69 6.3208 174.255 6.41546 174.695 6.60484V9.8713C174.044 9.54939 173.316 9.38841 172.512 9.38841C171.478 9.38841 170.607 9.78607 169.899 10.5814C169.21 11.3577 168.865 12.314 168.865 13.4501V20.8352H165.706V6.74685Z" fill="black"/>
<path d="M182.744 21.2897C181.328 21.2897 180.054 20.9678 178.925 20.324C177.795 19.6801 176.915 18.7902 176.283 17.654C175.651 16.4989 175.335 15.2113 175.335 13.7911C175.335 12.3519 175.651 11.0643 176.283 9.92816C176.915 8.79202 177.795 7.90203 178.925 7.25821C180.054 6.61439 181.328 6.29248 182.744 6.29248C184.314 6.29248 185.645 6.66169 186.736 7.40023C187.846 8.1198 188.651 9.07605 189.148 10.269L186.248 11.462C185.559 9.92816 184.353 9.16123 182.63 9.16123C181.902 9.16123 181.222 9.36009 180.59 9.75775C179.959 10.1364 179.451 10.6761 179.068 11.3767C178.686 12.0774 178.494 12.8821 178.494 13.7911C178.494 14.7 178.686 15.5048 179.068 16.2054C179.451 16.906 179.959 17.4552 180.59 17.8528C181.222 18.2316 181.902 18.4209 182.63 18.4209C183.51 18.4209 184.276 18.2221 184.927 17.8244C185.578 17.4079 186.075 16.8208 186.42 16.0634L189.264 17.2847C188.708 18.4777 187.875 19.4435 186.765 20.1819C185.655 20.9205 184.314 21.2897 182.744 21.2897Z" fill="black"/>
<path d="M191.845 0.498047H195.004V6.40601L194.832 8.62156H195.004C195.406 7.93987 196.009 7.38122 196.813 6.94569C197.617 6.51021 198.488 6.29244 199.426 6.29244C201.226 6.29244 202.576 6.81315 203.476 7.85464C204.375 8.87715 204.826 10.2784 204.826 12.0584V20.8352H201.666V12.4844C201.666 11.3673 201.389 10.5341 200.834 9.9849C200.279 9.43579 199.541 9.16119 198.622 9.16119C197.914 9.16119 197.282 9.36005 196.727 9.75771C196.191 10.1554 195.77 10.6856 195.463 11.3483C195.157 12.0111 195.004 12.7117 195.004 13.4502V20.8352H191.845V0.498047Z" fill="black"/>
<path d="M117.239 33.0269H118.659L120.531 39.187H120.547L122.58 33.0269H124L126.034 39.187H126.049L127.922 33.0269H129.293L126.695 40.9426H125.323L123.258 34.6704L121.209 40.9426H119.837L117.239 33.0269Z" fill="black"/>
<path d="M131.194 31.3669C130.925 31.3669 130.693 31.2715 130.5 31.0797C130.306 30.8885 130.209 30.6597 130.209 30.3935C130.209 30.1275 130.306 29.8987 130.5 29.7072C130.693 29.5157 130.925 29.4199 131.194 29.4199C131.462 29.4199 131.693 29.5157 131.888 29.7072C132.081 29.8987 132.178 30.1275 132.178 30.3935C132.178 30.6597 132.081 30.8885 131.888 31.0797C131.704 31.2715 131.473 31.3669 131.194 31.3669ZM130.516 33.027H131.871V40.9428H130.516V33.027Z" fill="black"/>
<path d="M136.998 41.0703C136.676 41.0703 136.374 41.0172 136.094 40.9112C135.826 40.8046 135.594 40.661 135.4 40.4799C135.186 40.2779 135.024 40.0438 134.917 39.7776C134.82 39.5012 134.771 39.1765 134.771 38.8042V34.256H133.352V33.0271H134.771V30.6646H136.127V33.0271H138.095V34.256H136.127V38.4688C136.127 38.9162 136.218 39.2456 136.401 39.4588C136.584 39.6924 136.864 39.8097 137.24 39.8097C137.574 39.8097 137.864 39.7353 138.112 39.5863V40.8951C137.939 40.9588 137.772 41.0012 137.611 41.0226C137.461 41.0547 137.256 41.0703 136.998 41.0703Z" fill="black"/>
<path d="M139.779 29.5156H141.151V33.0907L141.086 34.2238H141.151C141.376 33.8086 141.726 33.463 142.2 33.1866C142.684 32.9096 143.206 32.7714 143.765 32.7714C144.765 32.7714 145.518 33.0586 146.024 33.6334C146.53 34.2077 146.782 34.9738 146.782 35.9316V40.9427H145.427V36.1389C145.427 35.405 145.244 34.8677 144.878 34.527C144.523 34.1761 144.045 34.0004 143.442 34.0004C143.011 34.0004 142.619 34.1279 142.264 34.3834C141.92 34.6282 141.646 34.9577 141.441 35.3729C141.247 35.7773 141.151 36.1973 141.151 36.6334V40.9427H139.779V29.5156Z" fill="black"/>
<path d="M158.303 41.2091C154.641 41.2091 151.57 38.2643 151.57 34.6434C151.57 31.022 154.648 28.0771 158.303 28.0771C160.327 28.0771 161.765 28.8592 162.856 29.8878L161.573 31.1559C160.796 30.4372 159.742 29.8737 158.303 29.8737C155.631 29.8737 153.544 32.0013 153.544 34.6434C153.544 37.285 155.631 39.4129 158.303 39.4129C160.034 39.4129 161.025 38.7223 161.659 38.1025C162.179 37.5882 162.514 36.8554 162.649 35.8477H158.31V34.0514H164.416C164.48 34.3686 164.516 34.7559 164.516 35.1716C164.516 36.5173 164.145 38.1796 162.948 39.3636C161.78 40.5609 160.291 41.2021 158.317 41.2021L158.303 41.2091Z" fill="black"/>
<path d="M173.952 36.9822C173.952 39.4127 172.057 41.2095 169.741 41.2095C167.425 41.2095 165.53 39.4127 165.53 36.9822C165.53 34.5516 167.425 32.7554 169.741 32.7554C172.057 32.7554 173.952 34.5307 173.952 36.9822ZM172.106 36.9822C172.106 35.4607 171.009 34.4182 169.741 34.4182C168.473 34.4182 167.376 35.4607 167.376 36.9822C167.376 38.5041 168.473 39.5466 169.741 39.5466C171.009 39.5466 172.106 38.4902 172.106 36.9822Z" fill="black"/>
<path d="M183.396 36.9822C183.396 39.4127 181.501 41.2095 179.186 41.2095C176.871 41.2095 174.976 39.4127 174.976 36.9822C174.976 34.5516 176.871 32.7554 179.186 32.7554C181.501 32.7554 183.396 34.5307 183.396 36.9822ZM181.551 36.9822C181.551 35.4607 180.454 34.4182 179.179 34.4182C177.904 34.4182 176.814 35.4607 176.814 36.9822C176.814 38.5041 177.911 39.5466 179.179 39.5466C180.447 39.5466 181.551 38.4902 181.551 36.9822Z" fill="black"/>
<path d="M192.601 33.0088V40.5966C192.601 43.7172 190.742 44.9997 188.54 44.9997C186.467 44.9997 185.22 43.6261 184.75 42.4984L186.388 41.8293C186.681 42.5198 187.393 43.3368 188.54 43.3368C189.951 43.3368 190.827 42.4706 190.827 40.857V40.2511H190.763C190.343 40.7654 189.53 41.2095 188.512 41.2095C186.374 41.2095 184.415 39.3704 184.415 36.9966C184.415 34.6223 186.374 32.7554 188.512 32.7554C189.53 32.7554 190.343 33.2064 190.763 33.6993H190.827V33.0088H192.609H192.601ZM190.948 36.9966C190.948 35.51 189.944 34.4182 188.668 34.4182C187.393 34.4182 186.289 35.51 186.289 36.9966C186.289 38.4827 187.372 39.5397 188.668 39.5397C189.965 39.5397 190.948 38.4688 190.948 36.9966Z" fill="black"/>
<path d="M195.893 28.5283V40.9487H194.012V28.5283H195.893Z" fill="black"/>
<path d="M203.279 38.3703L204.739 39.3287C204.269 40.0193 203.136 41.2026 201.177 41.2026C198.748 41.2026 196.995 39.3426 196.995 36.9759C196.995 34.4607 198.762 32.7485 200.971 32.7485C203.179 32.7485 204.276 34.4955 204.632 35.44L204.825 35.9189L199.111 38.2578C199.545 39.1032 200.229 39.5398 201.184 39.5398C202.139 39.5398 202.801 39.0748 203.286 38.3703H203.279ZM198.79 36.8489L202.609 35.2776C202.395 34.7494 201.768 34.383 201.02 34.383C200.066 34.383 198.741 35.2144 198.783 36.8489H198.79Z" fill="black"/>
</g>
<defs>
<clipPath id="clip0_2914_3186">
<rect width="205" height="45" fill="white"/>
</clipPath>
</defs>
</svg>
