<svg width="365" height="68" viewBox="0 0 365 68" fill="none" xmlns="http://www.w3.org/2000/svg">
<path d="M25.5813 50.495C40.3631 50.495 49.6777 39.1168 49.6777 25.8535V22.2178H24.0964V30.9703H39.8231C38.0007 37.4337 33.0735 41.6079 25.5813 41.6079C15.9968 41.6079 9.11207 34.3366 9.11207 25.2475C9.11207 16.3604 16.0643 8.88713 25.2438 8.88713C31.656 8.88713 36.3808 11.7148 39.4857 17.4376L47.5853 12.5901C43.4005 5.18415 35.3683 0 25.1763 0C10.597 0 0 11.2436 0 25.2475C0 38.9148 10.192 50.495 25.5813 50.495Z" fill="black"/>
<path d="M72.6292 50.6297C77.8265 50.6297 82.5513 48.4079 85.4536 44.7049V49.8218H94.5657V10.4356H85.4536V15.1485C82.5513 11.7148 77.9615 9.62772 72.7642 9.62772C62.7747 9.62772 53.1902 17.101 53.1902 30.1624C53.1902 43.0891 63.1122 50.6297 72.6292 50.6297ZM74.1142 42.2812C67.3645 42.2812 62.1672 36.895 62.1672 30.0277C62.1672 23.2277 67.3645 17.9089 74.1142 17.9089C80.9314 17.9089 85.9261 23.295 85.9261 30.0277C85.9261 36.8277 80.9314 42.2812 74.1142 42.2812Z" fill="black"/>
<path d="M99.7561 49.8218H108.936V0H99.7561V49.8218Z" fill="black"/>
<path d="M132.348 50.6297C137.545 50.6297 142.27 48.4079 145.173 44.7049V49.8218H154.285V10.4356H145.173V15.1485C142.27 11.7148 137.68 9.62772 132.483 9.62772C122.494 9.62772 112.909 17.101 112.909 30.1624C112.909 43.0891 122.831 50.6297 132.348 50.6297ZM133.833 42.2812C127.083 42.2812 121.886 36.895 121.886 30.0277C121.886 23.2277 127.083 17.9089 133.833 17.9089C140.65 17.9089 145.645 23.295 145.645 30.0277C145.645 36.8277 140.65 42.2812 133.833 42.2812Z" fill="black"/>
<path d="M156.521 49.8218H167.658L177.04 36.6931L186.692 49.8218H197.829L182.71 29.8931L196.884 10.4356H186.085L177.175 22.9584L168.198 10.4356H157.061L171.37 29.7584L156.521 49.8218Z" fill="black"/>
<path d="M205.946 68H215.193L238.75 10.4356H229.165L218.77 36.9624L207.768 10.4356H198.049L214.248 47.8693L205.946 68Z" fill="black"/>
<path d="M348.858 38.8965H327.718V30.4645L348.385 0.680466H357.773V30.4645H365V38.8965H357.773V50.3205H348.858V38.8965ZM348.858 30.4645V14.4845L337.646 30.4645H348.858Z" fill="black"/>
<path d="M291.575 41.6165C291.575 39.4858 291.958 37.5591 292.723 35.8365C293.489 34.1138 294.479 32.5498 295.695 31.1445C296.956 29.6938 298.351 28.3791 299.882 27.2005C301.458 26.0218 303.012 24.9111 304.543 23.8685C305.758 23.0071 306.929 22.1911 308.055 21.4205C309.18 20.6045 310.171 19.8111 311.026 19.0405C311.882 18.2245 312.557 17.4085 313.053 16.5925C313.593 15.7311 313.863 14.8245 313.863 13.8725C313.863 12.2405 313.278 10.8578 312.107 9.72447C310.981 8.5458 309.315 7.95646 307.109 7.95646C304.948 7.95646 303.169 8.6138 301.773 9.92846C300.423 11.2431 299.32 12.9431 298.464 15.0285L290.562 11.0165C292.093 7.61646 294.232 4.9418 296.978 2.99246C299.77 0.997798 303.169 0.000467261 307.177 0.000467261C309.653 0.000467261 311.882 0.363133 313.863 1.08846C315.844 1.8138 317.533 2.81113 318.929 4.08047C320.325 5.30446 321.383 6.7778 322.103 8.50047C322.824 10.1778 323.184 11.9911 323.184 13.9405C323.184 15.9351 322.824 17.7031 322.103 19.2445C321.383 20.7858 320.437 22.2138 319.266 23.5285C318.096 24.7978 316.767 25.9765 315.282 27.0645C313.841 28.1525 312.377 29.1951 310.891 30.1925C309.586 31.0538 308.325 31.9151 307.109 32.7765C305.938 33.5925 304.88 34.4538 303.935 35.3605C302.989 36.2671 302.224 37.2191 301.638 38.2165C301.053 39.2138 300.76 40.3018 300.76 41.4805H322.981V50.3205H291.575V41.6165Z" fill="black"/>
<path d="M270.538 51.0005C266.08 51.0005 262.298 50.1618 259.191 48.4845C256.129 46.7618 253.495 44.6311 251.289 42.0925L259.664 35.4285C260.925 37.6045 262.478 39.2818 264.324 40.4605C266.17 41.5938 268.219 42.1605 270.47 42.1605C271.686 42.1605 272.744 41.9791 273.645 41.6165C274.59 41.2538 275.378 40.7778 276.009 40.1885C276.684 39.5538 277.179 38.8285 277.494 38.0125C277.81 37.1965 277.967 36.3578 277.967 35.4965C277.967 34.4538 277.675 33.5698 277.089 32.8445C276.504 32.1191 275.738 31.5071 274.793 31.0085C273.847 30.4645 272.744 29.9885 271.483 29.5805C270.268 29.1725 269.007 28.7645 267.701 28.3565C266.035 27.8125 264.369 27.2231 262.703 26.5885C261.037 25.9538 259.529 25.1151 258.178 24.0725C256.872 22.9845 255.792 21.6698 254.936 20.1285C254.126 18.5418 253.72 16.5698 253.72 14.2125C253.72 12.2178 254.126 10.3591 254.936 8.63646C255.747 6.9138 256.872 5.4178 258.313 4.14847C259.799 2.8338 261.532 1.8138 263.514 1.08846C265.495 0.363133 267.679 0.000467261 270.065 0.000467261C272.046 0.000467261 273.825 0.181799 275.401 0.544464C277.022 0.907131 278.485 1.4058 279.791 2.04046C281.142 2.67513 282.357 3.4458 283.438 4.35246C284.564 5.2138 285.622 6.1658 286.612 7.20847L279.048 12.9885C276.932 9.81513 273.96 8.22847 270.133 8.22847C267.881 8.22847 266.17 8.77246 265 9.86046C263.829 10.9485 263.243 12.2858 263.243 13.8725C263.243 14.8698 263.514 15.7085 264.054 16.3885C264.594 17.0685 265.315 17.6805 266.215 18.2245C267.161 18.7231 268.241 19.1765 269.457 19.5845C270.673 19.9925 271.956 20.4231 273.307 20.8765C274.973 21.4205 276.639 22.0551 278.305 22.7805C280.016 23.4605 281.547 24.3671 282.898 25.5005C284.293 26.5885 285.419 27.9485 286.275 29.5805C287.13 31.2125 287.558 33.2071 287.558 35.5645C287.558 37.5138 287.175 39.4178 286.41 41.2765C285.644 43.1351 284.541 44.7898 283.1 46.2405C281.659 47.6458 279.881 48.8018 277.765 49.7085C275.648 50.5698 273.239 51.0005 270.538 51.0005Z" fill="black"/>
</svg>
