<svg width="80" height="80" viewBox="0 0 80 80" fill="none" xmlns="http://www.w3.org/2000/svg">
<g clip-path="url(#clip0_2914_5267)">
<path d="M3 10C3 6.13401 6.13401 3 10 3H80V0H10C4.47715 0 0 4.47715 0 10V80H3V10Z" fill="black"/>
<path d="M27 16C27 21.5228 22.5228 26 17 26C11.4772 26 7 21.5228 7 16C7 10.4772 11.4772 6 17 6C22.5228 6 27 10.4772 27 16Z" fill="black"/>
<path d="M27 43C27 48.5228 22.5228 53 17 53C11.4772 53 7 48.5228 7 43C7 37.4772 11.4772 33 17 33C22.5228 33 27 37.4772 27 43Z" fill="black"/>
<path d="M27 70C27 75.5228 22.5228 80 17 80C11.4772 80 7 75.5228 7 70C7 64.4772 11.4772 60 17 60C22.5228 60 27 64.4772 27 70Z" fill="black"/>
<path fill-rule="evenodd" clip-rule="evenodd" d="M40.5 32C41.8807 32 43 30.8807 43 29.5C43 28.1193 41.8807 27 40.5 27C39.1193 27 38 28.1193 38 29.5C38 30.8807 39.1193 32 40.5 32ZM40.5 33C42.433 33 44 31.433 44 29.5C44 27.567 42.433 26 40.5 26C38.567 26 37 27.567 37 29.5C37 31.433 38.567 33 40.5 33Z" fill="black"/>
</g>
<defs>
<clipPath id="clip0_2914_5267">
<rect width="80" height="80" fill="white"/>
</clipPath>
</defs>
</svg>
