<svg width="80" height="80" viewBox="0 0 80 80" fill="none" xmlns="http://www.w3.org/2000/svg">
<path fill-rule="evenodd" clip-rule="evenodd" d="M55 3H24C22.3431 3 21 4.34315 21 6V74C21 75.6569 22.3431 77 24 77H55C56.6569 77 58 75.6569 58 74V6C58 4.34315 56.6569 3 55 3ZM24 0C20.6863 0 18 2.68629 18 6V74C18 77.3137 20.6863 80 24 80H55C58.3137 80 61 77.3137 61 74V6C61 2.68629 58.3137 0 55 0H24Z" fill="black"/>
<path fill-rule="evenodd" clip-rule="evenodd" d="M25.8322 54.7783C25.2799 54.7783 24.8322 54.3306 24.8322 53.7783L24.8322 44.7783C24.8322 44.226 25.2799 43.7783 25.8322 43.7783C26.3845 43.7783 26.8322 44.226 26.8322 44.7783L26.8322 51.3641L50.1879 28.0084L43.6021 28.0084C43.0498 28.0084 42.6021 27.5607 42.6021 27.0084C42.6021 26.4561 43.0498 26.0084 43.6021 26.0084L52.6021 26.0084C53.1544 26.0084 53.6021 26.4561 53.6021 27.0084L53.6021 36.0084C53.6021 36.5607 53.1544 37.0084 52.6021 37.0084C52.0498 37.0084 51.6021 36.5607 51.6021 36.0084L51.6021 29.4226L28.2464 52.7783L34.8322 52.7783C35.3845 52.7783 35.8322 53.226 35.8322 53.7783C35.8322 54.3306 35.3845 54.7783 34.8322 54.7783L25.8322 54.7783Z" fill="black"/>
</svg>
