<svg width="212" height="67" viewBox="0 0 212 67" fill="none" xmlns="http://www.w3.org/2000/svg">
<g clip-path="url(#clip0_3248_3640)">
<path d="M91.1561 26.3806V13.9284H98.9947V7.87256H91.1561V0H85.0679V26.3806C85.0679 28.037 85.3961 29.6772 86.0339 31.2073C86.6716 32.7375 87.6063 34.1276 88.7845 35.2981C89.9628 36.4687 91.3614 37.3967 92.9005 38.0293C94.4396 38.6618 96.089 38.9863 97.7542 38.9843H99.0404V32.9285H97.7542C96.0082 32.9245 94.3345 32.2338 93.0984 31.0072C91.8624 29.7805 91.1641 28.1174 91.1561 26.3806Z" fill="#001428"/>
<path d="M40.1367 10.2569C38.871 9.18077 37.4046 8.36313 35.8212 7.85071C34.2378 7.33828 32.5684 7.14111 30.9084 7.27045C29.2484 7.39979 27.6302 7.8531 26.1463 8.60451C24.6625 9.35592 23.3419 10.3907 22.2601 11.6498C20.5816 9.6914 18.3394 8.29249 15.8362 7.64194C13.333 6.99139 10.6894 7.12052 8.26229 8.0119C5.83521 8.90328 3.74157 10.514 2.26404 12.6265C0.786515 14.739 -0.00372595 17.2517 1.32082e-05 19.8251V38.9842H6.08825V19.6434C6.16514 17.9398 6.90571 16.3328 8.1531 15.1628C9.4005 13.9929 11.0568 13.3518 12.7711 13.3754C14.4854 13.399 16.1232 14.0855 17.3376 15.2893C18.5519 16.4932 19.2475 18.12 19.2769 19.8251V38.9842H25.3651V19.8251C25.4232 18.1241 26.1434 16.512 27.3738 15.3291C28.6041 14.1462 30.2483 13.485 31.9594 13.485C33.6706 13.485 35.3148 14.1462 36.5451 15.3291C37.7755 16.512 38.4957 18.1241 38.5538 19.8251V38.9842H44.642V19.8251C44.6329 18.0008 44.2253 16.2002 43.4474 14.5481C42.6695 12.896 41.5398 11.4318 40.1367 10.2569Z" fill="#001428"/>
<path d="M64.8852 7.31991C61.6799 7.30942 58.5436 8.24525 55.8734 10.0089C53.2032 11.7725 51.1192 14.2846 49.8853 17.2271C48.6514 20.1696 48.3231 23.4102 48.9419 26.5384C49.5608 29.6666 51.099 32.5418 53.3617 34.7999C55.6244 37.058 58.5099 38.5975 61.6528 39.2233C64.7958 39.8492 68.0547 39.5333 71.017 38.3157C73.9793 37.098 76.5117 35.0334 78.2936 32.3832C80.0754 29.7331 81.0266 26.6166 81.0266 23.4284C81.0206 19.1671 79.3198 15.0814 76.2955 12.0633C73.2712 9.04514 69.1692 7.3399 64.8852 7.31991ZM64.8852 33.5037C62.8815 33.5052 60.9223 32.9156 59.2556 31.8094C57.5888 30.7032 56.2893 29.1302 55.5215 27.2893C54.7537 25.4484 54.552 23.4223 54.942 21.4674C55.332 19.5125 56.2961 17.7165 57.7124 16.3067C59.1287 14.8969 60.9336 13.9365 62.8987 13.5472C64.8638 13.1578 66.9008 13.3569 68.7521 14.1192C70.6035 14.8816 72.1859 16.173 73.2993 17.83C74.4126 19.4871 75.0069 21.4353 75.0069 23.4284C75.0079 24.7511 74.7468 26.0611 74.2386 27.2835C73.7304 28.5058 72.985 29.6166 72.045 30.5523C71.105 31.488 69.9889 32.2302 68.7604 32.7366C67.5318 33.2431 66.215 33.5037 64.8852 33.5037Z" fill="#001428"/>
<path d="M117.244 7.31983C114.039 7.31983 110.907 8.26521 108.242 10.0364C105.577 11.8076 103.501 14.325 102.275 17.2703C101.049 20.2155 100.728 23.4563 101.354 26.5827C101.98 29.7091 103.524 32.5807 105.79 34.8343C108.057 37.0879 110.945 38.6222 114.088 39.2431C117.232 39.8641 120.489 39.5439 123.45 38.323C126.41 37.102 128.94 35.0352 130.72 32.3839C132.499 29.7327 133.448 26.6161 133.447 23.4283C133.446 21.3119 133.026 19.2164 132.21 17.2615C131.395 15.3066 130.201 13.5306 128.696 12.0348C127.19 10.5389 125.404 9.35267 123.438 8.54369C121.472 7.7347 119.364 7.31883 117.237 7.31983H117.244ZM117.244 33.5036C115.241 33.5036 113.283 32.9127 111.617 31.8056C109.951 30.6985 108.653 29.125 107.886 27.284C107.119 25.4429 106.919 23.4171 107.31 21.4627C107.7 19.5083 108.665 17.713 110.082 16.3039C111.498 14.8949 113.303 13.9353 115.268 13.5465C117.233 13.1578 119.27 13.3573 121.121 14.1199C122.972 14.8824 124.553 16.1738 125.667 17.8307C126.78 19.4876 127.374 21.4356 127.374 23.4283C127.374 26.1004 126.306 28.6631 124.407 30.5526C122.507 32.4421 119.931 33.5036 117.244 33.5036Z" fill="#001428"/>
<path d="M178.362 13.391C176.295 10.7626 173.455 8.84128 170.238 7.89496C167.02 6.94863 163.586 7.02448 160.415 8.11192C157.243 9.19936 154.491 11.2442 152.543 13.9613C150.595 16.6785 149.548 19.9324 149.548 23.2696C149.548 26.6067 150.595 29.8607 152.543 32.5779C154.491 35.295 157.243 37.3398 160.415 38.4273C163.586 39.5147 167.02 39.5905 170.238 38.6442C173.455 37.6979 176.295 35.7766 178.362 33.1481C178.362 34.4199 178.362 35.684 178.362 36.933C178.362 46.0167 172.571 50.6721 164.413 50.6721C160.302 50.6777 156.266 49.5793 152.731 47.4928L151.14 50.4678C155.172 52.7252 159.725 53.8992 164.352 53.8742C174.466 53.8742 181.787 47.9092 181.787 37.1525V7.19141H178.37L178.362 13.391ZM165.668 35.8278C163.17 35.8278 160.727 35.0909 158.65 33.7101C156.572 32.3294 154.953 30.3668 153.997 28.0707C153.041 25.7746 152.791 23.2481 153.278 20.8106C153.766 18.373 154.969 16.134 156.736 14.3766C158.502 12.6193 160.753 11.4225 163.204 10.9377C165.654 10.4528 168.195 10.7016 170.503 11.6527C172.811 12.6038 174.784 14.2144 176.173 16.2808C177.561 18.3473 178.302 20.7767 178.302 23.262C178.302 24.9122 177.975 26.5462 177.34 28.0707C176.705 29.5953 175.775 30.9805 174.601 32.1474C173.428 33.3142 172.036 34.2398 170.503 34.8713C168.97 35.5028 167.327 35.8278 165.668 35.8278Z" fill="#001428"/>
<path d="M6.55987 56.5461C5.43336 56.5533 4.32287 56.812 3.31027 57.303L3.66796 52.0572H11.5294V50.3389H2.04696L1.57512 58.325L2.80799 59.1274C3.86302 58.5263 5.05492 58.2032 6.27067 58.1887C8.67553 58.1887 10.3726 59.5967 10.3726 61.633V61.6935C10.3726 63.7752 8.74402 65.327 6.39244 65.327C4.71817 65.327 3.14284 64.4565 1.7045 63.0561L0.524902 64.3959C1.28117 65.1898 2.18725 65.8277 3.19141 66.2732C4.19556 66.7187 5.2781 66.9631 6.37722 66.9924C9.80946 66.9924 12.26 64.8198 12.26 61.6102V61.5648C12.26 58.4461 9.7638 56.5461 6.55987 56.5461Z" fill="#001428"/>
<path d="M23.4475 59.6196H28.4626V63.6921C27.1058 64.7522 25.4315 65.3304 23.7062 65.3347C19.7032 65.3347 17.1842 62.4279 17.1842 58.5219V58.4765C17.1842 54.8203 19.8021 51.7546 23.4475 51.7546C24.3665 51.7238 25.2826 51.8738 26.1432 52.1959C27.0038 52.5181 27.792 53.0061 28.4626 53.6319L29.6651 52.2239C27.9821 50.7284 25.7782 49.9461 23.5236 50.0438C18.5769 50.0438 15.2588 54.0255 15.2588 58.5219V58.5749C15.2588 63.2531 18.4551 67.0001 23.6301 67.0001C26.0709 66.9986 28.4265 66.1071 30.2511 64.4945V57.9618H23.4475V59.6196Z" fill="#001428"/>
<path d="M192.548 18.2055C192.548 16.5628 193.537 15.4046 195.143 14.7234V14.6628C194.543 14.4355 194.025 14.0353 193.655 13.5135C193.284 12.9916 193.079 12.3718 193.065 11.7333C193.065 9.67433 194.808 8.27393 197.106 8.27393C199.641 8.27393 200.912 9.85601 200.912 11.4759C200.9 12.1374 200.688 12.7801 200.304 13.3202C199.92 13.8603 199.381 14.2728 198.758 14.5038V14.5644C200.394 15.2078 201.399 16.3509 201.399 17.9254C201.399 20.1963 199.443 21.7103 196.954 21.7103C194.199 21.7254 192.548 20.1055 192.548 18.2055ZM199.587 18.1222C199.587 16.5401 198.484 15.7831 196.711 15.2835C195.189 15.7226 194.359 16.7218 194.359 17.9632C194.347 18.3029 194.408 18.6413 194.537 18.956C194.666 19.2707 194.86 19.5547 195.108 19.7893C195.355 20.0238 195.649 20.2036 195.972 20.3168C196.294 20.43 196.636 20.4741 196.977 20.4461C198.568 20.4461 199.587 19.462 199.587 18.1222ZM194.724 11.6198C194.724 12.9218 195.706 13.6182 197.221 14.0194C197.765 13.8935 198.253 13.595 198.611 13.169C198.969 12.7429 199.178 12.2124 199.207 11.6576C199.222 11.368 199.175 11.0785 199.068 10.8088C198.961 10.5391 198.797 10.2954 198.587 10.0943C198.377 9.89329 198.125 9.73955 197.85 9.64357C197.575 9.54758 197.283 9.5116 196.992 9.53808C196.703 9.51156 196.411 9.54585 196.135 9.63872C195.859 9.7316 195.607 9.88099 195.393 10.0772C195.179 10.2735 195.009 10.5122 194.894 10.7779C194.779 11.0436 194.721 11.3304 194.724 11.6198Z" fill="#001428"/>
<path d="M208.499 21.5056V17.9629H202.411V16.8048L208.241 8.47803H210.158V16.5853H211.985V17.9629H210.158V21.5056H208.499ZM208.499 16.5853V12.2402C208.499 11.5589 208.499 10.8776 208.56 10.2039H208.499C208.096 10.9609 207.776 11.5211 207.411 12.1191L204.215 16.5398V16.5853H208.499Z" fill="#001428"/>
</g>
<defs>
<clipPath id="clip0_3248_3640">
<rect width="212" height="67" fill="white"/>
</clipPath>
</defs>
</svg>
