<svg width="140" height="140" viewBox="0 0 140 140" fill="none" xmlns="http://www.w3.org/2000/svg">
<path d="M99.0829 48.3437H80.3606C80.3057 48.3433 80.2521 48.3266 80.2068 48.2959C80.1614 48.2652 80.1263 48.2217 80.1059 48.1711C80.0855 48.1205 80.0807 48.065 80.0922 48.0116C80.1037 47.9583 80.1309 47.9096 80.1704 47.8717L82.5042 45.546L94.1733 33.9605C94.3152 33.8206 94.412 33.6421 94.4517 33.4475C94.4914 33.2529 94.4721 33.051 94.3963 32.8673C94.3204 32.6836 94.1914 32.5264 94.0256 32.4155C93.8597 32.3046 93.6645 32.2449 93.4645 32.2442H80.2655V28.7513C80.2655 26.6452 79.4234 24.6252 77.9242 23.1351C76.425 21.6451 74.3914 20.8068 72.27 20.8046H68.4668C68.4276 20.805 68.389 20.7957 68.3544 20.7775C68.3198 20.7593 68.2904 20.7327 68.2688 20.7002C68.2473 20.6677 68.2344 20.6304 68.2312 20.5916C68.228 20.5529 68.2347 20.5139 68.2507 20.4784C68.6187 19.5698 68.8094 18.6 68.8125 17.6207V17.3804C68.8102 15.4222 68.0251 13.545 66.6297 12.1611C65.2342 10.7773 63.3426 10 61.3703 10H44.8953C42.9237 10 41.033 10.7776 39.6389 12.1617C38.2448 13.5458 37.4616 15.423 37.4616 17.3804V17.6207C37.46 18.6005 37.6508 19.5712 38.0235 20.4784C38.0374 20.5147 38.0423 20.5538 38.0378 20.5924C38.0332 20.631 38.0192 20.6679 37.9971 20.7C37.9751 20.732 37.9455 20.7583 37.9109 20.7765C37.8763 20.7947 37.8379 20.8043 37.7987 20.8046H33.9955C31.8749 20.8046 29.8413 21.6409 28.3418 23.1296C26.8424 24.6183 26 26.6374 26 28.7428V122.053C26 124.159 26.8421 126.179 28.3413 127.669C29.8405 129.159 31.8741 129.998 33.9955 130H72.27C74.3914 129.998 76.425 129.159 77.9242 127.669C79.4234 126.179 80.2655 124.159 80.2655 122.053V69.2233L82.5042 67.0006L99.7312 49.897C99.8595 49.7698 99.9469 49.6076 99.9824 49.4311C100.018 49.2545 99.9996 49.0715 99.9302 48.9052C99.8608 48.7388 99.7432 48.5967 99.5924 48.4968C99.4416 48.3968 99.2643 48.3435 99.0829 48.3437ZM44.8953 14.7801H61.3703C62.058 14.7801 62.7176 15.0513 63.2039 15.5342C63.6902 16.017 63.9634 16.6718 63.9634 17.3546C63.9703 18.1916 63.6432 18.9972 63.0537 19.5954C62.4641 20.1936 61.66 20.5358 60.8171 20.5471H45.4571C44.6112 20.5471 43.7999 20.2135 43.2017 19.6196C42.6036 19.0257 42.2675 18.2203 42.2675 17.3804C42.2641 17.0372 42.3297 16.6968 42.4606 16.3792C42.5916 16.0616 42.7851 15.7732 43.0299 15.5309C43.2748 15.2887 43.5659 15.0974 43.8862 14.9685C44.2066 14.8396 44.5496 14.7755 44.8953 14.7801ZM75.4596 122.053C75.4596 122.893 75.1235 123.699 74.5254 124.292C73.9272 124.886 73.1159 125.22 72.27 125.22H33.9955C33.1496 125.22 32.3383 124.886 31.7401 124.292C31.142 123.699 30.8059 122.893 30.8059 122.053V28.7513C30.8082 27.913 31.1453 27.1097 31.7432 26.5177C32.3411 25.9257 33.151 25.5932 33.9955 25.5932H72.27C73.1145 25.5932 73.9244 25.9257 74.5223 26.5177C75.1202 27.1097 75.4573 27.913 75.4596 28.7513V32.2527H61.2492C60.9082 32.2506 60.5772 32.367 60.3136 32.5817C60.05 32.7965 59.8703 33.096 59.8057 33.4285L53.8848 62.8213C53.8395 63.0285 53.8416 63.2431 53.891 63.4493C53.9404 63.6556 54.0359 63.8482 54.1703 64.0129C54.3047 64.1777 54.4746 64.3103 54.6675 64.4012C54.8605 64.492 55.0715 64.5386 55.285 64.5376H63.8164C63.8587 64.5376 63.9003 64.5472 63.9383 64.5657C63.9762 64.5841 64.0093 64.6109 64.0352 64.644C64.0611 64.6772 64.0789 64.7158 64.0875 64.7568C64.096 64.7979 64.0949 64.8403 64.0844 64.8809L57.8436 89.6739C57.8058 89.8217 57.818 89.9777 57.8782 90.1179C57.9385 90.2582 58.0436 90.3748 58.1772 90.4499C58.3109 90.5251 58.4657 90.5545 58.6178 90.5336C58.7699 90.5128 58.911 90.4429 59.0191 90.3347L75.4423 74.0292L75.4596 122.053ZM86.8261 55.0204L82.5042 59.3113L77.6983 64.0828L68.0432 73.6687C68.0006 73.7138 67.9439 73.7432 67.8824 73.7523C67.8208 73.7614 67.758 73.7496 67.704 73.7188C67.65 73.688 67.6081 73.6401 67.5849 73.5828C67.5618 73.5254 67.5588 73.462 67.5765 73.4027L71.1031 59.4229C71.1137 59.3823 71.1147 59.3398 71.1062 59.2988C71.0977 59.2577 71.0798 59.2191 71.0539 59.186C71.0281 59.1529 70.9949 59.126 70.957 59.1076C70.9191 59.0892 70.8774 59.0796 70.8352 59.0796H61.0591C60.9581 59.0801 60.8582 59.0585 60.7667 59.0161C60.6752 58.9737 60.5943 58.9117 60.5298 58.8346C60.4653 58.7574 60.4189 58.667 60.3938 58.5699C60.3687 58.4728 60.3657 58.3713 60.3849 58.2729L64.3178 38.732C64.3761 38.4382 64.5357 38.1738 64.7692 37.9843C65.0027 37.7948 65.2955 37.692 65.597 37.6936H80.7409C80.8987 37.6945 81.0528 37.7415 81.1839 37.8287C81.315 37.9159 81.4174 38.0395 81.4782 38.1841C81.5391 38.3287 81.5557 38.4879 81.526 38.6418C81.4963 38.7957 81.4217 38.9375 81.3114 39.0496L77.6983 42.6368L67.758 52.5059C67.6511 52.6103 67.5781 52.7441 67.5484 52.89C67.5187 53.036 67.5336 53.1874 67.5912 53.3249C67.6488 53.4623 67.7465 53.5795 67.8717 53.6615C67.9969 53.7434 68.1439 53.7863 68.2939 53.7846H86.3075C86.4508 53.7866 86.5904 53.8301 86.7091 53.9099C86.8278 53.9896 86.9204 54.1021 86.9755 54.2334C87.0306 54.3648 87.0458 54.5093 87.0193 54.6491C86.9928 54.7889 86.9256 54.918 86.8261 55.0204Z" fill="white"/>
<path d="M40.3406 64H48.6626C51.775 64 51.7833 59 48.6626 59H40.3406C37.2198 59 37.2198 64 40.3406 64Z" fill="white"/>
<path d="M48.6626 73H40.3406C37.2198 73 37.2198 78 40.3406 78H48.6626C51.775 77.9742 51.7833 73 48.6626 73Z" fill="white"/>
<path d="M48.6436 86H40.3511C37.2163 86 37.2163 91 40.3511 91H48.7105C51.7701 91 51.7784 86 48.6436 86Z" fill="white"/>
<path d="M40.3406 51H48.6626C51.775 51 51.7833 46 48.6626 46H40.3406C37.2198 46 37.2198 51 40.3406 51Z" fill="white"/>
<path d="M40.3406 37H48.6626C51.775 37 51.7833 32 48.6626 32H40.3406C37.2198 32 37.2198 37 40.3406 37Z" fill="white"/>
<path d="M40.3687 105H65.6345C68.7843 105 68.7927 100 65.6345 100H40.3687C37.2104 100 37.2104 105 40.3687 105Z" fill="white"/>
<path d="M65.5663 114H39.4337C36.1931 114 36.1844 119 39.4337 119H65.5663C68.8069 119 68.8156 114 65.5663 114Z" fill="white"/>
<path d="M111.655 66.9375H103.531C103.507 66.9379 103.483 66.9311 103.463 66.918C103.442 66.905 103.427 66.8863 103.417 66.8643C103.408 66.8423 103.406 66.8181 103.41 66.7948C103.415 66.7715 103.427 66.7501 103.444 66.7335L104.458 65.7388L109.507 60.7313C109.57 60.6718 109.613 60.5951 109.631 60.5112C109.648 60.4272 109.64 60.34 109.606 60.2609C109.572 60.1819 109.515 60.1147 109.442 60.0681C109.368 60.0216 109.283 59.9979 109.195 60.0001H95.2339C95.0872 60.0011 94.9452 60.0514 94.8317 60.1427C94.7182 60.2339 94.6401 60.3607 94.6103 60.5017L92.0121 73.1183C91.9941 73.2062 91.9962 73.2969 92.0184 73.3838C92.0406 73.4708 92.0822 73.5518 92.1402 73.621C92.1983 73.6902 92.2713 73.7459 92.354 73.7839C92.4367 73.8219 92.527 73.8414 92.6183 73.8409H96.3252C96.3438 73.8414 96.362 73.8462 96.3784 73.8547C96.3948 73.8633 96.409 73.8754 96.4199 73.8902C96.4308 73.905 96.438 73.922 96.4412 73.94C96.4443 73.958 96.4431 73.9765 96.4378 73.9939L93.7356 84.6296C93.7192 84.693 93.7247 84.76 93.7511 84.8201C93.7775 84.8803 93.8233 84.9302 93.8815 84.9621C93.9397 84.9941 94.007 85.0063 94.073 84.9969C94.139 84.9875 94.2 84.957 94.2466 84.9101L102.344 76.961L104.432 74.9121L111.906 67.5667C111.952 67.514 111.983 67.4499 111.995 67.3815C112.006 67.313 111.999 67.2426 111.973 67.178C111.947 67.1133 111.904 67.0568 111.848 67.0144C111.792 66.9721 111.725 66.9455 111.655 66.9375Z" fill="white"/>
<path d="M113.745 42.1351H108.883C108.868 42.1364 108.854 42.1332 108.841 42.1259C108.829 42.1186 108.819 42.1076 108.813 42.0945C108.808 42.0814 108.806 42.0669 108.809 42.053C108.813 42.0391 108.82 42.0265 108.831 42.0172L109.439 41.4193L112.47 38.4383C112.509 38.403 112.535 38.3568 112.547 38.3059C112.558 38.2551 112.553 38.2021 112.532 38.1542C112.511 38.1063 112.476 38.0658 112.431 38.0383C112.387 38.0108 112.334 37.9975 112.281 38.0004H103.917C103.829 38.0021 103.744 38.0329 103.676 38.0879C103.607 38.1428 103.56 38.2188 103.541 38.3035L102.008 45.8824C101.997 45.9351 101.997 45.9897 102.01 46.0422C102.023 46.0947 102.047 46.1437 102.082 46.1857C102.116 46.2277 102.16 46.2615 102.209 46.2848C102.259 46.3081 102.313 46.3202 102.368 46.3203H104.585C104.596 46.3199 104.606 46.322 104.616 46.3264C104.626 46.3308 104.634 46.3373 104.641 46.3455C104.647 46.3537 104.652 46.3633 104.654 46.3735C104.656 46.3837 104.656 46.3943 104.654 46.4045L103.035 52.7876C103.03 52.8248 103.036 52.8629 103.053 52.8967C103.07 52.9305 103.097 52.9584 103.13 52.9767C103.164 52.995 103.202 53.0028 103.24 52.9991C103.278 52.9954 103.314 52.9804 103.344 52.956L108.189 48.1813L109.439 46.9518L113.908 42.5561C113.948 42.5251 113.977 42.4822 113.991 42.4337C114.005 42.3852 114.003 42.3337 113.984 42.2866C113.966 42.2396 113.933 42.1995 113.89 42.1722C113.847 42.1449 113.796 42.1319 113.745 42.1351Z" fill="white"/>
</svg>
