<svg width="140" height="140" viewBox="0 0 140 140" fill="none" xmlns="http://www.w3.org/2000/svg">
<path d="M95.0834 56.0081H76.4427C76.3882 56.0089 76.3347 55.9934 76.2891 55.9637C76.2435 55.934 76.2079 55.8914 76.1869 55.8415C76.1659 55.7915 76.1605 55.7365 76.1714 55.6834C76.1823 55.6304 76.2089 55.5818 76.2479 55.5439L78.5767 53.2326L90.1918 41.7054C90.3496 41.573 90.4609 41.3942 90.5096 41.1949C90.5583 40.9955 90.5418 40.786 90.4626 40.5965C90.3835 40.4071 90.2456 40.2475 90.0691 40.1409C89.8925 40.0343 89.6864 39.9862 89.4805 40.0034H76.3356H71.5609H57.4026C57.0643 40.0038 56.7365 40.1207 56.4753 40.3341C56.2141 40.5474 56.0356 40.8441 55.9702 41.1736L50.0262 70.4267C49.986 70.6323 49.9921 70.8441 50.044 71.0471C50.0959 71.25 50.1923 71.4391 50.3263 71.6008C50.4604 71.7625 50.6288 71.8928 50.8195 71.9824C51.0101 72.0719 51.2184 72.1186 51.4294 72.1191H59.9263C59.9679 72.1192 60.0088 72.1288 60.0461 72.1471C60.0833 72.1653 60.1159 72.1918 60.1413 72.2245C60.1666 72.2571 60.1842 72.2951 60.1925 72.3355C60.2009 72.3759 60.1998 72.4176 60.1894 72.4576L53.9726 97.1366C53.9358 97.2845 53.9488 97.4403 54.0098 97.5801C54.0707 97.7199 54.1762 97.8361 54.31 97.9107C54.4438 97.9854 54.5986 98.0144 54.7506 97.9933C54.9027 97.9723 55.0435 97.9023 55.1517 97.7942L71.5219 81.5478V81.6638L76.3356 76.906V76.7996L78.5767 74.5851L95.7265 57.565C95.8561 57.4384 95.9448 57.2764 95.9813 57.0997C96.0179 56.9229 96.0005 56.7393 95.9316 56.5723C95.8626 56.4053 95.7451 56.2625 95.594 56.162C95.443 56.0615 95.2652 56.0079 95.0834 56.0081ZM82.8739 62.6614L78.5767 66.926L73.7826 71.6839L64.1748 81.219C64.1309 81.2587 64.0754 81.2837 64.0164 81.2904C63.9573 81.2971 63.8977 81.2851 63.8458 81.2562C63.794 81.2273 63.7528 81.1829 63.7278 81.1293C63.7029 81.0758 63.6956 81.0158 63.7071 80.9579L67.2247 67.0421C67.2353 67.0014 67.2363 66.9587 67.2274 66.9176C67.2185 66.8765 67.2001 66.8379 67.1736 66.8051C67.1472 66.7723 67.1133 66.746 67.0748 66.7284C67.0364 66.7108 66.9943 66.7023 66.9519 66.7036H57.2077C57.1062 66.7042 57.0059 66.6823 56.914 66.6396C56.8221 66.5968 56.741 66.5342 56.6766 66.4564C56.6122 66.3785 56.5661 66.2874 56.5416 66.1897C56.5172 66.0919 56.515 65.99 56.5353 65.8913L60.433 46.444C60.4918 46.1513 60.6513 45.8881 60.8842 45.6993C61.1171 45.5105 61.4088 45.408 61.7095 45.4092H76.8228C76.9789 45.411 77.131 45.4581 77.2604 45.5448C77.3898 45.6314 77.4909 45.7538 77.551 45.8968C77.6111 46.0398 77.6277 46.1971 77.5987 46.3493C77.5697 46.5016 77.4965 46.6421 77.3879 46.7534L73.7826 50.3315L63.8922 60.1567C63.789 60.2608 63.7189 60.3927 63.6907 60.536C63.6624 60.6793 63.6773 60.8277 63.7334 60.9627C63.7894 61.0978 63.8843 61.2134 64.0061 61.2954C64.1279 61.3773 64.2713 61.4219 64.4184 61.4235H82.3575C82.5019 61.4237 82.6431 61.4663 82.7631 61.546C82.8832 61.6257 82.9768 61.7389 83.032 61.8714C83.0873 62.0038 83.1018 62.1495 83.0736 62.2901C83.0455 62.4308 82.976 62.5599 82.8739 62.6614Z" fill="white"/>
<path d="M119.932 89.2235V39.9483C119.932 36.1024 120.085 32.1508 119.932 28.2761C119.92 26.1313 119.071 24.076 117.567 22.5477C116.062 21.0195 114.021 20.1391 111.877 20.094C111.022 20.094 110.166 20.094 109.32 20.094H66.5297C53.9097 20.094 41.2704 19.8825 28.6504 20.094C22.9988 20.1805 20 24.2283 20 29.5645V110.328C20 115.635 23.018 119.712 28.6504 119.808C55.5629 120.24 82.4753 119.808 109.32 119.808H111.877C112.081 119.805 112.284 119.783 112.483 119.74C114.518 119.549 116.409 118.606 117.786 117.095C119.164 115.583 119.929 113.613 119.932 111.568C119.98 110.308 119.932 109.03 119.932 107.77V89.2235ZM114.78 31.872V40.3617H110.205C106.889 40.3617 106.889 45.5152 110.205 45.5152H114.78V53.8703H110.205C106.889 53.8703 106.889 59.0238 110.205 59.0238H114.78V67.3789H110.205C106.889 67.3789 106.889 72.5228 110.205 72.5228H114.78V81.5317H110.205C106.889 81.5317 106.889 86.6852 110.205 86.6852H114.78V94.9923H110.205C106.889 94.9923 106.889 100.146 110.205 100.146H114.78V110.481C114.78 112.404 114.405 114.472 111.896 114.645H100.199V110.155C100.199 106.847 95.0473 106.838 95.0473 110.155V114.645H86.6948V110.155C86.6948 106.847 81.543 106.838 81.543 110.155V114.645H72.5754V110.155C72.5754 106.847 67.4236 106.838 67.4236 110.155V114.645H59.0711V110.155C59.0711 106.847 53.9289 106.838 53.9289 110.155V114.645H45.5668V110.155C45.5668 106.847 40.4246 106.838 40.4246 110.155V114.645H30.1883C29.2267 114.737 28.2571 114.701 27.3048 114.539C24.0561 113.577 25.171 107.28 25.171 104.79V100.146H30.4382C33.7542 100.146 33.7638 94.9923 30.4382 94.9923H25.171V86.6371H30.4382C33.7542 86.6371 33.7638 81.4837 30.4382 81.4837H25.171V72.5132H30.4382C33.7542 72.5132 33.7638 67.3693 30.4382 67.3693H25.171V59.0142H30.4382C33.7542 59.0142 33.7638 53.8607 30.4382 53.8607H25.171V45.5056H30.4382C33.7542 45.5056 33.7638 40.3521 30.4382 40.3521H25.171V38.7368C25.171 35.314 24.8346 31.6893 25.171 28.2761C25.5651 24.286 30.4382 25.2379 33.312 25.2379H40.4535V30.3432C40.4535 33.6507 45.5957 33.6603 45.5957 30.3432V25.2379H53.9577V30.3432C53.9577 33.6507 59.0999 33.6603 59.0999 30.3432V25.2379H67.4524V30.3432C67.4524 33.6507 72.6042 33.6603 72.6042 30.3432V25.2379H81.5718V30.3432C81.5718 33.6507 86.7236 33.6603 86.7236 30.3432V25.2379H95.0761V30.3432C95.0761 33.6507 100.228 33.6603 100.228 30.3432V25.2379C103.948 25.2379 107.686 25.0936 111.397 25.2379C115.347 25.4013 114.78 29.0068 114.78 31.8624V31.872Z" fill="white"/>
</svg>
