<svg width="140" height="140" viewBox="0 0 140 140" fill="none" xmlns="http://www.w3.org/2000/svg">
<g clip-path="url(#clip0_3248_3954)">
<path d="M122.16 84.6302C123.06 83.1798 123.596 81.5327 123.72 79.8302C123.97 75.5702 120.81 71.4402 116.79 70.1302C115.944 69.8536 115.06 69.7086 114.17 69.7002C114.438 68.5868 114.472 67.43 114.271 66.3026C114.07 65.1753 113.637 64.1019 113 63.1502C111.682 61.0165 109.63 59.4376 107.23 58.7102C112 53.7102 116.75 48.7102 121.38 43.6002C124.9 39.7102 126.38 34.4202 122.96 29.8902C119.12 24.7502 112.75 24.2402 107.76 27.8902C106.557 28.7919 105.402 29.7566 104.3 30.7802C97.8353 26.8979 90.6412 24.3864 83.1649 23.4019C75.6885 22.4174 68.0896 22.9808 60.8402 25.0572C53.5908 27.1335 46.8458 30.6784 41.0243 35.4717C35.2028 40.2649 30.4292 46.2041 27 52.9202C26.8288 53.2502 26.7245 53.6108 26.6931 53.9813C26.6618 54.3518 26.704 54.7249 26.8174 55.079C26.9308 55.4331 27.1131 55.7613 27.3538 56.0446C27.5945 56.328 27.8889 56.561 28.22 56.7302C28.6208 56.9412 29.0671 57.051 29.52 57.0502C30.0414 57.0515 30.5529 56.9083 30.9977 56.6364C31.4426 56.3646 31.8034 55.9747 32.04 55.5102C35.0615 49.5962 39.2472 44.354 44.3457 40.0984C49.4441 35.8429 55.3501 32.6617 61.7089 30.746C68.0677 28.8303 74.7481 28.2197 81.3489 28.9507C87.9496 29.6818 94.3345 31.7395 100.12 35.0002C98.85 36.3202 97.59 37.6502 96.34 38.9302C90.917 36.1084 84.9662 34.4458 78.866 34.0479C72.7657 33.6501 66.6494 34.5258 60.9058 36.6193C55.1623 38.7128 49.9171 41.9784 45.5037 46.2085C41.0903 50.4385 37.6052 55.5405 35.27 61.1902C34.9645 61.8762 34.9331 62.6532 35.1823 63.3617C35.4314 64.0702 35.9423 64.6564 36.61 65.0002C36.9577 65.1645 37.3353 65.2563 37.7196 65.2699C38.104 65.2835 38.4871 65.2185 38.8455 65.0791C39.204 64.9396 39.5302 64.7286 39.8044 64.4589C40.0785 64.1891 40.2948 63.8663 40.44 63.5102C42.3899 58.7027 45.2958 54.3413 48.9817 50.6904C52.6676 47.0396 57.0565 44.1755 61.8825 42.2716C66.7084 40.3678 71.8707 39.464 77.0564 39.615C82.2421 39.7661 87.3431 40.9687 92.05 43.1502L79.6 55.3802C69.22 50.9402 58.72 61.1902 51.85 67.6602C44.98 74.1302 38.31 80.8002 31.75 87.5802C29.34 90.0802 33.15 93.9102 35.57 91.4002C39.57 87.2602 43.6333 83.1668 47.76 79.1202C51.18 75.7502 54.63 72.4102 58.16 69.1202C61.69 65.8302 65.16 62.7702 69.49 60.9402C71.6342 59.8876 74.0556 59.5377 76.41 59.9402C79.09 60.5702 81.22 62.9402 83.14 64.7702C85.06 66.6002 86.6 68.3002 88.25 70.1402L90.52 72.7202C90.9638 73.2132 91.3621 73.7454 91.71 74.3102C92.2719 75.0692 92.5802 75.9861 92.591 76.9305C92.6017 77.8748 92.3145 78.7985 91.77 79.5702C91.2423 80.5148 90.3779 81.2258 89.3492 81.5613C88.3205 81.8968 87.2031 81.8321 86.22 81.3802C85.8359 81.2113 85.4649 81.0141 85.11 80.7902C84.93 80.6802 84.76 80.5802 84.6 80.4602C84.33 80.2702 84.86 80.6802 84.6 80.4602C83.39 79.4602 82.23 78.3802 81.09 77.2802C78.56 74.8402 76.09 72.2802 73.65 69.8202C71.21 67.3602 67.33 71.2102 69.83 73.6402C72.33 76.0702 74.83 78.7202 77.41 81.2002C76.2101 82.85 75.5153 84.8129 75.41 86.8502C75.3 91.4702 79.41 95.9802 83.86 96.8502C85.521 97.15 87.2333 96.9624 88.79 96.3102C88.8874 97.6543 89.277 98.9609 89.9316 100.139C90.5863 101.317 91.4901 102.338 92.58 103.13C93.7688 104.113 95.2017 104.756 96.7264 104.99C98.2512 105.225 99.811 105.041 101.24 104.46C101.218 106.518 101.927 108.516 103.24 110.1L102.76 110.67C101.821 111.676 100.819 112.621 99.76 113.5C95.7215 116.755 91.1085 119.225 86.16 120.78C80.1589 122.69 73.7874 123.132 67.58 122.07C65.6128 121.738 63.6688 121.28 61.76 120.7C61.11 120.5 60.46 120.27 59.76 120.04C59.46 119.94 58.32 119.46 59.53 119.97C56.36 118.63 53.61 123.28 56.8 124.64C66.5625 128.672 77.4294 129.153 87.51 126C94.91 123.61 102.65 119.44 107.62 113.24C112.88 115.14 118.16 111.44 121.87 107.3C124.56 104.3 128.07 101.15 129.48 97.3002C131.48 91.8002 127.48 85.8102 122.16 84.7002M92.16 66.4302C89.7957 63.5369 87.1787 60.8597 84.34 58.4302C92.58 50.2502 100.82 42.1068 109.06 34.0002C110.62 32.4602 112.44 30.7102 114.8 30.7902C115.569 30.8454 116.315 31.0778 116.979 31.4691C117.644 31.8605 118.209 32.4001 118.63 33.046C119.051 33.6918 119.317 34.4263 119.407 35.1921C119.498 35.9578 119.41 36.7341 119.15 37.4602C118.707 38.3885 118.109 39.2341 117.38 39.9602C113.38 44.3502 109.22 48.6102 105.13 52.9602L96.67 61.9602C95.58 62.9602 94.56 64.0702 93.51 65.0902C93.06 65.5502 92.6 65.9902 92.14 66.4402M81.9 89.5902C81.3083 88.9655 80.941 88.1618 80.8559 87.3056C80.7708 86.4493 80.9728 85.5891 81.43 84.8602C84.3 87.0002 88.23 88.0002 91.61 86.5702C92.5954 86.1622 93.5048 85.5908 94.3 84.8802C94.68 84.5102 95.06 84.1302 95.43 83.7502C96.5949 82.408 97.3916 80.7865 97.7422 79.0442C98.0928 77.3019 97.9852 75.4985 97.43 73.8102C97.02 72.6922 96.4471 71.6409 95.73 70.6902C97.4367 68.8902 99.15 67.0935 100.87 65.3002L101.01 65.1802C102.31 64.1002 103.92 63.2902 105.63 63.8202C106.613 64.0945 107.477 64.687 108.087 65.5049C108.696 66.3229 109.018 67.3201 109 68.3402C108.654 70.0035 107.777 71.5093 106.5 72.6302C102.88 76.3902 99.16 80.0602 95.5 83.7502C95.1565 84.1586 94.7785 84.5367 94.37 84.8802L93 86.1902C90 89.1902 85.77 94.0702 81.89 89.5902M104.52 95.6602C102.85 97.2402 100.32 99.8202 97.77 99.6602C96.7649 99.5362 95.8326 99.0716 95.1284 98.3438C94.4242 97.616 93.9907 96.6688 93.9 95.6602C93.9 93.5502 95.47 91.3702 96.9 89.9602C100.5 86.4002 104.097 82.8368 107.69 79.2702C109.51 77.4602 111.69 74.6102 114.56 75.1002C119.31 75.9102 118.68 80.7602 116.38 83.4602C112.643 87.7284 108.688 91.8005 104.53 95.6602M123 97.8202C120.784 100.764 118.307 103.501 115.6 106C113.15 108.19 108.39 109.91 106.6 105.71C105.87 103.96 106.99 101.84 108.19 100.55C111.19 97.5502 114.02 94.2502 117.19 91.4002C119.49 89.3302 123.5 89.3102 124.57 93.0102C125.06 94.7202 123.94 96.5802 122.99 97.8102" fill="white"/>
<path d="M26.0002 62.7399C25.2696 62.5585 24.4968 62.6747 23.8517 63.0629C23.2067 63.451 22.7422 64.0794 22.5602 64.8099C21.5114 69.1278 20.9876 73.5565 21.0002 77.9999C21.0002 78.7531 21.2994 79.4755 21.832 80.0081C22.3646 80.5407 23.087 80.8399 23.8402 80.8399C24.5934 80.8399 25.3158 80.5407 25.8484 80.0081C26.381 79.4755 26.6802 78.7531 26.6802 77.9999C26.6775 74.01 27.1576 70.0344 28.1102 66.1599C28.1964 65.7968 28.2103 65.4202 28.1509 65.0518C28.0915 64.6833 27.96 64.3302 27.7641 64.0126C27.5681 63.695 27.3115 63.4191 27.0088 63.2007C26.7062 62.9823 26.3634 62.8257 26.0002 62.7399Z" fill="white"/>
<path d="M15.6701 77.9999C15.6756 67.5817 18.3776 57.3423 23.5132 48.2778C28.6488 39.2134 36.0431 31.6325 44.9768 26.2726C53.9105 20.9128 64.0795 17.9565 74.4943 17.6915C84.9091 17.4264 95.2153 19.8615 104.41 24.7599C105.069 25.0718 105.822 25.1185 106.514 24.8905C107.206 24.6625 107.784 24.1771 108.129 23.5348C108.473 22.8925 108.557 22.1425 108.364 21.4398C108.17 20.7372 107.714 20.1358 107.09 19.7599C94.9086 13.2587 80.9948 10.7417 67.3077 12.5632C53.6206 14.3848 40.8495 20.4533 30.7923 29.9142C20.7352 39.3751 13.8986 51.7521 11.245 65.3025C8.59137 78.8529 10.2545 92.8943 16.0001 105.45C16.227 105.944 16.5905 106.363 17.0477 106.657C17.5048 106.951 18.0365 107.108 18.5801 107.11C18.9873 107.107 19.3895 107.019 19.7601 106.85C20.4438 106.536 20.9752 105.964 21.2377 105.259C21.5001 104.555 21.4722 103.774 21.1601 103.09C17.536 95.2224 15.6629 86.662 15.6701 77.9999Z" fill="white"/>
</g>
<defs>
<clipPath id="clip0_3248_3954">
<rect width="120" height="116.04" fill="white" transform="translate(10 12)"/>
</clipPath>
</defs>
</svg>
