<svg width="49" height="49" viewBox="0 0 49 49" fill="none" xmlns="http://www.w3.org/2000/svg">
<g clip-path="url(#clip0_2815_2396)">
<path d="M34.0074 2.01088C29.2135 -0.0181234 23.8988 -0.438361 18.8495 0.812346C13.8002 2.06305 9.28461 4.91826 5.97078 8.95554C2.65694 12.9928 0.720912 17.9977 0.449129 23.2297C0.177345 28.4617 1.58425 33.6429 4.46167 38.0067C7.3391 42.3705 11.5342 45.6851 16.4263 47.4601C21.3184 49.2351 26.6476 49.3762 31.6255 47.8626C36.6034 46.3489 40.9655 43.2609 44.0664 39.0554C47.1674 34.85 48.8424 29.7504 48.8438 24.5112C48.8246 19.71 47.4089 15.0198 44.772 11.0208C42.1351 7.0217 38.3926 3.88925 34.0074 2.01088ZM39.7811 36.0956C37.5717 28.8957 34.7551 24.5112 31.5337 24.5112H31.3819C28.807 24.5112 26.4121 27.4002 24.4163 32.3569C22.5104 27.6438 20.2335 24.8001 17.7598 24.5452C17.594 24.5224 17.4268 24.5111 17.2595 24.5112C14.0887 24.5112 11.2777 28.8844 9.06263 36.1069H7.52221L17.1414 6.3614L24.3151 28.5275L24.3938 28.2839L24.4725 28.5275L31.6405 6.43504L41.1979 36.1126L39.7811 36.0956Z" fill="#081728"/>
</g>
<defs>
<clipPath id="clip0_2815_2396">
<rect width="49" height="49" fill="white"/>
</clipPath>
</defs>
</svg>
