<svg width="113" height="113" viewBox="0 0 113 113" fill="none" xmlns="http://www.w3.org/2000/svg">
<g opacity="0.4">
<rect width="112.845" height="112.845" rx="56.4222" fill="white"/>
</g>
<g clip-path="url(#clip0_1902_676)">
<path d="M93 80.15C74.8469 80.0344 71.0312 43.2656 69.9906 43.2656C69.1812 43.2656 69.4125 69.7437 81.7844 80.0344H77.0438C62.7063 75.0625 63.0531 29.3906 62.0125 29.3906C61.0875 29.3906 58.4281 67.3156 69.9906 80.0344H63.5156C52.4156 63.1531 55.8844 13.2031 54.8438 13.2031C53.8031 13.2031 48.8313 60.0312 57.7344 80.0344H19V84.0812H93V80.15Z" fill="white"/>
<path d="M21.0812 75.6407C32.875 75.6407 42.5875 66.6219 43.7437 55.175H46.75C48.0219 55.175 48.8313 53.7875 48.1375 52.7469L41.8937 41.9938L35.65 52.7469C35.0719 53.7875 35.7656 55.175 37.0375 55.175H39.5812C38.425 64.425 30.5625 71.5938 21.0812 71.5938C19.925 71.5938 19 72.5188 19 73.675C19 74.7157 19.925 75.6407 21.0812 75.6407Z" fill="white"/>
</g>
<defs>
<clipPath id="clip0_1902_676">
<rect width="74" height="70.9938" fill="white" transform="translate(19 13.2031)"/>
</clipPath>
</defs>
</svg>
