<svg width="113" height="113" viewBox="0 0 113 113" fill="none" xmlns="http://www.w3.org/2000/svg">
<g opacity="0.4">
<rect width="112.845" height="112.845" rx="56.4222" fill="white"/>
</g>
<path d="M44.5 29.8637H74.2V31.7637C74.2 32.2637 74.7 32.5637 75.1 32.2637L81.4 28.6637L75.1 25.0637C74.7 24.8637 74.2 25.1637 74.2 25.5637V27.4637H44.5V29.8637Z" fill="white"/>
<path d="M34.2002 46.1636L33.2002 48.4636V60.2636H35.6002V48.5636L34.5002 46.2636C34.6002 46.0636 34.3002 46.0636 34.2002 46.1636Z" fill="white"/>
<path d="M39.2002 41.5636L38.2002 43.8636V55.6636H40.6002V43.8636L39.5002 41.5636C39.5002 41.3636 39.2002 41.3636 39.2002 41.5636Z" fill="white"/>
<path d="M44.1001 46.1636L43.1001 48.4636V60.2636H45.5001V48.5636L44.4001 46.2636C44.4001 46.0636 44.2001 46.0636 44.1001 46.1636Z" fill="white"/>
<path d="M49.1001 41.5636L48.1001 43.8636V55.6636H50.5001V43.8636L49.4001 41.5636C49.4001 41.3636 49.1001 41.3636 49.1001 41.5636Z" fill="white"/>
<path d="M54 46.1636L53 48.4636V60.2636H55.4V48.5636L54.3 46.2636C54.3 46.0636 54.1 46.0636 54 46.1636Z" fill="white"/>
<path d="M58.8999 41.5636L57.8999 43.8636V55.6636H60.2999V43.8636L59.1999 41.5636C59.2999 41.3636 58.9999 41.3636 58.8999 41.5636Z" fill="white"/>
<path d="M68.7998 41.5636L67.7998 43.8636V55.6636H70.1998V43.8636L69.0998 41.5636C69.0998 41.3636 68.8998 41.3636 68.7998 41.5636Z" fill="white"/>
<path d="M34.2 38.0636V36.1636H63.9V33.8636H34.2V31.9636C34.2 31.4636 33.7 31.1636 33.3 31.4636L27 35.0636L33.3 38.6636C33.7 38.8636 34.2 38.5636 34.2 38.0636Z" fill="white"/>
<path d="M70.7 82.9636C68.3 84.4636 65.4 85.3636 62.3 85.3636H46.3C37.7 85.3636 30.6 78.3636 30.6 69.6636V42.7636C30.6 41.7636 29.8 40.9636 28.8 40.9636C27.8 40.9636 27 41.7636 27 42.7636V69.6636C27 80.2636 35.6 88.8636 46.2 88.8636H62.3C65.4 88.8636 68.3 88.1636 70.9 86.8636C70.9 86.3636 70.8 85.7636 70.8 85.0636C70.8 84.4636 70.7 83.7636 70.7 82.9636Z" fill="white"/>
<path d="M79.8 41.0636C78.8 41.0636 78 41.8636 78 42.8636V58.5636C78.1 59.7636 78.2 61.2636 78.3 62.6636C79 62.0636 79.7 61.4636 80.2 60.9636C80.6 60.5636 81 60.2636 81.3 59.9636C81.4 59.8636 81.4 59.8636 81.5 59.7636V42.7636C81.5 41.8636 80.7 41.0636 79.8 41.0636Z" fill="white"/>
<path d="M73.7998 46.1636L72.7998 48.4636V52.9636C73.2998 52.7636 73.7998 52.5636 74.3998 52.5636C74.6998 52.5636 74.9998 52.5636 75.2998 52.6636V48.4636L74.1998 46.1636C74.0998 46.0636 73.7998 46.0636 73.7998 46.1636Z" fill="white"/>
<path d="M63.8999 46.1636L62.8999 48.4636V60.2636L62.9999 60.1636C63.5999 59.5636 64.3999 59.1636 65.2999 59.1636V48.5636L64.1999 46.2636C64.1999 46.0636 63.9999 46.0636 63.8999 46.1636Z" fill="white"/>
<path d="M89.9998 70.3636C87.8998 70.1636 81.9998 70.0636 78.9998 69.1636C80.4998 66.9636 83.0998 64.1636 84.0998 63.0636C84.3998 62.6636 84.3998 62.1636 83.9998 61.8636C83.6998 61.5636 83.0998 61.4636 82.7998 61.7636C81.5998 62.7636 78.7998 65.3636 76.5998 66.8636C75.6998 63.8636 75.4998 58.0636 75.3998 55.9636C75.3998 55.3636 74.8998 54.9636 74.2998 54.9636C73.6998 54.9636 73.2998 55.3636 73.1998 55.9636C72.9998 57.9636 72.8998 63.8636 71.9998 66.8636C69.7998 65.3636 66.9998 62.7636 65.8998 61.7636C65.4998 61.4636 64.9998 61.4636 64.6998 61.8636C64.3998 62.1636 64.2998 62.6636 64.5998 63.0636C65.5998 64.1636 68.1998 66.9636 69.6998 69.1636C66.6998 70.0636 60.8998 70.1636 58.7998 70.3636C58.1998 70.3636 57.7998 70.8636 57.7998 71.4636C57.7998 72.0636 58.1998 72.4636 58.7998 72.5636C60.8998 72.7636 66.6998 72.8636 69.6998 73.7636C68.1998 75.9636 65.5998 78.7636 64.5998 79.8636C64.2998 80.2636 64.2998 80.7636 64.6998 81.0636C64.9998 81.3636 65.5998 81.4636 65.8998 81.1636C66.9998 80.1636 69.7998 77.5636 71.9998 76.0636C72.8998 79.0636 72.9998 84.7636 73.1998 86.7636C73.1998 87.3636 73.6998 87.7636 74.2998 87.7636C74.8998 87.7636 75.2998 87.3636 75.3998 86.7636C75.5998 84.6636 75.6998 78.9636 76.5998 75.9636C78.7998 77.3636 81.5998 80.0636 82.6998 80.9636C83.0998 81.2636 83.5998 81.2636 83.8998 80.8636C84.1998 80.5636 84.2998 80.0636 83.9998 79.6636C82.9998 78.4636 80.3998 75.7636 78.9998 73.6636C81.9998 72.7636 87.8998 72.6636 89.9998 72.4636C90.5998 72.4636 90.9998 71.9636 90.9998 71.3636C90.8998 70.8636 90.4998 70.3636 89.9998 70.3636Z" fill="white"/>
<path d="M34.2002 46.1636L33.2002 48.4636V60.2636H35.6002V48.5636L34.5002 46.2636C34.6002 46.0636 34.3002 46.0636 34.2002 46.1636Z" fill="white"/>
</svg>
