<svg width="113" height="113" viewBox="0 0 113 113" fill="none" xmlns="http://www.w3.org/2000/svg">
<g opacity="0.4">
<rect width="112.845" height="112.845" rx="56.4222" fill="white"/>
</g>
<g clip-path="url(#clip0_1902_686)">
<path d="M82.8407 50.8795C82.3233 51.9014 82.9701 53.051 84.1343 53.051H92.4129C93.577 53.051 94.3532 51.7737 93.7064 50.8795L88.2736 41.5547L82.8407 50.8795Z" fill="white"/>
<path d="M82.582 41.5548H93.9651C94.4825 41.5548 94.8706 41.1716 94.8706 40.6606C94.8706 40.1497 94.6119 39.7665 94.0945 39.7665H82.7114C82.194 39.7665 81.8059 40.1497 81.8059 40.6606C81.8059 41.1716 82.0646 41.5548 82.582 41.5548Z" fill="white"/>
<path d="M94.0945 71.4452H88.4029L93.8358 62.1204C94.4825 61.0985 93.7064 59.9489 92.5422 59.9489H84.2636C83.0994 59.9489 82.3233 61.2262 82.9701 62.1204L88.4029 71.4452H82.7114C82.194 71.4452 81.8059 71.8284 81.8059 72.3394C81.8059 72.8503 82.194 73.2335 82.7114 73.2335H94.0945C94.6119 73.2335 94.9999 72.8503 94.9999 72.3394C94.9999 71.9562 94.6119 71.4452 94.0945 71.4452Z" fill="white"/>
<path d="M61.8856 67.1022C58.005 67.1022 55.2886 64.4197 55.2886 56.6277C55.2886 48.9635 58.005 46.1533 61.7562 46.1533C65.5075 46.1533 68.2239 48.9635 68.2239 56.7555C68.2239 64.4197 65.6368 67.1022 61.8856 67.1022ZM61.7562 74C70.4229 74 77.1493 67.7409 77.1493 56.3723C77.0199 45.1314 70.4229 39 61.8856 39C53.0896 39 46.4925 45.2591 46.4925 56.6277C46.3632 67.8686 52.9602 74 61.7562 74ZM29.9353 39C25.6667 39 20.8806 40.1496 17 42.4489L19.7164 48.708C21.6567 47.5584 25.5373 46.0255 28.6418 46.0255C32.6517 46.0255 33.8159 48.3248 33.8159 50.6241C33.8159 52.9234 32.6517 54.3285 30.3234 56.6277L18.4229 66.8467V73.3613H42.7413V66.208H29.9353L35.2388 61.7372C39.2488 58.2883 42.6119 55.4781 42.6119 49.9854C42.7413 43.4708 37.5672 39 29.9353 39Z" fill="white"/>
</g>
<defs>
<clipPath id="clip0_1902_686">
<rect width="78" height="35" fill="white" transform="translate(17 39)"/>
</clipPath>
</defs>
</svg>
