<svg width="113" height="113" viewBox="0 0 113 113" fill="none" xmlns="http://www.w3.org/2000/svg">
<rect y="-0.00012207" width="112.845" height="112.845" rx="56.4222" fill="white" fill-opacity="0.4"/>
<g clip-path="url(#clip0_1902_616)">
<path d="M92.5921 47.8605H85.3682V42.9767C85.3682 40.7442 83.5795 39 81.3779 39H27.9903C25.7888 39 24 40.814 24 42.9767V71.0233C24 73.2558 25.7888 75 27.9903 75H81.4467C83.6483 75 85.437 73.1861 85.437 71.0233V66.1395H92.5921C93.968 66.1395 95.0688 65.0233 95.0688 63.6977V50.3023C95 48.9767 93.8992 47.8605 92.5921 47.8605ZM42.7132 49.3953C43.814 49.3953 44.5019 50.2326 44.5019 51.2093C44.5019 52.186 43.814 53.0233 42.7132 53.0233C41.6812 53.0233 40.9932 52.186 40.9932 51.2093C40.9932 50.2326 41.6812 49.3953 42.7132 49.3953ZM39.4109 64.4651H30.2607V50.5814H33.7694V61.6744H39.4109V64.4651ZM44.6395 64.4651H41.3372V57.0698L40.0988 56.5814V54.1395H44.6395V64.4651ZM51.313 58.6047H46.9787V56.3721H51.313V58.6047ZM57.0921 64.4651H53.5833V50.5814H57.0921V64.4651ZM64.7287 64.6744C61.4952 64.6744 59.0184 62.6512 59.0184 59.3023C59.0184 55.9535 61.4264 54 64.7287 54C67.8934 54 70.3702 55.9535 70.3702 59.3023C70.3702 62.5814 67.8246 64.6744 64.7287 64.6744ZM81.4467 64.4651H78.1444V57.8372C78.1444 56.8605 77.4564 56.5116 76.906 56.5116C76.0116 56.5116 75.53 57.1395 75.53 58.1163V64.4651H72.2277V54.1395H74.7045L75.2548 55.6047C75.2548 55.6047 76.0116 53.9302 77.938 53.9302C79.5891 53.9302 81.5155 54.7674 81.5155 58.0465V64.4651H81.4467Z" fill="white"/>
<path d="M64.7287 56.5116C63.4215 56.5116 62.5271 57.5581 62.5271 59.3023C62.5271 60.9767 63.4215 62.0232 64.7287 62.0232C65.967 62.0232 66.8614 60.9767 66.8614 59.3023C66.8614 57.5581 65.967 56.5116 64.7287 56.5116Z" fill="white"/>
</g>
<defs>
<clipPath id="clip0_1902_616">
<rect width="71" height="36" fill="white" transform="translate(24 39)"/>
</clipPath>
</defs>
</svg>
