<svg width="40" height="40" viewBox="0 0 40 40" fill="none" xmlns="http://www.w3.org/2000/svg">
<path d="M14.1767 0.140625H26.1391C30.1063 0.140625 32.0894 0.140625 34.225 0.815707C36.5565 1.66433 38.3927 3.50056 39.2413 5.83206C39.9164 7.9673 39.9164 9.95105 39.9164 13.9179V25.8804C39.9164 29.8475 39.9164 31.8306 39.2413 33.9662C38.3927 36.2977 36.5565 38.1339 34.225 38.9822C32.0894 39.6576 30.1063 39.6576 26.1391 39.6576H14.1767C10.2095 39.6576 8.22609 39.6576 6.09085 38.9822C3.75935 38.1339 1.92312 36.2977 1.0745 33.9662C0.399414 31.8306 0.399414 29.8475 0.399414 25.8804V13.9179C0.399414 9.95105 0.399414 7.9673 1.0745 5.83206C1.92312 3.50056 3.75935 1.66433 6.09085 0.815707C8.22609 0.140625 10.2095 0.140625 14.1767 0.140625Z" fill="white"/>
<mask id="mask0_3519_128" style="mask-type:luminance" maskUnits="userSpaceOnUse" x="0" y="0" width="40" height="40">
<path d="M14.1767 0.140625H26.1391C30.1063 0.140625 32.0894 0.140625 34.225 0.815707C36.5565 1.66433 38.3927 3.50056 39.2413 5.83206C39.9164 7.9673 39.9164 9.95105 39.9164 13.9179V25.8804C39.9164 29.8475 39.9164 31.8306 39.2413 33.9662C38.3927 36.2977 36.5565 38.1339 34.225 38.9822C32.0894 39.6576 30.1063 39.6576 26.1391 39.6576H14.1767C10.2095 39.6576 8.22609 39.6576 6.09085 38.9822C3.75935 38.1339 1.92312 36.2977 1.0745 33.9662C0.399414 31.8306 0.399414 29.8475 0.399414 25.8804V13.9179C0.399414 9.95105 0.399414 7.9673 1.0745 5.83206C1.92312 3.50056 3.75935 1.66433 6.09085 0.815707C8.22609 0.140625 10.2095 0.140625 14.1767 0.140625Z" fill="white"/>
</mask>
<g mask="url(#mask0_3519_128)">
<path fill-rule="evenodd" clip-rule="evenodd" d="M32.1973 14.9282L31.7877 18.8469L21.2088 23.377V26.3534L34.0262 19.687L34.6468 14.3008L32.1973 14.9282ZM8.12407 14.9284L5.66797 14.3009L6.35659 19.6871L19.2354 26.3535V23.3771L8.59514 18.8471L8.12407 14.9284ZM20.2207 18.0084L30.4948 15.3722L30.3024 18.0643L20.2207 21.7943L10.1089 18.0643L9.88646 15.3722L20.2207 18.0084Z" fill="#1D1D1D"/>
</g>
</svg>
