<svg width="81" height="80" viewBox="0 0 81 80" fill="none" xmlns="http://www.w3.org/2000/svg">
<path d="M36.2146 11.347C36.2146 10.6261 36.852 9.99986 37.6431 9.99986H43.3574C44.1485 9.99986 44.786 10.6261 44.786 11.347V12.9484H46.2146V11.347C46.2146 9.76506 44.8635 8.57129 43.3574 8.57129H37.6431C36.1371 8.57129 34.786 9.76506 34.786 11.347V12.9484H36.2146V11.347Z" fill="#181818"/>
<path d="M40.0644 39.6609H32.113L45.4359 26.0809L41.7287 36.5237L49.623 36.5151L34.8416 52.3466L40.0644 39.6609Z" fill="#181818"/>
<path fill-rule="evenodd" clip-rule="evenodd" d="M26.276 15.7141C25.5967 15.7141 24.8914 15.8852 24.3344 16.2783C23.7551 16.6872 23.3574 17.3278 23.3574 18.1556V61.277C23.3574 62.0705 23.722 62.7975 24.2407 63.3174C24.7593 63.8371 25.4848 64.2027 26.276 64.2027H54.786C56.3492 64.2027 57.6431 62.7908 57.6431 61.277V18.1556C57.6431 17.345 57.2766 16.7031 56.708 16.2859C56.1624 15.8856 55.4666 15.7141 54.786 15.7141H26.276ZM24.786 18.1556C24.786 17.8362 24.9205 17.6132 25.1583 17.4454C25.4185 17.2617 25.8153 17.1427 26.276 17.1427H54.786C55.2468 17.1427 55.6225 17.2613 55.8629 17.4377C56.0804 17.5973 56.2146 17.819 56.2146 18.1556V61.277C56.2146 62.0575 55.5056 62.7742 54.786 62.7742H26.276C25.9272 62.7742 25.5505 62.6076 25.252 62.3084C24.9536 62.0093 24.786 61.6306 24.786 61.277V18.1556Z" fill="#181818"/>
</svg>
