<svg width="155" height="82" viewBox="0 0 155 82" fill="none" xmlns="http://www.w3.org/2000/svg">
<path fill-rule="evenodd" clip-rule="evenodd" d="M54.8477 55.1773L62.7183 62.3398L64.0804 60.8754L56.2291 53.7304C55.7938 54.2358 55.3326 54.7187 54.8477 55.1773ZM55.8644 28.2067L63.6182 20.8437L62.2253 19.4085L54.4427 26.7989C54.9405 27.2439 55.4151 27.7139 55.8644 28.2067ZM27.4286 27.5208L19.5379 20.34L18.1758 21.8045L26.0851 29.0022C26.5073 28.4858 26.9558 27.9914 27.4286 27.5208ZM26.2619 53.5595L18.563 60.8704L19.9559 62.3056L27.6262 55.0218C27.1468 54.5579 26.6913 54.0698 26.2619 53.5595Z" fill="black"/>
<path fill-rule="evenodd" clip-rule="evenodd" d="M30.6377 24.9369L30.6377 0.674225L28.6377 0.674225L28.6377 26.414C29.2709 25.8812 29.9389 25.3876 30.6377 24.9369ZM28.6377 55.9345L28.6377 81.6748L30.6377 81.6748L30.6377 57.4116C29.9389 56.9609 29.2709 56.4673 28.6377 55.9345ZM52.0004 24.9377C51.3588 24.5239 50.6912 24.1462 50.0004 23.8077L50.0004 0.674224L52.0004 0.674224L52.0004 24.9377ZM52.0004 57.4108L52.0004 81.6748L50.0004 81.6748L50.0004 58.5408C50.6912 58.2023 51.3588 57.8246 52.0004 57.4108Z" fill="#EA5949"/>
<path d="M57.7448 41.5463C57.7448 50.7089 50.2328 58.1551 40.9432 58.1551C31.6536 58.1551 24.1416 50.7089 24.1416 41.5463C24.1416 32.3838 31.6536 24.9375 40.9432 24.9375C50.2328 24.9375 57.7448 32.3838 57.7448 41.5463Z" stroke="black" stroke-width="2"/>
<path d="M36.5566 46.2333V35.7139H38.1612V40.2853H43.4629V35.7139H45.0727V46.2333H43.4629V41.6465H38.1612V46.2333H36.5566Z" fill="black"/>
<path fill-rule="evenodd" clip-rule="evenodd" d="M124.407 55.1828L132.278 62.3457L133.64 60.8812L125.788 53.7359C125.353 54.2413 124.892 54.7242 124.407 55.1828ZM125.423 28.2124L133.177 20.849L131.785 19.4138L124.002 26.8046C124.499 27.2496 124.974 27.7195 125.423 28.2124ZM96.9876 27.5265L89.0974 20.3461L87.7353 21.8106L95.6441 29.0079C96.0664 28.4915 96.5149 27.9971 96.9876 27.5265ZM95.821 53.565L88.1226 60.8754L89.5155 62.3106L97.1853 55.0273C96.7059 54.5634 96.2504 54.0753 95.821 53.565Z" fill="black"/>
<path fill-rule="evenodd" clip-rule="evenodd" d="M100.196 24.9415L100.196 0.678703L98.1963 0.678703L98.1963 26.4187C98.8295 25.8859 99.4974 25.3922 100.196 24.9415ZM98.1963 55.9384L98.1963 81.6787L100.196 81.6787L100.196 57.4156C99.4975 56.9649 98.8295 56.4712 98.1963 55.9384ZM121.558 24.9413C120.916 24.5275 120.249 24.1499 119.558 23.8115L119.558 0.678702L121.558 0.678702L121.558 24.9413ZM121.558 57.4158L121.558 81.6787L119.558 81.6787L119.558 58.5457C120.249 58.2072 120.916 57.8296 121.558 57.4158Z" fill="#11B2DF"/>
<path d="M127.303 41.5511C127.303 50.7136 119.791 58.1598 110.502 58.1598C101.212 58.1598 93.7002 50.7136 93.7002 41.5511C93.7002 32.3886 101.212 24.9424 110.502 24.9424C119.791 24.9424 127.303 32.3886 127.303 41.5511Z" stroke="black" stroke-width="2"/>
<path d="M115.292 39.2786H113.672C113.609 38.9361 113.493 38.6348 113.324 38.3746C113.154 38.1143 112.946 37.8934 112.701 37.712C112.455 37.5305 112.18 37.3935 111.875 37.301C111.574 37.2086 111.254 37.1624 110.914 37.1624C110.302 37.1624 109.753 37.3147 109.268 37.6195C108.787 37.9243 108.406 38.3711 108.126 38.9601C107.849 39.5491 107.71 40.2682 107.71 41.1174C107.71 41.9735 107.849 42.696 108.126 43.285C108.406 43.874 108.789 44.3192 109.273 44.6205C109.758 44.9218 110.303 45.0725 110.909 45.0725C111.245 45.0725 111.563 45.028 111.865 44.939C112.169 44.8465 112.444 44.7112 112.69 44.5332C112.936 44.3551 113.144 44.1377 113.313 43.8808C113.486 43.6206 113.606 43.3227 113.672 42.9871L115.292 42.9922C115.205 43.5093 115.037 43.9853 114.788 44.4202C114.542 44.8516 114.225 45.2249 113.838 45.5399C113.453 45.8515 113.014 46.093 112.519 46.2642C112.024 46.4354 111.484 46.521 110.899 46.521C109.978 46.521 109.157 46.3053 108.437 45.8738C107.717 45.4389 107.15 44.8174 106.734 44.0093C106.322 43.2011 106.116 42.2372 106.116 41.1174C106.116 39.9943 106.324 39.0303 106.739 38.2256C107.155 37.4175 107.722 36.7977 108.443 36.3662C109.163 35.9313 109.981 35.7139 110.899 35.7139C111.463 35.7139 111.989 35.7943 112.477 35.9553C112.969 36.1128 113.41 36.3457 113.801 36.6538C114.193 36.9586 114.516 37.3319 114.772 37.7736C115.029 38.2119 115.202 38.7136 115.292 39.2786Z" fill="black"/>
</svg>
