<svg width="100" height="100" viewBox="0 0 100 100" fill="none" xmlns="http://www.w3.org/2000/svg">
<path d="M64.7905 66.6406V55.3349H63.339L60.1456 56.8157V58.4264L63.3565 56.9182V66.6406H60.6714V67.7352H67.7101V66.6406H64.7905Z" fill="#181818"/>
<path fill-rule="evenodd" clip-rule="evenodd" d="M53.7662 47.5595C53.0721 46.472 52.0416 45.9351 50.6745 45.9351C49.3179 45.9351 48.2909 46.472 47.5968 47.5595C46.8992 48.6436 46.5522 50.2407 46.5522 52.3746C46.5522 54.4915 46.8992 56.0954 47.5968 57.1761C48.2909 58.2602 49.3179 58.7971 50.6745 58.7971C52.0416 58.7971 53.0721 58.2602 53.7662 57.1761C54.4638 56.0954 54.8143 54.4915 54.8143 52.3746C54.8143 50.2407 54.4638 48.6436 53.7662 47.5595ZM48.8412 56.0954L52.9109 49.8816C53.0196 50.6237 53.0827 51.4547 53.0827 52.3746C53.0827 54.0948 52.8829 55.3704 52.4902 56.2083C52.0871 57.053 51.4912 57.4668 50.6745 57.4668C49.8823 57.4668 49.2688 57.012 48.8412 56.0954ZM48.8833 48.5239C49.2759 47.686 49.8753 47.2688 50.6745 47.2688C51.4106 47.2688 51.996 47.6416 52.4307 48.3768L48.4486 54.5668C48.3399 53.8828 48.2873 53.1441 48.2873 52.3746C48.2873 50.6442 48.4837 49.3686 48.8833 48.5239Z" fill="#181818"/>
<path fill-rule="evenodd" clip-rule="evenodd" d="M39.4012 34.7339C38.7071 33.6464 37.6765 33.1061 36.3095 33.1061C34.9564 33.1061 33.9258 33.6464 33.2283 34.7339C32.5307 35.8214 32.1907 37.4219 32.1907 39.5422C32.1907 41.666 32.5307 43.2665 33.2283 44.354C33.9258 45.4381 34.9564 45.9852 36.3095 45.9852C37.6765 45.9852 38.7071 45.4381 39.4012 44.354C40.0987 43.2665 40.4493 41.666 40.4493 39.5422C40.4493 37.4219 40.0987 35.8214 39.4012 34.7339ZM34.4762 43.2665L38.5459 37.056C38.6545 37.805 38.7141 38.6257 38.7141 39.5422C38.7141 41.2624 38.5178 42.5449 38.1217 43.3861C37.7256 44.2274 37.1262 44.6446 36.3095 44.6446C35.5173 44.6446 34.9073 44.1864 34.4762 43.2665ZM34.5182 35.7018C34.9108 34.8605 35.5102 34.4432 36.3095 34.4432C37.0456 34.4432 37.6345 34.816 38.0656 35.5513L34.0836 41.7446C33.9749 41.0607 33.9258 40.3288 33.9258 39.5422C33.9258 37.8221 34.1221 36.5396 34.5182 35.7018Z" fill="#181818"/>
<path fill-rule="evenodd" clip-rule="evenodd" d="M66.716 34.6823C66.0219 33.5948 64.9914 33.0545 63.6243 33.0545C62.2677 33.0545 61.2442 33.5948 60.5431 34.6823C59.849 35.7698 59.502 37.3635 59.502 39.4906C59.502 41.6109 59.849 43.2148 60.5431 44.2955C61.2442 45.3864 62.2677 45.9233 63.6243 45.9233C64.9914 45.9233 66.0219 45.3864 66.716 44.2955C67.4101 43.2148 67.7606 41.6109 67.7606 39.4906C67.7606 37.3635 67.4101 35.7698 66.716 34.6823ZM61.791 43.2148L65.8537 37.0044C65.9694 37.7499 66.0325 38.5741 66.0325 39.4906C66.0325 41.2108 65.8327 42.4966 65.4366 43.3311C65.0369 44.1689 64.4375 44.593 63.6243 44.593C62.8321 44.593 62.2186 44.1348 61.791 43.2148ZM61.833 35.6433C62.2221 34.8088 62.8251 34.3848 63.6243 34.3848C64.3604 34.3848 64.9493 34.7541 65.3805 35.4928L61.3984 41.6896C61.2897 41.0056 61.2372 40.2703 61.2372 39.4906C61.2372 37.767 61.4334 36.4846 61.833 35.6433Z" fill="#181818"/>
<path d="M52.1124 35.0985V24.1071H50.3878L47.1909 25.5913V27.2089L50.4053 25.6973V35.0985H47.7202V36.5075H54.7624V35.0985H52.1124Z" fill="#181818"/>
<path d="M37.8772 55.3349V66.6406H40.7969V67.7352H33.7581V66.6406H36.4432V56.9183L33.2323 58.4264V56.8157L36.4257 55.3349H37.8772Z" fill="#181818"/>
<path fill-rule="evenodd" clip-rule="evenodd" d="M50.0869 19.6428C33.171 19.6428 19.4583 33.3595 19.4583 50.2751C19.4583 67.1945 33.1711 80.9074 50.0869 80.9074C67.0062 80.9074 80.7229 67.1947 80.7229 50.2751C80.7229 33.3593 67.0062 19.6428 50.0869 19.6428ZM21.4236 47.0384C23.0323 32.6319 35.2517 21.4285 50.0869 21.4285C64.5808 21.4285 76.5788 32.1173 78.6282 46.039C77.6084 46.1973 76.8146 46.7215 76.2412 47.6155C75.5471 48.6996 75.1966 50.3001 75.1966 52.4272C75.1966 54.5441 75.5471 56.1514 76.2412 57.2287C76.6343 57.8415 77.1309 58.2817 77.733 58.5492C74.3465 69.8788 64.1844 78.2831 51.9494 79.0625V68.2261H50.4978L47.3045 69.7069V71.3176L50.5154 69.8095V79.1185C50.3728 79.1206 50.23 79.1217 50.0869 79.1217C36.9327 79.1217 25.8351 70.3159 22.3676 58.2755H28.304L28.3039 56.8665H25.6539L25.6539 45.8751H23.9292L21.4236 47.0384ZM21.2854 48.7168C21.2579 49.2328 21.244 49.7523 21.244 50.2751C21.244 52.5429 21.5056 54.7496 22.0003 56.8665H23.9467V47.4653L21.2854 48.7168ZM78.1322 57.0706C78.3451 56.1887 78.5175 55.2911 78.6474 54.3797L77.4891 56.1514C77.6706 56.5403 77.8848 56.8467 78.1322 57.0706ZM78.8965 51.8203C78.9235 51.3087 78.9372 50.7935 78.9372 50.2751C78.9372 49.3015 78.8889 48.3391 78.7947 47.3903C78.2527 47.5412 77.8314 47.9392 77.5277 48.5765C77.1316 49.4178 76.9318 50.7002 76.9318 52.4272C76.9318 53.2069 76.9879 53.9422 77.093 54.6228L78.8965 51.8203Z" fill="#181818"/>
<path d="M93.2467 29.0417C99.5705 42.0665 99.6181 57.3769 93.3793 70.4355L94.9905 71.2053C101.464 57.6562 101.414 41.7754 94.8531 28.2617L93.2467 29.0417Z" fill="#181818"/>
<path d="M6.7582 70.4582C0.434449 57.4335 0.390211 42.123 6.62571 29.0641L5.01428 28.2947C-1.45519 41.8435 -1.40942 57.7243 5.15181 71.2381L6.7582 70.4582Z" fill="#181818"/>
<path d="M85.274 35.4215C89.6785 44.4327 89.7091 55.044 85.375 64.083L86.9851 64.855C91.5549 55.3247 91.5231 44.1401 86.8784 34.6374L85.274 35.4215Z" fill="#181818"/>
<path d="M14.7343 64.0783C10.3297 55.0669 10.2959 44.4557 14.63 35.4169L13.0198 34.6448C8.44994 44.1754 8.48535 55.3599 13.13 64.8625L14.7343 64.0783Z" fill="#181818"/>
</svg>
