<svg width="101" height="100" viewBox="0 0 101 100" fill="none" xmlns="http://www.w3.org/2000/svg">
<path fill-rule="evenodd" clip-rule="evenodd" d="M31.0226 20.6053C31.0226 18.0858 33.0657 16.0714 35.6065 16.0714H41.7833V17.1981C41.7833 17.6533 41.9875 18.03 42.1853 18.2917C42.39 18.5625 42.6495 18.7928 42.9026 18.9756C43.1585 19.1606 43.437 19.318 43.7038 19.4323C43.9484 19.5372 44.2676 19.6428 44.5833 19.6428H56.9619C57.2836 19.6428 57.5992 19.5339 57.8397 19.4247C58.1 19.3065 58.3664 19.1446 58.6083 18.9558C58.8483 18.7685 59.0901 18.5345 59.2791 18.2617C59.4635 17.9955 59.6404 17.6294 59.6404 17.1981V16.0714H65.8904C68.4055 16.0714 70.3547 18.06 70.3547 20.6053V30.3571H72.1404V20.6053C72.1404 17.1041 69.4218 14.2856 65.8904 14.2856H35.6065C32.1009 14.2856 29.2369 17.0783 29.2369 20.6053V30.3571H31.0226V20.6053ZM43.569 17.1534V16.0714H57.8547V17.1702C57.8495 17.1824 57.8373 17.2071 57.8112 17.2448C57.7505 17.3324 57.648 17.4401 57.5096 17.5481C57.3732 17.6546 57.2272 17.7417 57.1016 17.7987C57.015 17.838 56.9644 17.8512 56.9482 17.8554C56.9448 17.8563 56.9429 17.8568 56.9425 17.8571H44.5966C44.5966 17.8568 44.595 17.856 44.59 17.8547C44.5701 17.8498 44.51 17.8351 44.4073 17.791C44.2654 17.7302 44.1012 17.6386 43.9484 17.5282C43.7927 17.4158 43.6776 17.3044 43.6098 17.2148C43.5884 17.1865 43.5759 17.1661 43.569 17.1534Z" fill="#181818"/>
<path d="M61.3351 78.5714H40.0172V80.3571H61.3351V78.5714Z" fill="#181818"/>
<path d="M36.3802 41.0714H51.2611V39.2856H36.3802V41.0714Z" fill="#181818"/>
<path d="M29.2373 49.1071H72.0945V47.3214H29.2373V49.1071Z" fill="#181818"/>
<path d="M29.2373 52.6785H50.6659V50.8928H29.2373V52.6785Z" fill="#181818"/>
<path d="M31.9159 42.8571C33.3952 42.8571 34.5944 41.6578 34.5944 40.1785C34.5944 38.6992 33.3952 37.4999 31.9159 37.4999C30.4365 37.4999 29.2373 38.6992 29.2373 40.1785C29.2373 41.6578 30.4365 42.8571 31.9159 42.8571Z" fill="#181818"/>
<path fill-rule="evenodd" clip-rule="evenodd" d="M25.6659 33.0356C24.1865 33.0356 22.9873 34.2349 22.9873 35.7142V57.1428C22.9873 58.6221 24.1865 59.8214 25.6659 59.8214H29.2369V78.8946C29.2369 82.3355 32.0754 85.7142 35.6672 85.7142H65.8904C69.5183 85.7142 72.1404 82.295 72.1404 78.8946V59.8214H75.6659C77.1452 59.8214 78.3445 58.6221 78.3445 57.1428V35.7142C78.3445 34.2349 77.1452 33.0356 75.6659 33.0356H25.6659ZM31.0226 78.8946V59.8214H33.0476C32.8957 60.084 32.8087 60.389 32.8087 60.7142C32.8087 61.7004 33.6082 62.4999 34.5944 62.4999H66.7373C67.7235 62.4999 68.523 61.7004 68.523 60.7142C68.523 60.389 68.4361 60.084 68.2841 59.8214H70.3547V78.8946C70.3547 81.5477 68.309 83.9285 65.8904 83.9285H35.6672C33.2126 83.9285 31.0226 81.5072 31.0226 78.8946ZM24.773 35.7142C24.773 35.2211 25.1728 34.8214 25.6659 34.8214H75.6659C76.159 34.8214 76.5587 35.2211 76.5587 35.7142V57.1428C76.5587 57.6359 76.159 58.0356 75.6659 58.0356H25.6659C25.1728 58.0356 24.773 57.6359 24.773 57.1428V35.7142Z" fill="#181818"/>
</svg>
