<svg width="101" height="100" viewBox="0 0 101 100" fill="none" xmlns="http://www.w3.org/2000/svg">
<path d="M42.9757 38.4818V42.0532H59.0472V38.4818H42.9757Z" fill="#181818"/>
<path fill-rule="evenodd" clip-rule="evenodd" d="M54.0753 13.4997C54.6108 13.5146 55.1378 13.5289 55.6562 13.5425C58.8353 13.626 61.6895 13.7011 64.1777 13.9621C67.0736 14.2659 69.5826 14.83 71.623 16.0236C75.8166 18.477 77.6427 23.3298 77.6186 32.4095C77.9223 39.1974 77.8507 46.0065 77.3316 52.7829C77.1916 56.434 76.3341 59.6645 74.4394 62.0798C72.5206 64.5256 69.6259 66.0242 65.6583 66.3536C55.2907 67.2489 44.6394 67.5584 34.2707 65.9896L34.2578 65.9876C31.6588 65.5553 29.7126 64.4571 28.2796 62.8979C26.8595 61.3529 25.9891 59.4054 25.4408 57.3354C24.5727 54.0587 24.4739 50.282 24.3887 47.0218C24.3674 46.2101 24.347 45.4304 24.3158 44.6984L24.315 44.6808L24.3098 43.1121C24.2874 36.7421 24.2698 31.7028 24.6418 27.7609C25.0427 23.512 25.908 20.3503 27.8686 18.1103C29.8442 15.8529 32.7921 14.6866 36.9704 14.0822C41.1449 13.4784 46.7099 13.415 54.0753 13.4997ZM26.1783 47.0852C26.156 46.2496 26.1342 45.4306 26.1006 44.64L26.0956 43.1484C26.0734 36.7302 26.0562 31.7791 26.4196 27.9287C26.8116 23.7742 27.6349 21.0887 29.2123 19.2863C30.7746 17.5013 33.214 16.4299 37.226 15.8496C41.2359 15.2695 46.6542 15.2006 54.0223 15.2849C54.5657 15.3001 55.0978 15.3142 55.6188 15.3279C58.8055 15.4119 61.5787 15.485 63.9914 15.7381C66.7975 16.0325 69.0072 16.5622 70.7213 17.565C74.0333 19.5026 75.8595 23.4476 75.8329 32.4256L75.8328 32.4469L75.8338 32.4682C76.1359 39.2033 76.0646 45.9527 75.5498 52.6635L75.5484 52.6808L75.5478 52.6982C75.4178 56.147 74.6143 58.9636 73.0344 60.9776C71.4757 62.9644 69.0763 64.2783 65.5091 64.5742L65.506 64.5744C55.1977 65.4646 44.7089 65.7621 34.5444 64.225C32.3164 63.8531 30.74 62.9361 29.5943 61.6896C28.4345 60.4277 27.6699 58.777 27.1669 56.8782C26.3582 53.8254 26.2649 50.3298 26.1783 47.0852Z" fill="#181818"/>
<path d="M16.19 75.9818V86.6961H28.69V79.5532H30.4757V86.6961H42.9757V79.5532H44.7614V86.6961H57.2614V79.5532H59.0472V86.6961H71.5472V79.5532H73.3329V86.6961H84.0472V75.9818H85.8329V88.4818H14.4043V75.9818H16.19Z" fill="#181818"/>
</svg>
