<svg width="81" height="80" viewBox="0 0 81 80" fill="none" xmlns="http://www.w3.org/2000/svg">
<path fill-rule="evenodd" clip-rule="evenodd" d="M18.8023 11.4287H62.1976L73.3573 28.2514L40.4975 68.6096L7.64258 28.2513L18.8023 11.4287ZM19.5689 12.8573L9.41427 28.1648L12.5004 31.9558C12.8646 31.7822 13.3412 31.5619 13.9215 31.3082C15.3747 30.6729 17.4789 29.8279 20.0936 28.9834C25.32 27.2954 32.6028 25.6041 40.8123 25.6041C49.0236 25.6041 56.0105 27.2961 60.9446 28.9875C63.4124 29.8334 65.3696 30.6802 66.7131 31.3173C67.3849 31.6359 67.9035 31.9023 68.2561 32.0901C68.2885 32.1073 68.3195 32.1239 68.3491 32.1398L71.5856 28.1648L61.431 12.8573H19.5689ZM67.4297 33.2691C67.1032 33.0979 66.6576 32.8721 66.1009 32.6081C64.7996 31.9909 62.8922 31.1653 60.4813 30.3388C55.6578 28.6854 48.8299 27.0326 40.8123 27.0326C32.7929 27.0326 25.6624 28.6861 20.5326 30.3429C17.9693 31.1708 15.9097 31.9982 14.4937 32.6172C14.0838 32.7963 13.728 32.958 13.4296 33.0971L21.2521 42.7061C21.5251 42.6237 21.8766 42.5202 22.2977 42.4014C23.3828 42.0954 24.931 41.688 26.7893 41.2807C30.5006 40.4672 35.4717 39.6488 40.4676 39.6488C45.4647 39.6488 50.3088 40.4674 53.8948 41.2818C55.6901 41.6895 57.1753 42.0974 58.2133 42.4038C58.7324 42.5571 59.1399 42.6851 59.4188 42.7751C59.5017 42.8019 59.5732 42.8253 59.6329 42.845L67.4297 33.2691ZM58.6646 44.0343C58.4312 43.961 58.1442 43.873 57.8088 43.7739C56.7951 43.4746 55.3396 43.0748 53.5784 42.6749C50.0517 41.874 45.3206 41.0773 40.4676 41.0774C35.6135 41.0774 30.753 41.8743 27.0952 42.6761C25.2688 43.0764 23.7482 43.4766 22.6854 43.7764C22.5225 43.8223 22.3703 43.8659 22.2295 43.9068L29.9641 53.4078C30.1385 53.3836 30.3612 53.3532 30.6239 53.3184C31.3043 53.2282 32.2545 53.108 33.3344 52.9877C35.4867 52.7481 38.1829 52.505 40.2862 52.505C42.3901 52.505 45.0388 52.7482 47.144 52.9879C48.2004 53.1082 49.1269 53.2285 49.7895 53.3187C50.1208 53.3638 50.3864 53.4015 50.5695 53.4279C50.661 53.4411 50.7319 53.4515 50.7801 53.4586L50.8352 53.4668L50.8531 53.4695L50.8254 53.6624L58.6646 44.0343ZM49.9168 54.7783C49.8187 54.7646 49.7117 54.7499 49.5967 54.7342C48.942 54.6451 48.0261 54.5262 46.9824 54.4073C44.8874 54.1687 42.3052 53.9336 40.2862 53.9336C38.2666 53.9336 35.6362 54.1688 33.4925 54.4075C32.5315 54.5145 31.6741 54.6216 31.0217 54.7069L40.4976 66.3469L49.9168 54.7783Z" fill="#181818"/>
</svg>
