<svg width="80" height="81" viewBox="0 0 80 81" fill="none" xmlns="http://www.w3.org/2000/svg">
<path fill-rule="evenodd" clip-rule="evenodd" d="M35.0319 9.53613L31.2997 15.834C30.5202 17.1428 30.5198 18.7587 31.2997 20.0674L31.3084 20.0821L35.1435 25.8694V45.066L14.4951 65.7282L15.5056 66.738L66.2197 16.0044L65.2096 14.9942L44.8572 35.3466V25.8694L48.6924 20.0821L48.7011 20.0674C49.4809 18.7587 49.4811 17.1437 48.7016 15.8349L44.9689 9.53613H42.8757V14.2674C42.8757 15.0546 42.708 15.6166 42.3509 15.9892C41.998 16.3574 41.3263 16.6789 40.0004 16.6789C38.6745 16.6789 38.0028 16.3574 37.6498 15.9892C37.2928 15.6166 37.125 15.0546 37.125 14.2674V9.53613H35.0319ZM43.4287 36.7753L36.5721 43.6364V25.439L32.5186 19.3223C32.0154 18.4664 32.0181 17.4191 32.5269 16.5653L32.5277 16.5638L35.6965 11.2168V14.2674C35.6965 15.2218 35.895 16.2227 36.6184 16.9776C37.346 17.7368 38.4692 18.1075 40.0004 18.1075C41.5316 18.1075 42.6547 17.7368 43.3823 16.9776C44.1058 16.2227 44.3043 15.2218 44.3043 14.2674V11.2168L47.473 16.5638L47.4739 16.5653C47.9827 17.4191 47.9854 18.4664 47.4821 19.3223L43.4287 25.439V36.7753Z" fill="#181818"/>
<path d="M40.0004 62.3932C42.1432 62.3932 43.59 64.4916 43.59 66.2331V70.2501H44.5619L48.0875 64.3009C48.7333 63.2172 48.7333 61.8824 48.0875 60.7987L44.1429 54.8464V41.679L35.8578 49.5361V54.8464L31.9133 60.7987C31.2675 61.8824 31.2675 63.2172 31.9133 64.3009L35.4389 70.2501H36.4108V66.2331C36.4108 64.4916 37.8575 62.3932 40.0004 62.3932Z" fill="#181818"/>
</svg>
