<svg width="251" height="245" viewBox="0 0 251 245" fill="none" xmlns="http://www.w3.org/2000/svg">
<path fill-rule="evenodd" clip-rule="evenodd" d="M78.0413 49.437C86.6049 48.9628 95.1585 49.0007 103.722 49.0007C103.781 49.0007 147.116 49.0007 147.116 49.0007C155.846 49.0007 164.4 48.9628 172.959 49.437C180.74 49.8638 188.319 50.7742 195.864 52.8085C211.746 57.0857 225.615 66.0195 235.64 78.6852C245.606 91.2703 251 106.677 251 122.496C251 138.334 245.606 153.731 235.64 166.316C225.615 178.977 211.746 187.916 195.864 192.193C188.319 194.227 180.74 195.133 172.959 195.564C164.4 196.039 155.846 195.996 147.283 195.996C147.224 195.996 103.88 196.001 103.88 196.001C95.1585 195.996 86.6049 196.039 78.0413 195.564C70.2652 195.133 62.686 194.227 55.1413 192.193C39.2594 187.916 25.3904 178.977 15.3651 166.316C5.39896 153.731 0 138.334 0 122.501C0 106.677 5.39896 91.2703 15.3651 78.6852C25.3904 66.0195 39.2594 57.0857 55.1413 52.8085C62.686 50.7742 70.2652 49.8638 78.0413 49.437Z" fill="black"/>
<path fill-rule="evenodd" clip-rule="evenodd" d="M177.178 186.2C212.513 186.2 241.158 157.68 241.158 122.5C241.158 87.3193 212.513 58.7998 177.178 58.7998C141.842 58.7998 113.197 87.3193 113.197 122.5C113.197 157.68 141.842 186.2 177.178 186.2Z" fill="white"/>
</svg>
