<svg width="81" height="80" viewBox="0 0 81 80" fill="none" xmlns="http://www.w3.org/2000/svg">
<path d="M36.7959 44.2905V31.9788H35.3673V44.313C34.2263 44.6408 33.3915 45.6923 33.3915 46.9387C33.3915 48.4474 34.6146 49.6704 36.1232 49.6704C37.6319 49.6704 38.8549 48.4474 38.8549 46.9387C38.8549 45.6622 37.9793 44.5901 36.7959 44.2905Z" fill="#181818"/>
<path fill-rule="evenodd" clip-rule="evenodd" d="M36.0805 24.2859C33.5173 24.2859 31.4394 26.3638 31.4394 28.927V41.7931C29.8411 43.1236 28.8216 45.1298 28.8216 47.3743C28.8216 51.3833 32.0715 54.6332 36.0805 54.6332C40.0895 54.6332 43.3395 51.3833 43.3395 47.3743C43.3395 45.1298 42.3201 43.1232 40.7216 41.7926L40.7216 28.927C40.7216 26.3638 38.6437 24.2859 36.0805 24.2859ZM32.868 28.927C32.868 27.1528 34.3063 25.7145 36.0805 25.7145C37.8547 25.7145 39.293 27.1528 39.293 28.927L39.293 42.4949L39.5783 42.7092C40.9961 43.7741 41.9109 45.4673 41.9109 47.3743C41.9109 50.5943 39.3005 53.2047 36.0805 53.2047C32.8605 53.2047 30.2501 50.5943 30.2501 47.3743C30.2501 45.4674 31.165 43.7746 32.5827 42.7097L32.868 42.4954V28.927Z" fill="#181818"/>
<path d="M49.1698 30.5628L53.6017 34.9947L52.5915 36.0049L49.8841 33.2974V47.28H48.4555V33.2974L45.7481 36.0049L44.7379 34.9947L49.1698 30.5628Z" fill="#181818"/>
<path fill-rule="evenodd" clip-rule="evenodd" d="M40.2841 8.60547L14.5693 15.6192V43.866C14.5693 54.1988 21.0314 61.4694 27.3619 66.1118C30.5349 68.4388 33.7036 70.1281 36.0771 71.2356C37.2648 71.7898 38.2559 72.1994 38.9522 72.4712C39.3005 72.6071 39.5752 72.7087 39.7641 72.7766C39.8586 72.8106 39.9317 72.8362 39.9819 72.8536L40.04 72.8735L40.0563 72.879L40.0623 72.881L40.0667 72.8824C40.07 72.8835 40.179 72.909 40.2872 72.9173H40.4031L40.5131 72.8806L40.2872 72.203C40.5131 72.8806 40.5126 72.8808 40.5131 72.8806L40.5195 72.8784L40.535 72.8732L40.5926 72.8534C40.6426 72.8361 40.7155 72.8105 40.8099 72.7766C40.9986 72.7086 41.2732 72.6071 41.6212 72.4712C42.3173 72.1994 43.3081 71.7898 44.4956 71.2356C46.8686 70.1281 50.037 68.4387 53.2099 66.1118C59.5399 61.4694 66.002 54.1988 66.002 43.866V15.6191L40.2841 8.60547ZM40.326 71.4324L40.2869 71.4465L40.2476 71.4324C40.07 71.3685 39.8073 71.2715 39.4717 71.1404C38.8002 70.8784 37.8376 70.4807 36.6811 69.941C34.3662 68.8609 31.2841 67.2166 28.2067 64.9598C22.0361 60.4346 15.9979 53.5367 15.9979 43.866V16.7103L40.2842 10.0862L64.5734 16.7103V43.866C64.5734 53.5367 58.5353 60.4346 52.365 64.9598C49.2877 67.2167 46.206 68.8609 43.8914 69.9411C42.7351 70.4807 41.7728 70.8784 41.1016 71.1405C40.7661 71.2715 40.5035 71.3686 40.326 71.4324Z" fill="#181818"/>
</svg>
