<svg width="81" height="80" viewBox="0 0 81 80" fill="none" xmlns="http://www.w3.org/2000/svg">
<path d="M35.1631 50.1299L51.1746 40L35.1631 29.8701V50.1299Z" fill="#181818"/>
<path fill-rule="evenodd" clip-rule="evenodd" d="M40.5002 20.1687C29.5647 20.1687 20.6679 29.0647 20.6679 40.0003C20.6679 50.9359 29.5646 59.8326 40.5002 59.8326C51.4358 59.8326 60.3318 50.9358 60.3318 40.0003C60.3318 29.0647 51.4358 20.1687 40.5002 20.1687ZM22.0964 40.0003C22.0964 29.8537 30.3536 21.5972 40.5002 21.5972C50.6468 21.5972 58.9033 29.8537 58.9033 40.0003C58.9033 50.1469 50.6468 58.4041 40.5002 58.4041C30.3536 58.4041 22.0964 50.1469 22.0964 40.0003Z" fill="#181818"/>
<path fill-rule="evenodd" clip-rule="evenodd" d="M37.843 8.50293L35.8736 14.8474C33.6199 15.2612 31.4697 15.9714 29.4633 16.9353L24.1364 12.9563L19.8369 16.0803L21.9774 22.3842C20.4302 24.0109 19.097 25.8403 18.0171 27.8275L11.3659 27.7393L9.72363 32.7946L15.1463 36.6255C14.9997 37.7297 14.9224 38.8563 14.9224 40.0002C14.9224 41.1449 14.9997 42.2709 15.1463 43.3749L9.72363 47.2058L11.3659 52.2611L18.0171 52.1729C19.097 54.1601 20.4301 55.9901 21.9773 57.6163L19.8369 63.92L24.1365 67.045L29.4634 63.0652C31.4699 64.0291 33.6201 64.7386 35.8735 65.1529L37.843 71.4975H43.1576L45.127 65.1529C47.3798 64.7385 49.5306 64.0291 51.5372 63.0652L56.8641 67.045L61.1636 63.92L59.0232 57.6163C60.5704 55.9901 61.9036 54.1601 62.9834 52.1729L69.6347 52.2611L71.2769 47.2058L65.8542 43.3749C66.0007 42.2706 66.0773 41.1447 66.0773 40.0002C66.0773 38.8565 66.0007 37.73 65.8542 36.6255L71.2769 32.7946L69.6347 27.7393L62.9834 27.8275C61.9035 25.8403 60.5703 24.0109 59.0232 22.3842L61.1637 16.0803L56.8641 12.9563L51.5372 16.9353C49.5307 15.9714 47.3799 15.2612 45.1262 14.8474L43.1577 8.50293H37.843ZM38.8953 9.9315H42.1052L44.0217 16.1086L44.4566 16.1806C46.8752 16.5812 49.1731 17.3427 51.2942 18.4074L51.6885 18.6054L56.8758 14.7307L59.4726 16.6175L57.3887 22.7548L57.6976 23.0686C59.3794 24.7769 60.8062 26.7337 61.9242 28.8777L62.1275 29.2675L68.6014 29.1817L69.5933 32.235L64.3142 35.9644L64.3796 36.3998C64.556 37.575 64.6487 38.7773 64.6487 40.0002C64.6487 41.224 64.556 42.4254 64.3796 43.6007L64.3142 44.0361L69.5933 47.7655L68.6014 50.8187L62.1275 50.7329L61.9242 51.1227C60.8062 53.2669 59.3793 55.2245 57.6977 56.9317L57.3886 57.2455L59.4727 63.3832L56.8759 65.2706L51.6886 61.395L51.2942 61.593C49.1732 62.6576 46.8753 63.4184 44.4572 63.8199L44.0226 63.892L42.1052 70.0689H38.8953L36.978 63.892L36.5434 63.8199C34.1244 63.4184 31.8274 62.6576 29.7064 61.593L29.312 61.395L24.1247 65.2706L21.5279 63.3832L23.6119 57.2455L23.3028 56.9317C21.6212 55.2245 20.1944 53.2669 19.0764 51.1227L18.8731 50.7329L12.3991 50.8187L11.4073 47.7655L16.6863 44.0361L16.621 43.6007C16.4445 42.4251 16.351 41.2237 16.351 40.0002C16.351 38.7776 16.4445 37.5753 16.621 36.3998L16.6863 35.9644L11.4073 32.235L12.3991 29.1817L18.8731 29.2675L19.0764 28.8777C20.1944 26.7337 21.6212 24.7769 23.3029 23.0686L23.6119 22.7548L21.5279 16.6175L24.1247 14.7307L29.312 18.6054L29.7064 18.4074C31.8275 17.3427 34.1245 16.5812 36.5431 16.1806L36.9779 16.1086L38.8953 9.9315Z" fill="#181818"/>
</svg>
