<svg width="80" height="80" viewBox="0 0 80 80" fill="none" xmlns="http://www.w3.org/2000/svg">
<path d="M43.4962 38.513L56.2253 25.4991L55.2041 24.5002L42.5377 37.4498C41.7193 36.7791 40.6724 36.3766 39.5316 36.3766C38.3346 36.3766 37.2409 36.8202 36.4061 37.5519L29.3388 30.6493L28.3406 31.6713L35.483 38.6472C35.0426 39.3668 34.7887 40.2128 34.7887 41.118C34.7887 43.738 36.913 45.8609 39.5316 45.8609C42.153 45.8609 44.2759 43.738 44.2759 41.118C44.2759 40.1558 43.989 39.2606 43.4962 38.513Z" fill="#181818"/>
<path fill-rule="evenodd" clip-rule="evenodd" d="M39.5433 9.34961C47.8842 9.34961 55.4364 12.7243 60.9077 18.181C66.4009 23.6581 69.8004 31.2365 69.8004 39.6068V39.6094C69.8004 39.7292 69.8004 39.8526 69.7989 39.9767C69.6 56.5187 56.1306 69.8653 39.5433 69.8653H39.5409C39.4329 69.8653 39.3195 69.8653 39.2054 69.8639L39.2121 69.2539L39.204 69.8638L39.2054 69.8639C22.6505 69.682 9.28613 56.2069 9.28613 39.6068C9.28613 31.235 12.6872 23.6551 18.1819 18.178C23.5798 12.7977 31.0013 9.44196 39.2048 9.35252C39.3133 9.35111 39.4286 9.34961 39.5433 9.34961ZM39.9276 13.5396V10.7807C47.466 10.8791 54.3039 13.8691 59.386 18.6935L58.097 19.9815L59.1067 20.992L60.3976 19.7022C65.2637 24.7985 68.2789 31.6742 68.3697 39.2539H65.6418V40.6825H68.3529C68.0862 47.945 65.1339 54.5213 60.4597 59.4476L59.1067 58.0958L58.097 59.1063L59.4511 60.4594C54.3621 65.3196 47.4967 68.3354 39.9276 68.4342V64.9625H38.499V68.4186C31.1921 68.1583 24.5779 65.1791 19.6375 60.4617L20.9939 59.1063L19.9841 58.0958L18.6289 59.45C13.9537 54.5235 11.0008 47.9463 10.7344 40.6825H14.2133V39.2539H10.7168C10.8077 31.6729 13.8241 24.7959 18.6915 19.6994L19.9839 20.9918L20.9941 19.9817L19.7033 18.691C24.6375 14.0097 31.225 11.0562 38.499 10.7977V13.5396H39.9276Z" fill="#181818"/>
</svg>
