<svg width="80" height="81" viewBox="0 0 80 81" fill="none" xmlns="http://www.w3.org/2000/svg">
<path d="M52.7052 9.47359L51.4284 5.03613L50.1516 9.47359L45.7141 10.7504L50.1516 12.0273L51.4284 16.4647L52.7052 12.0273L57.1427 10.7504L52.7052 9.47359Z" fill="#181818"/>
<path d="M69.9998 13.6076L71.5959 19.1544L77.1427 20.7504L71.5959 22.3465L69.9998 27.8933L68.4038 22.3465L62.857 20.7504L68.4038 19.1544L69.9998 13.6076Z" fill="#181818"/>
<path fill-rule="evenodd" clip-rule="evenodd" d="M10.1113 27.8074C10.1113 25.6365 11.8712 23.8767 14.042 23.8767L46.6719 23.8767C48.8427 23.8767 50.6025 25.6365 50.6025 27.8074C50.6025 29.9782 48.8427 31.738 46.6719 31.738H34.9902V42.3589C39.3732 43.3933 43.3987 45.926 45.9575 49.9802H54.9533V64.3675H45.9571C42.5127 69.8244 36.411 72.5247 30.357 72.5247C24.3029 72.5247 18.2013 69.8244 14.7569 64.3675H5.76074V49.9802H14.7565C17.1554 46.1793 20.8434 43.7157 24.9065 42.5704V31.738H14.042C11.8712 31.738 10.1113 29.9782 10.1113 27.8074ZM14.042 25.2121C12.6087 25.2121 11.4467 26.374 11.4467 27.8074C11.4467 29.2407 12.6087 30.4027 14.042 30.4027H46.6719C48.1052 30.4027 49.2672 29.2407 49.2672 27.8074C49.2672 26.374 48.1052 25.2121 46.6719 25.2121L14.042 25.2121ZM33.6548 31.738V42.0917C32.5649 41.9121 31.4601 41.8224 30.357 41.8224C28.9771 41.8224 27.5947 41.9627 26.2419 42.2439V31.738H33.6548ZM46.252 51.3156H53.6179V63.0322H46.252V51.3156ZM14.462 51.3156V63.0322H7.09612V51.3156H14.462ZM15.7974 50.8347V63.5125C18.9393 68.611 24.6239 71.1893 30.357 71.1893C36.09 71.1893 41.7746 68.611 44.9166 63.5125V50.8347C41.7746 45.7361 36.09 43.1578 30.357 43.1578C24.6239 43.1578 18.9393 45.7361 15.7974 50.8347Z" fill="#181818"/>
<path d="M63.9821 36.7682L61.4284 27.8933L58.8747 36.7682L49.9998 39.3219L58.8747 41.8755L61.4284 50.7504L63.9821 41.8755L72.857 39.3219L63.9821 36.7682Z" fill="#181818"/>
</svg>
