<svg width="81" height="80" viewBox="0 0 81 80" fill="none" xmlns="http://www.w3.org/2000/svg">
<path d="M38.0286 31.4616V33.5026H32.6868V31.4616H38.0286Z" fill="#181818"/>
<path fill-rule="evenodd" clip-rule="evenodd" d="M22.4371 39.3076H22.2139V41.5286H22.4594C23.6648 41.5286 24.7139 41.3723 25.6067 41.0598C26.507 40.7399 27.2659 40.2972 27.8835 39.7317C28.5085 39.1588 29.0107 38.4966 29.3902 37.7451C29.7771 36.9862 30.0561 36.164 30.2273 35.2786C30.3984 34.3857 30.484 33.4594 30.484 32.4996V31.5509C30.484 30.6357 30.3686 29.7801 30.138 28.984C29.9073 28.1878 29.5651 27.4884 29.1112 26.8857C28.6573 26.2831 28.0993 25.8106 27.4371 25.4683C26.7749 25.1261 26.0048 24.9549 25.1268 24.9549C24.3009 24.9549 23.5606 25.1037 22.9058 25.4014C22.2585 25.6915 21.7079 26.1008 21.254 26.629C20.8002 27.1499 20.4542 27.7526 20.2161 28.4371C19.978 29.1216 19.859 29.8545 19.859 30.6357C19.859 31.3575 19.9557 32.0457 20.1491 32.7005C20.3426 33.3552 20.6328 33.9356 21.0197 34.4415C21.414 34.9475 21.9051 35.3493 22.4929 35.6469C23.0881 35.9371 23.7726 36.0822 24.5465 36.0822C25.1863 36.0822 25.7779 35.9482 26.321 35.6804C26.8716 35.4125 27.3515 35.0554 27.7607 34.609L27.7826 34.5851C27.7456 35.1046 27.664 35.5962 27.5375 36.0598C27.359 36.7146 27.0651 37.2838 26.6558 37.7674C26.2466 38.2511 25.696 38.6305 25.004 38.9058C24.3195 39.1737 23.4639 39.3076 22.4371 39.3076ZM27.8054 31.1268V32.2013C27.6576 32.5335 27.4567 32.8338 27.2027 33.1023C26.9423 33.3776 26.6372 33.597 26.2875 33.7607C25.9378 33.917 25.5546 33.9951 25.138 33.9951C24.699 33.9951 24.3158 33.9021 23.9884 33.7161C23.661 33.5301 23.3895 33.2771 23.1737 32.9572C22.9579 32.6372 22.7942 32.2726 22.6826 31.8634C22.5784 31.4468 22.5264 31.0152 22.5264 30.5688C22.5264 30.0926 22.5822 29.6462 22.6938 29.2295C22.8128 28.8054 22.9802 28.4371 23.196 28.1246C23.4192 27.8046 23.6908 27.5554 24.0107 27.3768C24.3381 27.1908 24.7064 27.0978 25.1157 27.0978C25.4877 27.0978 25.8337 27.1834 26.1536 27.3545C26.481 27.5256 26.7674 27.7823 27.013 28.1246C27.2659 28.4594 27.4594 28.8798 27.5933 29.3857C27.7347 29.8843 27.8054 30.4646 27.8054 31.1268Z" fill="#181818"/>
<path d="M45.9639 25.1223V41.4282H43.2741V28.3143L39.2898 29.6648V27.4438L45.6402 25.1223H45.9639Z" fill="#181818"/>
<path d="M61.0755 41.4282V39.2853H53.5755L57.0911 35.4125C57.5822 34.9066 58.0323 34.4081 58.4415 33.917C58.8508 33.4185 59.2042 32.9237 59.5018 32.4326C59.8069 31.9341 60.0412 31.4356 60.2049 30.9371C60.3686 30.4386 60.4505 29.9363 60.4505 29.4304C60.4505 28.5152 60.2496 27.7228 59.8478 27.0532C59.4534 26.3835 58.8768 25.8664 58.1179 25.5018C57.359 25.1372 56.4363 24.9549 55.35 24.9549C54.1968 24.9549 53.2109 25.1893 52.3924 25.6581C51.574 26.1194 50.949 26.7444 50.5174 27.5331C50.0859 28.3143 49.8701 29.1774 49.8701 30.1223H52.5598C52.5598 29.5345 52.664 29.0137 52.8723 28.5598C53.0807 28.0985 53.3895 27.7377 53.7987 27.4773C54.2079 27.2168 54.7139 27.0866 55.3165 27.0866C55.8374 27.0866 56.2801 27.202 56.6447 27.4326C57.0093 27.6558 57.2845 27.9646 57.4706 28.359C57.664 28.7459 57.7607 29.196 57.7607 29.7094C57.7607 30.074 57.6901 30.4497 57.5487 30.8366C57.4148 31.2161 57.1804 31.6439 56.8456 32.1201C56.5107 32.5963 56.0532 33.1618 55.4728 33.8165L50.1826 39.5866V41.4282H61.0755Z" fill="#181818"/>
<path d="M33.1904 59.9996L29.619 49.8433H31.7395L34.1672 57.7182L36.6084 49.8433H38.7359L35.1505 59.9996H33.1904Z" fill="#181818"/>
<path d="M39.5269 52.671V54.2424H49.5412V52.671H39.5269Z" fill="#181818"/>
<path d="M39.5269 55.0139V56.571H42.3126V55.0139H39.5269Z" fill="#181818"/>
<path d="M43.1412 55.0139V56.571H45.9269V55.0139H43.1412Z" fill="#181818"/>
<path d="M46.7698 55.0139V56.571H49.5412V55.0139H46.7698Z" fill="#181818"/>
<path fill-rule="evenodd" clip-rule="evenodd" d="M40.2496 74.2853C59.1851 74.2853 74.5353 58.9351 74.5353 39.9996C74.5353 21.0641 59.1851 5.71387 40.2496 5.71387C21.3141 5.71387 5.96387 21.0641 5.96387 39.9996C5.96387 58.9351 21.3141 74.2853 40.2496 74.2853ZM40.2496 72.8567C58.3961 72.8567 73.1067 58.1461 73.1067 39.9996C73.1067 21.8531 58.3961 7.14244 40.2496 7.14244C22.1031 7.14244 7.39244 21.8531 7.39244 39.9996C7.39244 58.1461 22.1031 72.8567 40.2496 72.8567Z" fill="#181818"/>
</svg>
