<svg width="318" height="55" viewBox="0 0 318 55" fill="none" xmlns="http://www.w3.org/2000/svg">
<g clip-path="url(#clip0_3583_3903)">
<path d="M18.6769 24.6648C17.2101 24.6669 15.7595 24.971 14.415 25.5581C13.0705 26.1453 11.8607 27.003 10.861 28.0779C9.86131 29.1529 9.09296 30.4222 8.60358 31.8071C8.1142 33.192 7.91427 34.6628 8.01621 36.1283C7.90833 37.5971 8.10376 39.0724 8.59046 40.4622C9.07716 41.852 9.84481 43.1264 10.8451 44.2059C11.8454 45.2854 13.0569 46.1469 14.4044 46.7366C15.7519 47.3262 17.2064 47.6315 18.6769 47.6332C20.1491 47.631 21.6052 47.3259 22.9547 46.7367C24.3042 46.1474 25.5182 45.2867 26.5218 44.2079C27.5253 43.1291 28.2968 41.8552 28.7883 40.4653C29.2797 39.0754 29.4806 37.5992 29.3787 36.1283C29.4808 34.6593 29.2799 33.185 28.788 31.7973C28.2961 30.4097 27.5239 29.1384 26.5197 28.0628C25.5156 26.9872 24.301 26.1304 22.9516 25.5457C21.6022 24.9611 20.1471 24.6612 18.6769 24.6648ZM17.2719 17.4639C19.4781 17.4381 21.6601 17.9255 23.6462 18.8878C25.6323 19.8501 27.3684 21.261 28.7177 23.0094V18.3743H36.6097V54.2547H31.2795C30.945 54.2602 30.6128 54.1989 30.3022 54.0745C29.9916 53.9501 29.7089 53.7651 29.4705 53.5301C29.232 53.2951 29.0426 53.015 28.9134 52.706C28.7841 52.3969 28.7176 52.0653 28.7177 51.7302V49.4955C27.3642 51.2363 25.6263 52.6393 23.6404 53.5943C21.6545 54.5492 19.4746 55.0303 17.2719 54.9996C14.9093 54.9252 12.5849 54.3816 10.4338 53.4003C8.28263 52.419 6.34771 51.0196 4.74091 49.2832C3.13411 47.5469 1.8875 45.5082 1.07369 43.2855C0.259888 41.0628 -0.105043 38.7003 8.56183e-05 36.3352C-0.105043 33.9701 0.259888 31.6076 1.07369 29.3849C1.8875 27.1622 3.13411 25.1235 4.74091 23.3872C6.34771 21.6508 8.28263 20.2514 10.4338 19.2701C12.5849 18.2888 14.9093 17.7452 17.2719 17.6708" fill="white"/>
<path d="M45.5762 18.3744H53.4682V23.2578C54.6388 21.4584 56.2556 19.9938 58.1604 19.0073C60.0651 18.0208 62.1927 17.5461 64.3354 17.6295C72.5995 17.6295 78.0538 23.5475 78.0538 32.6521V54.2548H72.6822C72.0137 54.2548 71.3726 53.9888 70.8999 53.5154C70.4272 53.0419 70.1615 52.3998 70.1615 51.7303V33.935C70.1615 28.2653 67.2691 24.8304 62.6825 24.8304C58.096 24.8304 53.4682 28.9688 53.4682 36.5836V54.2548H48.0966C47.4282 54.2548 46.787 53.9888 46.3144 53.5154C45.8417 53.0419 45.5762 52.3998 45.5762 51.7303V18.3744Z" fill="white"/>
<path d="M102.97 24.6649C101.503 24.667 100.052 24.9711 98.7077 25.5582C97.3632 26.1454 96.1537 27.0031 95.154 28.0781C94.1543 29.153 93.3859 30.4224 92.8965 31.8072C92.4072 33.1921 92.2072 34.6629 92.3092 36.1284C92.2013 37.5972 92.3967 39.0725 92.8834 40.4623C93.3701 41.8521 94.1375 43.1265 95.1378 44.206C96.1381 45.2855 97.3499 46.147 98.6974 46.7367C100.045 47.3264 101.499 47.6316 102.97 47.6333C104.442 47.6312 105.898 47.326 107.247 46.7368C108.597 46.1476 109.811 45.2868 110.815 44.208C111.818 43.1292 112.59 41.8553 113.081 40.4654C113.572 39.0755 113.774 37.5993 113.672 36.1284C113.774 34.6594 113.573 33.1851 113.081 31.7975C112.589 30.4098 111.817 29.1385 110.813 28.0629C109.809 26.9873 108.594 26.1305 107.245 25.5459C105.895 24.9612 104.44 24.6613 102.97 24.6649ZM101.565 17.464C103.771 17.4382 105.953 17.9256 107.939 18.8879C109.925 19.8502 111.661 21.2611 113.011 23.0095V0.248047H120.903V54.0479H115.531C114.863 54.0479 114.221 53.7819 113.749 53.3085C113.276 52.8351 113.011 52.193 113.011 51.5234V49.4956C111.657 51.2364 109.919 52.6394 107.933 53.5944C105.947 54.5494 103.768 55.0304 101.565 54.9997C99.2023 54.9254 96.8779 54.3817 94.7267 53.4004C92.5756 52.4192 90.6404 51.0197 89.0336 49.2834C87.4268 47.547 86.1805 45.5083 85.3667 43.2856C84.5529 41.0629 84.1879 38.7004 84.2931 36.3353C84.1879 33.9702 84.5529 31.6078 85.3667 29.385C86.1805 27.1623 87.4268 25.1236 89.0336 23.3873C90.6404 21.6509 92.5756 20.2515 94.7267 19.2702C96.8779 18.2889 99.2023 17.7453 101.565 17.6709" fill="white"/>
<path d="M129.87 18.3752H137.762V24.6656C138.452 22.7013 139.732 20.9987 141.426 19.791C143.12 18.5834 145.145 17.9299 147.224 17.92C148.25 17.9175 149.274 18.0145 150.282 18.2097V26.4866C148.95 26.0405 147.554 25.8168 146.15 25.8244C141.646 25.8244 137.555 29.6318 137.555 36.8327V54.3383H132.184C131.515 54.3383 130.874 54.0724 130.401 53.5989C129.929 53.1255 129.663 52.4834 129.663 51.8139L129.87 18.3752Z" fill="white"/>
<path d="M171.561 47.6754C173.024 47.6718 174.47 47.3703 175.813 46.7892C177.156 46.208 178.367 45.3593 179.372 44.2947C180.377 43.2301 181.155 41.9719 181.659 40.5966C182.163 39.2212 182.382 37.7576 182.304 36.2946C182.383 34.8336 182.163 33.3719 181.658 31.9988C181.154 30.6257 180.375 29.3701 179.369 28.3088C178.364 27.2474 177.153 26.4026 175.81 25.826C174.467 25.2494 173.022 24.9531 171.561 24.9553C170.093 24.9418 168.638 25.2298 167.286 25.8013C165.933 26.3729 164.712 27.216 163.698 28.2785C162.683 29.3411 161.897 30.6006 161.387 31.9793C160.878 33.358 160.656 34.8266 160.735 36.2946C160.656 37.7645 160.878 39.2351 161.387 40.616C161.896 41.9969 162.682 43.259 163.696 44.3248C164.71 45.3905 165.93 46.2375 167.283 46.8137C168.635 47.3899 170.091 47.6831 171.561 47.6754ZM171.561 54.959C169.095 54.9977 166.647 54.5425 164.359 53.6203C162.071 52.6981 159.991 51.3274 158.239 49.5887C156.488 47.85 155.101 45.7784 154.16 43.4955C153.219 41.2126 152.743 38.7644 152.76 36.2946C152.743 33.8249 153.219 31.3767 154.16 29.0937C155.101 26.8108 156.488 24.7392 158.239 23.0005C159.991 21.2618 162.071 19.8911 164.359 18.9689C166.647 18.0467 169.095 17.5916 171.561 17.6302C174.023 17.5971 176.467 18.0564 178.75 18.9811C181.033 19.9058 183.108 21.2774 184.855 23.0155C186.602 24.7536 187.985 26.8233 188.924 29.1035C189.862 31.3836 190.337 33.8284 190.32 36.2946C190.342 38.7624 189.872 41.2097 188.935 43.4924C187.999 45.7751 186.616 47.8471 184.868 49.5864C183.12 51.3256 181.042 52.697 178.757 53.6197C176.471 54.5424 174.025 54.9978 171.561 54.959Z" fill="white"/>
<path d="M196.725 18.3744H204.618V54.2548H199.246C198.578 54.2548 197.936 53.9888 197.464 53.5154C196.991 53.0419 196.725 52.3998 196.725 51.7303V18.3744ZM200.651 10.5527C199.248 10.5312 197.909 9.96047 196.92 8.96278C195.932 7.96508 195.373 6.61959 195.362 5.21413C195.351 4.51156 195.48 3.81382 195.741 3.16155C196.001 2.50928 196.389 1.91551 196.881 1.41482C197.374 0.914123 197.96 0.516517 198.608 0.245146C199.255 -0.0262252 199.949 -0.165937 200.651 -0.165851C201.338 -0.171314 202.02 -0.0404671 202.656 0.219137C203.292 0.47874 203.871 0.861967 204.359 1.34672C204.847 1.83147 205.234 2.40815 205.498 3.04351C205.763 3.67886 205.899 4.36033 205.899 5.0486C205.904 5.74424 205.772 6.43415 205.512 7.07893C205.251 7.72371 204.866 8.31072 204.379 8.80646C203.892 9.3022 203.311 9.69695 202.672 9.96817C202.032 10.2394 201.345 10.3818 200.651 10.3872" fill="white"/>
<path d="M229.781 24.6649C228.315 24.667 226.864 24.9711 225.52 25.5582C224.175 26.1454 222.965 27.0031 221.966 28.0781C220.966 29.153 220.198 30.4224 219.708 31.8072C219.219 33.1921 219.019 34.6629 219.121 36.1284C219.013 37.5972 219.209 39.0725 219.695 40.4623C220.182 41.8521 220.949 43.1265 221.95 44.206C222.95 45.2855 224.162 46.147 225.509 46.7367C226.857 47.3264 228.311 47.6316 229.781 47.6333C231.254 47.6312 232.71 47.326 234.059 46.7368C235.409 46.1476 236.623 45.2868 237.627 44.208C238.63 43.1292 239.401 41.8553 239.893 40.4654C240.384 39.0755 240.585 37.5993 240.483 36.1284C240.586 34.6594 240.384 33.1851 239.893 31.7975C239.401 30.4098 238.629 29.1385 237.625 28.0629C236.62 26.9873 235.406 26.1305 234.056 25.5459C232.707 24.9612 231.252 24.6613 229.781 24.6649ZM228.377 17.464C230.582 17.4445 232.762 17.9348 234.747 18.8966C236.732 19.8584 238.469 21.2659 239.822 23.0095V0.248047H247.714V54.0479H242.343C242.012 54.0479 241.684 53.9826 241.378 53.8557C241.072 53.7289 240.795 53.5429 240.561 53.3085C240.327 53.0741 240.141 52.7958 240.014 52.4895C239.887 52.1832 239.822 51.855 239.822 51.5234V49.4956C238.467 51.234 236.728 52.6353 234.743 53.59C232.758 54.5448 230.579 55.0272 228.377 54.9997C226.011 54.9307 223.682 54.3911 221.526 53.4122C219.37 52.4332 217.43 51.0346 215.819 49.2977C214.208 47.5608 212.957 45.5203 212.141 43.2949C211.325 41.0696 210.958 38.7038 211.064 36.3353C210.958 33.9668 211.325 31.6011 212.141 29.3757C212.957 27.1504 214.208 25.1098 215.819 23.3729C217.43 21.636 219.37 20.2374 221.526 19.2585C223.682 18.2796 226.011 17.7399 228.377 17.6709" fill="white"/>
<path d="M261.433 22.927H253.706V18.1678H261.433V8.11133H266.474V18.1678H276.969V22.927H266.474V43.6192C266.474 48.0474 268.416 49.7441 272.465 49.7441C274.002 49.764 275.53 49.4973 276.969 48.9578V53.6343C275.271 54.2947 273.46 54.618 271.639 54.5861C270.253 54.7099 268.857 54.5248 267.552 54.0441C266.246 53.5634 265.063 52.7991 264.087 51.806C263.111 50.8129 262.367 49.6157 261.908 48.3004C261.449 46.985 261.287 45.5843 261.433 44.1986V22.927Z" fill="white"/>
<path d="M318 18.168L301.141 54.2553H297.009L280.15 18.168H285.77L298.951 46.806L312.132 18.168H318Z" fill="white"/>
</g>
<defs>
<clipPath id="clip0_3583_3903">
<rect width="318" height="55" fill="white"/>
</clipPath>
</defs>
</svg>
