<svg width="212" height="53" viewBox="0 0 212 53" fill="none" xmlns="http://www.w3.org/2000/svg">
<g clip-path="url(#clip0_3587_12015)">
<path fill-rule="evenodd" clip-rule="evenodd" d="M47.1045 44.865H56.8797C63.9056 44.865 66.5327 40.3662 66.5327 34.3883C66.5327 29.7046 64.6999 27.2395 61.584 25.822C64.5777 24.5895 65.8607 21.3848 65.8607 18.2418C65.8607 12.079 62.9281 8.68945 56.3299 8.68945H47.1656V44.865H47.1045ZM53.2751 13.8046H55.5967C58.346 13.8046 59.629 15.5302 59.629 18.9197C59.629 21.9395 57.8572 23.5418 55.4745 23.5418H53.214V13.8046H53.2751ZM53.2751 28.6569H55.2912C58.9569 28.6569 60.3621 30.5057 60.3621 34.2034C60.3621 37.8395 59.1402 39.7499 55.9022 39.7499H53.3362V28.6569H53.2751Z" fill="white"/>
<path fill-rule="evenodd" clip-rule="evenodd" d="M68.915 44.865H74.4747V8.68945H68.915V44.865Z" fill="white"/>
<path fill-rule="evenodd" clip-rule="evenodd" d="M89.4431 17.8721V39.0104C88.1601 39.9349 87.0604 40.736 85.8385 40.736C84.6166 40.736 83.8223 40.1197 83.8223 38.7639V17.8721H78.2627V39.6884C78.2627 43.2011 79.9734 45.3581 82.9059 45.3581C86.144 45.3581 87.3048 44.1256 89.6875 42.1535V44.8651H94.9417V17.8721H89.4431Z" fill="white"/>
<path fill-rule="evenodd" clip-rule="evenodd" d="M115.714 27.4243C115.714 21.508 113.454 17.3789 107.039 17.3789C100.685 17.3789 98.3633 21.508 98.3633 27.4243V35.3743C98.3633 41.2905 100.624 45.4196 107.039 45.4196C113.27 45.4196 115.592 41.537 115.714 35.8056H110.155V36.4219C110.155 39.5033 109.055 40.8591 107.1 40.8591C105.084 40.8591 104.045 39.565 104.045 36.4219V32.5394H115.775V27.4243H115.714ZM103.984 27.8556V26.4382C103.984 23.3568 105.084 22.001 107.039 22.001C109.055 22.001 110.094 23.2952 110.094 26.4382V27.8556H103.984Z" fill="white"/>
<path fill-rule="evenodd" clip-rule="evenodd" d="M207.968 10.9698H207.479V12.3256H207.785C208.457 12.3256 208.701 11.9558 208.701 11.5861C208.701 11.093 208.518 10.9698 207.968 10.9698ZM208.701 14.6675L207.479 12.757H207.418V14.6675H206.685V10.2919H207.968C209.007 10.2919 209.434 10.7233 209.434 11.4012C209.434 12.1407 209.007 12.5721 208.274 12.6337C208.396 12.757 208.518 13.0035 208.701 13.25L209.618 14.6058H208.701V14.6675ZM204.974 12.5105C204.974 14.1744 206.319 15.6535 208.029 15.6535C209.74 15.6535 211.084 14.2361 211.084 12.5721C211.084 10.8465 209.74 9.42909 208.029 9.42909C206.319 9.42909 204.974 10.8465 204.974 12.5105ZM211.939 12.5721C211.939 14.7291 210.106 16.5163 208.029 16.5163C205.83 16.5163 204.119 14.7907 204.119 12.5721C204.119 10.4151 205.891 8.62793 208.029 8.62793C210.229 8.62793 211.939 10.2919 211.939 12.5721Z" fill="white"/>
<path fill-rule="evenodd" clip-rule="evenodd" d="M120.602 22.4938V39.3182C120.602 43.4473 122.924 45.3577 127.139 45.3577C128.544 45.3577 129.155 45.2345 129.95 45.0496V40.2426H128.117C126.834 40.2426 126.223 39.4415 126.223 38.024V22.4938H129.95V17.8717H126.223V10.5996H120.663V17.8717H117.608V22.4938H120.602Z" fill="white"/>
<path fill-rule="evenodd" clip-rule="evenodd" d="M132.21 35.3743C132.21 41.2905 134.47 45.4196 140.885 45.4196C147.239 45.4196 149.561 41.2905 149.561 35.3743V27.4243C149.561 21.508 147.3 17.3789 140.885 17.3789C134.532 17.3789 132.21 21.508 132.21 27.4243V35.3743ZM144.001 36.3603C144.001 39.4417 142.902 40.7975 140.947 40.7975C138.93 40.7975 137.892 39.5033 137.892 36.3603V26.4382C137.892 23.3568 138.992 22.001 140.947 22.001C142.963 22.001 144.001 23.2952 144.001 26.4382V36.3603Z" fill="white"/>
<path fill-rule="evenodd" clip-rule="evenodd" d="M152.493 35.3743C152.493 41.2905 154.754 45.4196 161.169 45.4196C167.523 45.4196 169.844 41.2905 169.844 35.3743V27.4243C169.844 21.508 167.584 17.3789 161.169 17.3789C154.815 17.3789 152.493 21.508 152.493 27.4243V35.3743ZM164.223 36.3603C164.223 39.4417 163.124 40.7975 161.169 40.7975C159.153 40.7975 158.114 39.5033 158.114 36.3603V26.4382C158.114 23.3568 159.214 22.001 161.169 22.001C163.185 22.001 164.223 23.2952 164.223 26.4382V36.3603Z" fill="white"/>
<path fill-rule="evenodd" clip-rule="evenodd" d="M174.548 22.4938V39.3182C174.548 43.4473 176.87 45.3577 181.086 45.3577C182.491 45.3577 183.102 45.2345 183.896 45.0496V40.2426H182.063C180.78 40.2426 180.169 39.4415 180.169 38.024V22.4938H183.896V17.8717H180.169V10.5996H174.609V17.8717H171.555V22.4938H174.548Z" fill="white"/>
<path fill-rule="evenodd" clip-rule="evenodd" d="M192.877 44.865V23.7267C194.16 22.8022 195.26 22.0011 196.482 22.0011C197.704 22.0011 198.498 22.6174 198.498 23.9732V44.865H204.058V23.0488C204.058 19.536 202.347 17.379 199.415 17.379C196.177 17.379 195.016 18.6115 192.939 20.3988V8.68945H187.379V44.9267H192.877" fill="white"/>
<path fill-rule="evenodd" clip-rule="evenodd" d="M19.1839 53C30.5476 53 38.3677 47.5768 38.3677 26.7465C38.3677 5.91632 30.5476 0.554688 19.1839 0.554688C7.82017 0.554688 0 5.97794 0 26.7465C0 47.5152 7.82017 53 19.1839 53ZM16.679 26.7465L7.39251 17.3791L10.0807 14.6675L17.4732 22.1245V4.19073L30.9141 17.7489L22.0553 26.7465L30.9752 35.7442L17.5343 49.3024V31.4303L10.0807 38.8872L7.39251 36.1756L16.679 26.7465ZM21.2611 40.0582L25.5378 35.7442L21.2611 31.4303V40.0582ZM21.2611 13.4965L25.5378 17.8105L21.2611 22.1245V13.4965Z" fill="white"/>
</g>
<defs>
<clipPath id="clip0_3587_12015">
<rect width="212" height="53" fill="white"/>
</clipPath>
</defs>
</svg>
