<svg width="294" height="62" viewBox="0 0 294 62" fill="none" xmlns="http://www.w3.org/2000/svg">
<g clip-path="url(#clip0_3587_10199)">
<path d="M68.8134 0H6.87822C5.05485 0.00274686 3.30694 0.729057 2.01762 2.01973C0.728293 3.3104 0.00274399 5.06014 0 6.88543V17.2188H6.87822V6.88543H68.8134V55.1042H44.724V62H68.8134C70.6377 61.9945 72.3856 61.2659 73.6746 59.9736C74.9636 58.6812 75.6889 56.9304 75.6916 55.1042V6.88543C75.6889 5.06014 74.9633 3.3104 73.674 2.01973C72.3846 0.729057 70.6367 0.00274686 68.8134 0ZM0 51.7082V62.0935H10.3744C10.3827 60.7273 10.12 59.3732 9.60152 58.1094C9.08309 56.8457 8.31923 55.6976 7.35423 54.7315C6.38922 53.7655 5.24227 53.0009 3.97986 52.4819C2.71745 51.9629 1.36469 51.6999 0 51.7082ZM0 37.927V44.8124C4.5557 44.8151 8.92447 46.6259 12.1488 49.8477C15.373 53.0695 17.1898 57.4395 17.2007 62H24.079C24.0817 58.8333 23.4608 55.6972 22.2518 52.7709C21.0428 49.8447 19.2695 47.1857 17.0331 44.946C14.7968 42.7064 12.1413 40.93 9.21864 39.7185C6.29595 38.5069 3.16335 37.8841 0 37.8854V37.927ZM0 24.1457V31.0415C8.21132 31.0333 16.0897 34.29 21.9028 40.0955C27.7159 45.9011 30.9877 53.7801 30.9987 62H37.8458C37.8458 51.9512 33.8588 42.3138 26.7616 35.2073C19.6645 28.1007 10.0383 24.1069 0 24.1042V24.1457Z" fill="#3EB3E7"/>
<path d="M106.006 61.6471C104.741 61.6638 103.491 61.3715 102.364 60.7955C101.332 60.2914 100.46 59.5115 99.8432 58.5419H99.6876V61.0551H96.4404V34.6143H99.8432V42.9225L99.6876 45.4772H99.8432C100.465 44.515 101.337 43.7397 102.364 43.234C103.966 42.4311 105.789 42.1872 107.545 42.541C109.3 42.8947 110.888 43.8259 112.054 45.1865C113.694 47.0847 114.596 49.5104 114.596 52.02C114.596 54.5295 113.694 56.9552 112.054 58.8534C111.315 59.7382 110.389 60.4478 109.343 60.9309C108.298 61.4141 107.157 61.6587 106.006 61.6471ZM105.445 58.5315C106.23 58.5517 107.009 58.3972 107.727 58.0794C108.444 57.7615 109.082 57.2881 109.595 56.6933C110.733 55.4019 111.328 53.7198 111.255 51.9992C111.321 50.2797 110.727 48.6003 109.595 47.305C109.078 46.7243 108.445 46.2595 107.736 45.9413C107.027 45.623 106.259 45.4585 105.482 45.4585C104.705 45.4585 103.937 45.623 103.228 45.9413C102.519 46.2595 101.885 46.7243 101.368 47.305C100.312 48.6473 99.7381 50.3062 99.7381 52.0148C99.7381 53.7233 100.312 55.3822 101.368 56.7245C101.879 57.3016 102.507 57.7625 103.21 58.076C103.913 58.3895 104.676 58.5484 105.445 58.5419V58.5315Z" fill="white"/>
<path d="M133.373 61.0552H130.126V58.5419H129.98C129.407 59.487 128.585 60.2559 127.605 60.7644C126.585 61.3409 125.435 61.645 124.264 61.6471C123.331 61.7026 122.397 61.5622 121.522 61.2349C120.646 60.9076 119.849 60.4007 119.181 59.7466C117.907 58.2434 117.267 56.303 117.396 54.3359V42.9121H120.789V54.1178C120.861 57.0672 122.355 58.5419 125.25 58.5419C125.9 58.546 126.542 58.4001 127.127 58.1156C127.712 57.831 128.223 57.4154 128.621 56.9011C129.531 55.7944 130.013 54.3976 129.98 52.965V42.964H133.373V61.0552Z" fill="white"/>
<path d="M141.901 36.7221C141.898 37.3575 141.645 37.9661 141.196 38.4154C140.747 38.8647 140.139 39.1184 139.505 39.1211C139.197 39.1187 138.892 39.055 138.609 38.9338C138.326 38.8125 138.07 38.6362 137.855 38.4149C137.628 38.1961 137.448 37.9329 137.327 37.6418C137.206 37.3506 137.145 37.0376 137.15 36.7221C137.15 36.0831 137.403 35.4703 137.855 35.0184C138.306 34.5666 138.918 34.3127 139.556 34.3127C139.872 34.3083 140.184 34.3688 140.475 34.4902C140.766 34.6117 141.029 34.7916 141.248 35.0189C141.465 35.2441 141.636 35.511 141.748 35.8037C141.86 36.0964 141.912 36.4088 141.901 36.7221ZM141.196 42.9533V61.0548H137.855V42.9636L141.196 42.9533Z" fill="white"/>
<path d="M149.017 34.6143V61.0551H145.625V34.6143H149.017Z" fill="white"/>
<path d="M160.491 61.356C159.14 61.4059 157.822 60.9252 156.819 60.0163C156.321 59.5204 155.931 58.9266 155.674 58.2724C155.417 57.6182 155.298 56.9178 155.325 56.2153V46.0585H152.15V42.9429H155.325V37.418H158.717V42.9637H163.147V46.0793H158.717V55.0937C158.667 55.5302 158.704 55.9724 158.825 56.3948C158.946 56.8172 159.149 57.2115 159.423 57.555C159.85 57.9659 160.418 58.1965 161.01 58.1989C161.276 58.1992 161.54 58.1678 161.799 58.1054C162.046 58.0446 162.289 57.9648 162.525 57.8665L163.562 60.8887C162.573 61.2195 161.534 61.3776 160.491 61.356Z" fill="white"/>
<path d="M178.201 51.012H166.395V48.208H178.201V51.012Z" fill="white"/>
<path d="M186.728 36.7221C186.733 37.0376 186.672 37.3506 186.551 37.6418C186.43 37.9329 186.25 38.1961 186.023 38.4149C185.802 38.6425 185.538 38.8225 185.245 38.9439C184.953 39.0654 184.638 39.1257 184.322 39.1211C183.687 39.1184 183.079 38.8647 182.63 38.4154C182.181 37.9661 181.928 37.3575 181.925 36.7221C181.92 36.4051 181.981 36.0904 182.102 35.7976C182.223 35.5047 182.403 35.2397 182.631 35.0189C182.849 34.7916 183.112 34.6117 183.403 34.4902C183.694 34.3688 184.006 34.3083 184.322 34.3127C184.96 34.3127 185.572 34.5666 186.023 35.0184C186.475 35.4703 186.728 36.0831 186.728 36.7221ZM186.023 42.9533V61.0548H182.631V42.9636L186.023 42.9533Z" fill="white"/>
<path d="M190.453 42.9634H193.7V45.4766H193.877C194.453 44.5371 195.275 43.7724 196.252 43.2645C197.272 42.688 198.422 42.384 199.593 42.3818C200.531 42.3218 201.471 42.4601 202.352 42.7875C203.233 43.1149 204.036 43.6242 204.708 44.2823C205.982 45.7855 206.621 47.7259 206.492 49.693V61.0545H203.1V49.9007C203.027 46.9513 201.533 45.4662 198.639 45.4662C197.982 45.4593 197.334 45.6049 196.743 45.8914C196.153 46.1779 195.637 46.5976 195.236 47.1175C194.327 48.2205 193.845 49.6138 193.877 51.0431V61.0545H190.453V42.9634Z" fill="white"/>
<path d="M124.431 9.1907L124.275 11.787H124.431C125.074 10.8036 125.951 9.99543 126.983 9.43529C128.015 8.87515 129.17 8.58055 130.344 8.57797C135.106 8.57797 137.472 11.8286 137.472 16.45V27.8738H133.965V16.9796C133.965 13.0852 132.025 11.787 129.348 11.787C126.298 11.787 124.431 14.6845 124.431 17.5508V27.9361H120.914V0.560547H124.431V9.1907Z" fill="white"/>
<path d="M141.216 27.9049V9.2114H144.567V12.2439H144.722C145.49 10.1045 148.198 8.73367 150.138 8.73367C151.038 8.70134 151.936 8.85695 152.773 9.19062L151.435 12.4724C150.833 12.2713 150.201 12.1799 149.567 12.2023C147.16 12.2023 144.722 14.2275 144.722 17.665V27.9049H141.216Z" fill="white"/>
<path d="M172.267 18.548C172.267 24.2391 168.262 28.5178 162.65 28.5178C157.037 28.5178 153.043 24.2391 153.043 18.548C153.043 12.8569 157.047 8.57812 162.65 8.57812C168.252 8.57812 172.267 12.8569 172.267 18.548ZM168.76 18.548C168.76 14.2692 165.783 11.7872 162.65 11.7872C159.517 11.7872 156.529 14.3212 156.529 18.548C156.529 22.7748 159.506 25.3088 162.629 25.3088C165.752 25.3088 168.76 22.8267 168.76 18.548Z" fill="white"/>
<path d="M175.089 9.19106H178.45V11.7874H178.595C179.235 10.8345 180.092 10.0469 181.094 9.48909C182.097 8.93131 183.217 8.6192 184.364 8.57833C187.372 8.57833 189.323 9.94918 190.267 12.1716C190.957 11.0642 191.919 10.1523 193.061 9.52321C194.204 8.89412 195.488 8.5688 196.792 8.57833C201.378 8.57833 203.473 11.8289 203.473 16.4504V27.8741H199.967V16.98C199.967 13.0855 198.473 11.7874 195.817 11.7874C192.954 11.7874 191.045 14.6849 191.045 17.5512V27.9365H187.538V16.98C187.538 13.0855 186.044 11.7874 183.388 11.7874C180.525 11.7874 178.616 14.6849 178.616 17.5512V27.9365H175.11L175.089 9.19106Z" fill="white"/>
<path d="M206.14 18.548C206.14 13.2411 209.802 8.57812 215.3 8.57812C220.799 8.57812 224.45 12.5141 224.45 18.548C224.45 18.818 224.45 19.1919 224.45 19.1919H209.646C209.634 19.9855 209.778 20.7737 210.071 21.5113C210.364 22.2488 210.8 22.9211 211.353 23.4896C211.907 24.058 212.567 24.5114 213.296 24.8236C214.025 25.1358 214.808 25.3007 215.601 25.3088C216.681 25.375 217.756 25.1011 218.673 24.5257C219.59 23.9502 220.304 23.102 220.716 22.0997L223.828 23.3979C223.147 24.9801 222.001 26.3175 220.543 27.232C219.085 28.1466 217.383 28.5951 215.663 28.5178C209.957 28.5178 206.14 24.1976 206.14 18.548ZM215.217 11.7872C213.943 11.8042 212.715 12.2626 211.741 13.0844C210.767 13.9062 210.107 15.0405 209.874 16.2944H220.716C220.602 14.6535 219.222 11.7872 215.217 11.7872Z" fill="white"/>
<path d="M108.371 28.4139C106.553 28.4465 104.748 28.1111 103.063 27.4276C101.378 26.7441 99.8487 25.7267 98.5666 24.4365C97.2846 23.1463 96.2764 21.61 95.6025 19.9199C94.9286 18.2298 94.603 16.4207 94.6452 14.6015C94.6073 12.7848 94.936 10.9791 95.6118 9.29262C96.2876 7.60615 97.2965 6.0736 98.5781 4.78678C99.8597 3.49997 101.388 2.48537 103.07 1.8038C104.753 1.12222 106.556 0.787677 108.371 0.820224C110.208 0.763716 112.034 1.12283 113.714 1.87084C115.393 2.61885 116.882 3.73647 118.071 5.14049L115.633 7.50833C114.771 6.41117 113.667 5.5295 112.406 4.93293C111.146 4.33636 109.764 4.04122 108.371 4.07081C107.01 4.0345 105.656 4.27745 104.393 4.7847C103.13 5.29195 101.984 6.05275 101.025 7.02023C100.047 8.02307 99.2833 9.2157 98.7819 10.5248C98.2806 11.8339 98.0521 13.2318 98.1103 14.6326C98.0521 16.0334 98.2806 17.4313 98.7819 18.7404C99.2833 20.0495 100.047 21.2422 101.025 22.245C101.984 23.2125 103.13 23.9733 104.393 24.4805C105.656 24.9878 107.01 25.2307 108.371 25.1944C109.907 25.1821 111.422 24.8281 112.805 24.1582C114.188 23.4883 115.406 22.5191 116.369 21.3207L118.849 23.6678C117.591 25.1628 116.013 26.3554 114.232 27.1572C112.391 27.9916 110.392 28.4201 108.371 28.4139Z" fill="white"/>
<path d="M226.359 18.631C226.359 12.9399 230.364 8.66113 235.976 8.66113C237.731 8.60159 239.462 9.08787 240.929 10.0531C242.397 11.0183 243.53 12.415 244.172 14.0511L240.977 15.3596C240.598 14.2981 239.891 13.3853 238.958 12.754C238.025 12.1227 236.915 11.8058 235.79 11.8494C232.812 11.8494 229.907 14.56 229.907 18.6102C229.907 22.6605 232.812 25.371 235.79 25.371C236.946 25.4183 238.087 25.105 239.058 24.4742C240.028 23.8435 240.778 22.9267 241.205 21.8504L244.317 23.1901C243.65 24.8301 242.497 26.2259 241.013 27.1897C239.529 28.1534 237.786 28.6386 236.018 28.5801C230.364 28.6008 226.359 24.2806 226.359 18.631Z" fill="white"/>
<path d="M246.277 22.3388C246.277 18.0912 250.085 15.8065 254.473 15.8065C256.232 15.768 257.973 16.1601 259.546 16.9488V16.3984C259.456 15.3259 259.019 14.3121 258.301 13.5104C257.584 12.7087 256.625 12.1626 255.57 11.9549C254.515 11.7472 253.421 11.8892 252.454 12.3592C251.487 12.8293 250.699 13.6019 250.209 14.5602L247.004 13.1894C247.657 11.4654 249.908 8.64062 254.598 8.64062C259.287 8.64062 262.897 11.3927 262.897 16.658V27.9884H259.546V25.392H259.401C258.736 26.41 257.821 27.2398 256.744 27.8018C255.667 28.3637 254.463 28.639 253.249 28.6011C249.442 28.6011 246.277 26.2333 246.277 22.3388ZM259.546 19.9294C258.231 19.0485 256.665 18.6185 255.085 18.7039C251.382 18.7039 249.898 20.6875 249.898 22.4115C249.898 24.3951 251.973 25.392 253.788 25.392C255.26 25.3792 256.673 24.8084 257.741 23.7948C258.809 22.7812 259.454 21.4 259.546 19.9294Z" fill="white"/>
<path d="M265.076 23.2524L268.188 21.9543C268.556 23.0003 269.245 23.9032 270.156 24.5337C271.067 25.1642 272.154 25.49 273.262 25.4645C275.44 25.4645 276.996 24.426 276.996 22.8266C276.996 21.8712 276.426 20.843 274.444 20.3445L270.647 19.4306C268.925 19.0152 265.647 17.5198 265.647 14.238C265.647 10.9563 269.153 8.66113 273.054 8.66113C276.291 8.66113 279.113 10.1462 280.264 13.0126L277.245 14.3211C276.877 13.518 276.269 12.8486 275.506 12.4043C274.743 11.96 273.861 11.7626 272.981 11.839C270.99 11.839 269.278 12.7114 269.278 14.238C269.278 15.4219 270.263 16.0762 271.757 16.4189L275.461 17.2913C279.154 18.174 280.648 20.4692 280.648 22.7539C280.648 26.0772 277.671 28.6424 273.282 28.6424C271.524 28.7103 269.789 28.2275 268.318 27.2614C266.847 26.2952 265.714 24.8938 265.076 23.2524Z" fill="white"/>
<path d="M285.171 22.2968V12.4827H281.893V9.27368H285.171V3.54102H288.688V9.27368H293.263V12.4827H288.688V22.0268C288.688 24.1038 289.559 25.08 291.198 25.08C291.75 25.1056 292.301 25.0026 292.806 24.7789L294.031 27.7906C293.132 28.1544 292.167 28.3242 291.198 28.2891C287.246 28.2891 285.171 26.1186 285.171 22.2968Z" fill="white"/>
</g>
<defs>
<clipPath id="clip0_3587_10199">
<rect width="294" height="62" fill="white"/>
</clipPath>
</defs>
</svg>
