<svg width="318" height="106" viewBox="0 0 318 106" fill="none" xmlns="http://www.w3.org/2000/svg">
<g clip-path="url(#clip0_3587_5954)">
<path d="M57.0366 24.0507C52.2145 24.1509 47.3923 24.1342 42.5702 24.0507C41.2335 24.0507 40.8782 24.4012 40.8782 25.7199C40.8782 36.202 40.8782 46.7009 40.8782 57.1998C40.8782 57.7673 40.8782 58.3515 40.8782 59.1693C37.4017 55.6074 32.6998 53.4579 27.6977 53.1438C21.599 52.5854 15.5052 54.2606 10.5781 57.8498C5.65093 61.4391 2.23501 66.6916 0.981376 72.6059C0.841805 74.0659 0.511941 75.5021 0 76.8789V81.8863C0.355315 81.8863 0.321497 82.2702 0.338416 82.5373C0.753441 86.4825 2.01669 90.2951 4.04385 93.7205C12.5037 108.225 32.8075 109.694 40.9628 99.1118C40.9628 100.581 41.0474 101.782 40.9628 102.968C40.8782 104.153 41.2843 104.353 42.3841 104.336C47.46 104.336 52.5359 104.336 57.5273 104.336C58.7455 104.336 59.0162 103.986 58.9993 102.851C58.9993 95.9237 58.9993 88.9968 58.9993 82.0866C58.9993 63.3255 58.9993 44.5644 58.9993 25.82C58.9993 24.2844 58.5594 23.984 57.1043 24.0006M30.1341 90.5992C23.3662 90.5992 18.6625 86.1593 18.6456 79.633C18.5867 78.1353 18.8456 76.642 19.4054 75.2487C19.9653 73.8554 20.814 72.5927 21.897 71.5416C22.9801 70.4904 24.2737 69.674 25.695 69.1445C27.1163 68.6149 28.6341 68.384 30.1511 68.4664C31.6526 68.3856 33.1547 68.6161 34.5604 69.1431C35.9661 69.6702 37.2442 70.482 38.3124 71.5262C39.3805 72.5705 40.2149 73.824 40.7617 75.206C41.3086 76.5879 41.5558 78.0676 41.4873 79.5495C41.5672 81.0342 41.327 82.5188 40.7826 83.9052C40.2383 85.2916 39.402 86.5484 38.3292 87.5926C37.2563 88.6367 35.9711 89.4446 34.5585 89.9629C33.1459 90.4812 31.6379 90.698 30.1341 90.5992Z" fill="white"/>
<path d="M116.015 60.9967C106.975 50.9931 90.5755 50.5263 82.0958 59.3294V57.3454C82.0958 46.8249 82.0958 36.2878 82.0958 25.6673C82.0958 24.3168 81.7057 24 80.3998 24C75.5664 24 70.7329 24.1 65.9164 24C64.2205 24 64 24.4668 64 25.934C64 51.0765 64 76.2189 64 101.361C64.0339 101.972 64.0339 102.584 64 103.195C64 103.996 64.2205 104.229 65.0345 104.229C70.3259 104.229 75.6173 104.229 80.9086 104.229C81.9431 104.229 82.1127 103.846 82.0788 102.962C82.0788 101.711 82.0788 100.444 82.0788 98.7604C83.526 100.838 85.4869 102.519 87.7772 103.645C91.6734 105.547 96.0389 106.321 100.365 105.879C104.692 105.436 108.802 103.794 112.216 101.145C124.986 91.9913 126.614 72.5843 116.032 60.93M92.7972 90.5407C91.2895 90.6292 89.7797 90.4043 88.3662 89.8809C86.9527 89.3574 85.6673 88.547 84.5937 87.5026C83.5201 86.4581 82.6823 85.203 82.1351 83.819C81.5878 82.435 81.3432 80.9532 81.4174 79.4701C81.3658 77.9884 81.6284 76.5124 82.1884 75.1359C82.7484 73.7594 83.5936 72.5125 84.6702 71.4744C85.7468 70.4364 87.0314 69.6299 88.4422 69.1063C89.853 68.5826 91.3592 68.3532 92.8651 68.4328C94.3849 68.349 95.9057 68.5805 97.3286 69.1122C98.7515 69.6439 100.045 70.4639 101.124 71.519C102.204 72.574 103.046 73.8405 103.595 75.2362C104.144 76.6318 104.389 78.1255 104.313 79.6201C104.313 86.1725 99.6489 90.5574 92.7972 90.5407Z" fill="white"/>
<path d="M162.887 78.1068C162.041 77.2164 161.973 76.6955 162.887 75.721C167.232 71.0838 171.477 66.3458 175.772 61.6246L182.654 54.0303H180.591C174.081 54.0303 167.554 54.0303 161.043 54.0303C160.519 53.9949 159.993 54.09 159.515 54.3071C159.037 54.5242 158.62 54.8564 158.304 55.2736C155.751 58.2979 153.113 61.2549 150.441 64.296C147.685 61.1373 145.013 58.1634 142.426 55.1224C142.167 54.7666 141.822 54.4814 141.423 54.2934C141.024 54.1054 140.584 54.0207 140.143 54.0471C133.514 54.0471 126.885 54.0471 120.257 54.0471C119.834 54.0471 119.36 53.8287 118.938 54.3327C119.174 54.6351 119.411 54.9208 119.665 55.2064C125.786 62.0614 131.874 68.9332 138.046 75.7378C138.942 76.7123 138.841 77.2332 138.046 78.1068C131.654 84.9282 125.279 91.7721 118.921 98.6383L114 103.998C121.643 103.998 128.898 103.998 136.135 103.998C136.631 104.016 137.125 103.914 137.573 103.7C138.021 103.487 138.409 103.168 138.705 102.771C142.341 98.5542 146.061 94.3707 149.697 90.1703C150.356 89.3974 150.661 89.4142 151.388 90.1703C155.074 94.4379 158.794 98.6551 162.514 102.889C162.988 103.41 163.343 103.998 164.205 103.981C171.663 103.981 179.137 103.981 187 103.981L185.647 102.469C178.083 94.3371 170.518 86.2108 162.954 78.09" fill="white"/>
<path d="M298.94 54.0671C298.041 54.0671 297.841 54.604 297.558 55.2248C295.336 60.1464 293.065 65.0623 290.744 69.9727C289.327 73.0431 287.895 76.1135 286.362 79.4188C285.945 78.5967 285.679 78.0765 285.429 77.5396C281.98 70.1405 278.515 62.7582 275.133 55.3422C275.006 54.9274 274.737 54.5713 274.374 54.3377C274.011 54.1041 273.577 54.0082 273.15 54.0671C269.351 54.0671 265.553 54.0671 261.754 54.0671H255.09C254.874 54.604 255.09 54.8725 255.29 55.1577C263.62 71.0968 271.951 87.0472 280.281 103.009C280.411 103.335 280.646 103.607 280.948 103.784C281.249 103.96 281.601 104.03 281.947 103.982C284.746 103.982 287.545 103.881 290.277 103.982C290.843 104.051 291.415 103.922 291.897 103.616C292.379 103.311 292.743 102.847 292.926 102.304C299.307 89.9386 305.755 77.6235 312.169 65.2749C314.101 61.5837 316.001 57.8757 318 54C311.502 54 305.238 54 298.99 54" fill="white"/>
<path d="M250.608 54.0196C248.165 54.1036 245.705 54.0196 243.262 54.0196C242.142 54.0196 241.803 53.734 241.837 52.6084C241.837 48.5596 241.837 44.5276 241.837 40.4788C241.837 39.4373 241.65 38.9836 240.446 39.0004C235.356 39.0004 230.267 39.0004 225.177 39.0004C224.125 39.0004 223.82 39.3029 223.837 40.3277C223.837 43.486 223.837 46.6276 223.837 49.7692C223.837 53.986 223.837 53.986 219.663 54.0028H219.324C218.238 53.8012 217.984 54.2716 218.001 55.2964C218.001 58.438 218.001 61.5963 218.001 64.7379C218.001 68.6355 218.001 68.7027 221.937 68.6019C223.379 68.6019 223.854 68.8875 223.837 70.4331C223.752 81.101 223.837 91.769 223.837 102.454C223.837 103.747 224.176 104.016 225.432 103.999C230.436 103.999 235.441 103.999 240.446 103.999C241.667 103.999 241.939 103.646 241.939 102.487C241.939 97.1449 241.939 91.8194 241.939 86.477C241.939 81.1346 241.939 75.5739 241.939 70.1307C241.939 68.9547 242.244 68.5683 243.449 68.6187C245.892 68.7027 248.335 68.6187 250.778 68.6187C251.779 68.6187 252.016 68.3163 251.999 67.3923C251.999 63.3379 251.999 59.2892 251.999 55.246C251.999 54.2548 251.813 53.8852 250.71 53.9188" fill="white"/>
<path d="M208.409 72.0009C204.256 72.0009 200.036 72.0009 195.95 72.0009C191.864 72.0009 187.577 72.0009 183.324 72.0009C182.302 72.0009 181.984 72.2563 182.001 73.3118C182.001 77.4149 182.001 81.5179 182.001 85.604C182.001 86.7957 182.386 87 183.441 87C191.802 87 200.175 87 208.559 87C209.648 87 210.016 86.7276 209.999 85.5869C209.999 81.552 209.916 77.5 209.999 73.465C209.999 72.2052 209.564 71.9839 208.442 72.0009" fill="white"/>
<path d="M148.002 34.5079C148.002 36.0758 148.825 37.0933 150.044 36.9932C151.263 36.8931 151.988 35.9757 151.988 34.5913C151.988 24.5167 151.988 14.4421 151.988 4.36743C152.004 4.14534 152.004 3.92231 151.988 3.70022C151.964 3.26564 151.783 2.85516 151.479 2.5474C151.175 2.23964 150.77 2.05621 150.341 2.03224C149.929 1.95488 149.504 2.01766 149.132 2.21078C148.759 2.4039 148.461 2.7165 148.282 3.09975C148.048 3.66298 147.958 4.27663 148.018 4.8845V19.4126C148.018 24.4166 148.018 29.4206 148.018 34.4245" fill="white"/>
<path d="M162.942 44.9881C164.237 45.1218 165 44.1189 165 42.3803V12.6916C165 10.9196 164.286 9.9835 162.992 10.0002C161.697 10.0169 161 11.0032 161 12.725C161 22.6213 161 32.5175 161 42.4138C161 43.8347 161.432 44.8544 162.959 44.9881" fill="white"/>
<path d="M157.042 39.9815C158.715 39.9815 159.016 38.8791 158.999 37.497C158.999 32.7256 158.999 27.9377 158.999 23.1662C158.999 18.3948 158.999 13.2943 158.999 8.35832C158.999 7.00916 158.564 6.08779 157.075 6.00552C155.586 5.92325 155 6.76235 155 8.40768C155 18.1261 155 27.8499 155 37.5793C155 39.2246 155.703 40.0473 157.042 39.9979" fill="white"/>
<path d="M168.017 43.547C168.017 45.1933 168.678 46 170 46C171.322 46 172 45.2098 172 43.5305C172 34.1793 172 24.8501 172 15.5429C172 14.1764 171.636 13.1063 170.05 13.0075C168.463 12.9088 168 13.7813 168 15.5594C168 20.2349 168 24.927 168 29.6026C168 34.2781 168 38.9537 168 43.6293" fill="white"/>
<path d="M143.099 33.9944C144.752 33.8917 145 32.779 145 31.3583C145 26.5428 145 21.7443 145 16.9629C145 12.2044 145 7.46301 145 2.7216C145 0.804493 144.405 0 143.033 0C141.661 0 141.017 0.855844 141 2.7216C141 12.2729 141 21.8185 141 31.3583C141 33.1899 141.711 34.08 143.099 33.9944Z" fill="white"/>
<path d="M136.034 31.9979C137.714 31.9979 138 30.8397 138 29.4464C138 24.9981 138 20.5666 138 16.135C138 11.7035 138 7.03694 138 2.50468C138 0.826071 137.328 -0.0636034 136 0.00354117C134.319 0.0874719 134 1.16179 134 2.55504C134 11.5076 134 20.4882 134 29.4968C134 31.1754 134.689 32.0483 136.034 31.9979Z" fill="white"/>
<path d="M128 26.2041C128 27.8874 128.734 28.9478 129.916 28.9983C131.098 29.0488 131.944 27.9547 131.976 26.1536C131.976 24.6386 131.976 23.1237 131.976 21.6088V4.40571C132.008 3.95748 132.008 3.50732 131.976 3.05909C131.8 1.81347 131.273 0.921329 129.9 1.00549C129.63 1.00454 129.363 1.06538 129.117 1.1838C128.871 1.30221 128.653 1.47539 128.477 1.6914C128.301 1.90742 128.171 2.16113 128.097 2.43503C128.023 2.70892 128.006 2.9965 128.048 3.27792C128.048 7.14945 128.048 11.021 128.048 14.9093V26.2041" fill="white"/>
<path d="M175.017 42.3973C175.017 43.7842 175.333 44.8537 176.917 44.9874C178.5 45.1211 179 44.1853 179 42.3973C179 38.4313 179 34.4709 179 30.516V18.6181C179 16.947 178.2 15.8776 176.917 16.0112C175.633 16.1449 175 17.181 175 18.6181C175 26.5389 175 34.4653 175 42.3973" fill="white"/>
<path d="M122.968 27C124.328 27 125 26.1373 125 24.1532C125 21.0993 125 18.0454 125 14.9915C125 11.9376 125 8.901 125 5.84712C125 3.82845 124.36 2.983 122.968 3.00026C121.576 3.01751 121.016 3.8457 121 5.7436C121 11.9031 121 18.0626 121 24.2222C121 26.1028 121.656 26.9655 122.968 27Z" fill="white"/>
<path d="M182 39.361C182 41.1546 182.724 42.0933 184.041 41.9927C185.358 41.8921 186 40.8193 186 39.4113C186 32.807 186 26.1859 186 19.5816C186 17.9054 185.259 17.017 184.025 17.0002C182.79 16.9835 182.033 17.8886 182.016 19.5313C182.016 22.8838 182.016 26.2362 182.016 29.5886C182.016 32.9411 182.016 36.0924 182.016 39.3442" fill="white"/>
<path d="M116.008 24.9659C117.187 25.0852 117.984 23.9428 118 22.2207C118 19.9529 118 17.668 118 15.4002C118 13.1324 118 10.8476 118 8.57981C118 7.14752 117.506 6.10741 116.04 6.0051C114.861 5.91985 114.016 6.9088 114 8.52865C114 13.1552 114 17.7703 114 22.3741C114 23.7553 114.542 24.8806 115.992 25" fill="white"/>
<path d="M188.049 27.465C188.049 29.7986 188.049 32.149 188.049 34.4827C188.049 36.1496 188.685 36.9831 189.992 36.9997C191.298 37.0164 192 36.1996 192 34.5161C192 29.8487 192 25.1646 192 20.4972C192 18.9803 191.086 17.8635 189.943 18.0135C189.653 18.0278 189.369 18.1051 189.111 18.2402C188.852 18.3754 188.625 18.5652 188.444 18.7972C188.263 19.0291 188.133 19.2977 188.062 19.5852C187.991 19.8726 187.981 20.1722 188.032 20.4639C188.032 22.7976 188.032 25.1313 188.032 27.465" fill="white"/>
<path d="M108.017 21.4446C108.017 23.1446 108.697 24.0797 109.975 23.9947C111.535 23.8927 112 22.8046 112 21.4106C112 20.0165 112 18.1125 112 16.4635C112 14.8144 112 13.0634 112 11.3633C112 10.0373 111.436 8.9832 109.942 9.0002C108.448 9.0172 108 10.0032 108 11.3973C108 14.7974 108 18.0955 108 21.4446" fill="white"/>
<path d="M195 30.6667C195 32.0667 195.561 33 196.964 33C198.366 33 198.976 32 198.993 30.6667C199.009 29.3333 198.993 27.55 198.993 26C198.993 24.45 198.993 22.8833 198.993 21.3333C198.993 19.7833 198.349 19 196.964 19C195.578 19 194.984 19.9167 195 21.3333C195 24.45 195 27.55 195 30.6667Z" fill="white"/>
<path d="M202.03 29.0593C201.995 29.3094 202.019 29.5639 202.1 29.8042C202.181 30.0446 202.317 30.2649 202.499 30.4492C202.681 30.6336 202.903 30.7775 203.151 30.8705C203.398 30.9635 203.664 31.0034 203.93 30.9872C204.196 31.0182 204.466 30.9929 204.721 30.9131C204.975 30.8333 205.208 30.701 205.403 30.5258C205.597 30.3506 205.748 30.1367 205.845 29.8995C205.942 29.6623 205.982 29.4078 205.963 29.1541C206.046 28.0005 205.963 26.8312 205.963 25.6776C205.963 24.524 205.963 23.1492 205.963 21.885C205.975 21.6309 205.931 21.3771 205.832 21.1404C205.734 20.9038 205.584 20.6895 205.392 20.5119C205.2 20.3342 204.97 20.1971 204.718 20.1097C204.466 20.0223 204.197 19.9865 203.93 20.0046C203.663 19.9912 203.396 20.0334 203.148 20.1282C202.9 20.223 202.677 20.3681 202.494 20.5533C202.312 20.7385 202.174 20.9593 202.091 21.2003C202.008 21.4412 201.981 21.6965 202.013 21.9483C202.013 24.3186 202.013 26.6889 202.013 29.0593" fill="white"/>
<path d="M102.812 24C104.295 24 104.905 23.0919 104.971 21.7122C105.037 20.3325 104.971 19.2497 104.971 18.0272C104.971 16.8047 104.971 15.46 104.971 14.1851C104.971 12.9102 104.312 11.9497 102.895 12.002C101.478 12.0544 101 12.9277 101 14.3073C101 16.7523 101 19.1973 101 21.6423C101 23.022 101.379 23.9476 102.812 24Z" fill="white"/>
<path d="M213 21.1121C213 19.9437 212.238 19.0836 210.715 19.0187C210.377 18.9796 210.031 19.0021 209.705 19.0845C209.378 19.167 209.078 19.3073 208.827 19.4953C208.575 19.6833 208.379 19.9143 208.251 20.1715C208.124 20.4287 208.069 20.7057 208.09 20.9823C207.97 22.9784 207.97 24.9906 208.09 27.0029C208.06 27.2776 208.106 27.5543 208.226 27.8124C208.346 28.0705 208.537 28.3034 208.783 28.4936C209.03 28.6839 209.326 28.8267 209.65 28.9114C209.974 28.9961 210.318 29.0205 210.655 28.9828C212.359 28.9016 212.94 28.0091 213 26.792C213 25.867 213 24.9582 213 24.0332C213 23.1082 213 22.0696 213 21.1121Z" fill="white"/>
<path d="M94.0103 22.1182C94.0037 22.3504 94.0439 22.5816 94.1286 22.7986C94.2133 23.0155 94.3409 23.214 94.504 23.3827C94.6672 23.5514 94.8627 23.687 95.0794 23.7817C95.2961 23.8764 95.5297 23.9284 95.7669 23.9347C96.0194 24.007 96.2858 24.0195 96.5441 23.971C96.8024 23.9226 97.0453 23.8147 97.2525 23.6562C97.4598 23.4977 97.6255 23.2932 97.7361 23.0596C97.8466 22.826 97.8987 22.5701 97.8881 22.3129C98.0373 20.0987 98.0373 17.8773 97.8881 15.6631C97.8797 15.4104 97.8144 15.1627 97.697 14.9375C97.5795 14.7124 97.4128 14.5153 97.2087 14.3604C97.0045 14.2056 96.768 14.0967 96.516 14.0415C96.2639 13.9863 96.0025 13.9862 95.7504 14.0412C95.5097 14.0279 95.2689 14.0662 95.0449 14.1534C94.8208 14.2406 94.619 14.3745 94.4533 14.5459C94.2876 14.7173 94.1622 14.9221 94.0857 15.1458C94.0091 15.3696 93.9834 15.607 94.0103 15.8415C94.0103 16.8795 94.0103 17.9013 94.0103 18.9231C94.0103 19.9449 94.0103 20.9829 94.0103 22.0209" fill="white"/>
<path d="M218.969 23.0387C219.01 22.3472 219.01 21.6535 218.969 20.9619C218.969 20.386 218.969 19.7926 218.969 19.2167C218.969 17.8729 218.314 16.9828 216.956 17.0003C215.597 17.0177 215.024 17.9078 215.007 19.2691C214.991 20.6303 215.007 21.7124 215.007 22.934C214.992 23.2132 215.034 23.4925 215.129 23.7531C215.224 24.0137 215.37 24.2495 215.558 24.4447C215.746 24.6399 215.97 24.7899 216.217 24.8846C216.464 24.9792 216.727 25.0163 216.988 24.9934C217.237 25.0051 217.486 24.9634 217.72 24.8709C217.954 24.7783 218.168 24.6368 218.35 24.4546C218.531 24.2724 218.677 24.0532 218.777 23.81C218.878 23.5668 218.932 23.3046 218.937 23.0387" fill="white"/>
<path d="M88.9765 25.9516C90.2696 25.9516 90.9781 25.3808 90.9958 24.0834V22.0076C90.9958 21.2465 90.9958 20.5026 90.9958 19.7415C91.0132 19.5024 90.9763 19.2625 90.8877 19.039C90.7991 18.8155 90.661 18.6139 90.4833 18.4486C90.3055 18.2833 90.0926 18.1584 89.8597 18.0828C89.6267 18.0073 89.3796 17.983 89.1359 18.0117C87.9314 18.0117 87.0281 18.4268 87.0104 19.7415C86.9926 21.0562 87.0104 22.6303 87.0104 24.0834C86.9815 24.3432 87.0132 24.606 87.1032 24.8521C87.1933 25.0982 87.3392 25.3212 87.5301 25.5043C87.721 25.6874 87.952 25.8259 88.2055 25.9094C88.4591 25.9929 88.7287 26.0191 88.9942 25.9862" fill="white"/>
</g>
<defs>
<clipPath id="clip0_3587_5954">
<rect width="318" height="106" fill="white"/>
</clipPath>
</defs>
</svg>
