<svg width="188" height="70" viewBox="0 0 188 70" fill="none" xmlns="http://www.w3.org/2000/svg">
<g clip-path="url(#clip0_3587_7686)">
<path d="M51.8462 0.0772403V36.5874H47.6478C43.797 36.6989 39.9967 35.6882 36.7057 33.6777C33.6832 31.7334 31.2962 28.9406 29.8407 25.6461C28.3852 22.3516 27.9254 18.7005 28.5184 15.146C29.1194 11.5486 30.7868 8.21675 33.3031 5.58572C35.8193 2.95469 39.0675 1.14685 42.6232 0.398131C44.5168 0.124546 46.4294 0.00606687 48.3421 0.0440168C49.4881 0.0772078 50.6451 0.0772403 51.8462 0.0772403Z" fill="white"/>
<path d="M0 0C3.76859 0.309783 7.57041 -0.365188 11.1847 1.01777C17.6971 3.50711 21.9284 8.07647 23.1846 15.0466C24.0526 19.6958 23.0825 24.5016 20.4801 28.4446C17.8777 32.3876 13.848 35.1577 9.24533 36.1672C8.52075 36.3272 7.783 36.4198 7.04147 36.4437C4.73844 36.5544 2.4243 36.6318 0.0551502 36.7203L0 0Z" fill="white"/>
<path d="M62.9531 0.0771484H69.3113C71.9118 0.0771484 74.5122 0.232105 77.1017 0.143595C79.2297 0.100388 81.3387 0.554866 83.2616 1.47118C89.0908 4.07115 92.9365 8.51876 94.0054 14.7476C95.9448 26.11 88.8152 34.3303 79.3276 36.2886C78.2897 36.4568 77.2378 36.5199 76.1873 36.4767C72.011 36.4767 67.8345 36.4767 63.6582 36.4767H62.9531V0.0771484ZM68.4628 31.0555C68.5948 31.0646 68.7272 31.0646 68.8593 31.0555C71.4048 31.0555 73.9504 31.0555 76.4959 31.0555C78.6036 31.0004 80.6611 30.3982 82.4682 29.3075C84.6962 28.0269 86.4807 26.0927 87.5824 23.7646C88.6841 21.4364 89.0502 18.8256 88.6316 16.2825C88.2131 13.7395 87.0299 11.3857 85.2408 9.5372C83.4517 7.68867 81.1423 6.43388 78.6225 5.94096C76.5431 5.6747 74.4489 5.54155 72.3526 5.54255C71.0854 5.48723 69.8181 5.54255 68.4628 5.54255V31.0555Z" fill="white"/>
<path d="M141.862 34.5184L141.763 36.5873H136.463V0.0771484H141.84V13.3536C149.322 9.6915 155.658 10.6319 160.11 17.8786C161.437 19.9568 162.059 22.4099 161.885 24.8721C161.71 27.3344 160.748 29.6739 159.141 31.5422C154.358 37.3617 148.452 37.9924 141.862 34.5184ZM149.157 31.5313C150.651 31.516 152.106 31.0575 153.34 30.2136C154.575 29.3696 155.533 28.1779 156.095 26.7884C156.656 25.3989 156.796 23.8738 156.496 22.4048C156.196 20.9359 155.47 19.5888 154.41 18.5331C153.349 17.4774 152.001 16.7602 150.535 16.4719C149.07 16.1836 147.552 16.337 146.173 16.9128C144.794 17.4886 143.616 18.461 142.786 19.7078C141.956 20.9545 141.512 22.42 141.51 23.9195C141.527 25.9443 142.341 27.8802 143.773 29.3059C145.205 30.7315 147.14 31.5314 149.157 31.5313Z" fill="white"/>
<path d="M164.551 41.4003C165.475 41.5203 166.406 41.5795 167.338 41.5774C167.723 41.5536 168.094 41.423 168.409 41.2003C168.724 40.9777 168.971 40.6716 169.123 40.3161C169.994 38.4353 170.865 36.5545 171.68 34.6515C171.75 34.3323 171.703 33.9985 171.548 33.7111L162.016 12.1701C161.895 11.9157 161.796 11.6501 161.642 11.2628C163.636 11.2628 165.542 11.2628 167.438 11.2628C167.614 11.2628 167.823 11.628 167.934 11.8714C170.137 16.7837 172.323 21.7033 174.49 26.6303L174.876 27.438C175.041 27.095 175.162 26.8627 175.272 26.6193C177.476 21.7512 179.636 16.8759 181.752 11.9931C181.82 11.7605 181.968 11.5596 182.17 11.426C182.371 11.2924 182.614 11.2346 182.854 11.2628C184.242 11.2628 185.63 11.2628 187.019 11.2628C187.305 11.2628 187.581 11.2629 187.989 11.3293C187.856 11.6833 187.79 11.9488 187.68 12.2032C183.019 22.6363 178.391 33.0694 173.686 43.4803C172.941 45.1695 171.563 46.4951 169.85 47.1685C168.137 47.842 166.228 47.8087 164.54 47.076C162.06 46.1245 162.336 46.6557 163.327 44.1221C163.702 43.1928 164.132 42.2965 164.54 41.3782C164.573 41.345 164.617 41.3118 164.551 41.4003Z" fill="white"/>
<path d="M122.457 24.0638C122.81 30.2705 116.804 37.0083 109.146 36.621C103.956 36.3555 96.8154 31.2772 97.2782 23.1343C97.5383 19.9361 98.9762 16.9502 101.311 14.7592C103.646 12.5682 106.711 11.3296 109.906 11.2852C111.568 11.2894 113.213 11.6242 114.745 12.2701C116.278 12.916 117.667 13.8602 118.834 15.0483C120.001 16.2364 120.922 17.6447 121.544 19.1921C122.166 20.7395 122.476 22.3953 122.457 24.0638ZM109.84 31.5427C111.343 31.5493 112.814 31.1079 114.067 30.2743C115.32 29.4407 116.298 28.2524 116.878 26.8601C117.458 25.4678 117.613 23.9341 117.324 22.4532C117.035 20.9724 116.314 19.6109 115.254 18.5415C114.193 17.4721 112.84 16.7428 111.367 16.446C109.893 16.1492 108.365 16.2982 106.976 16.8741C105.586 17.4501 104.399 18.4271 103.563 19.6814C102.727 20.9357 102.281 22.4109 102.281 23.9199C102.312 25.9262 103.117 27.8421 104.527 29.2641C105.937 30.686 107.842 31.5028 109.84 31.5427Z" fill="white"/>
<path d="M131.681 36.5873H126.171V0.0771484H131.681V36.5873Z" fill="white"/>
<path d="M139.063 66.3378V53.3048H141.267V69.9888C140.43 69.9888 139.625 69.9888 138.821 69.9888C138.589 69.9888 138.325 69.6681 138.16 69.4247L130.446 57.5975C130.261 57.2704 129.995 56.9963 129.675 56.8009V70.0774L127.405 69.9446C127.405 69.6791 127.35 69.4689 127.35 69.2698C127.35 64.3501 127.35 59.4266 127.35 54.4996C127.35 53.3932 127.35 53.3933 128.551 53.3159C129.131 53.2264 129.725 53.3277 130.243 53.6049C130.762 53.882 131.177 54.3202 131.427 54.8537C133.708 58.549 136.132 62.1447 138.49 65.7847C138.644 66.0059 138.799 66.2383 138.942 66.4706L139.063 66.3378Z" fill="white"/>
<path d="M104.088 61.4032C104.067 60.3024 104.272 59.2089 104.691 58.1914C105.11 57.1739 105.733 56.2542 106.523 55.4898C107.312 54.7254 108.25 54.1329 109.278 53.7492C110.306 53.3656 111.401 53.1991 112.496 53.2602C113.644 53.171 114.798 53.3228 115.885 53.7057C116.971 54.0887 117.967 54.6944 118.807 55.4845C119.648 56.2747 120.315 57.2319 120.768 58.2952C121.22 59.3585 121.446 60.5046 121.433 61.6607C121.42 62.8168 121.168 63.9576 120.692 65.0104C120.216 66.0631 119.527 67.0048 118.668 67.7756C117.81 68.5464 116.802 69.1294 115.707 69.4876C114.612 69.8457 113.455 69.971 112.309 69.8557C111.204 69.8878 110.104 69.6897 109.079 69.2736C108.054 68.8576 107.126 68.2328 106.353 67.4385C105.581 66.6443 104.981 65.6979 104.591 64.6591C104.201 63.6203 104.03 62.5117 104.088 61.4032ZM106.292 61.6465C106.264 62.5556 106.439 63.4593 106.804 64.2916C107.169 65.1239 107.715 65.8638 108.402 66.4568C109.089 67.0498 109.899 67.4809 110.773 67.7188C111.648 67.9566 112.564 67.995 113.455 67.8311C115.003 67.4774 116.359 66.5453 117.247 65.2239C118.136 63.9025 118.49 62.2912 118.237 60.7172C118.126 59.4078 117.587 58.1717 116.705 57.2014C115.822 56.231 114.645 55.5806 113.356 55.3512C112.005 55.0564 110.593 55.2698 109.388 55.951C108.184 56.6322 107.27 57.7338 106.821 59.0466C106.585 59.8975 106.423 60.7674 106.336 61.6465H106.292Z" fill="white"/>
<path d="M54.2259 66.836C54.5895 65.9177 54.8651 65.2429 55.1185 64.5569C56.4078 61.0829 57.708 57.6199 58.9532 54.1238C59.0069 53.8435 59.1666 53.5948 59.3987 53.4299C59.6308 53.2649 59.9173 53.1965 60.1985 53.2388C60.6834 53.2388 61.1792 53.2388 61.7963 53.2388L55.1847 69.9891C54.5566 69.9891 53.9506 69.9891 53.3556 69.8563C53.263 69.8344 53.1768 69.791 53.104 69.7295C53.0313 69.668 52.9739 69.5902 52.9367 69.5023C50.8504 64.1696 48.7826 58.8296 46.733 53.4821C46.7205 53.4201 46.7205 53.3561 46.733 53.294H49.1461L54.2259 66.836Z" fill="white"/>
<path d="M85.7187 56.7674C85.2302 56.1607 84.5816 55.7041 83.8471 55.4498C83.1125 55.1955 82.3215 55.1536 81.5644 55.3291C81.0427 55.4082 80.5592 55.6508 80.1832 56.0224C79.8072 56.394 79.5579 56.8756 79.4708 57.3981C79.4021 57.9125 79.5155 58.4347 79.7915 58.8736C80.0675 59.3125 80.4882 59.64 80.9803 59.7988C81.7406 60.1418 82.5342 60.4074 83.3165 60.7061C83.8014 60.9053 84.3083 61.0601 84.7712 61.2813C85.5935 61.6216 86.2832 62.2212 86.7364 62.9895C87.1896 63.7579 87.3815 64.6534 87.2833 65.541C87.2582 66.4588 86.9392 67.344 86.3735 68.0654C85.8078 68.7869 85.0257 69.3061 84.143 69.546C82.8546 69.9797 81.4708 70.0405 80.1496 69.7216C78.8284 69.4027 77.6231 68.7169 76.6719 67.7426L78.3579 66.238C78.8243 66.831 79.4295 67.2989 80.1197 67.6C80.8099 67.9012 81.5639 68.0261 82.3139 67.9639C82.7756 67.9725 83.2315 67.8621 83.6386 67.6432C84.0456 67.4244 84.3901 67.1043 84.6388 66.7137C84.8218 66.4701 84.9527 66.1912 85.0232 65.8944C85.0937 65.5976 85.1023 65.2894 85.0485 64.9891C84.9947 64.6889 84.8797 64.4031 84.7106 64.1496C84.5415 63.8962 84.3219 63.6805 84.0658 63.5162C83.4915 63.1495 82.878 62.849 82.2367 62.6201C81.4653 62.2882 80.6608 62.0558 79.9004 61.7018C79.0386 61.4233 78.3032 60.8469 77.8249 60.075C77.3467 59.3031 77.1568 58.3859 77.289 57.4866C77.3273 56.6252 77.6339 55.7977 78.1658 55.1208C78.6976 54.4439 79.4277 53.9517 80.2531 53.7138C81.2425 53.3467 82.3037 53.2166 83.352 53.3338C84.4004 53.4509 85.4069 53.8121 86.2917 54.3887C87.1292 54.8865 87.129 55.0857 86.4569 55.8049C86.1908 56.1097 85.9443 56.4312 85.7187 56.7674Z" fill="white"/>
<path d="M94.7324 53.2715H96.9363V69.9335H94.7324V53.2715Z" fill="white"/>
<path d="M69.6531 69.9997L67.4492 69.8558C67.4492 69.5461 67.4492 69.2916 67.4492 69.0261C67.4492 64.217 67.4492 59.4007 67.4492 54.5769C67.4492 53.2493 67.4495 53.2493 68.7938 53.2383H69.6972L69.6531 69.9997Z" fill="white"/>
</g>
<defs>
<clipPath id="clip0_3587_7686">
<rect width="188" height="70" fill="white"/>
</clipPath>
</defs>
</svg>
