<svg width="423" height="53" viewBox="0 0 423 53" fill="none" xmlns="http://www.w3.org/2000/svg">
<g clip-path="url(#clip0_3582_1404)">
<path d="M216.683 17.2703C215.673 17.2718 214.673 17.4847 213.746 17.8958C212.819 18.307 211.985 18.9075 211.296 19.6602C210.607 20.4129 210.078 21.3017 209.74 22.2714C209.403 23.2411 209.265 24.271 209.335 25.2971C209.261 26.3256 209.396 27.3586 209.731 28.3317C210.067 29.3049 210.596 30.1972 211.285 30.9531C211.975 31.709 212.81 32.3122 213.739 32.7251C214.667 33.138 215.67 33.3517 216.683 33.3529C217.698 33.3514 218.702 33.1377 219.632 32.7251C220.562 32.3126 221.399 31.7099 222.091 30.9545C222.782 30.1991 223.314 29.3071 223.653 28.3339C223.992 27.3607 224.13 26.3271 224.06 25.2971C224.13 24.2685 223.992 23.2362 223.653 22.2646C223.314 21.2929 222.782 20.4028 222.089 19.6496C221.397 18.8965 220.56 18.2965 219.63 17.8872C218.7 17.4778 217.697 17.2678 216.683 17.2703ZM215.715 12.2282C217.236 12.2102 218.74 12.5515 220.109 13.2253C221.478 13.8991 222.674 14.887 223.604 16.1112V12.8657H229.044V37.9893H225.37C225.14 37.9931 224.911 37.9503 224.697 37.8631C224.482 37.776 224.288 37.6465 224.123 37.4819C223.959 37.3174 223.828 37.1212 223.739 36.9049C223.65 36.6885 223.604 36.4563 223.604 36.2217V34.6569C222.671 35.8758 221.474 36.8582 220.105 37.5269C218.736 38.1955 217.233 38.5324 215.715 38.5109C214.087 38.4588 212.484 38.0782 211.002 37.3911C209.519 36.704 208.185 35.7241 207.078 34.5083C205.97 33.2925 205.111 31.865 204.55 30.3086C203.989 28.7523 203.738 27.0981 203.81 25.442C203.738 23.7859 203.989 22.1317 204.55 20.5754C205.111 19.019 205.97 17.5915 207.078 16.3757C208.185 15.1599 209.519 14.18 211.002 13.4929C212.484 12.8058 214.087 12.4252 215.715 12.3731" fill="white"/>
<path d="M235.225 12.866H240.664V16.2854C241.471 15.0254 242.586 14 243.899 13.3092C245.211 12.6185 246.678 12.2861 248.155 12.3444C253.851 12.3444 257.611 16.4882 257.611 22.8633V37.9896H253.908C253.447 37.9896 253.005 37.8034 252.68 37.4719C252.354 37.1404 252.171 36.6908 252.171 36.222V23.7616C252.171 19.7917 250.177 17.3866 247.016 17.3866C243.854 17.3866 240.664 20.2843 240.664 25.6162V37.9896H236.962C236.501 37.9896 236.059 37.8034 235.733 37.4719C235.408 37.1404 235.225 36.6908 235.225 36.222V12.866Z" fill="white"/>
<path d="M274.785 17.2706C273.774 17.2721 272.774 17.485 271.847 17.8961C270.921 18.3072 270.087 18.9078 269.398 19.6605C268.709 20.4132 268.179 21.302 267.842 22.2717C267.504 23.2414 267.367 24.2713 267.437 25.2974C267.363 26.3259 267.497 27.3589 267.833 28.332C268.168 29.3051 268.697 30.1975 269.387 30.9534C270.076 31.7093 270.911 32.3125 271.84 32.7254C272.769 33.1382 273.771 33.352 274.785 33.3532C275.8 33.3517 276.803 33.138 277.733 32.7254C278.664 32.3128 279.501 31.7101 280.192 30.9548C280.884 30.1994 281.416 29.3074 281.754 28.3342C282.093 27.361 282.232 26.3273 282.162 25.2974C282.232 24.2688 282.093 23.2365 281.754 22.2649C281.415 21.2932 280.883 20.403 280.191 19.6499C279.499 18.8968 278.662 18.2968 277.732 17.8875C276.801 17.4781 275.798 17.2681 274.785 17.2706ZM273.817 12.2285C275.337 12.2104 276.841 12.5517 278.21 13.2255C279.579 13.8993 280.776 14.8872 281.706 16.1115V0.173828H287.146V37.8447H283.443C282.982 37.8447 282.541 37.6584 282.215 37.327C281.889 36.9955 281.706 36.5459 281.706 36.0771V34.6572C280.773 35.8761 279.575 36.8584 278.206 37.5271C276.837 38.1958 275.335 38.5326 273.817 38.5112C272.188 38.4591 270.586 38.0784 269.103 37.3913C267.621 36.7042 266.287 35.7243 265.179 34.5085C264.072 33.2927 263.213 31.8652 262.652 30.3089C262.091 28.7525 261.839 27.0983 261.912 25.4423C261.839 23.7862 262.091 22.132 262.652 20.5757C263.213 19.0193 264.072 17.5918 265.179 16.376C266.287 15.1602 267.621 14.1803 269.103 13.4932C270.586 12.8061 272.188 12.4255 273.817 12.3734" fill="white"/>
<path d="M293.326 12.8657H298.766V17.2703C299.242 15.8948 300.124 14.7026 301.291 13.857C302.459 13.0115 303.855 12.5539 305.288 12.5469C305.995 12.5452 306.701 12.6131 307.396 12.7497V18.5453C306.478 18.2329 305.515 18.0763 304.547 18.0816C301.443 18.0816 298.624 20.7476 298.624 25.7897V38.0472H294.921C294.46 38.0472 294.018 37.861 293.692 37.5295C293.367 37.198 293.184 36.7484 293.184 36.2796L293.326 12.8657Z" fill="white"/>
<path d="M322.064 33.3821C323.072 33.3796 324.069 33.1685 324.995 32.7616C325.92 32.3546 326.755 31.7604 327.447 31.0149C328.14 30.2695 328.676 29.3885 329.024 28.4255C329.371 27.4625 329.523 26.4376 329.469 25.4133C329.523 24.3903 329.371 23.3668 329.024 22.4053C328.676 21.4439 328.139 20.5647 327.446 19.8215C326.753 19.0784 325.918 18.4869 324.993 18.0831C324.067 17.6794 323.071 17.4719 322.064 17.4734C321.052 17.464 320.049 17.6656 319.117 18.0658C318.185 18.466 317.343 19.0564 316.644 19.8004C315.945 20.5444 315.403 21.4263 315.051 22.3916C314.7 23.357 314.547 24.3854 314.602 25.4133C314.547 26.4425 314.7 27.4722 315.051 28.4391C315.402 29.406 315.944 30.2897 316.642 31.036C317.341 31.7823 318.183 32.3753 319.115 32.7788C320.047 33.1822 321.051 33.3875 322.064 33.3821ZM322.064 38.4821C320.364 38.5092 318.676 38.1905 317.1 37.5448C315.523 36.899 314.089 35.9393 312.882 34.7218C311.674 33.5044 310.718 32.0539 310.07 30.4553C309.421 28.8568 309.093 27.1426 309.105 25.4133C309.093 23.6839 309.421 21.9697 310.07 20.3712C310.718 18.7727 311.674 17.3221 312.882 16.1047C314.089 14.8872 315.523 13.9275 317.1 13.2817C318.676 12.636 320.364 12.3173 322.064 12.3444C323.761 12.3212 325.445 12.6428 327.019 13.2902C328.592 13.9377 330.023 14.8981 331.227 16.1151C332.431 17.3322 333.385 18.7814 334.031 20.378C334.678 21.9746 335.005 23.6864 334.994 25.4133C335.009 27.1412 334.685 28.8548 334.039 30.4532C333.394 32.0516 332.441 33.5024 331.236 34.7202C330.031 35.938 328.599 36.8983 327.023 37.5443C325.448 38.1904 323.762 38.5093 322.064 38.4821Z" fill="white"/>
<path d="M339.408 12.8659H344.848V37.9894H341.145C340.685 37.9894 340.243 37.8032 339.917 37.4717C339.591 37.1402 339.408 36.6906 339.408 36.2218V12.8659ZM342.114 7.3891C341.147 7.37399 340.224 6.97439 339.542 6.2758C338.861 5.57721 338.476 4.63509 338.468 3.65099C338.461 3.15904 338.549 2.67049 338.729 2.21376C338.909 1.75704 339.176 1.34128 339.516 0.990693C339.855 0.640106 340.259 0.361701 340.705 0.171686C341.151 -0.0183292 341.63 -0.116156 342.114 -0.116096C342.587 -0.119921 343.057 -0.0283014 343.496 0.153474C343.935 0.33525 344.334 0.603587 344.67 0.943011C345.006 1.28244 345.273 1.68623 345.455 2.13111C345.637 2.57599 345.731 3.05315 345.731 3.53508C345.735 4.02217 345.644 4.50525 345.464 4.95673C345.284 5.4082 345.019 5.81923 344.683 6.16635C344.347 6.51347 343.948 6.78988 343.507 6.97979C343.066 7.1697 342.592 7.26939 342.114 7.27319" fill="white"/>
<path d="M362.193 17.2706C361.182 17.2721 360.182 17.485 359.256 17.8961C358.329 18.3072 357.495 18.9078 356.806 19.6605C356.117 20.4132 355.587 21.302 355.25 22.2717C354.913 23.2414 354.775 24.2713 354.845 25.2974C354.771 26.3259 354.906 27.3589 355.241 28.332C355.577 29.3051 356.106 30.1975 356.795 30.9534C357.484 31.7093 358.32 32.3125 359.248 32.7254C360.177 33.1382 361.18 33.352 362.193 33.3532C363.208 33.3517 364.212 33.138 365.142 32.7254C366.072 32.3128 366.909 31.7101 367.601 30.9548C368.292 30.1994 368.824 29.3074 369.163 28.3342C369.502 27.361 369.64 26.3273 369.57 25.2974C369.64 24.2688 369.502 23.2365 369.163 22.2649C368.824 21.2932 368.291 20.403 367.599 19.6499C366.907 18.8968 366.07 18.2968 365.14 17.8875C364.21 17.4781 363.207 17.2681 362.193 17.2706ZM361.225 12.2285C362.745 12.2149 364.247 12.5582 365.616 13.2316C366.984 13.9051 368.181 14.8906 369.114 16.1115V0.173828H374.554V37.8447H370.852C370.623 37.8447 370.397 37.799 370.187 37.7101C369.976 37.6213 369.784 37.4911 369.623 37.327C369.462 37.1628 369.334 36.968 369.246 36.7535C369.159 36.539 369.114 36.3092 369.114 36.0771V34.6572C368.18 35.8744 366.982 36.8556 365.613 37.5241C364.245 38.1926 362.743 38.5304 361.225 38.5112C359.594 38.4629 357.989 38.085 356.503 37.3995C355.017 36.7141 353.68 35.7348 352.569 34.5186C351.459 33.3024 350.597 31.8736 350.034 30.3154C349.471 28.7572 349.219 27.1007 349.291 25.4423C349.219 23.7839 349.471 22.1273 350.034 20.5691C350.597 19.0109 351.459 17.5821 352.569 16.366C353.68 15.1498 355.017 14.1705 356.503 13.485C357.989 12.7996 359.594 12.4217 361.225 12.3734" fill="white"/>
<path d="M384.01 16.0537H378.684V12.7212H384.01V5.67969H387.484V12.7212H394.718V16.0537H387.484V30.5425C387.484 33.6431 388.823 34.8311 391.614 34.8311C392.673 34.845 393.726 34.6583 394.718 34.2806V37.555C393.548 38.0175 392.3 38.2438 391.044 38.2215C390.089 38.3082 389.127 38.1786 388.227 37.842C387.327 37.5054 386.512 36.9702 385.839 36.2749C385.166 35.5795 384.654 34.7412 384.337 33.8202C384.021 32.8992 383.909 31.9184 384.01 30.9481V16.0537Z" fill="white"/>
<path d="M423 12.7207L411.38 37.9892H408.531L396.911 12.7207H400.785L409.87 32.7732L418.956 12.7207H423Z" fill="white"/>
<path d="M23.0701 23.24L29.7346 16.4882L35.8011 10.316C34.3524 7.97484 32.4059 5.99435 30.1049 4.52045L29.0796 5.56364C28.6287 5.1835 28.1529 4.83497 27.6555 4.52045L26.6871 3.96988C25.7763 3.46083 24.8232 3.03419 23.839 2.69486C22.0006 2.08058 20.0778 1.76758 18.1428 1.76758C13.361 1.77522 8.77682 3.70929 5.39292 7.14675C2.00903 10.5842 0.100992 15.2453 0.0859375 20.1104C0.0931791 22.0809 0.410362 24.0375 1.02569 25.9059C1.91888 28.6002 3.41192 31.0481 5.38806 33.0587C7.36419 35.0693 9.76999 36.5882 12.4181 37.4969C14.2559 38.1136 16.1791 38.4267 18.1143 38.4242C22.3409 38.4185 26.4316 36.9044 29.6739 34.1456C32.9162 31.3869 35.1048 27.5584 35.8581 23.3269H27.3138C26.7349 25.0227 25.7226 26.5312 24.3812 27.6974C23.0398 28.8636 21.4175 29.6455 19.6809 29.9628C19.1216 30.0057 18.5598 30.0057 18.0004 29.9628C15.3869 29.9628 12.8803 28.9064 11.0323 27.0261C9.18422 25.1459 8.14594 22.5956 8.14594 19.9365C8.13555 19.3632 8.18341 18.7903 8.28848 18.2269C8.63881 16.1898 9.5978 14.3121 11.0351 12.8498C12.4723 11.3875 14.3178 10.4116 16.32 10.0552C16.8756 9.96259 17.4375 9.91415 18.0004 9.91028C19.1771 9.91477 20.3438 10.1306 21.4467 10.5478C22.0145 10.759 22.5587 11.031 23.0701 11.3592L11.4498 23.182L23.0701 23.24Z" fill="white"/>
<path d="M48.3889 4.72297V2.95534C45.7003 2.31757 42.9035 2.31757 40.2148 2.95534V37.9892C42.9035 38.627 45.7003 38.627 48.3889 37.9892V19.7044C48.4747 17.227 49.4594 14.8698 51.153 13.0878C52.8467 11.3058 55.1292 10.2253 57.5599 10.0548C58.1576 7.31601 58.1576 4.47712 57.5599 1.73828C54.2935 1.86886 51.1234 2.90055 48.3889 4.72297Z" fill="white"/>
<path d="M86.6393 2.95557V4.69423C83.7112 2.77555 80.2963 1.76843 76.8135 1.79647C74.446 1.80027 72.1024 2.27849 69.9165 3.20382C67.7306 4.12914 65.7452 5.48346 64.0737 7.18943C62.4023 8.89541 61.0774 10.9196 60.1748 13.1466C59.2722 15.3735 58.8098 17.7594 58.8135 20.1683C58.821 25.023 60.7199 29.6768 64.0939 33.1096C67.4679 36.5425 72.0419 38.4744 76.8135 38.4821C80.2857 38.4978 83.6882 37.4915 86.611 35.5843C86.6266 35.7481 86.6266 35.9131 86.611 36.077C86.611 36.2508 86.611 36.3957 86.611 36.5696C86.6239 36.7142 86.6239 36.8596 86.611 37.0042C86.611 37.1781 86.611 37.352 86.611 37.5258C86.611 37.6997 86.611 37.7576 86.611 37.8736C86.5476 38.081 86.4714 38.2843 86.3831 38.4821V38.7139L86.0413 39.4384C85.5889 40.2774 85.0232 41.048 84.3609 41.7276C83.4496 42.6558 82.3659 43.3901 81.1728 43.8876C79.9796 44.3851 78.7009 44.6359 77.4115 44.6253C76.7847 47.3608 76.7847 50.2064 77.4115 52.9419C82.1848 52.9372 86.7622 51.0098 90.1426 47.581C93.3238 44.0689 95.0305 39.4313 94.8989 34.657V21.2694V2.95557C92.1824 2.30946 89.3559 2.30946 86.6393 2.95557ZM86.6393 20.1683C86.6019 22.7945 85.5503 25.3003 83.7116 27.1439C81.8729 28.9875 79.395 30.0209 76.8135 30.0206C74.2342 30.0134 71.7605 28.9777 69.9234 27.1356C68.0863 25.2936 67.0323 22.7921 66.9875 20.1683C66.9951 17.5192 68.0326 14.9808 69.8737 13.1076C71.7148 11.2344 74.2098 10.1786 76.8135 10.171C79.395 10.1707 81.8729 11.2041 83.7116 13.0477C85.5503 14.8913 86.6019 17.3971 86.6393 20.0234V20.1683Z" fill="white"/>
<path d="M117.228 1.70996C114.853 1.71373 112.503 2.19481 110.311 3.12557C108.12 4.05633 106.13 5.41843 104.458 7.13363C102.785 8.84883 101.462 10.8833 100.565 13.1203C99.6672 15.3573 99.2129 17.7526 99.2279 20.1687C99.2354 25.0235 101.134 29.6772 104.508 33.11C107.882 36.5429 112.456 38.4748 117.228 38.4825C122.002 38.4825 126.58 36.553 129.956 33.1185C133.331 29.684 135.228 25.0258 135.228 20.1687C135.243 17.7526 134.788 15.3573 133.891 13.1203C132.993 10.8833 131.671 8.84883 129.998 7.13363C128.325 5.41843 126.336 4.05633 124.145 3.12557C121.953 2.19481 119.603 1.71373 117.228 1.70996ZM117.228 30.0211C114.649 30.0139 112.175 28.9781 110.338 27.136C108.501 25.294 107.447 22.7926 107.402 20.1687C107.409 17.5196 108.447 14.9812 110.288 13.108C112.129 11.2348 114.624 10.1791 117.228 10.1714C119.832 10.1791 122.326 11.2348 124.168 13.108C126.009 14.9812 127.046 17.5196 127.054 20.1687C127.009 22.7926 125.955 25.294 124.118 27.136C122.281 28.9781 119.807 30.0139 117.228 30.0211Z" fill="white"/>
<path d="M170.743 1.8252H168.266V38.5108H170.743V1.8252Z" fill="white"/>
</g>
<defs>
<clipPath id="clip0_3582_1404">
<rect width="423" height="53" fill="white"/>
</clipPath>
</defs>
</svg>
