<svg width="318" height="93" viewBox="0 0 318 93" fill="none" xmlns="http://www.w3.org/2000/svg">
<g clip-path="url(#clip0_3582_1437)">
<path d="M93.003 58.9521C89.6771 70.6731 81.8145 80.6525 71.0947 86.7587C72.8624 88.7751 75.0648 90.3803 77.5424 91.458C80.02 92.5356 82.7107 93.0587 85.4196 92.9894C88.1286 92.92 90.7879 92.26 93.2049 91.0571C95.6219 89.8542 97.7361 88.1385 99.3944 86.0343C101.053 83.9302 102.213 81.4903 102.793 78.8913C103.372 76.2924 103.355 73.5995 102.743 71.0078C102.131 68.4161 100.94 65.9904 99.2552 63.9065C97.5707 61.8226 95.435 60.1327 93.003 58.9592" fill="white"/>
<path d="M94.6136 43.8813C94.5706 43.1784 94.5205 42.5177 94.4561 41.8429L94.4131 41.4774C94.4131 41.4774 94.4131 41.4353 94.4131 41.4142C93.5826 41.4915 92.7449 41.5337 91.8929 41.5337C87.5808 41.5338 83.3415 40.4414 79.5853 38.3622C75.829 36.2831 72.6828 33.2874 70.451 29.6651C68.2192 26.0427 66.9773 21.9162 66.8454 17.6847C66.7135 13.4532 67.6961 9.25985 69.6982 5.51031C69.1326 5.2151 68.5599 4.92691 67.9799 4.65278L67.579 4.47002C67.0635 4.22401 66.5408 3.99205 66.011 3.76713L65.6316 3.60548C65.0159 3.35243 64.393 3.11814 63.7629 2.90258L63.319 2.74091C62.7677 2.5441 62.2093 2.36134 61.6437 2.18561L61.3 2.08018C60.6557 1.88337 60.0041 1.70062 59.3455 1.53193L58.8729 1.41243C58.2715 1.26482 57.6701 1.13128 57.0616 1.00476L56.7967 0.948534C56.1165 0.814984 55.4363 0.695485 54.749 0.590051L54.2478 0.512721C53.5963 0.421345 52.9448 0.337015 52.2861 0.266725H52.1214C51.4055 0.196436 50.6895 0.147225 49.9736 0.105052H49.4581C48.7421 0.0699071 48.0262 0.0488297 47.3102 0.0488297C44.8943 0.0482256 42.4818 0.226786 40.0933 0.583015C38.523 0.821999 36.9813 1.13128 35.4683 1.51084C32.4745 2.27113 29.5635 3.31636 26.7765 4.6317C25.3971 5.28304 24.0535 6 22.7457 6.78255C22.1013 7.16914 21.457 7.56979 20.8269 7.99153C18.637 9.44832 16.575 11.0824 14.6625 12.8767C12.754 14.6675 10.9988 16.6093 9.41454 18.6826C8.95633 19.28 8.5196 19.8915 8.09002 20.5101C7.24042 21.7472 6.45048 23.0241 5.7202 24.3409C4.98992 25.6576 4.31215 27.0165 3.68688 28.4177C-0.169755 37.3992 -1.05528 47.3431 1.15535 56.8454C3.36598 66.3477 8.56106 74.9282 16.007 81.3753C23.453 87.8225 32.7737 91.8105 42.653 92.7763C52.5322 93.7421 62.4709 91.6369 71.0657 86.7579C68.3281 83.6229 66.7755 79.6569 66.6699 75.5288C66.5643 71.4007 67.9121 67.3632 70.486 64.0972C73.0598 60.8312 76.7023 58.5366 80.7989 57.6005C84.8955 56.6644 89.1957 57.144 92.974 58.9584C94.1169 54.9043 94.695 50.7167 94.6923 46.5102C94.6923 45.8073 94.6923 45.1044 94.635 44.4015V43.9095" fill="white"/>
<path d="M182.634 62.5853C186.037 65.9358 187.736 70.1672 187.731 75.2796C187.727 80.392 186.028 84.6234 182.634 87.9739C179.176 91.1933 174.591 92.9879 169.825 92.9879C165.06 92.9879 160.475 91.1933 157.017 87.9739C153.599 84.6281 151.891 80.3967 151.891 75.2796C151.891 70.1625 153.59 65.9311 156.988 62.5853C160.447 59.3659 165.031 57.5713 169.797 57.5713C174.563 57.5713 179.147 59.3659 182.605 62.5853M180.107 85.6895C182.629 82.7824 184.015 79.0881 184.015 75.2691C184.015 71.45 182.629 67.7557 180.107 64.8486C177.5 61.9902 174.064 60.561 169.797 60.561C165.53 60.561 162.093 61.9902 159.487 64.8486C156.964 67.7557 155.579 71.45 155.579 75.2691C155.579 79.0881 156.964 82.7824 159.487 85.6895C162.083 88.5292 165.52 89.9514 169.797 89.956C174.073 89.9607 177.51 88.5386 180.107 85.6895Z" fill="white"/>
<path d="M204.57 61.4615V92.1429H201.076V61.4615H189.578V58.418H216.076V61.4615H204.57Z" fill="white"/>
<path d="M135.03 34.5612C131.622 35.7419 127.906 35.7419 124.498 34.5612C123.124 34.0738 121.863 33.3209 120.79 32.3471C119.831 31.429 119.05 30.3478 118.484 29.156C117.918 28.0127 117.502 26.8034 117.246 25.5571C117.021 24.3868 116.909 23.1984 116.909 22.0075V0.857422H120.389V21.628C120.291 24.3546 121.081 27.0408 122.644 29.2965C124.148 31.363 126.517 32.3963 129.753 32.3963C132.99 32.3963 135.359 31.363 136.863 29.2965C138.426 27.0408 139.216 24.3546 139.118 21.628V0.857422H142.612V22.0075C142.612 23.1984 142.5 24.3868 142.276 25.5571C142.016 26.8026 141.6 28.0115 141.037 29.156C140.471 30.3478 139.69 31.429 138.732 32.3471C137.657 33.3225 136.393 34.0755 135.016 34.5612" fill="white"/>
<path d="M189.314 0.857422L209.303 29.5847H209.403V0.857422H212.897V34.5893H208.53L188.533 5.57385H188.44V34.5893H184.946V0.857422H189.314Z" fill="white"/>
<path d="M233.03 3.90798V34.5893H229.536V3.90798H218.038V0.857422H244.536V3.90798H233.03Z" fill="white"/>
<path d="M267.604 34.5612C264.196 35.7419 260.48 35.7419 257.072 34.5612C255.747 34.1101 254.53 33.398 253.496 32.4685C252.462 31.539 251.632 30.4117 251.058 29.156C250.488 28.014 250.072 26.8043 249.819 25.5571C249.589 24.3875 249.474 23.1988 249.476 22.0075V0.857422H252.969V21.628C252.871 24.3557 253.663 27.043 255.232 29.2965C256.735 31.363 259.103 32.3963 262.334 32.3963C265.566 32.3963 267.935 31.363 269.444 29.2965C271.012 27.043 271.805 24.3557 271.706 21.628V0.857422H275.2V22.0075C275.202 23.1988 275.087 24.3875 274.856 25.5571C274.6 26.8034 274.184 28.0127 273.618 29.156C273.043 30.4117 272.214 31.539 271.179 32.4685C270.145 33.398 268.928 34.1101 267.604 34.5612Z" fill="white"/>
<path d="M289.469 0.857422L301.11 28.7764H301.161L312.659 0.857422H318V34.5893H314.506V5.28566H314.406L301.984 34.5893H300.144L287.722 5.28566H287.622V34.5893H284.128V0.857422H289.469Z" fill="white"/>
<path d="M144.881 67.9211C143.919 65.8441 142.475 64.017 140.664 62.5861C137.179 59.8911 132.872 58.4233 128.435 58.418H117.03V92.1569H120.524V89.1134V61.4545H127.462C129.759 61.421 132.041 61.8195 134.185 62.6283C136.017 63.2992 137.668 64.3741 139.01 65.7703C140.221 67.053 141.176 68.548 141.824 70.1774C143.122 73.4551 143.122 77.0917 141.824 80.3694C141.176 81.9987 140.221 83.4938 139.01 84.7765C137.666 86.1722 136.016 87.2491 134.185 87.9255C132.039 88.7286 129.758 89.1246 127.462 89.0923H124.061V92.1358H128.435C130.629 92.1375 132.808 91.7763 134.879 91.0674C136.968 90.3589 138.921 89.3111 140.657 87.9677C142.467 86.5368 143.912 84.7097 144.874 82.6327C145.931 80.3181 146.478 77.8101 146.478 75.2734C146.478 72.7367 145.931 70.2287 144.874 67.9141" fill="white"/>
<path d="M167.083 22.5839H155.778L163.346 4.66711H163.353L176.033 34.5893H179.899L165.143 0.857422H161.749L146.9 34.5893H150.731L154.468 25.7258H168.415L167.083 22.5839Z" fill="white"/>
<path d="M91.5779 31.581C89.7344 31.626 87.9035 31.2714 86.2156 30.5424C84.5276 29.8135 83.0241 28.7281 81.8122 27.3636C79.3846 24.5376 78.0531 20.9598 78.0531 17.263C78.0531 13.5662 79.3846 9.98845 81.8122 7.16242C83.0431 5.77974 84.5724 4.68377 86.289 3.95424C88.0055 3.22471 89.8661 2.87997 91.7354 2.94505C93.6037 2.88739 95.4619 3.2355 97.1772 3.96454C98.8926 4.69358 100.423 5.78554 101.659 7.16242C104.116 9.97472 105.467 13.5577 105.467 17.263C105.467 20.9684 104.116 24.5513 101.659 27.3636C101.429 27.6167 101.186 27.8486 100.943 28.0665H105.188C105.884 27.2753 106.492 26.4128 107 25.4939C108.388 22.9618 109.098 20.1245 109.062 17.2489C109.062 12.2631 107.41 8.13475 104.107 4.86394C102.5 3.25284 100.572 1.98438 98.4436 1.13779C96.315 0.291212 94.0313 -0.1153 91.7354 -0.05632C89.4316 -0.118311 87.1395 0.286622 85.0023 1.13318C82.865 1.97974 80.9284 3.24975 79.3135 4.86394C76.0105 8.14412 74.3614 12.2725 74.3662 17.2489C74.371 22.2254 76.0201 26.3561 79.3135 29.641C80.9284 31.2552 82.865 32.5252 85.0023 33.3718C87.1395 34.2183 89.4316 34.6232 91.7354 34.5612H111.388V31.581H91.5779Z" fill="white"/>
</g>
<defs>
<clipPath id="clip0_3582_1437">
<rect width="318" height="93" fill="white"/>
</clipPath>
</defs>
</svg>
