<svg width="198" height="46" viewBox="0 0 198 46" fill="none" xmlns="http://www.w3.org/2000/svg">
<g clip-path="url(#clip0_3587_12069)">
<path fill-rule="evenodd" clip-rule="evenodd" d="M3.37479 0.883337C1.99966 0.883337 0.88489 1.99614 0.88489 3.36885V42.6409C0.88489 44.0136 1.99966 45.1264 3.37479 45.1264H24.7124C26.0875 45.1264 27.2023 44.0136 27.2023 42.6409V3.36885C27.2023 1.99614 26.0875 0.883337 24.7124 0.883337H3.37479ZM0.00488281 3.36885C0.00488281 1.51098 1.51364 0.00488281 3.37479 0.00488281H24.7124C26.5735 0.00488281 28.0823 1.51098 28.0823 3.36885V42.6409C28.0823 44.4988 26.5735 46.0049 24.7124 46.0049H3.37479C1.51364 46.0049 0.00488281 44.4988 0.00488281 42.6409V3.36885Z" fill="white"/>
<path fill-rule="evenodd" clip-rule="evenodd" d="M14.0383 7.31205C11.7941 7.31205 9.97473 9.12816 9.97473 11.3684C9.97473 13.6087 11.7941 15.4248 14.0383 15.4248C16.2825 15.4248 18.1019 13.6087 18.1019 11.3684C18.1019 9.12816 16.2825 7.31205 14.0383 7.31205ZM9.09473 11.3684C9.09473 8.643 11.308 6.43359 14.0383 6.43359C16.7686 6.43359 18.9819 8.643 18.9819 11.3684C18.9819 14.0939 16.7686 16.3033 14.0383 16.3033C11.308 16.3033 9.09473 14.0939 9.09473 11.3684Z" fill="white"/>
<path fill-rule="evenodd" clip-rule="evenodd" d="M14.0391 24.1783C10.2282 24.1783 7.1388 27.2622 7.1388 31.0664C7.1388 34.8706 10.2282 37.9545 14.0391 37.9545C17.85 37.9545 20.9394 34.8706 20.9394 31.0664C20.9394 27.2622 17.85 24.1783 14.0391 24.1783ZM6.25879 31.0664C6.25879 26.777 9.74215 23.2998 14.0391 23.2998C18.336 23.2998 21.8194 26.777 21.8194 31.0664C21.8194 35.3557 18.336 38.8329 14.0391 38.8329C9.74215 38.8329 6.25879 35.3557 6.25879 31.0664Z" fill="white"/>
<path fill-rule="evenodd" clip-rule="evenodd" d="M36.2976 0.883337C34.9225 0.883337 33.8077 1.99614 33.8077 3.36885V42.6409C33.8077 44.0136 34.9225 45.1264 36.2976 45.1264H57.6352C59.0104 45.1264 60.1251 44.0136 60.1251 42.6409V3.36885C60.1251 1.99614 59.0104 0.883337 57.6352 0.883337H36.2976ZM32.9277 3.36885C32.9277 1.51098 34.4365 0.00488281 36.2976 0.00488281H57.6352C59.4964 0.00488281 61.0051 1.51098 61.0051 3.36885V42.6409C61.0051 44.4988 59.4964 46.0049 57.6352 46.0049H36.2976C34.4365 46.0049 32.9277 44.4988 32.9277 42.6409V3.36885Z" fill="white"/>
<path fill-rule="evenodd" clip-rule="evenodd" d="M46.9611 7.31205C44.7169 7.31205 42.8976 9.12816 42.8976 11.3684C42.8976 13.6087 44.7169 15.4248 46.9611 15.4248C49.2054 15.4248 51.0247 13.6087 51.0247 11.3684C51.0247 9.12816 49.2054 7.31205 46.9611 7.31205ZM42.0176 11.3684C42.0176 8.643 44.2309 6.43359 46.9611 6.43359C49.6914 6.43359 51.9047 8.643 51.9047 11.3684C51.9047 14.0939 49.6914 16.3033 46.9611 16.3033C44.2309 16.3033 42.0176 14.0939 42.0176 11.3684Z" fill="white"/>
<path fill-rule="evenodd" clip-rule="evenodd" d="M46.961 24.1783C43.15 24.1783 40.0607 27.2622 40.0607 31.0664C40.0607 34.8706 43.15 37.9545 46.961 37.9545C50.7719 37.9545 53.8612 34.8706 53.8612 31.0664C53.8612 27.2622 50.7719 24.1783 46.961 24.1783ZM39.1807 31.0664C39.1807 26.777 42.664 23.2998 46.961 23.2998C51.2579 23.2998 54.7413 26.777 54.7413 31.0664C54.7413 35.3557 51.2579 38.8329 46.961 38.8329C42.664 38.8329 39.1807 35.3557 39.1807 31.0664Z" fill="white"/>
</g>
<g clip-path="url(#clip1_3587_12069)">
<path fill-rule="evenodd" clip-rule="evenodd" d="M152.633 45.1167C154.005 45.1167 155.117 44.0039 155.117 42.6311V3.35906C155.117 1.98634 154.005 0.873535 152.633 0.873535L78.3675 0.873535C76.9956 0.873535 75.8835 1.98634 75.8835 3.35906V42.6311C75.8835 44.0039 76.9956 45.1167 78.3675 45.1167L152.633 45.1167ZM155.995 42.6311C155.995 44.489 154.49 45.9951 152.633 45.9951L78.3675 45.9951C76.5107 45.9951 75.0055 44.489 75.0055 42.6311V3.35906C75.0055 1.50121 76.5107 -0.00491714 78.3675 -0.00491714L152.633 -0.00491714C154.49 -0.00491714 155.995 1.50121 155.995 3.35906V42.6311Z" fill="white"/>
<path fill-rule="evenodd" clip-rule="evenodd" d="M86.7177 10.448C86.7177 9.07529 85.6056 7.96244 84.2337 7.96244H83.9961C82.6241 7.96244 81.512 9.07529 81.512 10.448V10.6857C81.512 12.0584 82.6241 13.1712 83.9961 13.1712H84.2337C85.6056 13.1712 86.7177 12.0584 86.7177 10.6857V10.448ZM84.2337 7.08398C86.0905 7.08398 87.5957 8.59019 87.5957 10.448V10.6857C87.5957 12.5436 86.0905 14.0496 84.2337 14.0496H83.9961C82.1392 14.0496 80.634 12.5436 80.634 10.6857V10.448C80.634 8.59019 82.1392 7.08398 83.9961 7.08398H84.2337Z" fill="white"/>
<path fill-rule="evenodd" clip-rule="evenodd" d="M104.649 10.4383C104.649 9.06553 103.537 7.95267 102.165 7.95267H101.928C100.556 7.95267 99.4436 9.06553 99.4436 10.4383V10.6759C99.4436 12.0487 100.556 13.1614 101.928 13.1614H102.165C103.537 13.1614 104.649 12.0487 104.649 10.6759V10.4383ZM102.165 7.07422C104.022 7.07422 105.527 8.58042 105.527 10.4383V10.6759C105.527 12.5338 104.022 14.0399 102.165 14.0399H101.928C100.071 14.0399 98.5656 12.5338 98.5656 10.6759V10.4383C98.5656 8.58042 100.071 7.07422 101.928 7.07422H102.165Z" fill="white"/>
<path fill-rule="evenodd" clip-rule="evenodd" d="M95.6836 10.4381C95.6836 9.06543 94.5714 7.95267 93.1995 7.95267H92.9619C91.5899 7.95267 90.4778 9.06543 90.4778 10.4381V10.6758C90.4778 12.0485 91.59 13.1614 92.9619 13.1614H93.1995C94.5714 13.1614 95.6836 12.0485 95.6836 10.6758V10.4381ZM93.1995 7.07422C95.0563 7.07422 96.5615 8.58027 96.5615 10.4381V10.6758C96.5615 12.5337 95.0563 14.0399 93.1995 14.0399H92.9619C91.105 14.0399 89.5998 12.5337 89.5998 10.6758V10.4381C89.5998 8.58027 91.105 7.07422 92.9619 7.07422H93.1995Z" fill="white"/>
<path fill-rule="evenodd" clip-rule="evenodd" d="M113.625 10.4381C113.625 9.06543 112.513 7.95267 111.141 7.95267H110.903C109.531 7.95267 108.419 9.06543 108.419 10.4381V10.6758C108.419 12.0485 109.531 13.1614 110.903 13.1614H111.141C112.513 13.1614 113.625 12.0485 113.625 10.6758V10.4381ZM111.141 7.07422C112.998 7.07422 114.503 8.58027 114.503 10.4381V10.6758C114.503 12.5337 112.998 14.0399 111.141 14.0399H110.903C109.046 14.0399 107.541 12.5337 107.541 10.6758V10.4381C107.541 8.58027 109.046 7.07422 110.903 7.07422H111.141Z" fill="white"/>
<path fill-rule="evenodd" clip-rule="evenodd" d="M131.557 10.4381C131.557 9.06543 130.444 7.95267 129.073 7.95267H128.835C127.463 7.95267 126.351 9.06543 126.351 10.4381V10.6759C126.351 12.0487 127.463 13.1614 128.835 13.1614H129.073C130.444 13.1614 131.557 12.0487 131.557 10.6759V10.4381ZM129.073 7.07422C130.929 7.07422 132.435 8.58027 132.435 10.4381V10.6759C132.435 12.5338 130.929 14.0399 129.073 14.0399H128.835C126.978 14.0399 125.473 12.5338 125.473 10.6759V10.4381C125.473 8.58027 126.978 7.07422 128.835 7.07422H129.073Z" fill="white"/>
<path fill-rule="evenodd" clip-rule="evenodd" d="M122.591 10.4383C122.591 9.06553 121.479 7.95267 120.107 7.95267H119.869C118.497 7.95267 117.385 9.06553 117.385 10.4383V10.6759C117.385 12.0487 118.497 13.1614 119.869 13.1614H120.107C121.479 13.1614 122.591 12.0487 122.591 10.6759V10.4383ZM120.107 7.07422C121.964 7.07422 123.469 8.58042 123.469 10.4383V10.6759C123.469 12.5338 121.964 14.0399 120.107 14.0399H119.869C118.012 14.0399 116.507 12.5338 116.507 10.6759V10.4383C116.507 8.58042 118.012 7.07422 119.869 7.07422H120.107Z" fill="white"/>
<path fill-rule="evenodd" clip-rule="evenodd" d="M140.522 10.4381C140.522 9.06543 139.41 7.95267 138.038 7.95267H137.801C136.429 7.95267 135.317 9.06543 135.317 10.4381V10.6758C135.317 12.0485 136.429 13.1613 137.801 13.1613H138.038C139.41 13.1613 140.522 12.0485 140.522 10.6758V10.4381ZM138.038 7.07422C139.895 7.07422 141.4 8.58027 141.4 10.4381V10.6758C141.4 12.5337 139.895 14.0397 138.038 14.0397H137.801C135.944 14.0397 134.439 12.5337 134.439 10.6758V10.4381C134.439 8.58027 135.944 7.07422 137.801 7.07422H138.038Z" fill="white"/>
<path fill-rule="evenodd" clip-rule="evenodd" d="M149.487 10.4479C149.487 9.07519 148.375 7.96244 147.003 7.96244H146.766C145.394 7.96244 144.282 9.07519 144.282 10.4479V10.6857C144.282 12.0584 145.394 13.1712 146.766 13.1712H147.003C148.375 13.1712 149.487 12.0584 149.487 10.6857V10.4479ZM147.003 7.08398C148.86 7.08398 150.365 8.59004 150.365 10.4479V10.6857C150.365 12.5436 148.86 14.0496 147.003 14.0496H146.766C144.909 14.0496 143.404 12.5436 143.404 10.6857V10.4479C143.404 8.59004 144.909 7.08398 146.766 7.08398H147.003Z" fill="white"/>
<path fill-rule="evenodd" clip-rule="evenodd" d="M86.7177 35.3142C86.7177 33.9415 85.6056 32.8286 84.2337 32.8286H83.9961C82.6241 32.8286 81.512 33.9415 81.512 35.3142V35.5519C81.512 36.9246 82.6241 38.0374 83.9961 38.0374H84.2337C85.6056 38.0374 86.7177 36.9246 86.7177 35.5519V35.3142ZM84.2337 31.9502C86.0905 31.9502 87.5957 33.4564 87.5957 35.3142V35.5519C87.5957 37.4098 86.0905 38.9158 84.2337 38.9158H83.9961C82.1392 38.9158 80.634 37.4098 80.634 35.5519V35.3142C80.634 33.4564 82.1392 31.9502 83.9961 31.9502H84.2337Z" fill="white"/>
<path fill-rule="evenodd" clip-rule="evenodd" d="M131.598 35.3035C131.598 33.9308 130.485 32.8179 129.114 32.8179H101.886C100.514 32.8179 99.4022 33.9308 99.4022 35.3035V35.5412C99.4022 36.9139 100.514 38.0266 101.886 38.0266H129.114C130.485 38.0266 131.598 36.9139 131.598 35.5412V35.3035ZM129.114 31.9395C130.97 31.9395 132.476 33.4457 132.476 35.3035V35.5412C132.476 37.399 130.97 38.9051 129.114 38.9051H101.886C100.03 38.9051 98.5242 37.3991 98.5242 35.5412V35.3035C98.5242 33.4456 100.029 31.9395 101.886 31.9395L129.114 31.9395Z" fill="white"/>
<path fill-rule="evenodd" clip-rule="evenodd" d="M95.6631 35.3141C95.6631 33.9414 94.5509 32.8286 93.179 32.8286H92.9414C91.5694 32.8286 90.4573 33.9414 90.4573 35.3141V35.5518C90.4573 36.9245 91.5694 38.0374 92.9414 38.0374H93.179C94.5509 38.0374 95.6631 36.9245 95.6631 35.5518V35.3141ZM93.179 31.9502C95.0358 31.9502 96.541 33.4562 96.541 35.3141V35.5518C96.541 37.4096 95.0358 38.9158 93.179 38.9158H92.9414C91.0845 38.9158 89.5793 37.4096 89.5793 35.5518V35.3141C89.5793 33.4562 91.0845 31.9502 92.9414 31.9502H93.179Z" fill="white"/>
<path fill-rule="evenodd" clip-rule="evenodd" d="M140.543 35.3142C140.543 33.9415 139.431 32.8286 138.059 32.8286H137.821C136.449 32.8286 135.337 33.9415 135.337 35.3142V35.5519C135.337 36.9246 136.449 38.0374 137.821 38.0374H138.059C139.431 38.0374 140.543 36.9246 140.543 35.5519V35.3142ZM138.059 31.9502C139.916 31.9502 141.421 33.4564 141.421 35.3142V35.5519C141.421 37.4098 139.916 38.9158 138.059 38.9158H137.821C135.964 38.9158 134.459 37.4098 134.459 35.5519V35.3142C134.459 33.4564 135.964 31.9502 137.821 31.9502H138.059Z" fill="white"/>
<path fill-rule="evenodd" clip-rule="evenodd" d="M149.487 35.3141C149.487 33.9414 148.375 32.8286 147.003 32.8286H146.766C145.394 32.8286 144.282 33.9414 144.282 35.3141V35.5519C144.282 36.9246 145.394 38.0374 146.766 38.0374H147.003C148.375 38.0374 149.487 36.9246 149.487 35.5519V35.3141ZM147.003 31.9502C148.86 31.9502 150.365 33.4562 150.365 35.3141V35.5519C150.365 37.4098 148.86 38.9158 147.003 38.9158H146.766C144.909 38.9158 143.404 37.4098 143.404 35.5519V35.3141C143.404 33.4562 144.909 31.9502 146.766 31.9502H147.003Z" fill="white"/>
<path fill-rule="evenodd" clip-rule="evenodd" d="M86.7187 22.8816C86.7187 21.5089 85.6065 20.396 84.2346 20.396H83.997C82.6251 20.396 81.5129 21.5089 81.5129 22.8816V23.1193C81.5129 24.492 82.6251 25.6048 83.997 25.6048H84.2346C85.6065 25.6048 86.7187 24.492 86.7187 23.1193V22.8816ZM84.2346 19.5176C86.0914 19.5176 87.5967 21.0238 87.5967 22.8816V23.1193C87.5967 24.9772 86.0914 26.4832 84.2346 26.4832H83.997C82.1402 26.4832 80.6349 24.9772 80.6349 23.1193V22.8816C80.6349 21.0238 82.1402 19.5176 83.997 19.5176H84.2346Z" fill="white"/>
<path fill-rule="evenodd" clip-rule="evenodd" d="M104.649 22.8709C104.649 21.4982 103.537 20.3853 102.165 20.3853H101.928C100.556 20.3853 99.4435 21.4982 99.4435 22.8709V23.1086C99.4435 24.4813 100.556 25.594 101.928 25.594H102.165C103.537 25.594 104.649 24.4813 104.649 23.1086V22.8709ZM102.165 19.5068C104.022 19.5068 105.527 21.013 105.527 22.8709V23.1086C105.527 24.9664 104.022 26.4725 102.165 26.4725H101.928C100.071 26.4725 98.5656 24.9664 98.5656 23.1086V22.8709C98.5656 21.013 100.071 19.5068 101.928 19.5068H102.165Z" fill="white"/>
<path fill-rule="evenodd" clip-rule="evenodd" d="M95.6836 22.8708C95.6836 21.4981 94.5714 20.3853 93.1994 20.3853H92.9619C91.5899 20.3853 90.4777 21.4981 90.4777 22.8708V23.1084C90.4777 24.4812 91.5899 25.594 92.9619 25.594H93.1994C94.5713 25.594 95.6836 24.4812 95.6836 23.1084V22.8708ZM93.1994 19.5068C95.0562 19.5068 96.5615 21.0129 96.5615 22.8708V23.1084C96.5615 24.9663 95.0563 26.4725 93.1994 26.4725H92.9619C91.105 26.4725 89.5998 24.9663 89.5998 23.1084V22.8708C89.5998 21.0129 91.1051 19.5068 92.9619 19.5068H93.1994Z" fill="white"/>
<path fill-rule="evenodd" clip-rule="evenodd" d="M113.625 22.8708C113.625 21.4981 112.513 20.3853 111.141 20.3853H110.903C109.531 20.3853 108.419 21.4981 108.419 22.8708V23.1084C108.419 24.4812 109.531 25.594 110.903 25.594H111.141C112.513 25.594 113.625 24.4812 113.625 23.1084V22.8708ZM111.141 19.5068C112.998 19.5068 114.503 21.0129 114.503 22.8708V23.1084C114.503 24.9663 112.998 26.4725 111.141 26.4725H110.903C109.046 26.4725 107.541 24.9663 107.541 23.1084V22.8708C107.541 21.0129 109.046 19.5068 110.903 19.5068H111.141Z" fill="white"/>
<path fill-rule="evenodd" clip-rule="evenodd" d="M131.557 22.8708C131.557 21.4981 130.444 20.3853 129.072 20.3853H128.835C127.463 20.3853 126.351 21.4981 126.351 22.8708V23.1086C126.351 24.4813 127.463 25.594 128.835 25.594H129.072C130.444 25.594 131.557 24.4813 131.557 23.1086V22.8708ZM129.072 19.5068C130.929 19.5068 132.435 21.0129 132.435 22.8708V23.1086C132.435 24.9664 130.929 26.4725 129.072 26.4725H128.835C126.978 26.4725 125.473 24.9664 125.473 23.1086V22.8708C125.473 21.0129 126.978 19.5068 128.835 19.5068H129.072Z" fill="white"/>
<path fill-rule="evenodd" clip-rule="evenodd" d="M122.591 22.8709C122.591 21.4982 121.479 20.3853 120.107 20.3853H119.869C118.497 20.3853 117.385 21.4982 117.385 22.8709V23.1086C117.385 24.4813 118.497 25.594 119.869 25.594H120.107C121.479 25.594 122.591 24.4813 122.591 23.1086V22.8709ZM120.107 19.5068C121.963 19.5068 123.469 21.013 123.469 22.8709V23.1086C123.469 24.9664 121.963 26.4725 120.107 26.4725H119.869C118.012 26.4725 116.507 24.9664 116.507 23.1086V22.8709C116.507 21.013 118.012 19.5068 119.869 19.5068H120.107Z" fill="white"/>
<path fill-rule="evenodd" clip-rule="evenodd" d="M149.487 22.8815C149.487 21.5088 148.375 20.396 147.003 20.396H137.8C136.428 20.396 135.316 21.5088 135.316 22.8815V23.1192C135.316 24.4919 136.428 25.6048 137.8 25.6048H147.003C148.375 25.6048 149.487 24.4919 149.487 23.1192V22.8815ZM147.003 19.5176C148.86 19.5176 150.365 21.0236 150.365 22.8815V23.1192C150.365 24.977 148.86 26.4832 147.003 26.4832H137.8C135.943 26.4832 134.438 24.977 134.438 23.1192V22.8815C134.438 21.0236 135.943 19.5176 137.8 19.5176H147.003Z" fill="white"/>
</g>
<g clip-path="url(#clip2_3587_12069)">
<path fill-rule="evenodd" clip-rule="evenodd" d="M175.1 3.14113C177.615 1.10632 180.76 -0.0048809 184.005 -0.00488281H184.006C187.243 0.00490593 190.378 1.12059 192.884 3.15459C195.39 5.18859 197.115 8.01691 197.767 11.1643L197.769 11.1704L197.769 11.1704C198.043 12.6191 198.044 14.1059 197.769 15.5546C197.299 18.2497 197.05 20.9781 197.023 23.7131C197.015 25.8867 197.223 28.0559 197.642 30.1892C198.087 32.2734 197.983 34.4362 197.34 36.4689L197.338 36.4765L197.338 36.4765C196.394 39.2497 194.598 41.6594 192.203 43.3668C189.807 45.0742 186.933 45.9934 183.984 45.9952H183.984C181.205 45.996 178.487 45.1806 176.174 43.6515C173.861 42.1225 172.055 39.9482 170.984 37.4025L170.983 37.3995C170.047 35.1216 169.819 32.6183 170.325 30.2104C170.746 28.07 170.954 25.8937 170.945 23.7129C170.919 20.9813 170.67 18.2564 170.199 15.565C169.924 14.1129 169.925 12.6227 170.199 11.1706L170.2 11.1643L170.2 11.1643C170.855 8.00976 172.585 5.17595 175.1 3.14113ZM184.004 0.7312C180.931 0.731331 177.951 1.78405 175.569 3.7117C173.187 5.63878 171.548 8.32228 170.927 11.3096C170.67 12.6717 170.67 14.0695 170.928 15.4317L170.929 15.4365L170.929 15.4365C171.407 18.1684 171.66 20.9344 171.686 23.7071L171.686 23.709C171.695 25.9392 171.483 28.1649 171.053 30.3539L171.052 30.3587L171.052 30.3587C170.575 32.6232 170.789 34.9777 171.669 37.1202C172.683 39.5313 174.394 41.5906 176.585 43.0389C178.777 44.4874 181.351 45.2599 183.984 45.2591M184.004 0.7312C187.071 0.7406 190.041 1.79757 192.415 3.72444C194.788 5.65077 196.422 8.3291 197.04 11.3096C197.298 12.6682 197.298 14.0626 197.04 15.4211L197.04 15.4211L197.039 15.4264C196.562 18.1618 196.309 20.931 196.282 23.7069L196.282 23.7091C196.273 25.9324 196.486 28.1512 196.915 30.3332L196.915 30.3333L196.916 30.339C197.335 32.299 197.238 34.3329 196.634 36.2446C195.739 38.8704 194.038 41.152 191.77 42.7689C189.501 44.3865 186.778 45.2574 183.984 45.2591" fill="white"/>
<path fill-rule="evenodd" clip-rule="evenodd" d="M184.006 12.3525C184.21 12.3525 184.376 12.5173 184.376 12.7206V21.0041C184.376 21.2074 184.21 21.3721 184.006 21.3721C183.801 21.3721 183.635 21.2074 183.635 21.0041V12.7206C183.635 12.5173 183.801 12.3525 184.006 12.3525Z" fill="white"/>
<path fill-rule="evenodd" clip-rule="evenodd" d="M184 6.59839C183.304 6.59839 182.737 7.16124 182.737 7.85802V11.0926C182.737 11.7894 183.304 12.3523 184 12.3523C184.697 12.3523 185.264 11.7894 185.264 11.0926V7.85802C185.264 7.16124 184.697 6.59839 184 6.59839ZM181.995 7.85802C181.995 6.75693 182.892 5.8623 184 5.8623C185.109 5.8623 186.006 6.75693 186.006 7.85802V11.0926C186.006 12.1937 185.109 13.0884 184 13.0884C182.892 13.0884 181.995 12.1937 181.995 11.0926V7.85802Z" fill="white"/>
<path fill-rule="evenodd" clip-rule="evenodd" d="M184.006 -0.00488281C184.21 -0.00488281 184.376 0.159895 184.376 0.363159V6.23109C184.376 6.43435 184.21 6.59913 184.006 6.59913C183.801 6.59913 183.635 6.43435 183.635 6.23109V0.363159C183.635 0.159895 183.801 -0.00488281 184.006 -0.00488281Z" fill="white"/>
</g>
<defs>
<clipPath id="clip0_3587_12069">
<rect width="61" height="46" fill="white"/>
</clipPath>
<clipPath id="clip1_3587_12069">
<rect width="81" height="46" fill="white" transform="translate(75)"/>
</clipPath>
<clipPath id="clip2_3587_12069">
<rect width="28" height="46" fill="white" transform="translate(170)"/>
</clipPath>
</defs>
</svg>
