<svg width="212" height="48" viewBox="0 0 212 48" fill="none" xmlns="http://www.w3.org/2000/svg">
<g clip-path="url(#clip0_3587_8983)">
<path d="M70.446 33.7382C68.7842 32.7621 67.4098 31.3455 66.4672 29.6373C65.5177 27.8857 65.0195 25.9152 65.0195 23.9117C65.0195 21.9083 65.5177 19.9378 66.4672 18.1862C67.4098 16.478 68.7842 15.0614 70.446 14.0853C72.1684 13.1027 74.1072 12.5869 76.0786 12.5869C78.0501 12.5869 79.9888 13.1027 81.7112 14.0853C83.3721 15.0615 84.7455 16.4781 85.687 18.1862C86.6381 19.9372 87.1373 21.9079 87.1373 23.9117C87.1373 25.9156 86.6381 27.8863 85.687 29.6373C84.7455 31.3454 83.3721 32.762 81.7112 33.7382C79.9888 34.7208 78.0501 35.2366 76.0786 35.2366C74.1072 35.2366 72.1684 34.7208 70.446 33.7382ZM79.6571 30.4196C80.7319 29.8025 81.6171 28.8902 82.2132 27.7856C82.824 26.589 83.1431 25.2588 83.1431 23.9086C83.1431 22.5583 82.824 21.2281 82.2132 20.0316C81.6162 18.9277 80.7312 18.0157 79.6571 17.3975C78.5651 16.7681 77.3316 16.4419 76.0786 16.4512C74.8302 16.4395 73.601 16.766 72.5155 17.3975C71.4462 18.0179 70.5657 18.9297 69.9717 20.0316C69.3609 21.2281 69.0418 22.5583 69.0418 23.9086C69.0418 25.2588 69.3609 26.589 69.9717 27.7856C70.565 28.8881 71.4457 29.8001 72.5155 30.4196C73.6006 31.0524 74.8301 31.3789 76.0786 31.366C77.3318 31.3769 78.5657 31.0506 79.6571 30.4196Z" fill="white"/>
<path d="M90.1827 13.0664H94.1862V22.3629H94.4202L102.169 13.0664H106.988V13.3093L99.3291 22.2746L107.786 34.5112V34.7509H102.886L96.5575 25.5144L94.1646 28.3913V34.7509H90.1611L90.1827 13.0664Z" fill="white"/>
<path d="M119.735 33.767C118.028 32.7827 116.607 31.351 115.618 29.6187C114.629 27.8863 114.108 25.9157 114.108 23.909C114.108 21.9023 114.629 19.9317 115.618 18.1993C116.607 16.467 118.028 15.0352 119.735 14.0509C121.446 13.0705 123.377 12.5639 125.337 12.5809C126.893 12.5621 128.437 12.8658 129.876 13.4737C131.216 14.0477 132.42 14.9081 133.409 15.9973L130.662 18.7544C129.999 18.022 129.199 17.4349 128.309 17.0289C127.359 16.6255 126.337 16.4289 125.309 16.4516C124.059 16.4387 122.826 16.7571 121.731 17.3758C120.647 17.9917 119.751 18.9036 119.144 20.0099C118.492 21.1971 118.16 22.5407 118.183 23.9027C118.16 25.2666 118.497 26.6116 119.159 27.7954C119.776 28.9041 120.681 29.8158 121.774 30.4295C122.875 31.0479 124.112 31.3662 125.368 31.3538C127.339 31.3538 128.955 30.7586 130.218 29.5683C130.639 29.1678 130.989 28.6961 131.253 28.174C131.554 27.5923 131.772 26.9699 131.903 26.3254H125.251V22.8553H135.629C135.771 23.4756 135.84 24.111 135.835 24.7481C135.847 26.1079 135.632 27.4597 135.198 28.7449C134.788 29.9564 134.127 31.0626 133.261 31.9878C132.308 33.0427 131.137 33.8652 129.833 34.3948C128.401 34.9671 126.874 35.2499 125.337 35.2276C123.377 35.249 121.446 34.7455 119.735 33.767Z" fill="white"/>
<path d="M141.274 34.1607C140.078 33.4694 139.091 32.4531 138.422 31.2238C137.753 29.9344 137.403 28.4964 137.403 27.0361C137.403 25.5758 137.753 24.1378 138.422 22.8484C139.087 21.6119 140.074 20.5895 141.274 19.8957C142.551 19.1886 143.98 18.8184 145.432 18.8184C146.883 18.8184 148.312 19.1886 149.589 19.8957C150.79 20.5893 151.778 21.6117 152.444 22.8484C153.113 24.1378 153.463 25.5758 153.463 27.0361C153.463 28.4964 153.113 29.9344 152.444 31.2238C151.774 32.4533 150.786 33.4696 149.589 34.1607C148.312 34.8678 146.883 35.238 145.432 35.238C143.98 35.238 142.551 34.8678 141.274 34.1607ZM147.513 31.025C148.151 30.6552 148.674 30.1085 149.022 29.4478C149.41 28.7032 149.603 27.8686 149.583 27.025C149.601 26.1918 149.407 25.3681 149.022 24.6339C148.674 23.9735 148.151 23.4269 147.513 23.0566C146.88 22.6987 146.168 22.511 145.444 22.511C144.72 22.511 144.008 22.6987 143.374 23.0566C142.735 23.4281 142.208 23.9741 141.853 24.6339C141.456 25.3642 141.257 26.1895 141.274 27.025C141.258 27.8655 141.458 28.6955 141.853 29.432C142.207 30.0927 142.734 30.639 143.374 31.0093C144.008 31.3672 144.72 31.5549 145.444 31.5549C146.168 31.5549 146.88 31.3672 147.513 31.0093V31.025Z" fill="white"/>
<path d="M158.72 34.1607C157.522 33.4696 156.534 32.4533 155.865 31.2238C155.196 29.9344 154.846 28.4964 154.846 27.0361C154.846 25.5758 155.196 24.1378 155.865 22.8484C156.53 21.6117 157.519 20.5893 158.72 19.8957C159.997 19.1886 161.426 18.8184 162.877 18.8184C164.329 18.8184 165.758 19.1886 167.035 19.8957C168.235 20.5884 169.223 21.6111 169.886 22.8484C170.558 24.1371 170.909 25.5754 170.909 27.0361C170.909 28.4968 170.558 29.935 169.886 31.2238C169.219 32.4538 168.232 33.4703 167.035 34.1607C165.758 34.8678 164.329 35.238 162.877 35.238C161.426 35.238 159.997 34.8678 158.72 34.1607ZM164.959 31.025C165.597 30.6559 166.119 30.109 166.465 29.4478C166.855 28.704 167.049 27.869 167.028 27.025C167.046 26.1914 166.852 25.3673 166.465 24.6339C166.118 23.973 165.596 23.4261 164.959 23.0566C164.325 22.6987 163.613 22.511 162.889 22.511C162.166 22.511 161.454 22.6987 160.82 23.0566C160.18 23.4288 159.653 23.9746 159.296 24.6339C158.9 25.3644 158.701 26.1898 158.72 27.025C158.702 27.8652 158.901 28.6953 159.296 29.432C159.651 30.0922 160.179 30.6382 160.82 31.0093C161.454 31.3672 162.166 31.5549 162.889 31.5549C163.613 31.5549 164.325 31.3672 164.959 31.0093V31.025Z" fill="white"/>
<path d="M175.307 40.461C174.15 39.7165 173.259 38.6104 172.763 37.3065L176.4 35.7923C176.696 36.5365 177.205 37.1717 177.859 37.6147C178.514 38.0578 179.284 38.2879 180.068 38.2749C180.605 38.3017 181.142 38.2131 181.644 38.0148C182.145 37.8165 182.601 37.5129 182.981 37.1235C183.7 36.358 184.059 35.2676 184.059 33.8522V32.6408H183.822C183.354 33.3257 182.716 33.8701 181.974 34.2181C181.147 34.5932 180.249 34.7784 179.344 34.7607C178.12 34.7655 176.918 34.425 175.871 33.7765C174.779 33.1032 173.886 32.1409 173.284 30.991C172.642 29.6901 172.308 28.253 172.308 26.7954C172.308 25.3379 172.642 23.9007 173.284 22.5998C173.887 21.4505 174.78 20.4884 175.871 19.8144C176.918 19.1658 178.12 18.8253 179.344 18.8301C180.249 18.8135 181.147 18.9997 181.974 19.3759C182.717 19.7235 183.355 20.268 183.822 20.9531H184.059V19.3191H187.786V33.7039C187.822 35.1961 187.497 36.6743 186.84 38.0068C186.234 39.193 185.297 40.168 184.149 40.808C182.892 41.4869 181.488 41.8257 180.068 41.7923C178.157 41.7839 176.57 41.3401 175.307 40.461ZM182.907 29.9815C183.673 29.2055 184.057 28.1403 184.059 26.786C184.059 25.3958 183.679 24.3212 182.92 23.562C182.163 22.829 181.161 22.4206 180.119 22.4206C179.077 22.4206 178.075 22.829 177.318 23.562C176.548 24.3317 176.164 25.4022 176.166 26.7733C176.168 28.1445 176.552 29.215 177.318 29.9847C177.687 30.3595 178.126 30.6545 178.608 30.8523C179.091 31.0501 179.607 31.1466 180.127 31.1361C180.642 31.1463 181.155 31.0493 181.633 30.8509C182.111 30.6524 182.544 30.3567 182.907 29.9815Z" fill="white"/>
<path d="M190.831 13.0664H194.702V34.7509H190.831V13.0664Z" fill="white"/>
<path d="M200.646 34.1767C199.46 33.4864 198.483 32.4746 197.822 31.2524C197.157 29.9759 196.809 28.5512 196.809 27.1042C196.809 25.6571 197.157 24.2324 197.822 22.9559C198.469 21.7167 199.425 20.6759 200.594 19.9401C201.785 19.1919 203.159 18.8038 204.557 18.8202C205.964 18.7815 207.353 19.1382 208.576 19.8518C209.679 20.514 210.568 21.4921 211.135 22.6657C211.726 23.8999 212.025 25.2595 212.007 26.6341C212.009 27.0806 211.979 27.5266 211.917 27.9685H200.594C200.799 29.1988 201.277 30.1325 202.029 30.7698C202.802 31.4074 203.771 31.7429 204.763 31.7161C205.566 31.739 206.358 31.5349 207.055 31.1262C207.686 30.7438 208.21 30.2004 208.576 29.5489L211.711 31.1262C210.169 33.8728 207.832 35.2461 204.699 35.2461C203.279 35.264 201.88 34.8949 200.646 34.1767ZM208.274 25.1515C208.226 24.6342 208.048 24.1386 207.757 23.713C207.433 23.2199 206.998 22.814 206.488 22.53C205.902 22.2066 205.244 22.0447 204.579 22.06C203.714 22.0384 202.87 22.3337 202.198 22.8928C201.516 23.4864 201.018 24.2715 200.766 25.1515H208.274Z" fill="white"/>
<path d="M48.0294 16.7984C48.7244 16.7984 49.4038 16.5872 49.9816 16.1917C50.5595 15.7962 51.0098 15.2341 51.2758 14.5764C51.5417 13.9187 51.6113 13.195 51.4757 12.4968C51.3402 11.7986 51.0055 11.1572 50.5141 10.6538C50.0227 10.1505 49.3966 9.80765 48.715 9.66877C48.0334 9.52989 47.3268 9.60117 46.6848 9.8736C46.0427 10.146 45.4939 10.6074 45.1078 11.1993C44.7217 11.7912 44.5156 12.4871 44.5156 13.199C44.5156 14.1536 44.8858 15.0691 45.5448 15.7441C46.2038 16.4191 47.0975 16.7984 48.0294 16.7984Z" fill="#00AE57"/>
<path d="M37.4878 28.7983C38.8785 28.7983 40.2379 28.3758 41.3942 27.5844C42.5504 26.7929 43.4516 25.6679 43.9836 24.3517C44.5157 23.0356 44.6547 21.5874 44.3832 20.1902C44.1117 18.7931 43.4417 17.5099 42.4582 16.5028C41.4746 15.4957 40.2215 14.8101 38.8575 14.5325C37.4935 14.255 36.0797 14.3981 34.7951 14.9437C33.5104 15.4892 32.4126 16.4128 31.6404 17.5976C30.8683 18.7823 30.4564 20.175 30.457 21.5996C30.457 22.5452 30.6389 23.4816 30.9923 24.3551C31.3456 25.2287 31.8636 26.0225 32.5165 26.691C33.1694 27.3595 33.9445 27.8897 34.7975 28.2513C35.6505 28.6128 36.5646 28.7987 37.4878 28.7983Z" fill="#F04931"/>
<path d="M37.4883 47.9966C39.1103 47.9959 40.6957 47.5026 42.044 46.5791C43.3923 45.6555 44.4429 44.3431 45.0631 42.8078C45.6832 41.2726 45.845 39.5834 45.528 37.954C45.2109 36.3245 44.4293 34.828 43.282 33.6536C42.1346 32.4792 40.673 31.6796 39.0821 31.3561C37.4911 31.0326 35.8422 31.1996 34.3439 31.836C32.8456 32.4724 31.5652 33.5496 30.6646 34.9314C29.764 36.3133 29.2836 37.9376 29.2842 39.5991C29.2842 40.7021 29.4963 41.7944 29.9085 42.8134C30.3207 43.8324 30.9248 44.7583 31.6864 45.5381C32.448 46.3179 33.352 46.9364 34.347 47.3583C35.342 47.7801 36.4083 47.997 37.4852 47.9966" fill="#FBAB18"/>
<path d="M14.0584 28.7974C16.8389 28.7974 19.5569 27.9528 21.8688 26.3704C24.1807 24.7881 25.9826 22.539 27.0467 19.9076C28.1107 17.2763 28.3891 14.3808 27.8467 11.5873C27.3042 8.79386 25.9653 6.22792 23.9992 4.21395C22.0331 2.19999 19.5281 0.828456 16.8011 0.272804C14.074 -0.282847 11.2473 0.00233347 8.67849 1.09228C6.10966 2.18223 3.91403 4.028 2.36927 6.39617C0.824513 8.76434 3.37483e-07 11.5486 3.37483e-07 14.3967C-0.00040424 16.288 0.362952 18.1608 1.06931 19.9081C1.77567 21.6555 2.81119 23.2431 4.11672 24.5805C5.42224 25.9178 6.97218 26.9785 8.678 27.702C10.3838 28.4256 12.2121 28.7978 14.0584 28.7974Z" fill="#0081C6"/>
</g>
<defs>
<clipPath id="clip0_3587_8983">
<rect width="212" height="48" fill="white"/>
</clipPath>
</defs>
</svg>
