<svg width="18" height="19" viewBox="0 0 18 19" fill="none" xmlns="http://www.w3.org/2000/svg">
<rect y="0.901367" width="18" height="18" rx="9" fill="#B2CA5B"/>
<path d="M7.73535 9.30273H8.6377C9.07975 9.30273 9.44434 9.22982 9.73145 9.08398C10.0231 8.93359 10.2396 8.73079 10.3809 8.47559C10.5267 8.21582 10.5996 7.92415 10.5996 7.60059C10.5996 7.21777 10.5358 6.89648 10.4082 6.63672C10.2806 6.37695 10.0892 6.18099 9.83398 6.04883C9.57878 5.91667 9.25521 5.85059 8.86328 5.85059C8.50781 5.85059 8.19336 5.92122 7.91992 6.0625C7.65104 6.19922 7.43913 6.39518 7.28418 6.65039C7.13379 6.9056 7.05859 7.20638 7.05859 7.55273H5.79395C5.79395 7.04688 5.92155 6.58659 6.17676 6.17188C6.43197 5.75716 6.78971 5.42676 7.25 5.18066C7.71484 4.93457 8.2526 4.81152 8.86328 4.81152C9.46484 4.81152 9.99121 4.91862 10.4424 5.13281C10.8936 5.34245 11.2445 5.6569 11.4951 6.07617C11.7458 6.49089 11.8711 7.00814 11.8711 7.62793C11.8711 7.87858 11.8118 8.14746 11.6934 8.43457C11.5794 8.71712 11.3994 8.98145 11.1533 9.22754C10.9118 9.47363 10.5973 9.67643 10.21 9.83594C9.82259 9.99089 9.35775 10.0684 8.81543 10.0684H7.73535V9.30273ZM7.73535 10.3418V9.58301H8.81543C9.44889 9.58301 9.97298 9.6582 10.3877 9.80859C10.8024 9.95898 11.1283 10.1595 11.3652 10.4102C11.6068 10.6608 11.7754 10.9365 11.8711 11.2373C11.9714 11.5335 12.0215 11.8298 12.0215 12.126C12.0215 12.5908 11.9417 13.0033 11.7822 13.3633C11.6273 13.7233 11.4062 14.0286 11.1191 14.2793C10.8366 14.5299 10.5039 14.7191 10.1211 14.8467C9.73828 14.9743 9.32129 15.0381 8.87012 15.0381C8.43717 15.0381 8.0293 14.9766 7.64648 14.8535C7.26823 14.7305 6.93327 14.5527 6.6416 14.3203C6.34993 14.0833 6.12207 13.7939 5.95801 13.4521C5.79395 13.1058 5.71191 12.7116 5.71191 12.2695H6.97656C6.97656 12.6159 7.05176 12.9189 7.20215 13.1787C7.3571 13.4385 7.57585 13.6413 7.8584 13.7871C8.14551 13.9284 8.48275 13.999 8.87012 13.999C9.25749 13.999 9.59017 13.9329 9.86816 13.8008C10.1507 13.6641 10.3672 13.459 10.5176 13.1855C10.6725 12.9121 10.75 12.568 10.75 12.1533C10.75 11.7386 10.6634 11.3991 10.4902 11.1348C10.3171 10.8659 10.071 10.6676 9.75195 10.54C9.4375 10.4079 9.06608 10.3418 8.6377 10.3418H7.73535Z" fill="white"/>
</svg>
