<svg width="18" height="19" viewBox="0 0 18 19" fill="none" xmlns="http://www.w3.org/2000/svg">
<rect y="0.901367" width="18" height="18" rx="9" fill="#B2CA5B"/>
<path d="M12.4111 13.8623V14.9014H5.89648V13.9922L9.15723 10.3623C9.55827 9.91569 9.86816 9.53743 10.0869 9.22754C10.3102 8.91309 10.4652 8.63281 10.5518 8.38672C10.6429 8.13607 10.6885 7.88086 10.6885 7.62109C10.6885 7.29297 10.6201 6.99674 10.4834 6.73242C10.3512 6.46354 10.1553 6.24935 9.89551 6.08984C9.63574 5.93034 9.32129 5.85059 8.95215 5.85059C8.51009 5.85059 8.14095 5.93717 7.84473 6.11035C7.55306 6.27897 7.33431 6.51595 7.18848 6.82129C7.04264 7.12663 6.96973 7.47754 6.96973 7.87402H5.70508C5.70508 7.31348 5.82812 6.80078 6.07422 6.33594C6.32031 5.87109 6.6849 5.50195 7.16797 5.22852C7.65104 4.95052 8.24577 4.81152 8.95215 4.81152C9.58105 4.81152 10.1188 4.92318 10.5654 5.14648C11.012 5.36523 11.3538 5.67513 11.5908 6.07617C11.8324 6.47266 11.9531 6.9375 11.9531 7.4707C11.9531 7.76237 11.903 8.05859 11.8027 8.35938C11.707 8.6556 11.5726 8.95182 11.3994 9.24805C11.2308 9.54427 11.0326 9.83594 10.8047 10.123C10.5814 10.4102 10.3421 10.6927 10.0869 10.9707L7.4209 13.8623H12.4111Z" fill="white"/>
</svg>
