<svg width="300" height="28" viewBox="0 0 300 28" fill="none" xmlns="http://www.w3.org/2000/svg">
<g clip-path="url(#clip0_3897_955)">
<path d="M13.7083 1.15326C16.7813 1.15787 19.7663 2.18419 22.1977 4.07211C22.2965 4.14575 22.3793 4.23885 22.441 4.34572C22.5028 4.45259 22.5422 4.57099 22.5568 4.69368C22.5715 4.81638 22.5611 4.94078 22.5263 5.0593C22.4914 5.17781 22.4329 5.28795 22.3543 5.38297C22.2871 5.48647 22.1988 5.57447 22.0953 5.64118C21.9918 5.70788 21.8753 5.75176 21.7537 5.76993C21.632 5.7881 21.5079 5.78014 21.3895 5.74658C21.2712 5.71302 21.1612 5.65462 21.067 5.57523C18.9705 3.91348 16.3787 3.00853 13.7083 3.00594C12.1667 2.98051 10.6353 3.26218 9.20259 3.83469C7.7699 4.40721 6.46429 5.25922 5.36117 6.34153C4.25805 7.42383 3.37928 8.71499 2.7756 10.1404C2.17192 11.5659 1.85529 13.0973 1.84401 14.6464C1.86211 16.1902 2.18389 17.7152 2.79084 19.1336C3.39778 20.552 4.27791 21.8359 5.38058 22.9112C6.48325 23.9866 7.78668 24.8323 9.21589 25.3996C10.6451 25.9669 12.1719 26.2447 13.7083 26.2169C16.3648 26.2588 18.9492 25.3479 20.9974 23.6476C21.0968 23.5692 21.2114 23.5126 21.3339 23.4814C21.4564 23.4502 21.5841 23.4452 21.7086 23.4666C21.8332 23.488 21.9519 23.5354 22.0571 23.6057C22.1623 23.676 22.2517 23.7677 22.3195 23.8749C22.405 23.9653 22.4703 24.073 22.5109 24.1908C22.5515 24.3087 22.5666 24.4339 22.5551 24.5581C22.5435 24.6823 22.5057 24.8025 22.444 24.9108C22.3824 25.019 22.2984 25.1128 22.1977 25.1857C19.7485 27.0237 16.7651 28.0003 13.7083 27.9647C10.1338 28.0209 6.68311 26.6502 4.1132 24.1534C1.5433 21.6566 0.0640599 18.2376 0 14.6464C0.0158993 12.8554 0.383357 11.0851 1.08132 9.43705C1.77929 7.78896 2.79404 6.29542 4.06746 5.04199C5.34087 3.78857 6.84792 2.79989 8.50227 2.13259C10.1566 1.46529 11.9258 1.13249 13.7083 1.15326Z" fill="white"/>
<path d="M31.6622 27.9646C31.422 27.9603 31.1926 27.8637 31.0211 27.6947C30.8496 27.5256 30.7491 27.297 30.7402 27.0558V2.44654C30.7711 2.22053 30.8823 2.01339 31.0534 1.86343C31.2245 1.71348 31.4439 1.63086 31.6709 1.63086C31.898 1.63086 32.1174 1.71348 32.2885 1.86343C32.4596 2.01339 32.5708 2.22053 32.6016 2.44654V26.2168H45.1966C45.3177 26.2168 45.4376 26.2408 45.5494 26.2873C45.6613 26.3339 45.7629 26.4021 45.8486 26.4881C45.9342 26.5742 46.0021 26.6763 46.0484 26.7887C46.0948 26.9011 46.1186 27.0215 46.1186 27.1432C46.1186 27.2648 46.0948 27.3853 46.0484 27.4977C46.0021 27.6101 45.9342 27.7122 45.8486 27.7982C45.7629 27.8842 45.6613 27.9524 45.5494 27.999C45.4376 28.0455 45.3177 28.0695 45.1966 28.0695H31.6622" fill="white"/>
<path d="M53.2676 2.44685C53.2676 2.20117 53.3647 1.96555 53.5376 1.79183C53.7105 1.6181 53.9451 1.52051 54.1896 1.52051C54.4341 1.52051 54.6686 1.6181 54.8415 1.79183C55.0145 1.96555 55.1116 2.20117 55.1116 2.44685V27.091C55.1116 27.3367 55.0145 27.5723 54.8415 27.7461C54.6686 27.9198 54.4341 28.0174 54.1896 28.0174C53.9451 28.0174 53.7105 27.9198 53.5376 27.7461C53.3647 27.5723 53.2676 27.3367 53.2676 27.091V2.44685Z" fill="white"/>
<path d="M77.7962 1.15326C80.8751 1.15401 83.8668 2.18054 86.303 4.07211C86.4005 4.14706 86.4818 4.24116 86.5419 4.34867C86.6021 4.45619 86.6398 4.57488 86.6528 4.69752C86.6658 4.82015 86.6539 4.94416 86.6177 5.06201C86.5815 5.17985 86.5218 5.28906 86.4422 5.38298C86.3767 5.486 86.2901 5.57376 86.1881 5.64034C86.086 5.70693 85.971 5.7508 85.8507 5.76902C85.7304 5.78723 85.6076 5.77936 85.4906 5.74593C85.3736 5.71251 85.265 5.65431 85.1723 5.57524C83.0678 3.9158 80.4714 3.01138 77.7962 3.00595C76.2554 2.9805 74.7249 3.26229 73.2931 3.83502C71.8614 4.40774 70.557 5.26002 69.4552 6.34256C68.3535 7.4251 67.4763 8.71639 66.8746 10.1417C66.2728 11.5671 65.9583 13.0982 65.9493 14.6464C65.9674 16.1887 66.2886 17.7123 66.8945 19.1295C67.5004 20.5468 68.3789 21.8298 69.4797 22.9049C70.5805 23.9801 71.8819 24.8261 73.3091 25.3945C74.7363 25.9629 76.2612 26.2424 77.7962 26.2169C80.4575 26.2554 83.0461 25.3451 85.1027 23.6476C85.2006 23.5696 85.3139 23.5132 85.435 23.4821C85.5562 23.4511 85.6825 23.4461 85.8057 23.4676C85.9289 23.4891 86.0462 23.5364 86.1499 23.6066C86.2536 23.6768 86.3413 23.7682 86.4074 23.8749C86.4938 23.9641 86.5603 24.0709 86.6023 24.188C86.6444 24.3051 86.661 24.43 86.6511 24.5541C86.6412 24.6782 86.6051 24.7988 86.545 24.9077C86.485 25.0166 86.4025 25.1114 86.303 25.1857C83.8491 27.0273 80.8589 28.0042 77.7962 27.9647C76.0234 27.9925 74.2624 27.6691 72.614 27.013C70.9656 26.3569 69.4619 25.381 68.189 24.141C66.916 22.901 65.8986 21.4212 65.1949 19.7861C64.4913 18.151 64.1151 16.3926 64.0879 14.6114C64.1083 12.8234 64.4791 11.0569 65.1791 9.41285C65.8791 7.7688 66.8946 6.27938 68.1676 5.02965C69.4405 3.77991 70.946 2.79435 72.5981 2.12924C74.2502 1.46412 76.0165 1.13249 77.7962 1.15326Z" fill="white"/>
<path d="M94.7754 2.55197C94.7754 2.30629 94.8725 2.07067 95.0454 1.89695C95.2184 1.72323 95.4529 1.62563 95.6974 1.62563C95.9419 1.62563 96.1764 1.72323 96.3494 1.89695C96.5223 2.07067 96.6194 2.30629 96.6194 2.55197V17.8628L112.537 1.87032C112.71 1.71065 112.937 1.62207 113.172 1.62207C113.407 1.62207 113.634 1.71065 113.807 1.87032C113.898 1.95535 113.97 2.05819 114.019 2.17244C114.069 2.2867 114.094 2.40993 114.094 2.53449C114.094 2.65906 114.069 2.78229 114.019 2.89655C113.97 3.0108 113.898 3.11363 113.807 3.19866L103.735 13.336L114.033 26.4796C114.174 26.6803 114.238 26.9257 114.212 27.17C114.186 27.4144 114.073 27.641 113.894 27.8079C113.718 27.9389 113.504 28.0066 113.285 28.0002C113.152 28.0048 113.019 27.9752 112.901 27.914C112.782 27.8528 112.681 27.7621 112.607 27.6506L102.412 14.542L96.6194 20.4671V27.0913C96.6194 27.337 96.5223 27.5726 96.3494 27.7463C96.1764 27.92 95.9419 28.0176 95.6974 28.0176C95.4529 28.0176 95.2184 27.92 95.0454 27.7463C94.8725 27.5726 94.7754 27.337 94.7754 27.0913V2.62188" fill="white"/>
<path d="M175.373 16.0971C175.25 16.1042 175.126 16.086 175.011 16.0435C174.895 16.0011 174.789 15.9353 174.699 15.8502C174.61 15.765 174.538 15.6624 174.489 15.5486C174.441 15.4347 174.416 15.3121 174.416 15.1882C174.414 15.0621 174.437 14.9368 174.484 14.82C174.532 14.7033 174.602 14.5974 174.692 14.5091C174.781 14.4207 174.888 14.3516 175.005 14.3061C175.122 14.2606 175.247 14.2396 175.373 14.2444H183.601C183.833 14.2664 184.049 14.3761 184.204 14.5512C184.359 14.7263 184.442 14.954 184.436 15.1882V24.4691C184.404 24.7304 184.281 24.9718 184.088 25.1508C182.085 26.7229 179.687 27.706 177.161 27.991C174.635 28.2759 172.08 27.8514 169.78 26.7647C167.48 25.678 165.525 23.9717 164.132 21.8354C162.739 19.6991 161.963 17.2166 161.891 14.6639C161.902 12.8722 162.266 11.1005 162.961 9.45045C163.656 7.80044 164.668 6.30471 165.941 5.04921C167.213 3.79371 168.72 2.80319 170.374 2.13459C172.029 1.466 173.798 1.13249 175.582 1.15326C178.688 1.15286 181.704 2.20595 184.141 4.14202C184.314 4.30259 184.422 4.52304 184.441 4.75948C184.46 4.99591 184.39 5.231 184.245 5.41793C184.086 5.60779 183.86 5.72968 183.615 5.75889C183.369 5.7881 183.122 5.72245 182.923 5.57523C181.201 4.22295 179.14 3.37553 176.969 3.12673C174.798 2.87793 172.6 3.23744 170.619 4.16549C168.639 5.09354 166.952 6.55396 165.746 8.38519C164.541 10.2164 163.862 12.3471 163.787 14.5415C163.794 16.0876 164.105 17.617 164.702 19.0419C165.299 20.4667 166.171 21.7589 167.267 22.8439C168.363 23.929 169.662 24.7856 171.089 25.3645C172.516 25.9434 174.043 26.2331 175.582 26.2169C178.081 26.2103 180.515 25.4155 182.54 23.9448V16.0971H175.355" fill="white"/>
<path d="M207.887 22.0225C207.89 21.2292 207.695 20.4478 207.322 19.7489C206.948 19.0501 206.407 18.4558 205.747 18.02C204.837 17.2307 203.708 16.7425 202.512 16.6217H196.11V27.1086C196.11 27.3543 196.013 27.5899 195.84 27.7636C195.667 27.9374 195.432 28.035 195.188 28.035C194.943 28.035 194.709 27.9374 194.536 27.7636C194.363 27.5899 194.266 27.3543 194.266 27.1086V2.44695C194.273 2.21984 194.361 2.0029 194.514 1.83594C194.668 1.66898 194.876 1.56322 195.101 1.53809H202.616C204.351 1.54685 206.03 2.15741 207.37 3.26654C208.709 4.37567 209.625 5.91533 209.965 7.62525C210.305 9.33516 210.046 11.1104 209.233 12.6509C208.42 14.1914 207.103 15.4027 205.504 16.0799C206.393 16.3063 207.205 16.7715 207.852 17.4257C209.04 18.6575 209.702 20.3072 209.696 22.0225C209.658 23.0527 209.77 24.0831 210.027 25.0812C210.09 25.32 210.216 25.5373 210.392 25.7104C210.575 25.7549 210.766 25.7549 210.949 25.7104C211.132 25.7281 211.301 25.8162 211.421 25.9563C211.541 26.0963 211.602 26.2775 211.592 26.4619C211.609 26.6935 211.54 26.9232 211.399 27.1069C211.258 27.2907 211.054 27.4158 210.827 27.4582H210.375H210.288C209.919 27.4257 209.564 27.2975 209.259 27.0861C208.954 26.8747 208.709 26.5873 208.548 26.2522C207.969 24.8792 207.724 23.3872 207.835 21.9001M202.616 3.26842H196.11V14.804H202.772C204.225 14.7056 205.585 14.0512 206.572 12.9758C207.559 11.9003 208.098 10.4855 208.078 9.02284C208.058 7.56014 207.48 6.16086 206.464 5.11312C205.448 4.06538 204.071 3.44895 202.616 3.39077" fill="white"/>
<path d="M230.727 1.15332C232.432 1.20308 234.11 1.58984 235.665 2.29149C237.221 2.99315 238.624 3.99594 239.793 5.24255C240.963 6.48917 241.877 7.95516 242.482 9.55674C243.088 11.1583 243.373 12.8641 243.322 14.5765C243.433 16.315 243.188 18.0579 242.603 19.6976C242.017 21.3373 241.103 22.8388 239.917 24.1095C238.731 25.3802 237.298 26.3931 235.707 27.0854C234.116 27.7778 232.4 28.1351 230.666 28.1351C228.932 28.1351 227.217 27.7778 225.626 27.0854C224.035 26.3931 222.602 25.3802 221.416 24.1095C220.23 22.8388 219.316 21.3373 218.73 19.6976C218.144 18.0579 217.899 16.315 218.01 14.5765C217.964 12.8552 218.257 11.1417 218.872 9.53432C219.486 7.92695 220.411 6.45744 221.593 5.21016C222.774 3.96289 224.19 2.96243 225.757 2.26623C227.325 1.57004 229.014 1.19183 230.727 1.15332ZM230.727 26.1471C233.67 26.0242 236.445 24.7403 238.452 22.5741C240.458 20.4079 241.533 17.5341 241.443 14.5765C241.546 13.0889 241.344 11.5959 240.848 10.1903C240.352 8.78479 239.574 7.49674 238.561 6.40631C237.549 5.31588 236.324 4.44638 234.963 3.85187C233.602 3.25737 232.133 2.95058 230.649 2.95058C229.165 2.95058 227.696 3.25737 226.335 3.85187C224.974 4.44638 223.749 5.31588 222.737 6.40631C221.724 7.49674 220.946 8.78479 220.45 10.1903C219.954 11.5959 219.751 13.0889 219.854 14.5765C219.799 16.0603 220.037 17.5405 220.554 18.9312C221.072 20.3219 221.86 21.5956 222.871 22.6783C223.882 23.7611 225.098 24.6314 226.446 25.2388C227.795 25.8462 229.25 26.1787 230.727 26.217" fill="white"/>
<path d="M249.794 2.21934L259.31 24.8186L265.903 8.73869C265.986 8.58011 266.108 8.44545 266.257 8.34754C266.406 8.24964 266.578 8.19175 266.756 8.17939C266.949 8.17436 267.139 8.22417 267.305 8.32311C267.472 8.42205 267.607 8.5661 267.695 8.73869L274.253 24.7662L283.769 2.16691C283.821 2.05424 283.895 1.95306 283.987 1.86919C284.078 1.78532 284.185 1.7204 284.301 1.67818C284.418 1.63595 284.541 1.61724 284.665 1.62313C284.789 1.62901 284.91 1.65938 285.022 1.71247C285.13 1.76157 285.228 1.83177 285.31 1.91904C285.392 2.00631 285.455 2.10893 285.497 2.221C285.539 2.33307 285.559 2.45238 285.555 2.57208C285.551 2.69177 285.523 2.80949 285.474 2.91847L275.228 27.3879C275.158 27.5404 275.054 27.6748 274.924 27.7809C274.794 27.8869 274.642 27.9617 274.48 27.9996H274.288C274.125 27.9926 273.968 27.938 273.836 27.8423C273.777 27.8026 273.729 27.7485 273.697 27.685C273.636 27.6217 273.584 27.5513 273.54 27.4753C273.549 27.4562 273.554 27.4353 273.554 27.4141C273.554 27.3929 273.549 27.372 273.54 27.3529L266.808 11.3604L260.075 27.3529C260.065 27.4239 260.035 27.4905 259.988 27.5452C259.951 27.6447 259.892 27.7344 259.814 27.8074C259.66 27.9114 259.478 27.9662 259.293 27.9647C259.091 27.9634 258.896 27.8959 258.736 27.7724H258.649C258.533 27.6515 258.455 27.4999 258.423 27.3354L248.141 2.9709C248.092 2.85614 248.066 2.73278 248.065 2.60787C248.063 2.48296 248.086 2.35894 248.132 2.24289C248.178 2.12685 248.246 2.02105 248.333 1.93154C248.42 1.84203 248.523 1.77056 248.637 1.72121C248.751 1.67187 248.874 1.64561 248.999 1.64393C249.123 1.64226 249.246 1.6652 249.362 1.71146C249.477 1.75771 249.583 1.82637 249.672 1.91352C249.761 2.00066 249.832 2.10458 249.881 2.21934" fill="white"/>
<path d="M140.91 6.11714H136.126L135.291 7.62026C135.24 7.73517 135.157 7.83275 135.052 7.90104C134.947 7.96933 134.825 8.00538 134.7 8.00478H134.473C134.317 7.93875 134.192 7.81483 134.124 7.65867C134.056 7.50251 134.05 7.32605 134.108 7.16583L137.918 0.401782C137.969 0.282214 138.054 0.180371 138.162 0.108903C138.27 0.0374347 138.397 -0.000508881 138.527 -0.000215123C138.663 -0.0102384 138.798 0.0232781 138.914 0.0955133C139.029 0.167748 139.119 0.27498 139.17 0.401782L142.998 7.14835C143.05 7.31093 143.04 7.48741 142.969 7.64279C142.898 7.79818 142.772 7.92114 142.615 7.9873H142.389C142.266 7.98908 142.145 7.95328 142.042 7.88462C141.94 7.81597 141.86 7.7177 141.815 7.60278L140.91 6.11714ZM140.249 4.98106L138.527 1.7476L136.787 4.96358L140.249 4.98106Z" fill="white"/>
<path d="M135.465 17.3558C135.465 17.5227 135.399 17.6827 135.282 17.8007C135.165 17.9187 135.005 17.985 134.839 17.985C134.673 17.985 134.514 17.9187 134.396 17.8007C134.279 17.6827 134.213 17.5227 134.213 17.3558V10.6791C134.212 10.5772 134.236 10.4767 134.281 10.3855C134.326 10.2944 134.392 10.2153 134.474 10.1548C134.567 10.1123 134.668 10.0903 134.77 10.0903C134.872 10.0903 134.972 10.1123 135.065 10.1548C135.194 10.209 135.312 10.286 135.413 10.382L141.624 16.2022V10.6966C141.624 10.5327 141.687 10.3753 141.801 10.2577C141.915 10.1402 142.07 10.0719 142.233 10.0674C142.399 10.0674 142.558 10.1337 142.675 10.2517C142.793 10.3697 142.859 10.5297 142.859 10.6966V17.3558C142.864 17.4397 142.851 17.5238 142.822 17.6025C142.792 17.6811 142.746 17.7525 142.687 17.812C142.628 17.8715 142.556 17.9177 142.478 17.9475C142.4 17.9773 142.316 17.9901 142.233 17.985C142.136 18.0094 142.034 18.0094 141.937 17.985L141.589 17.6879L135.465 11.9201V17.3558Z" fill="white"/>
<path d="M134.49 27.3359V20.5718C134.49 20.4877 134.507 20.4044 134.54 20.3269C134.572 20.2494 134.62 20.1793 134.68 20.1206C134.74 20.062 134.811 20.016 134.889 19.9854C134.967 19.9548 135.05 19.9403 135.134 19.9426H139.17C140.183 20.0099 141.133 20.4617 141.827 21.2066C142.521 21.9514 142.907 22.9336 142.907 23.9539C142.907 24.9742 142.521 25.9563 141.827 26.7012C141.133 27.446 140.183 27.8979 139.17 27.9651H135.134C134.966 27.9652 134.805 27.8994 134.685 27.7819C134.565 27.6644 134.495 27.5044 134.49 27.3359ZM135.76 26.6892H139.17C139.854 26.6342 140.493 26.3221 140.959 25.8152C141.425 25.3083 141.683 24.6438 141.683 23.9539C141.683 23.264 141.425 22.5994 140.959 22.0925C140.493 21.5856 139.854 21.2735 139.17 21.2185H135.691L135.76 26.6892Z" fill="white"/>
<path d="M295.234 1.85254H292.207V2.25454H293.529V5.85504H293.912V2.25454H295.234V1.85254Z" fill="white"/>
<path d="M296.016 1.85254V5.85504H296.416V2.25454H296.451L297.999 5.85504H298.016L299.564 2.25454H299.599V5.85504H299.999V1.85254H299.321L298.016 4.96365H297.999L296.694 1.85254H296.016Z" fill="white"/>
</g>
<defs>
<clipPath id="clip0_3897_955">
<rect width="300" height="28" fill="white"/>
</clipPath>
</defs>
</svg>
