<svg width="773" height="68" viewBox="0 0 773 68" fill="none" xmlns="http://www.w3.org/2000/svg">
<path d="M747.913 29.1529V21.4104H756.598V12.8599H764.206V21.4104H772.824V29.1529H764.206V37.7708H756.598V29.1529H747.913Z" fill="black"/>
<path d="M716.774 49.8218L727.614 32.9228C726.671 33.1921 725.729 33.3267 724.786 33.3267C716.168 33.3267 709.032 26.5941 709.032 16.7644C709.032 6.73267 716.707 0 726.469 0C736.636 0 743.974 7.27129 743.974 16.697C743.974 21.2752 742.56 25.9881 740.204 29.4218L727.546 49.8218H716.774ZM726.604 25.4495C731.249 25.4495 735.087 21.6119 735.087 16.7644C735.087 12.1188 731.249 8.07921 726.604 8.07921C722.026 8.07921 718.053 12.1861 718.053 16.8317C718.053 21.6119 722.026 25.4495 726.604 25.4495Z" fill="black"/>
<path d="M662.473 49.8224L679.977 0.673925H689.201L706.706 49.8224H697.146L694.116 41.07H675.063L672.033 49.8224H662.473ZM684.623 13.668L678.16 32.3175H691.086L684.623 13.668Z" fill="black"/>
<path d="M624.563 50.6297C619.177 50.6297 614.531 48.4752 611.636 44.7049V49.8218H602.614V0H611.703V15.4178C614.464 11.9168 619.109 9.62772 624.428 9.62772C634.325 9.62772 643.818 17.101 643.818 30.1624C643.818 43.0891 633.988 50.6297 624.563 50.6297ZM623.014 42.2812C629.68 42.2812 634.864 36.895 634.864 30.0277C634.864 23.2277 629.68 17.9089 623.014 17.9089C616.282 17.9089 611.299 23.295 611.299 30.0277C611.299 36.8277 616.282 42.2812 623.014 42.2812Z" fill="black"/>
<path d="M575.556 50.6297C566.063 50.6297 556.166 43.0891 556.166 30.1624C556.166 17.101 565.726 9.62771 575.691 9.62771C580.875 9.62771 585.453 11.7148 588.348 15.1485V10.4356H597.437V49.8218H588.348V44.7049C585.453 48.4079 580.74 50.6297 575.556 50.6297ZM577.037 42.2812C583.837 42.2812 588.819 36.8277 588.819 30.0277C588.819 23.295 583.837 17.9089 577.037 17.9089C570.304 17.9089 565.12 23.2277 565.12 30.0277C565.12 36.895 570.304 42.2812 577.037 42.2812Z" fill="black"/>
<path d="M538.796 49.8224V9.4264H525.667V0.673925H561.148V9.4264H547.952V49.8224H538.796Z" fill="black"/>
<path d="M495.767 65.3076V0.673925H504.923V65.3076H495.767Z" fill="black"/>
<path d="M448.125 49.8218L458.964 32.9228C458.022 33.1921 457.079 33.3267 456.137 33.3267C447.519 33.3267 440.382 26.5941 440.382 16.7644C440.382 6.73267 448.057 0 457.82 0C467.986 0 475.325 7.27129 475.325 16.697C475.325 21.2752 473.911 25.9881 471.555 29.4218L458.897 49.8218H448.125ZM457.954 25.4495C462.6 25.4495 466.438 21.6119 466.438 16.7644C466.438 12.1188 462.6 8.07921 457.954 8.07921C453.376 8.07921 449.404 12.1861 449.404 16.8317C449.404 21.6119 453.376 25.4495 457.954 25.4495Z" fill="black"/>
<path d="M393.823 49.8224L411.328 0.673925H420.552L438.057 49.8224H428.496L425.467 41.07H406.413L403.383 49.8224H393.823ZM415.974 13.668L409.51 32.3175H422.437L415.974 13.668Z" fill="black"/>
<path d="M355.913 50.6297C350.527 50.6297 345.882 48.4752 342.987 44.7049V49.8218H333.965V0H343.054V15.4178C345.814 11.9168 350.46 9.62772 355.779 9.62772C365.676 9.62772 375.169 17.101 375.169 30.1624C375.169 43.0891 365.339 50.6297 355.913 50.6297ZM354.365 42.2812C361.03 42.2812 366.214 36.895 366.214 30.0277C366.214 23.2277 361.03 17.9089 354.365 17.9089C347.632 17.9089 342.65 23.295 342.65 30.0277C342.65 36.8277 347.632 42.2812 354.365 42.2812Z" fill="black"/>
<path d="M306.906 50.6297C297.413 50.6297 287.516 43.0891 287.516 30.1624C287.516 17.101 297.077 9.62771 307.041 9.62771C312.225 9.62771 316.803 11.7148 319.698 15.1485V10.4356H328.788V49.8218H319.698V44.7049C316.803 48.4079 312.091 50.6297 306.906 50.6297ZM308.388 42.2812C315.188 42.2812 320.17 36.8277 320.17 30.0277C320.17 23.295 315.188 17.9089 308.388 17.9089C301.655 17.9089 296.471 23.2277 296.471 30.0277C296.471 36.895 301.655 42.2812 308.388 42.2812Z" fill="black"/>
<path d="M270.147 49.8224V9.4264H257.018V0.673925H292.499V9.4264H279.303V49.8224H270.147Z" fill="black"/>
<path d="M205.428 68.0005L213.71 47.8698L197.551 10.4361H207.246L218.22 36.9629L228.589 10.4361H238.149L214.652 68.0005H205.428Z" fill="black"/>
<path d="M156.126 49.8223L170.938 29.7589L156.665 10.4361H167.774L176.728 22.9589L185.616 10.4361H196.388L182.249 29.8935L197.33 49.8223H186.221L176.594 36.6935L167.235 49.8223H156.126Z" fill="black"/>
<path d="M132.015 50.6297C122.522 50.6297 112.625 43.0891 112.625 30.1624C112.625 17.101 122.185 9.62771 132.149 9.62771C137.334 9.62771 141.912 11.7148 144.807 15.1485V10.4356H153.896V49.8218H144.807V44.7049C141.912 48.4079 137.199 50.6297 132.015 50.6297ZM133.496 42.2812C140.296 42.2812 145.278 36.8277 145.278 30.0277C145.278 23.295 140.296 17.9089 133.496 17.9089C126.763 17.9089 121.579 23.2277 121.579 30.0277C121.579 36.895 126.763 42.2812 133.496 42.2812Z" fill="black"/>
<path d="M99.5048 49.8218V0H108.661V49.8218H99.5048Z" fill="black"/>
<path d="M72.4464 50.6297C62.9533 50.6297 53.0563 43.0891 53.0563 30.1624C53.0563 17.101 62.6167 9.62771 72.581 9.62771C77.7652 9.62771 82.3434 11.7148 85.2384 15.1485V10.4356H94.3275V49.8218H85.2384V44.7049C82.3434 48.4079 77.6305 50.6297 72.4464 50.6297ZM73.9275 42.2812C80.7275 42.2812 85.7097 36.8277 85.7097 30.0277C85.7097 23.295 80.7275 17.9089 73.9275 17.9089C67.1949 17.9089 62.0107 23.2277 62.0107 30.0277C62.0107 36.895 67.1949 42.2812 73.9275 42.2812Z" fill="black"/>
<path d="M25.5168 50.495C10.1663 50.495 0 38.9149 0 25.2475C0 11.2436 10.5703 0 25.1129 0C35.2792 0 43.2911 5.18416 47.4653 12.5901L39.3861 17.4376C36.2891 11.7148 31.5762 8.88713 25.1802 8.88713C16.0238 8.88713 9.08911 16.3604 9.08911 25.2475C9.08911 34.3366 15.9564 41.6079 25.5168 41.6079C32.9901 41.6079 37.9049 37.4337 39.7228 30.9703H24.0356V22.2178H49.5525V25.8535C49.5525 39.1168 40.2614 50.495 25.5168 50.495Z" fill="black"/>
</svg>
