<svg width="140" height="31" viewBox="0 0 140 31" fill="none" xmlns="http://www.w3.org/2000/svg">
<g clip-path="url(#clip0_2379_1622)">
<path fill-rule="evenodd" clip-rule="evenodd" d="M59.8802 14.9818C60.7261 14.6582 61.4519 14.087 61.9604 13.3445C62.4689 12.602 62.7358 11.7237 62.7254 10.8272C62.7254 7.08798 60.0418 5.23438 56.3559 5.23438H46.6885V25.5665H57.1966C60.4298 25.5665 63.5984 23.3294 63.5984 19.9098C63.5984 15.8447 59.8802 15.0201 59.8802 14.9818ZM51.7324 9.45293H55.4829C55.7231 9.43822 55.9638 9.47046 56.1914 9.54782C56.4189 9.62518 56.6288 9.74613 56.809 9.90376C56.9892 10.0614 57.1361 10.2526 57.2415 10.4664C57.3468 10.6803 57.4085 10.9125 57.4229 11.1499C57.4229 11.2224 57.4229 11.2959 57.4229 11.3705C57.4127 11.8703 57.2031 12.3459 56.8397 12.6937C56.4764 13.0415 55.9887 13.2333 55.4829 13.2273H51.7L51.7324 9.45293ZM55.5153 21.3096H51.7647V17.3148H55.4183C57.2612 17.3148 58.1342 18.1138 58.1342 19.2962C58.1342 20.7727 57.0349 21.3096 55.5153 21.3096Z" fill="#ED0007"/>
<path fill-rule="evenodd" clip-rule="evenodd" d="M74.7204 4.72363C68.7712 4.72363 65.2793 9.42157 65.2793 15.3659C65.2793 21.3102 68.7712 26.0082 74.7204 26.0082C80.6696 26.0082 84.1615 21.3422 84.1615 15.3659C84.1615 9.38961 80.7019 4.72363 74.7204 4.72363ZM74.7204 21.1504C71.8105 21.1504 70.3555 18.5618 70.3555 15.3659C70.3555 12.17 71.8105 9.61332 74.7204 9.61332C77.6303 9.61332 79.1176 12.202 79.1176 15.3659C79.1176 18.5937 77.6303 21.1504 74.7204 21.1504Z" fill="#ED0007"/>
<path fill-rule="evenodd" clip-rule="evenodd" d="M95.1228 13.2244L94.4115 13.0646C92.6655 12.7131 91.2752 12.2656 91.2752 11.0192C91.2752 9.67697 92.6009 9.13367 93.7648 9.13367C94.559 9.14536 95.3421 9.31885 96.0653 9.64329C96.7886 9.96772 97.4363 10.4361 97.9681 11.0192L101.169 7.88728C99.714 6.25739 97.3538 4.69141 93.6678 4.69141C89.3353 4.69141 86.0374 7.08831 86.0374 11.0832C86.0374 14.7265 88.6886 16.5161 91.9219 17.1873L92.6332 17.3471C95.3168 17.8904 96.3191 18.3058 96.3191 19.5842C96.3191 20.7986 95.2198 21.5976 93.5385 21.5976C91.5339 21.5976 89.7233 20.7347 88.333 18.977L85.0674 22.1728C86.878 24.3141 89.1736 25.9759 93.6032 25.9759C97.4508 25.9759 101.557 23.8027 101.557 19.3605C101.622 14.7265 98.0651 13.8316 95.1228 13.2244Z" fill="#ED0007"/>
<path fill-rule="evenodd" clip-rule="evenodd" d="M113.067 21.1497C110.804 21.1497 108.444 19.2961 108.444 15.2374C108.444 11.626 110.642 9.61261 112.938 9.61261C114.748 9.61261 115.815 10.4435 116.656 11.8817L120.795 9.16519C118.725 6.06519 116.268 4.75488 112.873 4.75488C106.665 4.75488 103.303 9.51674 103.303 15.2693C103.303 21.3095 107.021 26.0394 112.809 26.0394C116.882 26.0394 118.822 24.6332 120.924 21.6291L116.753 18.8551C115.912 20.191 115.007 21.1497 113.067 21.1497Z" fill="#ED0007"/>
<path fill-rule="evenodd" clip-rule="evenodd" d="M134.601 5.23438V12.7127H128.36V5.23438H122.961V25.5602H128.36V17.5385H134.601V25.5602H140V5.23438H134.601Z" fill="#ED0007"/>
<path d="M15.5843 0.0576172C12.502 0.0576172 9.48896 0.961053 6.92613 2.65368C4.36331 4.34631 2.36583 6.7521 1.18629 9.56684C0.00675242 12.3816 -0.301869 15.4788 0.299455 18.4669C0.900778 21.455 2.38504 24.1998 4.56454 26.3541C6.74404 28.5084 9.5209 29.9755 12.544 30.5699C15.567 31.1642 18.7005 30.8592 21.5482 29.6933C24.3958 28.5274 26.8297 26.553 28.5422 24.0198C30.2546 21.4866 31.1686 18.5084 31.1686 15.4617C31.1686 11.3763 29.5267 7.45821 26.6041 4.56938C23.6814 1.68055 19.7175 0.0576172 15.5843 0.0576172ZM15.5843 29.4277C12.7898 29.4277 10.058 28.6086 7.73447 27.074C5.41091 25.5394 3.59992 23.3582 2.5305 20.8063C1.46109 18.2543 1.18128 15.4462 1.72646 12.7371C2.27165 10.028 3.61733 7.53948 5.59336 5.5863C7.56938 3.63312 10.087 2.30299 12.8278 1.76411C15.5686 1.22523 18.4096 1.50181 20.9914 2.55886C23.5732 3.61591 25.7799 5.40596 27.3324 7.70266C28.885 9.99935 29.7136 12.6995 29.7136 15.4617C29.7128 19.1655 28.2239 22.7173 25.5743 25.3362C22.9247 27.9552 19.3314 29.4269 15.5843 29.4277Z" fill="#58595B"/>
<path d="M22.0182 5.8418H20.9513V11.115H10.2492V5.8418H9.14987C7.53974 6.89174 6.21831 8.32015 5.30402 9.99901C4.38973 11.6779 3.91113 13.5547 3.91113 15.4614C3.91113 17.368 4.38973 19.2449 5.30402 20.9238C6.21831 22.6026 7.53974 24.031 9.14987 25.081H10.2492V19.8142H20.9513V25.0874H22.0182C23.6291 24.0379 24.9512 22.6097 25.8659 20.9308C26.7807 19.2518 27.2596 17.3747 27.2596 15.4678C27.2596 13.5608 26.7807 11.6837 25.8659 10.0048C24.9512 8.32586 23.6291 6.89762 22.0182 5.84819V5.8418ZM8.76188 23.01C7.75913 22.1294 6.9417 21.0621 6.35627 19.8691C5.77085 18.6762 5.42889 17.3809 5.34993 16.0573C5.27096 14.7337 5.45654 13.4077 5.89606 12.155C6.33559 10.9023 7.02045 9.7475 7.91153 8.75644C8.17862 8.46155 8.46253 8.18199 8.76188 7.91912V23.01ZM20.9513 18.3441H10.2492V12.5531H20.9513V18.3441ZM22.4062 22.9781V19.7822V11.115V7.91912C23.4065 8.80695 24.22 9.8809 24.8003 11.0796C25.3805 12.2783 25.7161 13.5783 25.7878 14.9052C25.8596 16.2322 25.6661 17.5601 25.2185 18.8131C24.7709 20.0661 24.0778 21.2197 23.179 22.2079C22.9345 22.4751 22.6766 22.73 22.4062 22.9717V22.9781Z" fill="#58595B"/>
</g>
<defs>
<clipPath id="clip0_2379_1622">
<rect width="140" height="31" fill="white"/>
</clipPath>
</defs>
</svg>
