<svg width="113" height="113" viewBox="0 0 113 113" fill="none" xmlns="http://www.w3.org/2000/svg">
<g opacity="0.4">
<rect width="112.845" height="112.845" rx="56.4222" fill="white"/>
</g>
<g clip-path="url(#clip0_1306_172)">
<path d="M19.3189 70.9424C22.9116 80.4374 29.9687 88.5209 39.0787 93.0118C43.5696 95.3214 48.4454 96.7328 53.4495 97.1177C58.4536 97.5027 63.4577 96.9894 68.3335 95.578C77.9568 92.7552 86.297 86.083 91.3011 77.4862C96.4335 68.8894 97.9733 58.368 95.792 48.7447C93.739 39.1214 87.8367 30.268 79.7532 24.7506C75.6472 21.9278 71.0281 19.8748 66.2806 18.72C61.5331 17.5652 56.529 17.4369 51.6532 18.2068C46.7774 18.8483 42.0299 20.5164 37.7956 23.0826C33.5614 25.5205 29.8404 28.8566 26.7609 32.7059C23.6815 36.5552 21.5002 40.9177 19.9605 45.6652C19.8322 46.3068 19.5756 46.82 19.4472 47.4616C19.3189 47.9748 19.1906 48.6164 19.0623 49.2579C18.8057 50.4127 18.6774 51.6958 18.5491 52.8506C18.5491 55.1602 18.5491 57.5981 18.6774 60.036C18.8057 61.1908 17.9075 62.089 16.881 62.089C15.7262 62.2173 14.8281 61.3191 14.6998 60.2926C14.5714 57.5981 14.6998 55.0319 14.9564 52.3374C15.0847 51.0543 15.3413 49.7712 15.5979 48.3598C15.7262 47.7182 15.8545 47.0767 15.9829 46.3068C16.1112 45.6652 16.3678 45.0237 16.4961 44.3821C18.1641 39.2497 20.602 34.5022 24.0664 30.3963C27.4025 26.2903 31.5084 22.826 36.1276 20.1314C40.7468 17.5652 45.8792 15.7689 51.1399 15.1273C56.4007 14.3575 61.7897 14.7424 66.9221 15.8972C72.0546 17.1803 76.9303 19.3616 81.1646 22.441C89.7614 28.5999 95.9203 37.9666 97.9733 48.2314C100.155 58.4963 98.2299 69.531 92.8409 78.5127C87.4518 87.4945 78.5984 94.2949 68.5902 97.1177C63.5861 98.5292 58.3253 98.9141 53.1929 98.5292C48.0605 98.0159 42.9281 96.4762 38.4372 94.0383C29.3271 89.2908 22.0135 80.9506 18.5491 71.199C18.4208 70.9424 18.5491 70.6858 18.8057 70.6858C19.0623 70.5575 19.3189 70.6858 19.3189 70.9424Z" fill="white"/>
<path d="M57.5558 73.1238C49.0874 73.1238 42.0303 66.195 42.0303 57.5982C42.0303 49.1297 48.959 42.0726 57.5558 42.0726C66.0243 42.0726 73.0814 49.0014 73.0814 57.5982C73.0814 66.195 66.1527 73.1238 57.5558 73.1238ZM57.5558 43.9973C49.9855 43.9973 43.9549 50.1562 43.9549 57.5982C43.9549 65.1685 50.1138 71.1991 57.5558 71.1991C65.1262 71.1991 71.1568 65.0402 71.1568 57.5982C71.1568 50.1562 65.1262 43.9973 57.5558 43.9973Z" fill="white"/>
<path d="M57.0428 22.4412L55.5031 27.5736C54.9899 29.37 54.9899 31.2946 55.5031 33.091L57.0428 38.3517L58.0693 38.6083V22.1846L57.0428 22.4412Z" fill="white"/>
<path d="M48.0609 23.7242L47.9326 29.2415C47.9326 31.1662 48.4459 32.9625 49.344 34.5023L52.1669 39.1214L53.1933 38.9931L49.0874 23.2109L48.0609 23.7242Z" fill="white"/>
<path d="M39.7207 27.3169L41.0038 32.5776C41.5171 34.3739 42.4152 36.042 43.6983 37.3251L47.676 41.0461L48.7024 40.6612L40.4906 26.547L39.7207 27.3169Z" fill="white"/>
<path d="M32.5361 32.9626L35.2307 37.7101C36.1288 39.3782 37.5402 40.6613 39.08 41.5594L43.8275 44.1257L44.7256 43.4841L33.1777 31.9362L32.5361 32.9626Z" fill="white"/>
<path d="M27.1465 40.1479L30.9958 44.1256C32.2789 45.4087 33.9469 46.4352 35.7433 46.8201L41.004 48.1032L41.7739 47.3333L27.6597 39.1215L27.1465 40.1479Z" fill="white"/>
<path d="M23.8096 48.6164L28.4287 51.4393C29.9685 52.3375 31.8931 52.8507 33.6895 52.8507L39.0785 52.7224L39.5918 51.8242L23.8096 47.59V48.6164Z" fill="white"/>
<path d="M22.6547 57.7264L27.9154 59.2662C29.7118 59.7794 31.6364 59.7794 33.4328 59.2662L38.6935 57.7264L38.9501 56.7H22.5264L22.6547 57.7264Z" fill="white"/>
<path d="M23.9386 66.7082L29.456 66.8365C31.3807 66.8365 33.177 66.3233 34.7167 65.4251L39.3359 62.6023L39.2076 61.5758L23.5537 65.6817L23.9386 66.7082Z" fill="white"/>
<path d="M27.5312 75.0484L32.7919 73.7653C34.5883 73.252 36.2563 72.3539 37.5394 71.0708L41.2604 67.0931L41.0038 66.0667L26.8896 74.2785L27.5312 75.0484Z" fill="white"/>
<path d="M33.1759 82.2338L37.9234 79.5393C39.5914 78.6411 40.8745 77.2297 41.7727 75.69L44.3389 70.9425L43.6974 70.0443L32.1494 81.5923L33.1759 82.2338Z" fill="white"/>
<path d="M40.4904 87.6229L44.468 83.7736C45.7511 82.4905 46.7776 80.8224 47.1625 79.0261L48.4456 73.7653L47.6757 72.9955L39.4639 87.1096L40.4904 87.6229Z" fill="white"/>
<path d="M48.9591 90.959L51.7819 86.3398C52.6801 84.8001 53.1933 82.8754 53.1933 81.0791L53.065 75.69L52.1669 75.0485L47.9326 90.8307L48.9591 90.959Z" fill="white"/>
<path d="M57.9415 92.1137L59.4812 86.8529C59.9945 85.0566 59.9945 83.1319 59.4812 81.3356L57.9415 76.0749L56.915 75.8182V92.1137H57.9415Z" fill="white"/>
<path d="M66.9225 90.7022L67.0508 85.1848C67.0508 83.2602 66.5375 81.4638 65.6394 79.9241L62.8165 75.3049L61.79 75.4332L66.0243 91.2154L66.9225 90.7022Z" fill="white"/>
<path d="M75.3913 87.1095L74.1082 81.8487C73.5949 80.0524 72.6968 78.3844 71.4137 77.1013L67.3077 73.3802L66.2812 73.7652L74.4931 87.8793L75.3913 87.1095Z" fill="white"/>
<path d="M82.4473 81.5922L79.7528 76.8447C78.8546 75.1767 77.4432 73.8936 75.9035 72.9954L71.156 70.4292L70.2578 71.0708L81.8058 82.6187L82.4473 81.5922Z" fill="white"/>
<path d="M87.9653 74.2785L84.116 70.3009C82.8329 69.0178 81.1648 67.9913 79.3685 67.6063L74.1078 66.3232L73.3379 67.0931L87.452 75.305L87.9653 74.2785Z" fill="white"/>
<path d="M91.3011 65.8101L86.5536 62.9872C85.0139 62.089 83.0893 61.5758 81.2929 61.5758L75.9039 61.7041L75.3906 62.6023L91.1728 66.8365L91.3011 65.8101Z" fill="white"/>
<path d="M92.3277 56.8283L87.0669 55.2886C85.2706 54.7754 83.3459 54.7754 81.5496 55.2886L76.2888 56.8283L76.0322 57.8548H92.3277V56.8283Z" fill="white"/>
<path d="M91.0447 47.7183L85.5274 47.59C83.6027 47.59 81.8064 48.1032 80.2666 49.0014L75.6475 51.9525L75.7758 52.979L91.558 48.7448L91.0447 47.7183Z" fill="white"/>
<path d="M87.4519 39.3781L82.1911 40.6612C80.3948 41.1744 78.7268 42.0726 77.4437 43.3557L73.7227 47.3333L74.1076 48.3598L88.2217 40.1479L87.4519 39.3781Z" fill="white"/>
<path d="M81.8056 32.3209L77.0581 35.0154C75.3901 35.9136 74.107 37.325 73.2088 38.8648L70.6426 43.6122L71.2841 44.5104L82.8321 32.9625L81.8056 32.3209Z" fill="white"/>
<path d="M74.6213 26.8037L70.6436 30.653C69.3605 31.9361 68.3341 33.6042 67.9491 35.4005L66.666 40.6612L67.4359 41.4311L75.6478 27.317L74.6213 26.8037Z" fill="white"/>
<path d="M66.1522 23.4677L63.3294 28.0868C62.4312 29.6266 61.918 31.5512 61.918 33.3476L62.0463 38.7366L62.9445 39.2498L67.1787 23.4677H66.1522Z" fill="white"/>
<path d="M19.3189 70.9424C22.9116 80.4374 29.9687 88.5209 39.0787 93.0118C43.5696 95.3214 48.4454 96.7328 53.4495 97.1177C58.4536 97.5027 63.4577 96.9894 68.3335 95.578C77.9568 92.7552 86.297 86.083 91.3011 77.4862C96.4335 68.8894 97.9733 58.368 95.792 48.7447C93.739 39.1214 87.8367 30.268 79.7532 24.7506C75.6472 21.9278 71.0281 19.8748 66.2806 18.72C61.5331 17.5652 56.529 17.4369 51.6532 18.2068C46.7774 18.8483 42.0299 20.5164 37.7956 23.0826C33.5614 25.5205 29.8404 28.8566 26.7609 32.7059C23.6815 36.5552 21.5002 40.9177 19.9605 45.6652C19.8322 46.3068 19.5756 46.82 19.4472 47.4616C19.3189 47.9748 19.1906 48.6164 19.0623 49.2579C18.8057 50.4127 18.6774 51.6958 18.5491 52.8506C18.5491 55.1602 18.5491 57.5981 18.6774 60.036C18.8057 61.1908 17.9075 62.089 16.881 62.089C15.7262 62.2173 14.8281 61.3191 14.6998 60.2926C14.5714 57.5981 14.6998 55.0319 14.9564 52.3374C15.0847 51.0543 15.3413 49.7712 15.5979 48.3598C15.7262 47.7182 15.8545 47.0767 15.9829 46.3068C16.1112 45.6652 16.3678 45.0237 16.4961 44.3821C18.1641 39.2497 20.602 34.5022 24.0664 30.3963C27.4025 26.2903 31.5084 22.826 36.1276 20.1314C40.7468 17.5652 45.8792 15.7689 51.1399 15.1273C56.4007 14.3575 61.7897 14.7424 66.9221 15.8972C72.0546 17.1803 76.9303 19.3616 81.1646 22.441C89.7614 28.5999 95.9203 37.9666 97.9733 48.2314C100.155 58.4963 98.2299 69.531 92.8409 78.5127C87.4518 87.4945 78.5984 94.2949 68.5902 97.1177C63.5861 98.5292 58.3253 98.9141 53.1929 98.5292C48.0605 98.0159 42.9281 96.4762 38.4372 94.0383C29.3271 89.2908 22.0135 80.9506 18.5491 71.199C18.4208 70.9424 18.5491 70.6858 18.8057 70.6858C19.0623 70.5575 19.3189 70.6858 19.3189 70.9424Z" fill="white"/>
<path d="M57.5558 73.1238C49.0874 73.1238 42.0303 66.195 42.0303 57.5982C42.0303 49.1297 48.959 42.0726 57.5558 42.0726C66.0243 42.0726 73.0814 49.0014 73.0814 57.5982C73.0814 66.195 66.1527 73.1238 57.5558 73.1238ZM57.5558 43.9973C49.9855 43.9973 43.9549 50.1562 43.9549 57.5982C43.9549 65.1685 50.1138 71.1991 57.5558 71.1991C65.1262 71.1991 71.1568 65.0402 71.1568 57.5982C71.1568 50.1562 65.1262 43.9973 57.5558 43.9973Z" fill="white"/>
<path d="M57.0428 22.4412L55.5031 27.5736C54.9899 29.37 54.9899 31.2946 55.5031 33.091L57.0428 38.3517L58.0693 38.6083V22.1846L57.0428 22.4412Z" fill="white"/>
<path d="M48.0609 23.7242L47.9326 29.2415C47.9326 31.1662 48.4459 32.9625 49.344 34.5023L52.1669 39.1214L53.1933 38.9931L49.0874 23.2109L48.0609 23.7242Z" fill="white"/>
<path d="M39.7207 27.3169L41.0038 32.5776C41.5171 34.3739 42.4152 36.042 43.6983 37.3251L47.676 41.0461L48.7024 40.6612L40.4906 26.547L39.7207 27.3169Z" fill="white"/>
<path d="M32.5361 32.9626L35.2307 37.7101C36.1288 39.3782 37.5402 40.6613 39.08 41.5594L43.8275 44.1257L44.7256 43.4841L33.1777 31.9362L32.5361 32.9626Z" fill="white"/>
<path d="M27.1465 40.1479L30.9958 44.1256C32.2789 45.4087 33.9469 46.4352 35.7433 46.8201L41.004 48.1032L41.7739 47.3333L27.6597 39.1215L27.1465 40.1479Z" fill="white"/>
<path d="M23.8096 48.6164L28.4287 51.4393C29.9685 52.3375 31.8931 52.8507 33.6895 52.8507L39.0785 52.7224L39.5918 51.8242L23.8096 47.59V48.6164Z" fill="white"/>
<path d="M22.6547 57.7264L27.9154 59.2662C29.7118 59.7794 31.6364 59.7794 33.4328 59.2662L38.6935 57.7264L38.9501 56.7H22.5264L22.6547 57.7264Z" fill="white"/>
<path d="M23.9386 66.7082L29.456 66.8365C31.3807 66.8365 33.177 66.3233 34.7167 65.4251L39.3359 62.6023L39.2076 61.5758L23.5537 65.6817L23.9386 66.7082Z" fill="white"/>
<path d="M27.5312 75.0484L32.7919 73.7653C34.5883 73.252 36.2563 72.3539 37.5394 71.0708L41.2604 67.0931L41.0038 66.0667L26.8896 74.2785L27.5312 75.0484Z" fill="white"/>
<path d="M33.1759 82.2338L37.9234 79.5393C39.5914 78.6411 40.8745 77.2297 41.7727 75.69L44.3389 70.9425L43.6974 70.0443L32.1494 81.5923L33.1759 82.2338Z" fill="white"/>
<path d="M40.4904 87.6229L44.468 83.7736C45.7511 82.4905 46.7776 80.8224 47.1625 79.0261L48.4456 73.7653L47.6757 72.9955L39.4639 87.1096L40.4904 87.6229Z" fill="white"/>
<path d="M48.9591 90.959L51.7819 86.3398C52.6801 84.8001 53.1933 82.8754 53.1933 81.0791L53.065 75.69L52.1669 75.0485L47.9326 90.8307L48.9591 90.959Z" fill="white"/>
<path d="M57.9415 92.1137L59.4812 86.8529C59.9945 85.0566 59.9945 83.1319 59.4812 81.3356L57.9415 76.0749L56.915 75.8182V92.1137H57.9415Z" fill="white"/>
<path d="M66.9225 90.7022L67.0508 85.1848C67.0508 83.2602 66.5375 81.4638 65.6394 79.9241L62.8165 75.3049L61.79 75.4332L66.0243 91.2154L66.9225 90.7022Z" fill="white"/>
<path d="M75.3913 87.1095L74.1082 81.8487C73.5949 80.0524 72.6968 78.3844 71.4137 77.1013L67.3077 73.3802L66.2812 73.7652L74.4931 87.8793L75.3913 87.1095Z" fill="white"/>
<path d="M82.4473 81.5922L79.7528 76.8447C78.8546 75.1767 77.4432 73.8936 75.9035 72.9954L71.156 70.4292L70.2578 71.0708L81.8058 82.6187L82.4473 81.5922Z" fill="white"/>
<path d="M87.9653 74.2785L84.116 70.3009C82.8329 69.0178 81.1648 67.9913 79.3685 67.6063L74.1078 66.3232L73.3379 67.0931L87.452 75.305L87.9653 74.2785Z" fill="white"/>
<path d="M91.3011 65.8101L86.5536 62.9872C85.0139 62.089 83.0893 61.5758 81.2929 61.5758L75.9039 61.7041L75.3906 62.6023L91.1728 66.8365L91.3011 65.8101Z" fill="white"/>
<path d="M92.3277 56.8283L87.0669 55.2886C85.2706 54.7754 83.3459 54.7754 81.5496 55.2886L76.2888 56.8283L76.0322 57.8548H92.3277V56.8283Z" fill="white"/>
<path d="M91.0447 47.7183L85.5274 47.59C83.6027 47.59 81.8064 48.1032 80.2666 49.0014L75.6475 51.9525L75.7758 52.979L91.558 48.7448L91.0447 47.7183Z" fill="white"/>
<path d="M87.4519 39.3781L82.1911 40.6612C80.3948 41.1744 78.7268 42.0726 77.4437 43.3557L73.7227 47.3333L74.1076 48.3598L88.2217 40.1479L87.4519 39.3781Z" fill="white"/>
<path d="M81.8056 32.3209L77.0581 35.0154C75.3901 35.9136 74.107 37.325 73.2088 38.8648L70.6426 43.6122L71.2841 44.5104L82.8321 32.9625L81.8056 32.3209Z" fill="white"/>
<path d="M74.6213 26.8037L70.6436 30.653C69.3605 31.9361 68.3341 33.6042 67.9491 35.4005L66.666 40.6612L67.4359 41.4311L75.6478 27.317L74.6213 26.8037Z" fill="white"/>
<path d="M66.1522 23.4677L63.3294 28.0868C62.4312 29.6266 61.918 31.5512 61.918 33.3476L62.0463 38.7366L62.9445 39.2498L67.1787 23.4677H66.1522Z" fill="white"/>
<path d="M19.3189 70.9424C22.9116 80.4374 29.9687 88.5209 39.0787 93.0118C43.5696 95.3214 48.4454 96.7328 53.4495 97.1177C58.4536 97.5027 63.4577 96.9894 68.3335 95.578C77.9568 92.7552 86.297 86.083 91.3011 77.4862C96.4335 68.8894 97.9733 58.368 95.792 48.7447C93.739 39.1214 87.8367 30.268 79.7532 24.7506C75.6472 21.9278 71.0281 19.8748 66.2806 18.72C61.5331 17.5652 56.529 17.4369 51.6532 18.2068C46.7774 18.8483 42.0299 20.5164 37.7956 23.0826C33.5614 25.5205 29.8404 28.8566 26.7609 32.7059C23.6815 36.5552 21.5002 40.9177 19.9605 45.6652C19.8322 46.3068 19.5756 46.82 19.4472 47.4616C19.3189 47.9748 19.1906 48.6164 19.0623 49.2579C18.8057 50.4127 18.6774 51.6958 18.5491 52.8506C18.5491 55.1602 18.5491 57.5981 18.6774 60.036C18.8057 61.1908 17.9075 62.089 16.881 62.089C15.7262 62.2173 14.8281 61.3191 14.6998 60.2926C14.5714 57.5981 14.6998 55.0319 14.9564 52.3374C15.0847 51.0543 15.3413 49.7712 15.5979 48.3598C15.7262 47.7182 15.8545 47.0767 15.9829 46.3068C16.1112 45.6652 16.3678 45.0237 16.4961 44.3821C18.1641 39.2497 20.602 34.5022 24.0664 30.3963C27.4025 26.2903 31.5084 22.826 36.1276 20.1314C40.7468 17.5652 45.8792 15.7689 51.1399 15.1273C56.4007 14.3575 61.7897 14.7424 66.9221 15.8972C72.0546 17.1803 76.9303 19.3616 81.1646 22.441C89.7614 28.5999 95.9203 37.9666 97.9733 48.2314C100.155 58.4963 98.2299 69.531 92.8409 78.5127C87.4518 87.4945 78.5984 94.2949 68.5902 97.1177C63.5861 98.5292 58.3253 98.9141 53.1929 98.5292C48.0605 98.0159 42.9281 96.4762 38.4372 94.0383C29.3271 89.2908 22.0135 80.9506 18.5491 71.199C18.4208 70.9424 18.5491 70.6858 18.8057 70.6858C19.0623 70.5575 19.3189 70.6858 19.3189 70.9424Z" fill="white"/>
<path d="M57.5558 73.1238C49.0874 73.1238 42.0303 66.195 42.0303 57.5982C42.0303 49.1297 48.959 42.0726 57.5558 42.0726C66.0243 42.0726 73.0814 49.0014 73.0814 57.5982C73.0814 66.195 66.1527 73.1238 57.5558 73.1238ZM57.5558 43.9973C49.9855 43.9973 43.9549 50.1562 43.9549 57.5982C43.9549 65.1685 50.1138 71.1991 57.5558 71.1991C65.1262 71.1991 71.1568 65.0402 71.1568 57.5982C71.1568 50.1562 65.1262 43.9973 57.5558 43.9973Z" fill="white"/>
<path d="M57.0428 22.4412L55.5031 27.5736C54.9899 29.37 54.9899 31.2946 55.5031 33.091L57.0428 38.3517L58.0693 38.6083V22.1846L57.0428 22.4412Z" fill="white"/>
<path d="M48.0609 23.7242L47.9326 29.2415C47.9326 31.1662 48.4459 32.9625 49.344 34.5023L52.1669 39.1214L53.1933 38.9931L49.0874 23.2109L48.0609 23.7242Z" fill="white"/>
<path d="M39.7207 27.3169L41.0038 32.5776C41.5171 34.3739 42.4152 36.042 43.6983 37.3251L47.676 41.0461L48.7024 40.6612L40.4906 26.547L39.7207 27.3169Z" fill="white"/>
<path d="M32.5361 32.9626L35.2307 37.7101C36.1288 39.3782 37.5402 40.6613 39.08 41.5594L43.8275 44.1257L44.7256 43.4841L33.1777 31.9362L32.5361 32.9626Z" fill="white"/>
<path d="M27.1465 40.1479L30.9958 44.1256C32.2789 45.4087 33.9469 46.4352 35.7433 46.8201L41.004 48.1032L41.7739 47.3333L27.6597 39.1215L27.1465 40.1479Z" fill="white"/>
<path d="M23.8096 48.6164L28.4287 51.4393C29.9685 52.3375 31.8931 52.8507 33.6895 52.8507L39.0785 52.7224L39.5918 51.8242L23.8096 47.59V48.6164Z" fill="white"/>
<path d="M22.6547 57.7264L27.9154 59.2662C29.7118 59.7794 31.6364 59.7794 33.4328 59.2662L38.6935 57.7264L38.9501 56.7H22.5264L22.6547 57.7264Z" fill="white"/>
<path d="M23.9386 66.7082L29.456 66.8365C31.3807 66.8365 33.177 66.3233 34.7167 65.4251L39.3359 62.6023L39.2076 61.5758L23.5537 65.6817L23.9386 66.7082Z" fill="white"/>
<path d="M27.5312 75.0484L32.7919 73.7653C34.5883 73.252 36.2563 72.3539 37.5394 71.0708L41.2604 67.0931L41.0038 66.0667L26.8896 74.2785L27.5312 75.0484Z" fill="white"/>
<path d="M33.1759 82.2338L37.9234 79.5393C39.5914 78.6411 40.8745 77.2297 41.7727 75.69L44.3389 70.9425L43.6974 70.0443L32.1494 81.5923L33.1759 82.2338Z" fill="white"/>
<path d="M40.4904 87.6229L44.468 83.7736C45.7511 82.4905 46.7776 80.8224 47.1625 79.0261L48.4456 73.7653L47.6757 72.9955L39.4639 87.1096L40.4904 87.6229Z" fill="white"/>
<path d="M48.9591 90.959L51.7819 86.3398C52.6801 84.8001 53.1933 82.8754 53.1933 81.0791L53.065 75.69L52.1669 75.0485L47.9326 90.8307L48.9591 90.959Z" fill="white"/>
<path d="M57.9415 92.1137L59.4812 86.8529C59.9945 85.0566 59.9945 83.1319 59.4812 81.3356L57.9415 76.0749L56.915 75.8182V92.1137H57.9415Z" fill="white"/>
<path d="M66.9225 90.7022L67.0508 85.1848C67.0508 83.2602 66.5375 81.4638 65.6394 79.9241L62.8165 75.3049L61.79 75.4332L66.0243 91.2154L66.9225 90.7022Z" fill="white"/>
<path d="M75.3913 87.1095L74.1082 81.8487C73.5949 80.0524 72.6968 78.3844 71.4137 77.1013L67.3077 73.3802L66.2812 73.7652L74.4931 87.8793L75.3913 87.1095Z" fill="white"/>
<path d="M82.4473 81.5922L79.7528 76.8447C78.8546 75.1767 77.4432 73.8936 75.9035 72.9954L71.156 70.4292L70.2578 71.0708L81.8058 82.6187L82.4473 81.5922Z" fill="white"/>
<path d="M87.9653 74.2785L84.116 70.3009C82.8329 69.0178 81.1648 67.9913 79.3685 67.6063L74.1078 66.3232L73.3379 67.0931L87.452 75.305L87.9653 74.2785Z" fill="white"/>
<path d="M91.3011 65.8101L86.5536 62.9872C85.0139 62.089 83.0893 61.5758 81.2929 61.5758L75.9039 61.7041L75.3906 62.6023L91.1728 66.8365L91.3011 65.8101Z" fill="white"/>
<path d="M92.3277 56.8283L87.0669 55.2886C85.2706 54.7754 83.3459 54.7754 81.5496 55.2886L76.2888 56.8283L76.0322 57.8548H92.3277V56.8283Z" fill="white"/>
<path d="M91.0447 47.7183L85.5274 47.59C83.6027 47.59 81.8064 48.1032 80.2666 49.0014L75.6475 51.9525L75.7758 52.979L91.558 48.7448L91.0447 47.7183Z" fill="white"/>
<path d="M87.4519 39.3781L82.1911 40.6612C80.3948 41.1744 78.7268 42.0726 77.4437 43.3557L73.7227 47.3333L74.1076 48.3598L88.2217 40.1479L87.4519 39.3781Z" fill="white"/>
<path d="M81.8056 32.3209L77.0581 35.0154C75.3901 35.9136 74.107 37.325 73.2088 38.8648L70.6426 43.6122L71.2841 44.5104L82.8321 32.9625L81.8056 32.3209Z" fill="white"/>
<path d="M74.6213 26.8037L70.6436 30.653C69.3605 31.9361 68.3341 33.6042 67.9491 35.4005L66.666 40.6612L67.4359 41.4311L75.6478 27.317L74.6213 26.8037Z" fill="white"/>
<path d="M66.1522 23.4677L63.3294 28.0868C62.4312 29.6266 61.918 31.5512 61.918 33.3476L62.0463 38.7366L62.9445 39.2498L67.1787 23.4677H66.1522Z" fill="white"/>
</g>
<defs>
<clipPath id="clip0_1306_172">
<rect width="84.3" height="83.9151" fill="white" transform="translate(14.7002 14.7424)"/>
</clipPath>
</defs>
</svg>
