<svg width="113" height="113" viewBox="0 0 113 113" fill="none" xmlns="http://www.w3.org/2000/svg">
<g opacity="0.4">
<rect width="112.845" height="112.845" rx="56.4222" fill="white"/>
</g>
<g clip-path="url(#clip0_1711_138)">
<path d="M50.8962 54.4365C51.3583 53.3752 52.2826 53.0215 53.2069 53.0215C54.1312 53.0215 54.8245 53.3752 55.2866 53.611L55.7488 52.5498C55.0555 52.0781 54.0157 51.7244 53.0914 51.7244C49.7408 51.7244 49.1631 55.6156 49.1631 57.974C49.1631 59.5069 49.3942 60.804 49.8563 61.8653C50.434 63.0444 51.4738 63.7519 52.7448 63.7519C54.5934 63.7519 55.8643 62.4548 56.0954 60.5682C56.0954 60.3323 56.2109 60.0965 56.2109 59.7427C56.2109 59.389 56.2109 59.1532 56.0954 58.9173C55.7488 57.0306 54.4778 55.9694 52.9758 55.9694C51.8205 55.9694 50.7806 56.559 50.434 57.5023V57.1486C50.3185 55.9694 50.5495 55.144 50.8962 54.4365ZM54.8245 59.8607C54.8245 61.3936 54.1312 62.6907 52.6292 62.6907C51.3583 62.6907 50.434 61.5115 50.434 59.9786C50.434 58.4456 51.3583 57.2665 52.6292 57.1486C54.1312 57.1486 54.8245 58.3277 54.8245 59.8607Z" fill="white"/>
<path d="M61.757 51.8423C61.6415 51.8423 61.6415 51.8423 61.757 51.8423C59.2152 51.8423 57.5977 54.4365 57.5977 57.8561C57.5977 61.2757 59.2152 63.8699 61.6415 63.8699C64.0678 63.8699 65.6853 61.2757 65.6853 57.8561C65.6853 54.4365 64.1833 51.8423 61.757 51.8423ZM59.0997 58.7994C59.0997 58.4457 59.0997 58.0919 59.0997 57.7382C59.0997 57.3844 59.0997 57.0306 59.0997 56.6769C59.3307 54.4365 60.255 52.9035 61.757 52.7856C63.4901 52.7856 64.4144 54.7902 64.4144 57.6202C64.4144 60.4502 63.3746 62.4548 61.757 62.4548C60.255 62.5728 59.2152 61.1577 59.0997 58.7994Z" fill="white"/>
<path d="M70.999 51.4885C70.768 51.4885 70.6524 51.3706 70.4213 51.3706C68.6883 51.3706 67.6484 52.6677 67.6484 54.4365C67.6484 56.2052 68.5727 57.5023 70.4213 57.5023C70.6524 57.5023 70.8835 57.5023 70.999 57.3844C72.3855 57.1486 73.0787 55.8515 73.0787 54.3185C73.0787 53.0214 72.3855 51.7244 70.999 51.4885ZM68.6883 54.5544C68.6883 53.2573 69.3815 52.3139 70.4213 52.3139C71.4612 52.3139 72.1544 53.2573 72.1544 54.5544C72.1544 55.8515 71.4612 56.7948 70.4213 56.7948C69.266 56.7948 68.6883 55.8515 68.6883 54.5544Z" fill="white"/>
<path d="M90.1796 67.879C89.833 65.9923 89.1398 64.3415 88.331 62.6907C87.1756 60.3323 85.7892 58.3277 84.2872 56.3231C86.1358 53.8469 87.8689 51.0168 88.9087 47.951C89.4864 46.3002 89.7175 44.5314 89.6019 42.6447C89.4864 40.876 88.7932 38.9893 87.6378 37.5743C86.4824 36.1593 84.8649 35.2159 83.2473 34.5084C81.6298 33.9188 79.8967 33.5651 78.1637 33.4472C75.3908 33.2113 72.6178 33.4472 69.9605 33.9188C69.1517 31.4426 68.1119 28.9663 66.7254 26.608C65.9166 25.193 64.9923 23.8959 63.9525 22.5988C62.9126 21.4196 61.6417 20.2404 60.0242 19.415C58.5222 18.5896 56.6736 18.1179 54.825 18.1179C52.9764 18.2358 51.2433 18.9433 49.7413 19.8867C46.8528 21.7734 44.8887 24.6034 43.3867 27.3155C42.5779 28.8484 41.8847 30.3813 41.307 32.0322C40.1516 31.9142 38.9963 31.7963 37.8409 31.7963C34.3747 31.7963 30.793 32.1501 27.6735 34.0368C26.056 34.9801 24.6695 36.2772 23.7452 38.0459C23.2831 38.8714 23.052 39.8147 22.8209 40.758C22.7054 41.7014 22.5898 42.6447 22.5898 43.5881C22.8209 47.2435 24.3229 50.5452 26.1715 53.4931C27.0958 54.9081 28.1357 56.3231 29.1755 57.7381C28.0201 59.1531 26.8648 60.6861 25.9404 62.219C24.0918 65.2848 22.5898 68.7044 22.5898 72.5957C22.5898 73.5391 22.8209 74.6003 23.052 75.5436C23.3986 76.487 23.8608 77.4303 24.3229 78.2557C24.9006 79.0812 25.5938 79.7887 26.4026 80.3783C27.2114 80.9678 28.0201 81.4395 28.8289 81.7933C32.295 83.3262 35.8767 83.4441 39.3429 83.2083C40.6138 83.0904 41.8847 82.9724 43.0401 82.7366C43.2712 83.3262 43.5022 83.9158 43.8489 84.3874C45.1198 87.0995 46.7373 89.8116 48.9325 91.9342C50.0879 92.9954 51.3588 93.9387 52.7453 94.5283C54.2473 95.1179 55.9804 95.1179 57.4823 94.7642C60.6019 93.9387 62.9126 91.5804 64.7613 89.1041C66.6099 86.6279 67.8808 83.7979 68.9206 80.8499C70.1915 77.4303 71.1158 73.7749 71.6935 70.2374C72.5023 69.6478 73.1955 69.1761 73.8888 68.5865L74.1198 70.4732L80.821 59.5069L73.3111 62.3369L73.5421 64.1057C73.08 64.5773 72.5023 64.9311 72.0402 65.4028L71.0003 66.2282C69.4983 67.4074 67.9963 68.5865 66.3788 69.6478C63.6059 71.4165 60.7174 73.0674 57.7134 74.4824C56.9047 74.8361 56.2114 75.1899 55.4027 75.5436C53.323 74.6003 51.2433 73.5391 49.1636 72.3599C43.3867 69.0582 38.072 65.049 33.4504 60.3323C32.7572 59.6248 32.1795 58.9173 31.4863 58.2098C32.1795 57.3844 32.9883 56.559 33.6815 55.7335C38.303 50.8989 43.7333 46.8897 49.3947 43.5881C51.821 42.173 54.3628 40.876 57.0202 39.6968C62.566 42.291 67.8808 45.7106 72.6178 49.6018C75.1597 51.7243 77.4704 53.9648 79.6657 56.441C81.7454 58.9173 83.7095 61.5115 84.9804 64.4594C86.3669 67.2894 87.0601 70.4732 86.3669 73.0674C86.0203 74.3645 85.327 75.5436 84.2872 76.3691C83.7095 76.9587 83.0163 77.3124 82.2075 77.6662V76.2512L71.3469 81.0858L82.092 83.9158V81.6753C83.7095 81.0858 85.327 80.2603 86.598 79.0812C88.0999 77.7841 89.1398 75.8974 89.6019 73.8928C90.6418 71.7703 90.5263 69.7657 90.1796 67.879ZM68.2274 72.4778C68.6895 72.242 69.0362 71.8882 69.4983 71.6524C69.0362 74.2466 68.4585 76.9587 67.5342 79.4349C65.9166 79.0812 64.2991 78.7274 62.7971 78.2557C61.7573 77.902 60.7174 77.5482 59.6776 77.1945C62.6816 75.6616 65.57 74.1286 68.2274 72.4778ZM58.2911 77.7841C61.1796 78.8453 64.1836 79.7887 67.3031 80.3783C66.3788 83.0904 65.2234 85.6845 63.6059 88.0429C61.9883 90.4012 59.9087 92.6417 57.2513 93.4671C55.9804 93.8208 54.4784 93.8208 53.2074 93.3492C51.9365 92.8775 50.6656 92.0521 49.6258 90.9908C47.5461 88.9862 45.9285 86.392 44.6576 83.7979C44.4265 83.3262 44.1955 82.8545 43.9644 82.3829C45.813 82.0291 47.6616 81.5574 49.5102 81.0858C52.5142 80.1424 55.4027 79.0812 58.2911 77.7841ZM48.7015 73.3032C50.4345 74.2466 52.1676 75.1899 54.0162 75.8974C50.4345 77.4303 46.6218 78.6095 42.809 79.317C41.4226 75.5436 40.6138 71.6524 40.0361 67.7611C42.9246 69.8836 45.813 71.6524 48.7015 73.3032ZM32.5261 61.2757C34.6058 63.2802 36.801 65.1669 39.1118 66.9357C39.4584 69.8836 40.0361 72.7136 40.8449 75.5436C41.1915 76.8407 41.6536 78.2557 42.1158 79.5528C41.1915 79.6708 40.2672 79.7887 39.3429 79.9066C36.1078 80.1424 32.8727 80.0245 30.0998 78.8453C28.7134 78.2557 27.558 77.4303 26.6337 76.2512C26.2871 75.6616 25.9404 75.072 25.7094 74.3645C25.4783 73.657 25.3628 72.9495 25.3628 72.242C25.2472 69.1761 26.5181 66.1103 28.1357 63.2803C28.9444 61.8652 29.8687 60.5681 30.9086 59.2711C31.2552 60.0965 31.8329 60.6861 32.5261 61.2757ZM48.817 41.5835C42.809 44.8851 37.2632 48.8943 32.4106 53.8469C31.7174 54.5544 31.0241 55.3798 30.3309 56.0873C29.4066 54.9081 28.4823 53.611 27.6735 52.3139C26.056 49.4839 24.6695 46.4181 24.554 43.3522C24.554 42.5268 24.554 41.8193 24.7851 41.1118C25.0161 40.4043 25.1317 39.6968 25.5938 38.9893C26.2871 37.6922 27.4424 36.6309 28.7134 35.9234C31.3707 34.3905 34.6058 34.0368 37.8409 34.1547C38.7652 34.1547 39.6895 34.2726 40.4983 34.3905C40.3827 34.8622 40.1516 35.3338 40.0361 35.8055L37.8409 35.4518L39.5739 46.3002L45.5819 36.6309L43.7333 36.3951C43.8489 35.9234 44.0799 35.4518 44.1955 34.9801C45.2353 35.2159 46.2752 35.4518 47.315 35.6876C49.9724 36.3951 52.6298 37.3384 55.1716 38.5176C52.9764 39.461 50.8967 40.5222 48.817 41.5835ZM57.4823 36.6309C54.3628 35.3338 51.1278 34.1547 47.8927 33.3293C46.9684 33.0934 46.0441 32.8576 45.1198 32.7397C45.5819 31.5605 46.1596 30.4992 46.7373 29.3201C48.1238 26.8438 49.7413 24.6034 51.821 23.1884C53.9007 21.7734 56.2114 21.5375 58.4067 22.7167C60.6019 23.8959 62.4505 26.0184 63.9525 28.3767C65.1079 30.3813 66.1477 32.3859 66.9565 34.6263C64.1836 35.2159 61.4106 36.1593 58.6377 37.1026C58.1756 36.8668 57.829 36.7489 57.4823 36.6309ZM60.7174 38.1639C62.9126 37.3384 65.1079 36.6309 67.3031 36.1593C67.9963 38.3997 68.574 40.6401 69.1517 42.9985C66.4943 41.2297 63.6059 39.5789 60.7174 38.1639ZM82.323 54.0827C80.0123 51.4885 77.4704 49.1302 74.8131 47.0077C74.0043 46.3002 73.1955 45.7106 72.2712 45.121C72.2712 44.8851 72.1557 44.5314 72.1557 44.2956C71.6935 41.3476 71.1158 38.3997 70.3071 35.4518C72.8489 34.9801 75.3908 34.7443 77.9326 34.9801C79.5501 35.098 81.1677 35.3338 82.6697 35.9234C84.1717 36.513 85.5581 37.3384 86.598 38.5176C87.6378 39.6968 88.2155 41.2297 88.331 42.7626C88.4466 44.4135 88.2155 46.0643 87.7533 47.5972C86.9446 50.4273 85.327 53.0214 83.594 55.4977C83.1318 55.026 82.7852 54.5544 82.323 54.0827Z" fill="white"/>
<path d="M43.8485 62.5728C43.0397 62.5728 42.2309 62.3369 41.6533 62.1011L41.3066 62.9265C41.8843 63.2803 42.9242 63.7519 44.0796 63.7519C44.3106 63.7519 44.5417 63.7519 44.7728 63.634C46.3903 63.3982 47.5457 62.1011 47.5457 60.3323C47.5457 58.5636 46.6214 57.6202 45.3505 57.2665C46.3903 56.9127 47.1991 55.9694 47.1991 54.5544C47.1991 52.7856 45.9282 51.7244 44.1951 51.7244C43.1553 51.7244 42.1154 52.0781 41.5377 52.314L41.8843 53.3752C42.462 53.1394 43.2708 53.0215 43.8485 52.9035C45.0039 52.9035 45.9282 53.4931 45.9282 54.7902C45.9282 56.0873 44.8883 56.7948 43.8485 56.7948H43.1553H43.0397V57.8561H43.1553H43.7329C45.0039 57.8561 46.2748 58.4457 46.2748 60.2144C46.2748 61.7473 45.1194 62.5728 43.8485 62.5728Z" fill="white"/>
<path d="M67.9954 58.4457H67.8799V59.1532H67.9954H72.7325H72.848V58.4457H72.7325H67.9954Z" fill="white"/>
<path d="M50.8962 54.4365C51.3583 53.3752 52.2826 53.0215 53.2069 53.0215C54.1312 53.0215 54.8245 53.3752 55.2866 53.611L55.7488 52.5498C55.0555 52.0781 54.0157 51.7244 53.0914 51.7244C49.7408 51.7244 49.1631 55.6156 49.1631 57.974C49.1631 59.5069 49.3942 60.804 49.8563 61.8653C50.434 63.0444 51.4738 63.7519 52.7448 63.7519C54.5934 63.7519 55.8643 62.4548 56.0954 60.5682C56.0954 60.3323 56.2109 60.0965 56.2109 59.7427C56.2109 59.389 56.2109 59.1532 56.0954 58.9173C55.7488 57.0306 54.4778 55.9694 52.9758 55.9694C51.8205 55.9694 50.7806 56.559 50.434 57.5023V57.1486C50.3185 55.9694 50.5495 55.144 50.8962 54.4365ZM54.8245 59.8607C54.8245 61.3936 54.1312 62.6907 52.6292 62.6907C51.3583 62.6907 50.434 61.5115 50.434 59.9786C50.434 58.4456 51.3583 57.2665 52.6292 57.1486C54.1312 57.1486 54.8245 58.3277 54.8245 59.8607Z" fill="white"/>
<path d="M61.757 51.8423C61.6415 51.8423 61.6415 51.8423 61.757 51.8423C59.2152 51.8423 57.5977 54.4365 57.5977 57.8561C57.5977 61.2757 59.2152 63.8699 61.6415 63.8699C64.0678 63.8699 65.6853 61.2757 65.6853 57.8561C65.6853 54.4365 64.1833 51.8423 61.757 51.8423ZM59.0997 58.7994C59.0997 58.4457 59.0997 58.0919 59.0997 57.7382C59.0997 57.3844 59.0997 57.0306 59.0997 56.6769C59.3307 54.4365 60.255 52.9035 61.757 52.7856C63.4901 52.7856 64.4144 54.7902 64.4144 57.6202C64.4144 60.4502 63.3746 62.4548 61.757 62.4548C60.255 62.5728 59.2152 61.1577 59.0997 58.7994Z" fill="white"/>
<path d="M70.999 51.4885C70.768 51.4885 70.6524 51.3706 70.4213 51.3706C68.6883 51.3706 67.6484 52.6677 67.6484 54.4365C67.6484 56.2052 68.5727 57.5023 70.4213 57.5023C70.6524 57.5023 70.8835 57.5023 70.999 57.3844C72.3855 57.1486 73.0787 55.8515 73.0787 54.3185C73.0787 53.0214 72.3855 51.7244 70.999 51.4885ZM68.6883 54.5544C68.6883 53.2573 69.3815 52.3139 70.4213 52.3139C71.4612 52.3139 72.1544 53.2573 72.1544 54.5544C72.1544 55.8515 71.4612 56.7948 70.4213 56.7948C69.266 56.7948 68.6883 55.8515 68.6883 54.5544Z" fill="white"/>
<path d="M90.1796 67.879C89.833 65.9923 89.1398 64.3415 88.331 62.6907C87.1756 60.3323 85.7892 58.3277 84.2872 56.3231C86.1358 53.8469 87.8689 51.0168 88.9087 47.951C89.4864 46.3002 89.7175 44.5314 89.6019 42.6447C89.4864 40.876 88.7932 38.9893 87.6378 37.5743C86.4824 36.1593 84.8649 35.2159 83.2473 34.5084C81.6298 33.9188 79.8967 33.5651 78.1637 33.4472C75.3908 33.2113 72.6178 33.4472 69.9605 33.9188C69.1517 31.4426 68.1119 28.9663 66.7254 26.608C65.9166 25.193 64.9923 23.8959 63.9525 22.5988C62.9126 21.4196 61.6417 20.2404 60.0242 19.415C58.5222 18.5896 56.6736 18.1179 54.825 18.1179C52.9764 18.2358 51.2433 18.9433 49.7413 19.8867C46.8528 21.7734 44.8887 24.6034 43.3867 27.3155C42.5779 28.8484 41.8847 30.3813 41.307 32.0322C40.1516 31.9142 38.9963 31.7963 37.8409 31.7963C34.3747 31.7963 30.793 32.1501 27.6735 34.0368C26.056 34.9801 24.6695 36.2772 23.7452 38.0459C23.2831 38.8714 23.052 39.8147 22.8209 40.758C22.7054 41.7014 22.5898 42.6447 22.5898 43.5881C22.8209 47.2435 24.3229 50.5452 26.1715 53.4931C27.0958 54.9081 28.1357 56.3231 29.1755 57.7381C28.0201 59.1531 26.8648 60.6861 25.9404 62.219C24.0918 65.2848 22.5898 68.7044 22.5898 72.5957C22.5898 73.5391 22.8209 74.6003 23.052 75.5436C23.3986 76.487 23.8608 77.4303 24.3229 78.2557C24.9006 79.0812 25.5938 79.7887 26.4026 80.3783C27.2114 80.9678 28.0201 81.4395 28.8289 81.7933C32.295 83.3262 35.8767 83.4441 39.3429 83.2083C40.6138 83.0904 41.8847 82.9724 43.0401 82.7366C43.2712 83.3262 43.5022 83.9158 43.8489 84.3874C45.1198 87.0995 46.7373 89.8116 48.9325 91.9342C50.0879 92.9954 51.3588 93.9387 52.7453 94.5283C54.2473 95.1179 55.9804 95.1179 57.4823 94.7642C60.6019 93.9387 62.9126 91.5804 64.7613 89.1041C66.6099 86.6279 67.8808 83.7979 68.9206 80.8499C70.1915 77.4303 71.1158 73.7749 71.6935 70.2374C72.5023 69.6478 73.1955 69.1761 73.8888 68.5865L74.1198 70.4732L80.821 59.5069L73.3111 62.3369L73.5421 64.1057C73.08 64.5773 72.5023 64.9311 72.0402 65.4028L71.0003 66.2282C69.4983 67.4074 67.9963 68.5865 66.3788 69.6478C63.6059 71.4165 60.7174 73.0674 57.7134 74.4824C56.9047 74.8361 56.2114 75.1899 55.4027 75.5436C53.323 74.6003 51.2433 73.5391 49.1636 72.3599C43.3867 69.0582 38.072 65.049 33.4504 60.3323C32.7572 59.6248 32.1795 58.9173 31.4863 58.2098C32.1795 57.3844 32.9883 56.559 33.6815 55.7335C38.303 50.8989 43.7333 46.8897 49.3947 43.5881C51.821 42.173 54.3628 40.876 57.0202 39.6968C62.566 42.291 67.8808 45.7106 72.6178 49.6018C75.1597 51.7243 77.4704 53.9648 79.6657 56.441C81.7454 58.9173 83.7095 61.5115 84.9804 64.4594C86.3669 67.2894 87.0601 70.4732 86.3669 73.0674C86.0203 74.3645 85.327 75.5436 84.2872 76.3691C83.7095 76.9587 83.0163 77.3124 82.2075 77.6662V76.2512L71.3469 81.0858L82.092 83.9158V81.6753C83.7095 81.0858 85.327 80.2603 86.598 79.0812C88.0999 77.7841 89.1398 75.8974 89.6019 73.8928C90.6418 71.7703 90.5263 69.7657 90.1796 67.879ZM68.2274 72.4778C68.6895 72.242 69.0362 71.8882 69.4983 71.6524C69.0362 74.2466 68.4585 76.9587 67.5342 79.4349C65.9166 79.0812 64.2991 78.7274 62.7971 78.2557C61.7573 77.902 60.7174 77.5482 59.6776 77.1945C62.6816 75.6616 65.57 74.1286 68.2274 72.4778ZM58.2911 77.7841C61.1796 78.8453 64.1836 79.7887 67.3031 80.3783C66.3788 83.0904 65.2234 85.6845 63.6059 88.0429C61.9883 90.4012 59.9087 92.6417 57.2513 93.4671C55.9804 93.8208 54.4784 93.8208 53.2074 93.3492C51.9365 92.8775 50.6656 92.0521 49.6258 90.9908C47.5461 88.9862 45.9285 86.392 44.6576 83.7979C44.4265 83.3262 44.1955 82.8545 43.9644 82.3829C45.813 82.0291 47.6616 81.5574 49.5102 81.0858C52.5142 80.1424 55.4027 79.0812 58.2911 77.7841ZM48.7015 73.3032C50.4345 74.2466 52.1676 75.1899 54.0162 75.8974C50.4345 77.4303 46.6218 78.6095 42.809 79.317C41.4226 75.5436 40.6138 71.6524 40.0361 67.7611C42.9246 69.8836 45.813 71.6524 48.7015 73.3032ZM32.5261 61.2757C34.6058 63.2802 36.801 65.1669 39.1118 66.9357C39.4584 69.8836 40.0361 72.7136 40.8449 75.5436C41.1915 76.8407 41.6536 78.2557 42.1158 79.5528C41.1915 79.6708 40.2672 79.7887 39.3429 79.9066C36.1078 80.1424 32.8727 80.0245 30.0998 78.8453C28.7134 78.2557 27.558 77.4303 26.6337 76.2512C26.2871 75.6616 25.9404 75.072 25.7094 74.3645C25.4783 73.657 25.3628 72.9495 25.3628 72.242C25.2472 69.1761 26.5181 66.1103 28.1357 63.2803C28.9444 61.8652 29.8687 60.5681 30.9086 59.2711C31.2552 60.0965 31.8329 60.6861 32.5261 61.2757ZM48.817 41.5835C42.809 44.8851 37.2632 48.8943 32.4106 53.8469C31.7174 54.5544 31.0241 55.3798 30.3309 56.0873C29.4066 54.9081 28.4823 53.611 27.6735 52.3139C26.056 49.4839 24.6695 46.4181 24.554 43.3522C24.554 42.5268 24.554 41.8193 24.7851 41.1118C25.0161 40.4043 25.1317 39.6968 25.5938 38.9893C26.2871 37.6922 27.4424 36.6309 28.7134 35.9234C31.3707 34.3905 34.6058 34.0368 37.8409 34.1547C38.7652 34.1547 39.6895 34.2726 40.4983 34.3905C40.3827 34.8622 40.1516 35.3338 40.0361 35.8055L37.8409 35.4518L39.5739 46.3002L45.5819 36.6309L43.7333 36.3951C43.8489 35.9234 44.0799 35.4518 44.1955 34.9801C45.2353 35.2159 46.2752 35.4518 47.315 35.6876C49.9724 36.3951 52.6298 37.3384 55.1716 38.5176C52.9764 39.461 50.8967 40.5222 48.817 41.5835ZM57.4823 36.6309C54.3628 35.3338 51.1278 34.1547 47.8927 33.3293C46.9684 33.0934 46.0441 32.8576 45.1198 32.7397C45.5819 31.5605 46.1596 30.4992 46.7373 29.3201C48.1238 26.8438 49.7413 24.6034 51.821 23.1884C53.9007 21.7734 56.2114 21.5375 58.4067 22.7167C60.6019 23.8959 62.4505 26.0184 63.9525 28.3767C65.1079 30.3813 66.1477 32.3859 66.9565 34.6263C64.1836 35.2159 61.4106 36.1593 58.6377 37.1026C58.1756 36.8668 57.829 36.7489 57.4823 36.6309ZM60.7174 38.1639C62.9126 37.3384 65.1079 36.6309 67.3031 36.1593C67.9963 38.3997 68.574 40.6401 69.1517 42.9985C66.4943 41.2297 63.6059 39.5789 60.7174 38.1639ZM82.323 54.0827C80.0123 51.4885 77.4704 49.1302 74.8131 47.0077C74.0043 46.3002 73.1955 45.7106 72.2712 45.121C72.2712 44.8851 72.1557 44.5314 72.1557 44.2956C71.6935 41.3476 71.1158 38.3997 70.3071 35.4518C72.8489 34.9801 75.3908 34.7443 77.9326 34.9801C79.5501 35.098 81.1677 35.3338 82.6697 35.9234C84.1717 36.513 85.5581 37.3384 86.598 38.5176C87.6378 39.6968 88.2155 41.2297 88.331 42.7626C88.4466 44.4135 88.2155 46.0643 87.7533 47.5972C86.9446 50.4273 85.327 53.0214 83.594 55.4977C83.1318 55.026 82.7852 54.5544 82.323 54.0827Z" fill="white"/>
<path d="M43.8485 62.5728C43.0397 62.5728 42.2309 62.3369 41.6533 62.1011L41.3066 62.9265C41.8843 63.2803 42.9242 63.7519 44.0796 63.7519C44.3106 63.7519 44.5417 63.7519 44.7728 63.634C46.3903 63.3982 47.5457 62.1011 47.5457 60.3323C47.5457 58.5636 46.6214 57.6202 45.3505 57.2665C46.3903 56.9127 47.1991 55.9694 47.1991 54.5544C47.1991 52.7856 45.9282 51.7244 44.1951 51.7244C43.1553 51.7244 42.1154 52.0781 41.5377 52.314L41.8843 53.3752C42.462 53.1394 43.2708 53.0215 43.8485 52.9035C45.0039 52.9035 45.9282 53.4931 45.9282 54.7902C45.9282 56.0873 44.8883 56.7948 43.8485 56.7948H43.1553H43.0397V57.8561H43.1553H43.7329C45.0039 57.8561 46.2748 58.4457 46.2748 60.2144C46.2748 61.7473 45.1194 62.5728 43.8485 62.5728Z" fill="white"/>
<path d="M67.9954 58.4457H67.8799V59.1532H67.9954H72.7325H72.848V58.4457H72.7325H67.9954Z" fill="white"/>
<path d="M50.8962 54.4365C51.3583 53.3752 52.2826 53.0215 53.2069 53.0215C54.1312 53.0215 54.8245 53.3752 55.2866 53.611L55.7488 52.5498C55.0555 52.0781 54.0157 51.7244 53.0914 51.7244C49.7408 51.7244 49.1631 55.6156 49.1631 57.974C49.1631 59.5069 49.3942 60.804 49.8563 61.8653C50.434 63.0444 51.4738 63.7519 52.7448 63.7519C54.5934 63.7519 55.8643 62.4548 56.0954 60.5682C56.0954 60.3323 56.2109 60.0965 56.2109 59.7427C56.2109 59.389 56.2109 59.1532 56.0954 58.9173C55.7488 57.0306 54.4778 55.9694 52.9758 55.9694C51.8205 55.9694 50.7806 56.559 50.434 57.5023V57.1486C50.3185 55.9694 50.5495 55.144 50.8962 54.4365ZM54.8245 59.8607C54.8245 61.3936 54.1312 62.6907 52.6292 62.6907C51.3583 62.6907 50.434 61.5115 50.434 59.9786C50.434 58.4456 51.3583 57.2665 52.6292 57.1486C54.1312 57.1486 54.8245 58.3277 54.8245 59.8607Z" fill="white"/>
<path d="M61.757 51.8423C61.6415 51.8423 61.6415 51.8423 61.757 51.8423C59.2152 51.8423 57.5977 54.4365 57.5977 57.8561C57.5977 61.2757 59.2152 63.8699 61.6415 63.8699C64.0678 63.8699 65.6853 61.2757 65.6853 57.8561C65.6853 54.4365 64.1833 51.8423 61.757 51.8423ZM59.0997 58.7994C59.0997 58.4457 59.0997 58.0919 59.0997 57.7382C59.0997 57.3844 59.0997 57.0306 59.0997 56.6769C59.3307 54.4365 60.255 52.9035 61.757 52.7856C63.4901 52.7856 64.4144 54.7902 64.4144 57.6202C64.4144 60.4502 63.3746 62.4548 61.757 62.4548C60.255 62.5728 59.2152 61.1577 59.0997 58.7994Z" fill="white"/>
<path d="M70.999 51.4885C70.768 51.4885 70.6524 51.3706 70.4213 51.3706C68.6883 51.3706 67.6484 52.6677 67.6484 54.4365C67.6484 56.2052 68.5727 57.5023 70.4213 57.5023C70.6524 57.5023 70.8835 57.5023 70.999 57.3844C72.3855 57.1486 73.0787 55.8515 73.0787 54.3185C73.0787 53.0214 72.3855 51.7244 70.999 51.4885ZM68.6883 54.5544C68.6883 53.2573 69.3815 52.3139 70.4213 52.3139C71.4612 52.3139 72.1544 53.2573 72.1544 54.5544C72.1544 55.8515 71.4612 56.7948 70.4213 56.7948C69.266 56.7948 68.6883 55.8515 68.6883 54.5544Z" fill="white"/>
<path d="M90.1796 67.879C89.833 65.9923 89.1398 64.3415 88.331 62.6907C87.1756 60.3323 85.7892 58.3277 84.2872 56.3231C86.1358 53.8469 87.8689 51.0168 88.9087 47.951C89.4864 46.3002 89.7175 44.5314 89.6019 42.6447C89.4864 40.876 88.7932 38.9893 87.6378 37.5743C86.4824 36.1593 84.8649 35.2159 83.2473 34.5084C81.6298 33.9188 79.8967 33.5651 78.1637 33.4472C75.3908 33.2113 72.6178 33.4472 69.9605 33.9188C69.1517 31.4426 68.1119 28.9663 66.7254 26.608C65.9166 25.193 64.9923 23.8959 63.9525 22.5988C62.9126 21.4196 61.6417 20.2404 60.0242 19.415C58.5222 18.5896 56.6736 18.1179 54.825 18.1179C52.9764 18.2358 51.2433 18.9433 49.7413 19.8867C46.8528 21.7734 44.8887 24.6034 43.3867 27.3155C42.5779 28.8484 41.8847 30.3813 41.307 32.0322C40.1516 31.9142 38.9963 31.7963 37.8409 31.7963C34.3747 31.7963 30.793 32.1501 27.6735 34.0368C26.056 34.9801 24.6695 36.2772 23.7452 38.0459C23.2831 38.8714 23.052 39.8147 22.8209 40.758C22.7054 41.7014 22.5898 42.6447 22.5898 43.5881C22.8209 47.2435 24.3229 50.5452 26.1715 53.4931C27.0958 54.9081 28.1357 56.3231 29.1755 57.7381C28.0201 59.1531 26.8648 60.6861 25.9404 62.219C24.0918 65.2848 22.5898 68.7044 22.5898 72.5957C22.5898 73.5391 22.8209 74.6003 23.052 75.5436C23.3986 76.487 23.8608 77.4303 24.3229 78.2557C24.9006 79.0812 25.5938 79.7887 26.4026 80.3783C27.2114 80.9678 28.0201 81.4395 28.8289 81.7933C32.295 83.3262 35.8767 83.4441 39.3429 83.2083C40.6138 83.0904 41.8847 82.9724 43.0401 82.7366C43.2712 83.3262 43.5022 83.9158 43.8489 84.3874C45.1198 87.0995 46.7373 89.8116 48.9325 91.9342C50.0879 92.9954 51.3588 93.9387 52.7453 94.5283C54.2473 95.1179 55.9804 95.1179 57.4823 94.7642C60.6019 93.9387 62.9126 91.5804 64.7613 89.1041C66.6099 86.6279 67.8808 83.7979 68.9206 80.8499C70.1915 77.4303 71.1158 73.7749 71.6935 70.2374C72.5023 69.6478 73.1955 69.1761 73.8888 68.5865L74.1198 70.4732L80.821 59.5069L73.3111 62.3369L73.5421 64.1057C73.08 64.5773 72.5023 64.9311 72.0402 65.4028L71.0003 66.2282C69.4983 67.4074 67.9963 68.5865 66.3788 69.6478C63.6059 71.4165 60.7174 73.0674 57.7134 74.4824C56.9047 74.8361 56.2114 75.1899 55.4027 75.5436C53.323 74.6003 51.2433 73.5391 49.1636 72.3599C43.3867 69.0582 38.072 65.049 33.4504 60.3323C32.7572 59.6248 32.1795 58.9173 31.4863 58.2098C32.1795 57.3844 32.9883 56.559 33.6815 55.7335C38.303 50.8989 43.7333 46.8897 49.3947 43.5881C51.821 42.173 54.3628 40.876 57.0202 39.6968C62.566 42.291 67.8808 45.7106 72.6178 49.6018C75.1597 51.7243 77.4704 53.9648 79.6657 56.441C81.7454 58.9173 83.7095 61.5115 84.9804 64.4594C86.3669 67.2894 87.0601 70.4732 86.3669 73.0674C86.0203 74.3645 85.327 75.5436 84.2872 76.3691C83.7095 76.9587 83.0163 77.3124 82.2075 77.6662V76.2512L71.3469 81.0858L82.092 83.9158V81.6753C83.7095 81.0858 85.327 80.2603 86.598 79.0812C88.0999 77.7841 89.1398 75.8974 89.6019 73.8928C90.6418 71.7703 90.5263 69.7657 90.1796 67.879ZM68.2274 72.4778C68.6895 72.242 69.0362 71.8882 69.4983 71.6524C69.0362 74.2466 68.4585 76.9587 67.5342 79.4349C65.9166 79.0812 64.2991 78.7274 62.7971 78.2557C61.7573 77.902 60.7174 77.5482 59.6776 77.1945C62.6816 75.6616 65.57 74.1286 68.2274 72.4778ZM58.2911 77.7841C61.1796 78.8453 64.1836 79.7887 67.3031 80.3783C66.3788 83.0904 65.2234 85.6845 63.6059 88.0429C61.9883 90.4012 59.9087 92.6417 57.2513 93.4671C55.9804 93.8208 54.4784 93.8208 53.2074 93.3492C51.9365 92.8775 50.6656 92.0521 49.6258 90.9908C47.5461 88.9862 45.9285 86.392 44.6576 83.7979C44.4265 83.3262 44.1955 82.8545 43.9644 82.3829C45.813 82.0291 47.6616 81.5574 49.5102 81.0858C52.5142 80.1424 55.4027 79.0812 58.2911 77.7841ZM48.7015 73.3032C50.4345 74.2466 52.1676 75.1899 54.0162 75.8974C50.4345 77.4303 46.6218 78.6095 42.809 79.317C41.4226 75.5436 40.6138 71.6524 40.0361 67.7611C42.9246 69.8836 45.813 71.6524 48.7015 73.3032ZM32.5261 61.2757C34.6058 63.2802 36.801 65.1669 39.1118 66.9357C39.4584 69.8836 40.0361 72.7136 40.8449 75.5436C41.1915 76.8407 41.6536 78.2557 42.1158 79.5528C41.1915 79.6708 40.2672 79.7887 39.3429 79.9066C36.1078 80.1424 32.8727 80.0245 30.0998 78.8453C28.7134 78.2557 27.558 77.4303 26.6337 76.2512C26.2871 75.6616 25.9404 75.072 25.7094 74.3645C25.4783 73.657 25.3628 72.9495 25.3628 72.242C25.2472 69.1761 26.5181 66.1103 28.1357 63.2803C28.9444 61.8652 29.8687 60.5681 30.9086 59.2711C31.2552 60.0965 31.8329 60.6861 32.5261 61.2757ZM48.817 41.5835C42.809 44.8851 37.2632 48.8943 32.4106 53.8469C31.7174 54.5544 31.0241 55.3798 30.3309 56.0873C29.4066 54.9081 28.4823 53.611 27.6735 52.3139C26.056 49.4839 24.6695 46.4181 24.554 43.3522C24.554 42.5268 24.554 41.8193 24.7851 41.1118C25.0161 40.4043 25.1317 39.6968 25.5938 38.9893C26.2871 37.6922 27.4424 36.6309 28.7134 35.9234C31.3707 34.3905 34.6058 34.0368 37.8409 34.1547C38.7652 34.1547 39.6895 34.2726 40.4983 34.3905C40.3827 34.8622 40.1516 35.3338 40.0361 35.8055L37.8409 35.4518L39.5739 46.3002L45.5819 36.6309L43.7333 36.3951C43.8489 35.9234 44.0799 35.4518 44.1955 34.9801C45.2353 35.2159 46.2752 35.4518 47.315 35.6876C49.9724 36.3951 52.6298 37.3384 55.1716 38.5176C52.9764 39.461 50.8967 40.5222 48.817 41.5835ZM57.4823 36.6309C54.3628 35.3338 51.1278 34.1547 47.8927 33.3293C46.9684 33.0934 46.0441 32.8576 45.1198 32.7397C45.5819 31.5605 46.1596 30.4992 46.7373 29.3201C48.1238 26.8438 49.7413 24.6034 51.821 23.1884C53.9007 21.7734 56.2114 21.5375 58.4067 22.7167C60.6019 23.8959 62.4505 26.0184 63.9525 28.3767C65.1079 30.3813 66.1477 32.3859 66.9565 34.6263C64.1836 35.2159 61.4106 36.1593 58.6377 37.1026C58.1756 36.8668 57.829 36.7489 57.4823 36.6309ZM60.7174 38.1639C62.9126 37.3384 65.1079 36.6309 67.3031 36.1593C67.9963 38.3997 68.574 40.6401 69.1517 42.9985C66.4943 41.2297 63.6059 39.5789 60.7174 38.1639ZM82.323 54.0827C80.0123 51.4885 77.4704 49.1302 74.8131 47.0077C74.0043 46.3002 73.1955 45.7106 72.2712 45.121C72.2712 44.8851 72.1557 44.5314 72.1557 44.2956C71.6935 41.3476 71.1158 38.3997 70.3071 35.4518C72.8489 34.9801 75.3908 34.7443 77.9326 34.9801C79.5501 35.098 81.1677 35.3338 82.6697 35.9234C84.1717 36.513 85.5581 37.3384 86.598 38.5176C87.6378 39.6968 88.2155 41.2297 88.331 42.7626C88.4466 44.4135 88.2155 46.0643 87.7533 47.5972C86.9446 50.4273 85.327 53.0214 83.594 55.4977C83.1318 55.026 82.7852 54.5544 82.323 54.0827Z" fill="white"/>
<path d="M43.8485 62.5728C43.0397 62.5728 42.2309 62.3369 41.6533 62.1011L41.3066 62.9265C41.8843 63.2803 42.9242 63.7519 44.0796 63.7519C44.3106 63.7519 44.5417 63.7519 44.7728 63.634C46.3903 63.3982 47.5457 62.1011 47.5457 60.3323C47.5457 58.5636 46.6214 57.6202 45.3505 57.2665C46.3903 56.9127 47.1991 55.9694 47.1991 54.5544C47.1991 52.7856 45.9282 51.7244 44.1951 51.7244C43.1553 51.7244 42.1154 52.0781 41.5377 52.314L41.8843 53.3752C42.462 53.1394 43.2708 53.0215 43.8485 52.9035C45.0039 52.9035 45.9282 53.4931 45.9282 54.7902C45.9282 56.0873 44.8883 56.7948 43.8485 56.7948H43.1553H43.0397V57.8561H43.1553H43.7329C45.0039 57.8561 46.2748 58.4457 46.2748 60.2144C46.2748 61.7473 45.1194 62.5728 43.8485 62.5728Z" fill="white"/>
<path d="M67.9954 58.4457H67.8799V59.1532H67.9954H72.7325H72.848V58.4457H72.7325H67.9954Z" fill="white"/>
</g>
<defs>
<clipPath id="clip0_1711_138">
<rect width="68.283" height="77" fill="white" transform="translate(22.3584 18)"/>
</clipPath>
</defs>
</svg>
