<svg width="113" height="113" viewBox="0 0 113 113" fill="none" xmlns="http://www.w3.org/2000/svg">
<g opacity="0.4">
<rect width="112.845" height="112.845" rx="56.4222" fill="white"/>
</g>
<g clip-path="url(#clip0_1711_160)">
<path d="M79.6465 26H31.3535C28.4537 26 26 28.4537 26 31.3535V79.6465C26 82.6578 28.4537 85 31.3535 85H79.6465C82.6578 85 85 82.5463 85 79.6465V31.3535C85 28.4537 82.5463 26 79.6465 26ZM81.6541 79.6465C81.6541 80.7618 80.7618 81.6541 79.6465 81.6541H31.3535C30.2382 81.6541 29.3459 80.7618 29.3459 79.6465V31.3535C29.3459 30.2382 30.2382 29.3459 31.3535 29.3459H79.6465C80.7618 29.3459 81.6541 30.2382 81.6541 31.3535V79.6465Z" fill="white"/>
<path d="M55.5557 40.6106L37.7107 58.4556C36.7069 59.4594 37.3761 61.3554 38.9376 61.3554H72.1739C73.6238 61.3554 74.4045 59.5709 73.4007 58.4556L55.5557 40.6106Z" fill="white"/>
<path d="M73.8469 64.5897H37.2646V67.8241H73.8469V64.5897Z" fill="white"/>
</g>
<defs>
<clipPath id="clip0_1711_160">
<rect width="59" height="59" fill="white" transform="translate(26 26)"/>
</clipPath>
</defs>
</svg>
