<svg width="113" height="113" viewBox="0 0 113 113" fill="none" xmlns="http://www.w3.org/2000/svg">
<rect y="-0.00012207" width="112.845" height="112.845" rx="56.4222" fill="white" fill-opacity="0.4"/>
<g clip-path="url(#clip0_1711_5)">
<path d="M64.9094 37.2883C66.0231 37.2883 66.9141 36.3973 66.9141 35.2836V30.1828C66.9141 29.0914 66.0676 28.1559 64.9985 28.1113C63.8402 28.0668 62.9047 28.98 62.9047 30.116V35.2613C62.8824 36.3973 63.7957 37.2883 64.9094 37.2883Z" fill="white"/>
<path d="M56.2449 37.2883C57.3586 37.2883 58.2496 36.3973 58.2496 35.2836V30.1828C58.2496 29.0914 57.4032 28.1559 56.334 28.1113C55.1758 28.0668 54.2402 28.98 54.2402 30.116V35.2836C54.2402 36.3973 55.1535 37.2883 56.2449 37.2883Z" fill="white"/>
<path d="M47.6023 37.2883C48.716 37.2883 49.607 36.3973 49.607 35.2836V30.1828C49.607 29.0914 48.7606 28.1559 47.6914 28.1113C46.5332 28.0668 45.5977 28.98 45.5977 30.116V35.2836C45.5977 36.3973 46.4886 37.2883 47.6023 37.2883Z" fill="white"/>
<path d="M76.9373 69.0736L74.9994 29.626C74.9549 28.6905 74.1307 27.9555 73.2175 28C72.282 28.0446 71.5469 28.8464 71.5915 29.782L73.5293 69.2518C73.4625 78.7629 65.7111 86.4698 56.2 86.4698C46.6444 86.4698 38.8929 78.7184 38.8707 69.1627L40.8085 29.782C40.8531 28.8464 40.1403 28.0446 39.1825 28C38.2024 27.9555 37.4451 28.6683 37.4006 29.626L35.4404 69.1182V69.1405C35.4404 80.5894 44.751 89.9 56.2 89.9C67.6489 89.9 76.9595 80.5894 76.9595 69.1405C76.9595 69.1182 76.9373 69.0959 76.9373 69.0736Z" fill="white"/>
</g>
<defs>
<clipPath id="clip0_1711_5">
<rect width="41.5191" height="61.9" fill="white" transform="translate(35.4404 28)"/>
</clipPath>
</defs>
</svg>
