<svg width="18" height="18" viewBox="0 0 18 18" fill="none" xmlns="http://www.w3.org/2000/svg">
<path fill-rule="evenodd" clip-rule="evenodd" d="M13.6306 4.63063C14.1798 4.08146 15.0702 4.08146 15.6194 4.63063L15.0227 5.22725L15.6194 4.63063C16.1685 5.17981 16.1685 6.07019 15.6194 6.61937L15.0301 6.03011L15.6194 6.61937L8.30687 13.9319C7.75769 14.481 6.86731 14.481 6.31813 13.9319L2.38063 9.99437C1.83146 9.44519 1.83146 8.55481 2.38063 8.00563C2.92981 7.45646 3.82019 7.45646 4.36937 8.00563L7.3125 10.9488L13.6306 4.63063Z" fill="black"/>
<path fill-rule="evenodd" clip-rule="evenodd" d="M13.6306 4.63063C14.1798 4.08146 15.0702 4.08146 15.6194 4.63063L15.0227 5.22725L15.6194 4.63063C16.1685 5.17981 16.1685 6.07019 15.6194 6.61937L15.0301 6.03011L15.6194 6.61937L8.30687 13.9319C7.75769 14.481 6.86731 14.481 6.31813 13.9319L2.38063 9.99437C1.83146 9.44519 1.83146 8.55481 2.38063 8.00563C2.92981 7.45646 3.82019 7.45646 4.36937 8.00563L7.3125 10.9488L13.6306 4.63063Z" fill="url(#paint0_linear_4088_8835)"/>
<defs>
<linearGradient id="paint0_linear_4088_8835" x1="1.96875" y1="9.28125" x2="16.0313" y2="9.28125" gradientUnits="userSpaceOnUse">
<stop stop-color="#E26089"/>
<stop offset="1" stop-color="#BC67F7"/>
</linearGradient>
</defs>
</svg>
