<svg width="1366" height="116" viewBox="0 0 1366 116" fill="none" xmlns="http://www.w3.org/2000/svg">
<g clip-path="url(#clip0_4081_4454)">
<path d="M1123.09 35.8892C1233.45 35.3525 1331.01 69.4319 1366 86.5387V0H0V55.6796C66.3757 86.0021 128.286 98.0551 150.945 100.291C266.902 118.807 342.541 87.8805 365.866 70.1029C402.253 48.9039 443.338 30.1871 459.332 23.4785C575.689 -29.1164 742.395 25.2675 811.203 59.0338C909.167 100.895 974.643 86.5389 995.136 74.1282C1042.32 42.1955 1100.1 35.3303 1123.09 35.8892Z" fill="white"/>
<path d="M1123.14 45.8891C1231.71 45.3611 1327.76 78.9729 1361.61 95.5223L1366 97.67V86.5387C1363.09 85.1158 1359.75 83.5756 1356 81.9476C1314.69 64.0024 1224.27 35.3972 1123.09 35.8892C1100.1 35.3303 1042.32 42.1955 995.136 74.1282C974.643 86.5389 909.167 100.895 811.203 59.0338C777.917 42.6991 721.72 21.5395 659.396 10C606.83 0.267067 549.904 -2.62209 498.69 10C485.106 13.3478 471.924 17.7867 459.332 23.4785C443.338 30.1871 402.253 48.9039 365.866 70.1029C342.541 87.8805 266.902 118.807 150.945 100.291C128.286 98.0551 66.3757 86.0021 0 55.6796V66.6529C65.5548 95.9507 126.214 107.848 149.66 110.213C266.8 128.845 344.99 98.2099 371.413 78.4451C407.188 57.6509 447.545 39.2664 463.2 32.7002L463.326 32.6473L463.451 32.5909C518.989 7.48705 587.42 7.62912 651.39 18.7236C715.182 29.7874 773.156 51.5022 806.798 68.0111L807.033 68.1265L807.274 68.2294C907.119 110.894 976.196 97.2896 1000.32 82.6818L1000.53 82.5511L1000.74 82.4098C1045.69 51.9857 1101.23 45.3607 1122.85 45.8863L1122.99 45.8898L1123.14 45.8891Z" fill="white" fill-opacity="0.5"/>
</g>
<defs>
<clipPath id="clip0_4081_4454">
<rect width="1366" height="116" fill="white"/>
</clipPath>
</defs>
</svg>
