<svg width="80" height="80" viewBox="0 0 80 80" fill="none" xmlns="http://www.w3.org/2000/svg">
<path fill-rule="evenodd" clip-rule="evenodd" d="M31.8915 33.1385C31.8915 31.3633 33.3206 29.9242 35.1 29.9242H57.2486C59.0254 29.9242 60.4643 31.3606 60.4643 33.1385V48.0928C60.4643 49.8673 59.026 51.3071 57.2486 51.3071H35.1C33.32 51.3071 31.8915 49.8646 31.8915 48.0928V33.1385ZM35.1 31.3528C34.1138 31.3528 33.32 32.148 33.32 33.1385V48.0928C33.32 49.081 34.1143 49.8785 35.1 49.8785H57.2486C58.237 49.8785 59.0357 49.0783 59.0357 48.0928V33.1385C59.0357 32.1507 58.2375 31.3528 57.2486 31.3528H35.1Z" fill="#181818"/>
<path d="M55.2092 18.4741H37.7492L37.4549 19.1098L46.4578 22.0455L55.4635 19.0398L55.2092 18.4741Z" fill="#181818"/>
<path fill-rule="evenodd" clip-rule="evenodd" d="M74.7493 14.8841C74.7493 20.0112 70.5907 24.1698 65.4636 24.1698C65.223 24.1698 64.9846 24.1607 64.7486 24.1427V54.3857C64.7486 59.86 62.3895 63.4428 58.8581 65.616C55.3775 67.7579 50.8182 68.4973 46.4098 68.4873C42.2555 68.4799 37.5872 67.8651 33.9337 65.7987C30.2232 63.7001 27.6057 60.1248 27.6057 54.3857V18.84C27.6057 17.7132 28.2257 16.5804 29.1718 15.5593C30.131 14.5241 31.4969 13.5234 33.1649 12.65C36.5039 10.9017 41.141 9.6171 46.4115 9.6171C50.389 9.6171 53.9403 10.3487 56.8297 11.4605C58.1929 8.02697 61.5454 5.59839 65.4636 5.59839C70.5907 5.59839 74.7493 9.75696 74.7493 14.8841ZM56.4063 12.8285C56.2568 13.4897 56.1779 14.1777 56.1779 14.8841C56.1779 19.2735 59.2258 22.953 63.32 23.921V54.3857C63.32 59.367 61.2156 62.4878 58.1094 64.3993C54.9525 66.3421 50.7005 67.0685 46.4131 67.0587C42.3533 67.0516 37.9756 66.4435 34.637 64.5552C31.3554 62.6991 29.0343 59.588 29.0343 54.3857V18.84C29.0343 18.2296 29.3859 17.4302 30.2197 16.5302C31.0404 15.6444 32.2626 14.7351 33.8276 13.9156C36.9547 12.2782 41.3633 11.0457 46.4115 11.0457C50.2622 11.0457 53.6713 11.7629 56.4063 12.8285ZM70.0585 12.5259L64.6401 18.7583L60.9028 15.0193L61.9132 14.0094L64.5673 16.6647L68.9803 11.5886L70.0585 12.5259Z" fill="#181818"/>
<path d="M15.0617 13.1854C17.8355 11.5315 21.7135 10.1931 26.2077 9.7632L26.3438 11.1853C22.0409 11.5968 18.3696 12.8763 15.7933 14.4124C14.5041 15.1811 13.5095 16.0019 12.8457 16.7906C12.1736 17.5892 11.8915 18.2921 11.8915 18.84V54.3857C11.8915 58.9621 13.6846 61.905 16.3174 63.8052C18.9909 65.7349 22.5933 66.6323 26.2434 66.9353L26.1252 68.3589C22.3582 68.0462 18.457 67.1114 15.4813 64.9636C12.4648 62.7864 10.4629 59.4064 10.4629 54.3857V18.84C10.4629 17.8228 10.9684 16.8027 11.7527 15.8707C12.5454 14.9289 13.676 14.0116 15.0617 13.1854Z" fill="#181818"/>
</svg>
