<svg width="80" height="80" viewBox="0 0 80 80" fill="none" xmlns="http://www.w3.org/2000/svg">
<path d="M37.976 13.5714C31.3983 13.5714 26.4289 19.0633 26.4289 25.8514H27.8574C27.8574 19.7537 32.2823 14.9999 37.976 14.9999V13.5714Z" fill="#181818"/>
<path fill-rule="evenodd" clip-rule="evenodd" d="M24.286 49.9999H12.8574V47.1428H22.1431V28.5293C22.1431 17.9722 29.4123 9.28564 40.0441 9.28564C50.6805 9.28564 57.8574 17.9773 57.8574 28.5293V47.1428H67.1259V49.9999H54.286V58.575C54.286 60.153 53.0068 61.4322 51.4289 61.4322H47.1431V69.9721H45.7146V61.4322H32.8574V69.9558H31.4289V61.4322H27.1431C25.5652 61.4322 24.286 60.153 24.286 58.575V49.9999ZM23.5717 28.5293C23.5717 18.6194 30.336 10.7142 40.0441 10.7142C49.7476 10.7142 56.4289 18.6143 56.4289 28.5293V47.1428H23.5717V28.5293Z" fill="#181818"/>
</svg>
