<svg width="80" height="80" viewBox="0 0 80 80" fill="none" xmlns="http://www.w3.org/2000/svg">
<path d="M28.3646 12.3164C36.109 11.8751 43.8792 11.8753 51.6184 12.4017L51.6426 12.4033H51.7526V10.9747H51.6911C43.8991 10.4459 36.081 10.4463 28.2943 10.8896C23.0868 11.0265 18.7837 11.7332 15.7088 13.9586C12.5822 16.2214 10.8685 19.9402 10.5682 25.7301C9.80943 36.0423 9.70798 46.4728 10.9001 56.7712L10.9003 56.7726C11.4369 61.3262 13.4047 64.3014 16.3256 66.14C19.201 67.9498 22.9206 68.6074 26.8902 68.7312C36.371 69.3322 45.9504 69.3614 55.4383 68.3855C59.8051 67.9566 62.907 66.3671 64.9484 63.7657C66.9705 61.189 67.8754 57.7157 68.0656 53.6616C68.6386 46.1771 68.7244 38.68 68.3804 31.1849L66.9534 31.2503C67.295 38.6945 67.2094 46.1367 66.6404 53.563L66.6395 53.5737L66.639 53.5844C66.4567 57.4971 65.5899 60.6342 63.8246 62.8838C62.077 65.1107 59.3722 66.5639 55.2971 66.9639L55.2937 66.9642C45.9002 67.9306 36.3984 67.903 26.9692 67.3048L26.9577 67.304L26.9461 67.3037C23.063 67.1836 19.6441 66.5408 17.0866 64.931C14.572 63.3482 12.8112 60.7807 12.3191 56.6062C11.1402 46.4216 11.2385 36.0836 11.9935 25.8272L11.9945 25.8116C12.281 20.2631 13.8957 17.0342 16.5463 15.1159C19.2478 13.1608 23.1693 12.4526 28.3426 12.3174L28.3536 12.3171L28.3646 12.3164Z" fill="#181818"/>
<path d="M46.21 61.289H33.8405C32.5052 61.2307 31.6004 61.9537 30.965 62.7726C30.6494 63.1794 30.384 63.6286 30.1517 64.0476C30.0621 64.2093 29.9798 64.3617 29.9013 64.5072C29.766 64.7578 29.6417 64.9881 29.5099 65.2099L30.7381 65.9396C30.8832 65.6952 31.0335 65.4172 31.1794 65.1471C31.2549 65.0076 31.3293 64.8699 31.4011 64.7403C31.6238 64.3387 31.8468 63.9666 32.0937 63.6483C32.5804 63.021 33.0916 62.6826 33.7891 62.7167L33.8066 62.7176H46.2389L46.2537 62.717C46.962 62.6875 47.4711 63.0287 47.9529 63.6537C48.1982 63.9719 48.4196 64.344 48.6422 64.7472C48.7094 64.869 48.7786 64.9972 48.849 65.1275C49.0003 65.4079 49.1569 65.6981 49.3109 65.9556L50.537 65.2224C50.3988 64.9914 50.2685 64.7498 50.1266 64.4867C50.0528 64.3499 49.9756 64.2067 49.8928 64.0567C49.6614 63.6377 49.398 63.1883 49.0843 62.7815C48.4508 61.9597 47.5502 61.2391 46.21 61.289Z" fill="#181818"/>
<path d="M52.1101 55.575C53.9244 55.6036 53.9101 58.3036 52.1101 58.3322C50.3101 58.3036 50.2958 55.6036 52.1101 55.575Z" fill="#181818"/>
<path d="M26.3958 55.575C28.2101 55.6036 28.1958 58.3036 26.3958 58.3322C24.5958 58.3036 24.5815 55.6036 26.3958 55.575Z" fill="#181818"/>
<path d="M39.253 49.8607C41.0673 49.8893 41.053 52.5893 39.253 52.6179C37.453 52.5893 37.4387 49.8893 39.253 49.8607Z" fill="#181818"/>
<path d="M30.6815 49.8607C32.4958 49.8893 32.4815 52.5893 30.6815 52.6179C28.8815 52.5893 28.8673 49.8893 30.6815 49.8607Z" fill="#181818"/>
<path d="M22.1101 49.8607C23.9244 49.8893 23.9101 52.5893 22.1101 52.6179C20.3101 52.5893 20.2958 49.8893 22.1101 49.8607Z" fill="#181818"/>
<path d="M47.8244 49.8607C49.6387 49.8893 49.6244 52.5893 47.8244 52.6179C46.0244 52.5893 46.0101 49.8893 47.8244 49.8607Z" fill="#181818"/>
<path d="M56.3958 49.8607C58.2101 49.8893 58.1958 52.5893 56.3958 52.6179C54.5958 52.5893 54.5815 49.8893 56.3958 49.8607Z" fill="#181818"/>
<path d="M52.1101 44.1465C53.9244 44.175 53.9101 46.875 52.1101 46.9036C50.3101 46.875 50.2958 44.175 52.1101 44.1465Z" fill="#181818"/>
<path d="M34.9673 44.1465C36.7815 44.175 36.7673 46.875 34.9673 46.9036C33.1672 46.875 33.153 44.175 34.9673 44.1465Z" fill="#181818"/>
<path d="M26.3958 44.1465C28.2101 44.175 28.1958 46.875 26.3958 46.9036C24.5958 46.875 24.5815 44.175 26.3958 44.1465Z" fill="#181818"/>
<path d="M17.8244 44.1465C19.6387 44.175 19.6244 46.875 17.8244 46.9036C16.0244 46.875 16.0101 44.175 17.8244 44.1465Z" fill="#181818"/>
<path d="M43.5387 44.1465C45.353 44.175 45.3387 46.875 43.5387 46.9036C41.7387 46.875 41.7244 44.175 43.5387 44.1465Z" fill="#181818"/>
<path d="M39.253 38.4322C41.0673 38.4607 41.053 41.1608 39.253 41.1893C37.453 41.1608 37.4387 38.4607 39.253 38.4322Z" fill="#181818"/>
<path d="M47.8244 38.4322C49.6387 38.4607 49.6244 41.1608 47.8244 41.1893C46.0244 41.1608 46.0101 38.4607 47.8244 38.4322Z" fill="#181818"/>
<path d="M30.6815 38.4322C32.4958 38.4607 32.4815 41.1608 30.6815 41.1893C28.8815 41.1608 28.8673 38.4607 30.6815 38.4322Z" fill="#181818"/>
<path d="M56.3958 38.4322C58.2101 38.4607 58.1958 41.1608 56.3958 41.1893C54.5958 41.1608 54.5815 38.4607 56.3958 38.4322Z" fill="#181818"/>
<path d="M22.1101 38.4322C23.9244 38.4607 23.9101 41.1608 22.1101 41.1893C20.3101 41.1608 20.2958 38.4607 22.1101 38.4322Z" fill="#181818"/>
<path d="M34.9673 32.7179C36.7815 32.7465 36.7673 35.4465 34.9673 35.475C33.1672 35.4465 33.153 32.7465 34.9673 32.7179Z" fill="#181818"/>
<path d="M26.3958 32.7179C28.2101 32.7465 28.1958 35.4465 26.3958 35.475C24.5958 35.4465 24.5815 32.7465 26.3958 32.7179Z" fill="#181818"/>
<path d="M17.8244 32.7179C19.6387 32.7465 19.6244 35.4465 17.8244 35.475C16.0244 35.4465 16.0101 32.7465 17.8244 32.7179Z" fill="#181818"/>
<path d="M43.5387 32.7179C45.353 32.7465 45.3387 35.4465 43.5387 35.475C41.7387 35.4465 41.7244 32.7465 43.5387 32.7179Z" fill="#181818"/>
<path d="M52.1101 32.7179C53.9244 32.7465 53.9101 35.4465 52.1101 35.475C50.3101 35.4465 50.2958 32.7465 52.1101 32.7179Z" fill="#181818"/>
<path d="M60.6815 32.7179C62.4958 32.7465 62.4815 35.4465 60.6815 35.475C58.8815 35.4465 58.8673 32.7465 60.6815 32.7179Z" fill="#181818"/>
<path d="M22.1101 27.0036C23.9244 27.0322 23.9101 29.7322 22.1101 29.7608C20.3101 29.7322 20.2958 27.0322 22.1101 27.0036Z" fill="#181818"/>
<path d="M47.8244 27.0036C49.6387 27.0322 49.6244 29.7322 47.8244 29.7608C46.0244 29.7322 46.0101 27.0322 47.8244 27.0036Z" fill="#181818"/>
<path d="M56.3958 27.0036C58.2101 27.0322 58.1958 29.7322 56.3958 29.7608C54.5958 29.7322 54.5815 27.0322 56.3958 27.0036Z" fill="#181818"/>
<path d="M39.253 27.0036C41.0673 27.0322 41.053 29.7322 39.253 29.7608C37.453 29.7322 37.4387 27.0322 39.253 27.0036Z" fill="#181818"/>
<path d="M30.6815 27.0036C32.4958 27.0322 32.4815 29.7322 30.6815 29.7608C28.8815 29.7322 28.8673 27.0322 30.6815 27.0036Z" fill="#181818"/>
<path d="M43.5387 21.2893C45.353 21.3179 45.3387 24.0179 43.5387 24.0465C41.7387 24.0179 41.7244 21.3179 43.5387 21.2893Z" fill="#181818"/>
<path d="M52.1101 21.2893C53.9244 21.3179 53.9101 24.0179 52.1101 24.0465C50.3101 24.0179 50.2958 21.3179 52.1101 21.2893Z" fill="#181818"/>
<path d="M34.9673 21.2893C36.7815 21.3179 36.7673 24.0179 34.9673 24.0465C33.1672 24.0179 33.153 21.3179 34.9673 21.2893Z" fill="#181818"/>
<path d="M26.3958 21.2893C28.2101 21.3179 28.1958 24.0179 26.3958 24.0465C24.5958 24.0179 24.5815 21.3179 26.3958 21.2893Z" fill="#181818"/>
<path d="M62.1527 45.5174C62.1241 43.7174 59.4242 43.7174 59.3956 45.5174C59.4242 47.346 62.1241 47.346 62.1527 45.5174Z" fill="#181818"/>
<path d="M64.2282 7.14289V2.85718H62.7996V7.14289H64.2282Z" fill="#181818"/>
<path d="M71.1017 9.79383L74.7159 6.2224L73.7118 5.20624L70.0976 8.77767L71.1017 9.79383Z" fill="#181818"/>
<path d="M72.8567 18.5715H77.0853V17.1429H72.8567V18.5715Z" fill="#181818"/>
<path d="M69.9996 17.1289C69.9996 21.0718 66.7996 24.2718 62.8567 24.2718C58.9139 24.2718 55.7139 21.0718 55.7139 17.1289C55.7139 13.1861 58.9139 9.98608 62.8567 9.98608C66.7996 9.98608 69.9996 13.1861 69.9996 17.1289Z" fill="#181818"/>
</svg>
