<svg width="80" height="80" viewBox="0 0 80 80" fill="none" xmlns="http://www.w3.org/2000/svg">
<path fill-rule="evenodd" clip-rule="evenodd" d="M8.57129 28.5715C8.57129 17.5273 17.5244 8.57153 28.5689 8.57153C39.6156 8.57153 48.5713 17.5271 48.5713 28.5715C48.5713 30.2942 48.3535 31.966 47.944 33.5608L46.6263 33.9497L46.6521 33.8622C46.0076 33.7372 45.5007 33.3818 45.1327 32.7926C44.6623 32.0456 44.4283 30.937 44.4283 29.4738C44.4283 27.9987 44.6623 26.8948 45.1327 26.1455C45.5772 25.4315 46.2243 25.0609 47.0719 25.0255C45.4128 16.3198 37.7593 9.73744 28.5689 9.73744C19.4297 9.73744 11.8111 16.2495 10.0977 24.886L10.2225 24.8269H11.3832V32.422H13.1703V33.3982H10.3612C12.4924 41.4621 19.8365 47.4056 28.5689 47.4056C28.6971 47.4056 28.8251 47.4043 28.9528 47.4018V41.8159L26.7828 42.8584V41.7427L28.941 40.7144H30.104V47.344C33.8088 47.0452 37.211 45.6747 39.9999 43.5426V44.9862C36.7597 47.2462 32.819 48.5715 28.5689 48.5715C17.5244 48.5715 8.57129 39.6183 8.57129 28.5715ZM47.2082 25.9445L47.2236 25.9446C47.3306 26.7114 47.3915 27.493 47.4033 28.2865L45.7071 30.989C45.6338 30.5162 45.5984 30.0056 45.5984 29.4738C45.5984 28.2777 45.7307 27.3959 46.0002 26.8121C46.265 26.2329 46.6692 25.9445 47.2082 25.9445ZM45.9719 32.0456L47.3635 29.8376C47.2928 30.9029 47.1335 31.9439 46.893 32.9533C46.5086 32.8502 46.2008 32.5485 45.9719 32.0456ZM9.73719 28.5715C9.73719 27.7277 9.79269 26.8968 9.90025 26.0823L10.2344 25.9214V32.422H10.131C9.87286 31.179 9.73719 29.8911 9.73719 28.5715Z" fill="#181818"/>
<path d="M39.9999 39.3427V40.0993H35.5997V39.3427H37.4104V32.6225L35.2451 33.6649V32.5516L37.3986 31.528H38.3774V39.3427H39.9999Z" fill="#181818"/>
<path d="M29.8279 17.5404V9.94295H28.6649L26.5091 10.9689V12.087L28.6767 11.0421V17.5404H26.866V18.5143H31.615V17.5404H29.8279Z" fill="#181818"/>
<path fill-rule="evenodd" clip-rule="evenodd" d="M37.591 16.1275C38.5129 16.1275 39.2079 16.501 39.6759 17.2527C40.144 18.0044 40.3803 19.1059 40.3803 20.5762C40.3803 22.0418 40.144 23.1505 39.6759 23.8975C39.2079 24.6515 38.5129 25.0226 37.591 25.0226C36.6762 25.0226 35.9859 24.6515 35.5132 23.8975C35.0451 23.1505 34.8111 22.0418 34.8111 20.5762C34.8111 19.1059 35.0451 18.0044 35.5132 17.2527C35.9859 16.501 36.6762 16.1275 37.591 16.1275ZM39.0944 18.8577L36.3547 23.1505C36.6431 23.7864 37.0568 24.1031 37.591 24.1031C38.1394 24.1031 38.5436 23.81 38.8131 23.2308C39.0802 22.6541 39.215 21.7653 39.215 20.5762C39.215 19.9427 39.1724 19.373 39.0944 18.8577ZM37.591 17.047C37.052 17.047 36.6455 17.3401 36.3831 17.9169C36.1136 18.4984 35.9812 19.3849 35.9812 20.5762C35.9812 21.1152 36.0167 21.6234 36.09 22.0962L38.7753 17.8129C38.4845 17.3023 38.0874 17.047 37.591 17.047Z" fill="#181818"/>
<path fill-rule="evenodd" clip-rule="evenodd" d="M21.256 17.2884C20.788 16.5367 20.093 16.1632 19.1711 16.1632C18.2587 16.1632 17.5637 16.5367 17.0933 17.2884C16.6229 18.0401 16.3936 19.1464 16.3936 20.6119C16.3936 22.0799 16.6229 23.1862 17.0933 23.9379C17.5637 24.6872 18.2587 25.0654 19.1711 25.0654C20.093 25.0654 20.788 24.6872 21.256 23.9379C21.7264 23.1862 21.9628 22.0799 21.9628 20.6119C21.9628 19.1464 21.7264 18.0401 21.256 17.2884ZM17.9348 23.1862L20.6793 18.8934C20.7525 19.4111 20.7927 19.9784 20.7927 20.6119C20.7927 21.801 20.6603 22.6874 20.3932 23.2689C20.1261 23.8504 19.7219 24.1388 19.1711 24.1388C18.6369 24.1388 18.2256 23.822 17.9348 23.1862ZM17.9632 17.9573C18.2279 17.3758 18.6322 17.0874 19.1711 17.0874C19.6675 17.0874 20.0647 17.3451 20.3554 17.8533L17.6701 22.1343C17.5968 21.6615 17.5637 21.1556 17.5637 20.6119C17.5637 19.4229 17.6961 18.5365 17.9632 17.9573Z" fill="#181818"/>
<path fill-rule="evenodd" clip-rule="evenodd" d="M28.8582 25.0308C29.7801 25.0308 30.4751 25.4019 30.9432 26.1536C31.4136 26.9029 31.65 28.0068 31.65 29.4819C31.65 30.9451 31.4136 32.0538 30.9432 32.8007C30.4751 33.5501 29.7801 33.9212 28.8582 33.9212C27.9434 33.9212 27.2508 33.5501 26.7828 32.8007C26.3124 32.0538 26.0784 30.9451 26.0784 29.4819C26.0784 28.0068 26.3124 26.9029 26.7828 26.1536C27.2508 25.4019 27.9434 25.0308 28.8582 25.0308ZM30.3664 27.7586L27.6219 32.0538C27.9103 32.6873 28.324 33.0017 28.8582 33.0017C29.409 33.0017 29.8109 32.7156 30.0827 32.1318C30.3475 31.5526 30.4822 30.6709 30.4822 29.4819C30.4822 28.846 30.4397 28.2716 30.3664 27.7586ZM28.8582 25.9527C28.3193 25.9527 27.9151 26.2411 27.6503 26.8202C27.3808 27.4041 27.2485 28.2858 27.2485 29.4819C27.2485 30.0137 27.2839 30.5243 27.3572 30.9971L30.0425 26.7185C29.7494 26.2103 29.3547 25.9527 28.8582 25.9527Z" fill="#181818"/>
<path d="M20.1441 39.1649V31.5628H18.9811L16.8229 32.5911V33.7068L18.9929 32.6643V39.1649H17.1822V40.1388H21.9288V39.1649H20.1441Z" fill="#181818"/>
<path d="M56.7031 44.2858V60.0001H57.5822V44.2858H56.7031Z" fill="#181818"/>
<path d="M59.3405 47.3588V56.5779H60.2196V47.3588H59.3405Z" fill="#181818"/>
<path d="M54.0658 56.5779V47.3588H54.9449V56.5779H54.0658Z" fill="#181818"/>
<path d="M61.9779 49.6636L61.9778 54.2731H62.857V49.6636H61.9779Z" fill="#181818"/>
<path d="M51.4284 54.2731V49.6636H52.3076V54.2731H51.4284Z" fill="#181818"/>
<path fill-rule="evenodd" clip-rule="evenodd" d="M56.5958 32.143L41.4284 36.6199V53.5427C41.4284 59.797 45.1885 64.4508 48.8736 67.5029C50.7232 69.0348 52.5763 70.1827 53.9789 70.9479C54.6807 71.3307 55.2721 71.619 55.6968 71.8126C55.909 71.9092 56.0813 71.9831 56.2063 72.0337C56.2683 72.0587 56.322 72.0794 56.3647 72.0946C56.3855 72.102 56.4086 72.1099 56.4314 72.1167C56.4424 72.12 56.4588 72.1246 56.4778 72.1289C56.4885 72.1314 56.5392 72.143 56.601 72.143C56.654 72.143 56.6974 72.1345 56.7064 72.1328C56.7149 72.1311 56.7239 72.1292 56.731 72.1276L56.7486 72.1234C56.7628 72.1199 56.7776 72.1158 56.7922 72.1117L56.8134 72.1055C56.8569 72.0926 56.9126 72.0747 56.9784 72.0525C57.1109 72.0078 57.2945 71.942 57.5216 71.8548C57.9761 71.6803 58.6102 71.4181 59.3636 71.064C60.8691 70.3563 62.8603 69.2771 64.8487 67.7905C68.8127 64.8269 72.857 60.1703 72.857 53.5427V36.6118L56.5958 32.143ZM42.5191 37.475L56.6061 33.3169L71.7664 37.4831V53.5427C71.7664 59.6387 68.0536 63.9992 64.2113 66.8719C62.2966 68.3034 60.3725 69.347 58.9137 70.0327C58.185 70.3752 57.5748 70.6273 57.1433 70.793C56.9274 70.8759 56.7576 70.9366 56.6411 70.9759L56.616 70.9843L56.6023 70.9788C56.4944 70.9352 56.3365 70.8677 56.1353 70.776C55.7332 70.5928 55.1649 70.316 54.4862 69.9458C53.1278 69.2047 51.3364 68.0944 49.5538 66.618C45.9743 63.6533 42.5191 59.2901 42.5191 53.5427V37.475Z" fill="#181818"/>
</svg>
