<svg width="80" height="80" viewBox="0 0 80 80" fill="none" xmlns="http://www.w3.org/2000/svg">
<path fill-rule="evenodd" clip-rule="evenodd" d="M47.1688 18.4382V8.43803L56.4402 5.91089L65.7074 8.43803V18.4922C67.352 18.7843 68.6059 20.2244 68.6059 21.9496V32.8596H11.4287V21.9496C11.4287 20.0144 13.0078 18.4382 14.943 18.4382H47.1688ZM65.62 19.9348C64.6781 26.4638 56.4402 29.208 56.4402 29.208C56.4402 29.208 48.1952 26.0879 47.2557 19.8668H14.943C13.7953 19.8668 12.8573 20.8048 12.8573 21.9496V31.431H67.1773V21.9496C67.1773 20.9864 66.5144 20.1699 65.62 19.9348ZM57.1581 18.4382L57.8555 11.1453C57.8612 11.0782 57.8627 11.001 57.8555 10.931C57.7969 10.3253 57.3341 9.94246 56.4384 9.94246C55.5412 9.94246 54.9612 10.541 55.0198 11.1453L55.7186 18.4382H57.1581ZM55.0098 22.7939C55.0098 22.0053 55.6469 21.3653 56.4369 21.3653C57.2284 21.3653 57.8669 22.0053 57.8669 22.7939C57.8669 23.5839 57.2284 24.2225 56.4369 24.2225C55.6469 24.2225 55.0098 23.5839 55.0098 22.7939Z" fill="#181818"/>
<path d="M55.4373 39.951H24.3573V41.3796H55.4373V39.951Z" fill="#181818"/>
<path fill-rule="evenodd" clip-rule="evenodd" d="M11.4287 48.5125V59.4225C11.4287 61.3577 13.0078 62.9339 14.943 62.9339H65.0916C67.0284 62.9339 68.6059 61.3574 68.6059 59.4225V48.5125H11.4287ZM12.8573 59.4225V49.941H67.1773V59.4225C67.1773 60.5675 66.2404 61.5053 65.0916 61.5053H14.943C13.7953 61.5053 12.8573 60.5673 12.8573 59.4225Z" fill="#181818"/>
</svg>
