<svg width="80" height="80" viewBox="0 0 80 80" fill="none" xmlns="http://www.w3.org/2000/svg">
<path d="M66.8831 20.3516C61.4864 12.9408 53.1213 7.82847 43.5077 6.83057L43.3602 8.2515C52.5537 9.2058 60.5595 14.0948 65.7283 21.1925L66.8831 20.3516Z" fill="#181818"/>
<path d="M36.5821 6.83072C26.9733 7.82699 18.6116 12.9361 13.2148 20.3386L14.3692 21.1802C19.538 14.0903 27.5408 9.20439 36.7294 8.25167L36.5821 6.83072Z" fill="#181818"/>
<path d="M44.286 25.7142C44.286 28.0811 42.3672 29.9999 40.0003 29.9999C37.6334 29.9999 35.7146 28.0811 35.7146 25.7142C35.7146 23.3472 37.6334 21.4285 40.0003 21.4285C42.3672 21.4285 44.286 23.3472 44.286 25.7142Z" fill="#181818"/>
<path fill-rule="evenodd" clip-rule="evenodd" d="M40.0003 16.4288C26.9822 16.4288 16.4289 26.9821 16.4289 40.0002C16.4289 53.0183 26.9822 63.5716 40.0003 63.5716C53.0185 63.5716 63.5717 53.0183 63.5717 40.0002C63.5717 26.9821 53.0185 16.4288 40.0003 16.4288ZM17.8575 40.0002C17.8575 27.771 27.7711 17.8573 40.0003 17.8573C52.2295 17.8573 62.1432 27.771 62.1432 40.0002C62.1432 52.2294 52.2295 62.1431 40.0003 62.1431C27.7711 62.1431 17.8575 52.2294 17.8575 40.0002Z" fill="#181818"/>
<path d="M9.72829 26.3359C7.87953 30.469 6.8291 35.0398 6.8291 39.8649C6.8291 44.6819 7.87626 49.2461 9.72003 53.3774L11.0246 52.7952C9.25887 48.8388 8.25767 44.4724 8.25767 39.8649C8.25767 35.2496 9.26202 30.8769 11.0323 26.9192L9.72829 26.3359Z" fill="#181818"/>
<path d="M73.2594 39.8649C73.2594 35.0449 72.2122 30.4789 70.3667 26.3489L69.0624 26.9317C70.8296 30.8862 71.8308 35.2542 71.8308 39.8649C71.8308 44.4676 70.8312 48.8311 69.0701 52.7845L70.375 53.3657C72.2138 49.2379 73.2594 44.677 73.2594 39.8649Z" fill="#181818"/>
</svg>
