<svg width="86" height="20" viewBox="0 0 86 20" fill="none" xmlns="http://www.w3.org/2000/svg">
<path d="M9.88867 3.11523L4.21484 20H0.236328L7.67383 0.09375H10.2168L9.88867 3.11523ZM14.6328 20L8.93164 3.11523L8.58984 0.09375H11.1465L18.625 20H14.6328ZM14.373 12.6035V15.5703H3.69531V12.6035H14.373ZM24.6816 0.09375V20H20.9219V0.09375H24.6816ZM41.6621 20H37.3691L37.3965 17.0469H41.6621C42.8197 17.0469 43.7904 16.7917 44.5742 16.2812C45.3581 15.7617 45.9505 15.0189 46.3516 14.0527C46.7526 13.0775 46.9531 11.9108 46.9531 10.5527V9.52734C46.9531 8.47917 46.8392 7.55404 46.6113 6.75195C46.3835 5.94987 46.0462 5.27539 45.5996 4.72852C45.1621 4.18164 44.6198 3.76693 43.9727 3.48438C43.3255 3.20182 42.5827 3.06055 41.7441 3.06055H37.2871V0.09375H41.7441C43.0749 0.09375 44.2871 0.317057 45.3809 0.763672C46.4837 1.21029 47.4362 1.85286 48.2383 2.69141C49.0495 3.52083 49.6693 4.51432 50.0977 5.67188C50.5352 6.82943 50.7539 8.1237 50.7539 9.55469V10.5527C50.7539 11.9746 50.5352 13.2689 50.0977 14.4355C49.6693 15.5931 49.0495 16.5866 48.2383 17.416C47.4362 18.2454 46.4792 18.8835 45.3672 19.3301C44.2552 19.7767 43.0202 20 41.6621 20ZM39.4746 0.09375V20H35.7148V0.09375H39.4746ZM59.9004 20H55.6074L55.6348 17.0469H59.9004C61.0579 17.0469 62.0286 16.7917 62.8125 16.2812C63.5964 15.7617 64.1888 15.0189 64.5898 14.0527C64.9909 13.0775 65.1914 11.9108 65.1914 10.5527V9.52734C65.1914 8.47917 65.0775 7.55404 64.8496 6.75195C64.6217 5.94987 64.2845 5.27539 63.8379 4.72852C63.4004 4.18164 62.8581 3.76693 62.2109 3.48438C61.5638 3.20182 60.821 3.06055 59.9824 3.06055H55.5254V0.09375H59.9824C61.3132 0.09375 62.5254 0.317057 63.6191 0.763672C64.722 1.21029 65.6745 1.85286 66.4766 2.69141C67.2878 3.52083 67.9076 4.51432 68.3359 5.67188C68.7734 6.82943 68.9922 8.1237 68.9922 9.55469V10.5527C68.9922 11.9746 68.7734 13.2689 68.3359 14.4355C67.9076 15.5931 67.2878 16.5866 66.4766 17.416C65.6745 18.2454 64.7174 18.8835 63.6055 19.3301C62.4935 19.7767 61.2585 20 59.9004 20ZM57.7129 0.09375V20H53.9531V0.09375H57.7129ZM84.127 7.47656V2.48633L82.541 7.47656H81.5977L79.998 2.47266V7.47656H78.3574V0.09375H80.3809L82.0762 5.24805L83.8535 0.09375H85.7676V7.47656H84.127ZM77.373 0.09375V1.44727H75.541V7.44922H73.75V1.44727H71.8496V0.09375H77.373Z" fill="white"/>
</svg>
