<svg width="993" height="156" viewBox="0 0 993 156" fill="none" xmlns="http://www.w3.org/2000/svg">
<path d="M43.7461 103.883C47.2031 103.883 50.3086 103.209 53.0625 101.861C55.875 100.455 58.1309 98.5215 59.8301 96.0605C61.5879 93.5996 62.5547 90.7578 62.7305 87.5352H82.6816C82.5645 93.6875 80.748 99.2832 77.2324 104.322C73.7168 109.361 69.0586 113.375 63.2578 116.363C57.457 119.293 51.041 120.758 44.0098 120.758C36.7441 120.758 30.416 119.527 25.0254 117.066C19.6348 114.547 15.1523 111.09 11.5781 106.695C8.00391 102.301 5.30859 97.2324 3.49219 91.4902C1.73438 85.748 0.855469 79.5957 0.855469 73.0332V69.957C0.855469 63.3945 1.73438 57.2422 3.49219 51.5C5.30859 45.6992 8.00391 40.6016 11.5781 36.207C15.1523 31.8125 19.6348 28.3848 25.0254 25.9238C30.416 23.4043 36.7148 22.1445 43.9219 22.1445C51.5391 22.1445 58.2188 23.668 63.9609 26.7148C69.7031 29.7031 74.2148 33.8926 77.4961 39.2832C80.8359 44.6152 82.5645 50.8262 82.6816 57.916H62.7305C62.5547 54.4004 61.6758 51.2363 60.0938 48.4238C58.5703 45.5527 56.4023 43.2676 53.5898 41.5684C50.8359 39.8691 47.5254 39.0195 43.6582 39.0195C39.3809 39.0195 35.8359 39.8984 33.0234 41.6562C30.2109 43.3555 28.0137 45.6992 26.4316 48.6875C24.8496 51.6172 23.707 54.9277 23.0039 58.6191C22.3594 62.252 22.0371 66.0312 22.0371 69.957V73.0332C22.0371 76.959 22.3594 80.7676 23.0039 84.459C23.6484 88.1504 24.7617 91.4609 26.3438 94.3906C27.9844 97.2617 30.2109 99.5762 33.0234 101.334C35.8359 103.033 39.4102 103.883 43.7461 103.883ZM94.8984 72.5059V70.4844C94.8984 63.6289 95.8945 57.2715 97.8867 51.4121C99.8789 45.4941 102.75 40.3672 106.5 36.0312C110.309 31.6367 114.938 28.2383 120.387 25.8359C125.895 23.375 132.105 22.1445 139.02 22.1445C145.992 22.1445 152.203 23.375 157.652 25.8359C163.16 28.2383 167.818 31.6367 171.627 36.0312C175.436 40.3672 178.336 45.4941 180.328 51.4121C182.32 57.2715 183.316 63.6289 183.316 70.4844V72.5059C183.316 79.3613 182.32 85.7188 180.328 91.5781C178.336 97.4375 175.436 102.564 171.627 106.959C167.818 111.295 163.189 114.693 157.74 117.154C152.291 119.557 146.109 120.758 139.195 120.758C132.223 120.758 125.982 119.557 120.475 117.154C115.025 114.693 110.396 111.295 106.588 106.959C102.779 102.564 99.8789 97.4375 97.8867 91.5781C95.8945 85.7188 94.8984 79.3613 94.8984 72.5059ZM116.08 70.4844V72.5059C116.08 76.7832 116.52 80.8262 117.398 84.6348C118.277 88.4434 119.654 91.7832 121.529 94.6543C123.404 97.5254 125.807 99.7812 128.736 101.422C131.666 103.062 135.152 103.883 139.195 103.883C143.121 103.883 146.52 103.062 149.391 101.422C152.32 99.7812 154.723 97.5254 156.598 94.6543C158.473 91.7832 159.85 88.4434 160.729 84.6348C161.666 80.8262 162.135 76.7832 162.135 72.5059V70.4844C162.135 66.2656 161.666 62.2812 160.729 58.5312C159.85 54.7227 158.443 51.3535 156.51 48.4238C154.635 45.4941 152.232 43.209 149.303 41.5684C146.432 39.8691 143.004 39.0195 139.02 39.0195C135.035 39.0195 131.578 39.8691 128.648 41.5684C125.777 43.209 123.404 45.4941 121.529 48.4238C119.654 51.3535 118.277 54.7227 117.398 58.5312C116.52 62.2812 116.08 66.2656 116.08 70.4844ZM222.252 43.2383V119H201.07V23.9023H221.021L222.252 43.2383ZM218.824 67.9355L211.617 67.8477C211.617 61.2852 212.438 55.2207 214.078 49.6543C215.719 44.0879 218.121 39.2539 221.285 35.1523C224.449 30.9922 228.375 27.7988 233.062 25.5723C237.809 23.2871 243.287 22.1445 249.498 22.1445C253.834 22.1445 257.789 22.7891 261.363 24.0781C264.996 25.3086 268.131 27.2715 270.768 29.9668C273.463 32.6621 275.514 36.1191 276.92 40.3379C278.385 44.5566 279.117 49.6543 279.117 55.6309V119H257.936V57.4766C257.936 52.8477 257.232 49.2148 255.826 46.5781C254.479 43.9414 252.516 42.0664 249.938 40.9531C247.418 39.7812 244.4 39.1953 240.885 39.1953C236.9 39.1953 233.502 39.957 230.689 41.4805C227.936 43.0039 225.68 45.084 223.922 47.7207C222.164 50.3574 220.875 53.4043 220.055 56.8613C219.234 60.3184 218.824 64.0098 218.824 67.9355ZM277.799 62.3105L267.867 64.5078C267.867 58.7656 268.658 53.3457 270.24 48.248C271.881 43.0918 274.254 38.5801 277.359 34.7129C280.523 30.7871 284.42 27.7109 289.049 25.4844C293.678 23.2578 298.98 22.1445 304.957 22.1445C309.82 22.1445 314.156 22.8184 317.965 24.166C321.832 25.4551 325.113 27.5059 327.809 30.3184C330.504 33.1309 332.555 36.793 333.961 41.3047C335.367 45.7578 336.07 51.1484 336.07 57.4766V119H314.801V57.3887C314.801 52.584 314.098 48.8633 312.691 46.2266C311.344 43.5898 309.41 41.7734 306.891 40.7773C304.371 39.7227 301.354 39.1953 297.838 39.1953C294.557 39.1953 291.656 39.8105 289.137 41.041C286.676 42.2129 284.596 43.8828 282.896 46.0508C281.197 48.1602 279.908 50.5918 279.029 53.3457C278.209 56.0996 277.799 59.0879 277.799 62.3105ZM379.137 42.1836V155.562H357.955V23.9023H377.467L379.137 42.1836ZM441.1 70.5723V72.418C441.1 79.332 440.279 85.748 438.639 91.666C437.057 97.5254 434.684 102.652 431.52 107.047C428.414 111.383 424.576 114.752 420.006 117.154C415.436 119.557 410.162 120.758 404.186 120.758C398.268 120.758 393.082 119.674 388.629 117.506C384.234 115.279 380.514 112.145 377.467 108.102C374.42 104.059 371.959 99.3125 370.084 93.8633C368.268 88.3555 366.979 82.3203 366.217 75.7578V68.6387C366.979 61.666 368.268 55.3379 370.084 49.6543C371.959 43.9707 374.42 39.0781 377.467 34.9766C380.514 30.875 384.234 27.7109 388.629 25.4844C393.023 23.2578 398.15 22.1445 404.01 22.1445C409.986 22.1445 415.289 23.3164 419.918 25.6602C424.547 27.9453 428.443 31.2266 431.607 35.5039C434.771 39.7227 437.145 44.8203 438.727 50.7969C440.309 56.7148 441.1 63.3066 441.1 70.5723ZM419.918 72.418V70.5723C419.918 66.1777 419.508 62.1055 418.688 58.3555C417.867 54.5469 416.578 51.207 414.82 48.3359C413.062 45.4648 410.807 43.2383 408.053 41.6562C405.357 40.0156 402.105 39.1953 398.297 39.1953C394.547 39.1953 391.324 39.8398 388.629 41.1289C385.934 42.3594 383.678 44.0879 381.861 46.3145C380.045 48.541 378.639 51.1484 377.643 54.1367C376.646 57.0664 375.943 60.2598 375.533 63.7168V80.7676C376.236 84.9863 377.438 88.8535 379.137 92.3691C380.836 95.8848 383.238 98.6973 386.344 100.807C389.508 102.857 393.551 103.883 398.473 103.883C402.281 103.883 405.533 103.062 408.229 101.422C410.924 99.7812 413.121 97.5254 414.82 94.6543C416.578 91.7246 417.867 88.3555 418.688 84.5469C419.508 80.7383 419.918 76.6953 419.918 72.418ZM455.074 72.5059V70.4844C455.074 63.6289 456.07 57.2715 458.062 51.4121C460.055 45.4941 462.926 40.3672 466.676 36.0312C470.484 31.6367 475.113 28.2383 480.562 25.8359C486.07 23.375 492.281 22.1445 499.195 22.1445C506.168 22.1445 512.379 23.375 517.828 25.8359C523.336 28.2383 527.994 31.6367 531.803 36.0312C535.611 40.3672 538.512 45.4941 540.504 51.4121C542.496 57.2715 543.492 63.6289 543.492 70.4844V72.5059C543.492 79.3613 542.496 85.7188 540.504 91.5781C538.512 97.4375 535.611 102.564 531.803 106.959C527.994 111.295 523.365 114.693 517.916 117.154C512.467 119.557 506.285 120.758 499.371 120.758C492.398 120.758 486.158 119.557 480.65 117.154C475.201 114.693 470.572 111.295 466.764 106.959C462.955 102.564 460.055 97.4375 458.062 91.5781C456.07 85.7188 455.074 79.3613 455.074 72.5059ZM476.256 70.4844V72.5059C476.256 76.7832 476.695 80.8262 477.574 84.6348C478.453 88.4434 479.83 91.7832 481.705 94.6543C483.58 97.5254 485.982 99.7812 488.912 101.422C491.842 103.062 495.328 103.883 499.371 103.883C503.297 103.883 506.695 103.062 509.566 101.422C512.496 99.7812 514.898 97.5254 516.773 94.6543C518.648 91.7832 520.025 88.4434 520.904 84.6348C521.842 80.8262 522.311 76.7832 522.311 72.5059V70.4844C522.311 66.2656 521.842 62.2812 520.904 58.5312C520.025 54.7227 518.619 51.3535 516.686 48.4238C514.811 45.4941 512.408 43.209 509.479 41.5684C506.607 39.8691 503.18 39.0195 499.195 39.0195C495.211 39.0195 491.754 39.8691 488.824 41.5684C485.953 43.209 483.58 45.4941 481.705 48.4238C479.83 51.3535 478.453 54.7227 477.574 58.5312C476.695 62.2812 476.256 66.2656 476.256 70.4844ZM582.252 44.2051V119H561.07V23.9023H581.021L582.252 44.2051ZM578.473 67.9355L571.617 67.8477C571.676 61.1094 572.613 54.9277 574.43 49.3027C576.305 43.6777 578.883 38.8438 582.164 34.8008C585.504 30.7578 589.488 27.6523 594.117 25.4844C598.746 23.2578 603.902 22.1445 609.586 22.1445C614.156 22.1445 618.287 22.7891 621.979 24.0781C625.729 25.3086 628.922 27.3301 631.559 30.1426C634.254 32.9551 636.305 36.6172 637.711 41.1289C639.117 45.582 639.82 51.0605 639.82 57.5645V119H618.551V57.4766C618.551 52.9062 617.877 49.3027 616.529 46.666C615.24 43.9707 613.336 42.0664 610.816 40.9531C608.355 39.7812 605.279 39.1953 601.588 39.1953C597.955 39.1953 594.703 39.957 591.832 41.4805C588.961 43.0039 586.529 45.084 584.537 47.7207C582.604 50.3574 581.109 53.4043 580.055 56.8613C579 60.3184 578.473 64.0098 578.473 67.9355ZM703.365 120.758C696.334 120.758 689.977 119.615 684.293 117.33C678.668 114.986 673.863 111.734 669.879 107.574C665.953 103.414 662.936 98.5215 660.826 92.8965C658.717 87.2715 657.662 81.207 657.662 74.7031V71.1875C657.662 63.7461 658.746 57.0078 660.914 50.9727C663.082 44.9375 666.1 39.7812 669.967 35.5039C673.834 31.168 678.404 27.8574 683.678 25.5723C688.951 23.2871 694.664 22.1445 700.816 22.1445C707.613 22.1445 713.561 23.2871 718.658 25.5723C723.756 27.8574 727.975 31.0801 731.314 35.2402C734.713 39.3418 737.232 44.2344 738.873 49.918C740.572 55.6016 741.422 61.8711 741.422 68.7266V77.7793H667.945V62.5742H720.504V60.9043C720.387 57.0957 719.625 53.5215 718.219 50.1816C716.871 46.8418 714.791 44.1465 711.979 42.0957C709.166 40.0449 705.416 39.0195 700.729 39.0195C697.213 39.0195 694.078 39.7812 691.324 41.3047C688.629 42.7695 686.373 44.9082 684.557 47.7207C682.74 50.5332 681.334 53.9316 680.338 57.916C679.4 61.8418 678.932 66.2656 678.932 71.1875V74.7031C678.932 78.8633 679.488 82.7305 680.602 86.3047C681.773 89.8203 683.473 92.8965 685.699 95.5332C687.926 98.1699 690.621 100.25 693.785 101.773C696.949 103.238 700.553 103.971 704.596 103.971C709.693 103.971 714.234 102.945 718.219 100.895C722.203 98.8438 725.66 95.9434 728.59 92.1934L739.752 103.004C737.701 105.992 735.035 108.863 731.754 111.617C728.473 114.312 724.459 116.51 719.713 118.209C715.025 119.908 709.576 120.758 703.365 120.758ZM778.951 44.2051V119H757.77V23.9023H777.721L778.951 44.2051ZM775.172 67.9355L768.316 67.8477C768.375 61.1094 769.312 54.9277 771.129 49.3027C773.004 43.6777 775.582 38.8438 778.863 34.8008C782.203 30.7578 786.188 27.6523 790.816 25.4844C795.445 23.2578 800.602 22.1445 806.285 22.1445C810.855 22.1445 814.986 22.7891 818.678 24.0781C822.428 25.3086 825.621 27.3301 828.258 30.1426C830.953 32.9551 833.004 36.6172 834.41 41.1289C835.816 45.582 836.52 51.0605 836.52 57.5645V119H815.25V57.4766C815.25 52.9062 814.576 49.3027 813.229 46.666C811.939 43.9707 810.035 42.0664 807.516 40.9531C805.055 39.7812 801.979 39.1953 798.287 39.1953C794.654 39.1953 791.402 39.957 788.531 41.4805C785.66 43.0039 783.229 45.084 781.236 47.7207C779.303 50.3574 777.809 53.4043 776.754 56.8613C775.699 60.3184 775.172 64.0098 775.172 67.9355ZM901.734 23.9023V39.3711H848.121V23.9023H901.734ZM863.59 0.611328H884.771V92.7207C884.771 95.6504 885.182 97.9062 886.002 99.4883C886.881 101.012 888.082 102.037 889.605 102.564C891.129 103.092 892.916 103.355 894.967 103.355C896.432 103.355 897.838 103.268 899.186 103.092C900.533 102.916 901.617 102.74 902.438 102.564L902.525 118.736C900.768 119.264 898.717 119.732 896.373 120.143C894.088 120.553 891.451 120.758 888.463 120.758C883.6 120.758 879.293 119.908 875.543 118.209C871.793 116.451 868.863 113.609 866.754 109.684C864.645 105.758 863.59 100.543 863.59 94.0391V0.611328ZM971.432 93.248C971.432 91.1387 970.904 89.2344 969.85 87.5352C968.795 85.7773 966.773 84.1953 963.785 82.7891C960.855 81.3828 956.52 80.0938 950.777 78.9219C945.738 77.8086 941.109 76.4902 936.891 74.9668C932.73 73.3848 929.156 71.4805 926.168 69.2539C923.18 67.0273 920.865 64.3906 919.225 61.3438C917.584 58.2969 916.764 54.7812 916.764 50.7969C916.764 46.9297 917.613 43.2676 919.312 39.8105C921.012 36.3535 923.443 33.3066 926.607 30.6699C929.771 28.0332 933.609 25.9531 938.121 24.4297C942.691 22.9062 947.789 22.1445 953.414 22.1445C961.383 22.1445 968.209 23.4922 973.893 26.1875C979.635 28.8242 984.029 32.4277 987.076 36.998C990.123 41.5098 991.646 46.6074 991.646 52.291H970.465C970.465 49.7715 969.82 47.4277 968.531 45.2598C967.301 43.0332 965.426 41.2461 962.906 39.8984C960.387 38.4922 957.223 37.7891 953.414 37.7891C949.781 37.7891 946.764 38.375 944.361 39.5469C942.018 40.6602 940.26 42.125 939.088 43.9414C937.975 45.7578 937.418 47.75 937.418 49.918C937.418 51.5 937.711 52.9355 938.297 54.2246C938.941 55.4551 939.996 56.5977 941.461 57.6523C942.926 58.6484 944.918 59.5859 947.438 60.4648C950.016 61.3438 953.238 62.1934 957.105 63.0137C964.371 64.5371 970.611 66.5 975.826 68.9023C981.1 71.2461 985.143 74.293 987.955 78.043C990.768 81.7344 992.174 86.4219 992.174 92.1055C992.174 96.3242 991.266 100.191 989.449 103.707C987.691 107.164 985.113 110.182 981.715 112.76C978.316 115.279 974.244 117.242 969.498 118.648C964.811 120.055 959.537 120.758 953.678 120.758C945.064 120.758 937.77 119.234 931.793 116.188C925.816 113.082 921.275 109.127 918.17 104.322C915.123 99.459 913.6 94.4199 913.6 89.2051H934.078C934.312 93.1309 935.396 96.2656 937.33 98.6094C939.322 100.895 941.783 102.564 944.713 103.619C947.701 104.615 950.777 105.113 953.941 105.113C957.75 105.113 960.943 104.615 963.521 103.619C966.1 102.564 968.062 101.158 969.41 99.4004C970.758 97.584 971.432 95.5332 971.432 93.248Z" fill="#C4C4C4"/>
</svg>
