<svg width="75" height="54" viewBox="0 0 75 54" fill="none" xmlns="http://www.w3.org/2000/svg">
<g clip-path="url(#clip0_1401_47)">
<path d="M9.14426 15.9989V51.3287C9.14426 53.483 8.17872 54 6.50322 54H6.10564C4.40174 54 3.4646 53.4543 3.4646 51.3287V16.0277C2.15827 15.0798 0 12.466 0 10.1394V1.29255C0 0.459574 0.425975 0 1.27792 0H1.50511C2.35706 0 2.78304 0.430851 2.78304 1.29255V10.3117H4.91291V1.29255C4.91291 0.430851 5.33889 0 6.19084 0H6.41802C7.26997 0 7.69595 0.430851 7.69595 1.29255V10.3117H9.82582V1.29255C9.82582 0.430851 10.2518 0 11.1037 0H11.3025C12.1545 0 12.5805 0.459574 12.5805 1.29255V10.1394C12.5237 12.4372 10.3938 15.0223 9.14426 15.9989Z" fill="white"/>
<path d="M72.6428 53.9713H71.3649C69.1498 53.9713 68.8091 51.3 68.8091 47.9393V30.0734H65.1457L65.0889 17.4064C65.0889 9.50743 68.7239 0.20105 71.4501 0.20105H72.5576C74.1763 0.20105 74.9999 1.26382 74.9999 3.44679V51.9893C74.9715 53.4255 74.0627 53.9713 72.6428 53.9713Z" fill="white"/>
<path d="M52.9345 11.4893C48.7316 7.23825 43.1371 4.88293 37.1734 4.88293C31.2098 4.88293 25.6153 7.23825 21.4124 11.4893C17.2094 15.7404 14.8807 21.3989 14.8807 27.4308C14.8807 33.4627 17.2094 39.1212 21.4124 43.3723C25.6153 47.6234 31.2098 49.9787 37.1734 49.9787C43.1371 49.9787 48.7316 47.6234 52.9345 43.3723C57.1375 39.1212 59.4661 33.4627 59.4661 27.4308C59.4661 21.3989 57.1375 15.7404 52.9345 11.4893ZM48.2772 36.7085L47.0844 34.6691C46.5733 33.75 46.0905 32.8308 45.6361 31.9117H45.5793C45.2954 32.4574 44.8126 33.3766 44.0458 34.6978L42.9099 36.7085H38.4798L43.0803 29.8723L38.8205 23.4095H43.4495L44.699 25.6212C44.8978 25.9372 45.0966 26.3106 45.2954 26.7414C45.5225 27.1436 45.6929 27.517 45.8633 27.8617H45.9201C46.0621 27.517 46.2609 27.1436 46.4597 26.7414C46.6585 26.3393 46.8573 25.9659 47.056 25.65L48.2488 23.4383H52.5653L48.3056 29.9297L52.8493 36.7372H48.2772V36.7085Z" fill="white"/>
<path d="M29.632 32.996H20.588V29.86L28.596 17.456H33.356V30.028H36.016V32.996H33.356V37H29.632V32.996ZM29.716 30.028V26.724C29.716 24.4093 29.7533 22.2813 29.828 20.34H29.772C29.436 20.9933 28.988 21.796 28.428 22.748C27.8867 23.6813 27.4107 24.484 27 25.156L23.976 30.028H29.716Z" fill="#327896"/>
</g>
<defs>
<clipPath id="clip0_1401_47">
<rect width="75" height="54" fill="white"/>
</clipPath>
</defs>
</svg>
